{
  "parts": [
    [
      {
        "time": "2496i",
        "midiNote": 82,
        "velocity": 0.4566929133858268,
        "noteName": "A#5",
        "duration": "16i"
      },
      {
        "time": "2533i",
        "midiNote": 82,
        "velocity": 0.31496062992125984,
        "noteName": "A#5",
        "duration": "13i"
      },
      {
        "time": "2560i",
        "midiNote": 82,
        "velocity": 0.48031496062992124,
        "noteName": "A#5",
        "duration": "18i"
      },
      {
        "time": "2688i",
        "midiNote": 82,
        "velocity": 0.4566929133858268,
        "noteName": "A#5",
        "duration": "23i"
      },
      {
        "time": "2816i",
        "midiNote": 82,
        "velocity": 0.4330708661417323,
        "noteName": "A#5",
        "duration": "30i"
      },
      {
        "time": "2944i",
        "midiNote": 82,
        "velocity": 0.4566929133858268,
        "noteName": "A#5",
        "duration": "28i"
      },
      {
        "time": "3072i",
        "midiNote": 82,
        "velocity": 0.41732283464566927,
        "noteName": "A#5",
        "duration": "25i"
      },
      {
        "time": "3136i",
        "midiNote": 82,
        "velocity": 0.3779527559055118,
        "noteName": "A#5",
        "duration": "22i"
      },
      {
        "time": "3200i",
        "midiNote": 82,
        "velocity": 0.3937007874015748,
        "noteName": "A#5",
        "duration": "41i"
      },
      {
        "time": "3328i",
        "midiNote": 82,
        "velocity": 0.41732283464566927,
        "noteName": "A#5",
        "duration": "31i"
      },
      {
        "time": "3456i",
        "midiNote": 82,
        "velocity": 0.4330708661417323,
        "noteName": "A#5",
        "duration": "29i"
      },
      {
        "time": "3584i",
        "midiNote": 82,
        "velocity": 0.4566929133858268,
        "noteName": "A#5",
        "duration": "37i"
      },
      {
        "time": "3712i",
        "midiNote": 82,
        "velocity": 0.4015748031496063,
        "noteName": "A#5",
        "duration": "32i"
      },
      {
        "time": "3840i",
        "midiNote": 82,
        "velocity": 0.4015748031496063,
        "noteName": "A#5",
        "duration": "37i"
      },
      {
        "time": "3968i",
        "midiNote": 82,
        "velocity": 0.3937007874015748,
        "noteName": "A#5",
        "duration": "32i"
      },
      {
        "time": "4096i",
        "midiNote": 82,
        "velocity": 0.3937007874015748,
        "noteName": "A#5",
        "duration": "31i"
      },
      {
        "time": "4224i",
        "midiNote": 82,
        "velocity": 0.3779527559055118,
        "noteName": "A#5",
        "duration": "32i"
      },
      {
        "time": "4352i",
        "midiNote": 82,
        "velocity": 0.3937007874015748,
        "noteName": "A#5",
        "duration": "31i"
      },
      {
        "time": "4480i",
        "midiNote": 82,
        "velocity": 0.41732283464566927,
        "noteName": "A#5",
        "duration": "26i"
      },
      {
        "time": "4544i",
        "midiNote": 82,
        "velocity": 0.41732283464566927,
        "noteName": "A#5",
        "duration": "17i"
      },
      {
        "time": "4581i",
        "midiNote": 82,
        "velocity": 0.36220472440944884,
        "noteName": "A#5",
        "duration": "15i"
      },
      {
        "time": "4608i",
        "midiNote": 36,
        "velocity": 0.7952755905511811,
        "noteName": "C2",
        "duration": "19i"
      },
      {
        "time": "4608i",
        "midiNote": 82,
        "velocity": 0.4251968503937008,
        "noteName": "A#5",
        "duration": "21i"
      },
      {
        "time": "4672i",
        "midiNote": 82,
        "velocity": 0.3858267716535433,
        "noteName": "A#5",
        "duration": "17i"
      },
      {
        "time": "4709i",
        "midiNote": 82,
        "velocity": 0.3543307086614173,
        "noteName": "A#5",
        "duration": "15i"
      },
      {
        "time": "4736i",
        "midiNote": 37,
        "velocity": 0.7795275590551181,
        "noteName": "C#2",
        "duration": "21i"
      },
      {
        "time": "4736i",
        "midiNote": 82,
        "velocity": 0.4330708661417323,
        "noteName": "A#5",
        "duration": "21i"
      },
      {
        "time": "4800i",
        "midiNote": 36,
        "velocity": 0.7952755905511811,
        "noteName": "C2",
        "duration": "17i"
      },
      {
        "time": "4800i",
        "midiNote": 82,
        "velocity": 0.4251968503937008,
        "noteName": "A#5",
        "duration": "16i"
      },
      {
        "time": "4837i",
        "midiNote": 82,
        "velocity": 0.3779527559055118,
        "noteName": "A#5",
        "duration": "15i"
      },
      {
        "time": "4864i",
        "midiNote": 82,
        "velocity": 0.4251968503937008,
        "noteName": "A#5",
        "duration": "23i"
      },
      {
        "time": "4928i",
        "midiNote": 82,
        "velocity": 0.41732283464566927,
        "noteName": "A#5",
        "duration": "13i"
      },
      {
        "time": "4965i",
        "midiNote": 82,
        "velocity": 0.3858267716535433,
        "noteName": "A#5",
        "duration": "13i"
      },
      {
        "time": "4992i",
        "midiNote": 37,
        "velocity": 0.8976377952755905,
        "noteName": "C#2",
        "duration": "17i"
      },
      {
        "time": "4992i",
        "midiNote": 82,
        "velocity": 0.41732283464566927,
        "noteName": "A#5",
        "duration": "18i"
      },
      {
        "time": "5056i",
        "midiNote": 36,
        "velocity": 0.7165354330708661,
        "noteName": "C2",
        "duration": "16i"
      },
      {
        "time": "5056i",
        "midiNote": 82,
        "velocity": 0.3700787401574803,
        "noteName": "A#5",
        "duration": "16i"
      },
      {
        "time": "5093i",
        "midiNote": 82,
        "velocity": 0.3937007874015748,
        "noteName": "A#5",
        "duration": "16i"
      },
      {
        "time": "5120i",
        "midiNote": 36,
        "velocity": 0.7952755905511811,
        "noteName": "C2",
        "duration": "17i"
      },
      {
        "time": "5120i",
        "midiNote": 82,
        "velocity": 0.4251968503937008,
        "noteName": "A#5",
        "duration": "20i"
      },
      {
        "time": "5184i",
        "midiNote": 82,
        "velocity": 0.4251968503937008,
        "noteName": "A#5",
        "duration": "15i"
      },
      {
        "time": "5221i",
        "midiNote": 82,
        "velocity": 0.3700787401574803,
        "noteName": "A#5",
        "duration": "15i"
      },
      {
        "time": "5248i",
        "midiNote": 37,
        "velocity": 0.8976377952755905,
        "noteName": "C#2",
        "duration": "21i"
      },
      {
        "time": "5248i",
        "midiNote": 82,
        "velocity": 0.3700787401574803,
        "noteName": "A#5",
        "duration": "30i"
      },
      {
        "time": "5312i",
        "midiNote": 82,
        "velocity": 0.4330708661417323,
        "noteName": "A#5",
        "duration": "13i"
      },
      {
        "time": "5349i",
        "midiNote": 82,
        "velocity": 0.4015748031496063,
        "noteName": "A#5",
        "duration": "14i"
      },
      {
        "time": "5376i",
        "midiNote": 82,
        "velocity": 0.3858267716535433,
        "noteName": "A#5",
        "duration": "19i"
      },
      {
        "time": "5440i",
        "midiNote": 36,
        "velocity": 0.84251968503937,
        "noteName": "C2",
        "duration": "13i"
      },
      {
        "time": "5440i",
        "midiNote": 82,
        "velocity": 0.4015748031496063,
        "noteName": "A#5",
        "duration": "14i"
      },
      {
        "time": "5477i",
        "midiNote": 82,
        "velocity": 0.3779527559055118,
        "noteName": "A#5",
        "duration": "17i"
      },
      {
        "time": "5504i",
        "midiNote": 37,
        "velocity": 0.8188976377952756,
        "noteName": "C#2",
        "duration": "19i"
      },
      {
        "time": "5504i",
        "midiNote": 82,
        "velocity": 0.41732283464566927,
        "noteName": "A#5",
        "duration": "20i"
      },
      {
        "time": "5539i",
        "midiNote": 36,
        "velocity": 0.7952755905511811,
        "noteName": "C2",
        "duration": "13i"
      },
      {
        "time": "5568i",
        "midiNote": 82,
        "velocity": 0.41732283464566927,
        "noteName": "A#5",
        "duration": "13i"
      },
      {
        "time": "5605i",
        "midiNote": 82,
        "velocity": 0.4015748031496063,
        "noteName": "A#5",
        "duration": "14i"
      },
      {
        "time": "5632i",
        "midiNote": 36,
        "velocity": 0.7952755905511811,
        "noteName": "C2",
        "duration": "19i"
      },
      {
        "time": "5632i",
        "midiNote": 82,
        "velocity": 0.47244094488188976,
        "noteName": "A#5",
        "duration": "17i"
      },
      {
        "time": "5696i",
        "midiNote": 82,
        "velocity": 0.4015748031496063,
        "noteName": "A#5",
        "duration": "12i"
      },
      {
        "time": "5733i",
        "midiNote": 82,
        "velocity": 0.36220472440944884,
        "noteName": "A#5",
        "duration": "13i"
      },
      {
        "time": "5760i",
        "midiNote": 37,
        "velocity": 0.8976377952755905,
        "noteName": "C#2",
        "duration": "19i"
      },
      {
        "time": "5760i",
        "midiNote": 82,
        "velocity": 0.3700787401574803,
        "noteName": "A#5",
        "duration": "17i"
      },
      {
        "time": "5824i",
        "midiNote": 36,
        "velocity": 0.7952755905511811,
        "noteName": "C2",
        "duration": "17i"
      },
      {
        "time": "5824i",
        "midiNote": 82,
        "velocity": 0.3937007874015748,
        "noteName": "A#5",
        "duration": "11i"
      },
      {
        "time": "5861i",
        "midiNote": 82,
        "velocity": 0.3700787401574803,
        "noteName": "A#5",
        "duration": "10i"
      },
      {
        "time": "5888i",
        "midiNote": 82,
        "velocity": 0.4015748031496063,
        "noteName": "A#5",
        "duration": "15i"
      },
      {
        "time": "5952i",
        "midiNote": 82,
        "velocity": 0.4015748031496063,
        "noteName": "A#5",
        "duration": "12i"
      },
      {
        "time": "5989i",
        "midiNote": 82,
        "velocity": 0.41732283464566927,
        "noteName": "A#5",
        "duration": "13i"
      },
      {
        "time": "6016i",
        "midiNote": 37,
        "velocity": 0.8976377952755905,
        "noteName": "C#2",
        "duration": "25i"
      },
      {
        "time": "6016i",
        "midiNote": 82,
        "velocity": 0.3937007874015748,
        "noteName": "A#5",
        "duration": "14i"
      },
      {
        "time": "6080i",
        "midiNote": 36,
        "velocity": 0.7165354330708661,
        "noteName": "C2",
        "duration": "16i"
      },
      {
        "time": "6080i",
        "midiNote": 82,
        "velocity": 0.3937007874015748,
        "noteName": "A#5",
        "duration": "9i"
      },
      {
        "time": "6117i",
        "midiNote": 82,
        "velocity": 0.3779527559055118,
        "noteName": "A#5",
        "duration": "11i"
      },
      {
        "time": "6144i",
        "midiNote": 36,
        "velocity": 0.7952755905511811,
        "noteName": "C2",
        "duration": "17i"
      },
      {
        "time": "6144i",
        "midiNote": 82,
        "velocity": 0.4251968503937008,
        "noteName": "A#5",
        "duration": "19i"
      },
      {
        "time": "6208i",
        "midiNote": 82,
        "velocity": 0.3543307086614173,
        "noteName": "A#5",
        "duration": "9i"
      },
      {
        "time": "6245i",
        "midiNote": 82,
        "velocity": 0.36220472440944884,
        "noteName": "A#5",
        "duration": "12i"
      },
      {
        "time": "6272i",
        "midiNote": 37,
        "velocity": 0.8188976377952756,
        "noteName": "C#2",
        "duration": "23i"
      },
      {
        "time": "6272i",
        "midiNote": 82,
        "velocity": 0.4015748031496063,
        "noteName": "A#5",
        "duration": "13i"
      },
      {
        "time": "6336i",
        "midiNote": 82,
        "velocity": 0.47244094488188976,
        "noteName": "A#5",
        "duration": "86i"
      },
      {
        "time": "6464i",
        "midiNote": 36,
        "velocity": 0.84251968503937,
        "noteName": "C2",
        "duration": "13i"
      },
      {
        "time": "6464i",
        "midiNote": 82,
        "velocity": 0.4566929133858268,
        "noteName": "A#5",
        "duration": "25i"
      },
      {
        "time": "6528i",
        "midiNote": 37,
        "velocity": 0.8976377952755905,
        "noteName": "C#2",
        "duration": "17i"
      },
      {
        "time": "6563i",
        "midiNote": 36,
        "velocity": 0.7952755905511811,
        "noteName": "C2",
        "duration": "13i"
      },
      {
        "time": "6592i",
        "midiNote": 82,
        "velocity": 0.4566929133858268,
        "noteName": "A#5",
        "duration": "13i"
      },
      {
        "time": "6629i",
        "midiNote": 82,
        "velocity": 0.4330708661417323,
        "noteName": "A#5",
        "duration": "7i"
      },
      {
        "time": "6656i",
        "midiNote": 36,
        "velocity": 0.7952755905511811,
        "noteName": "C2",
        "duration": "19i"
      },
      {
        "time": "6656i",
        "midiNote": 49,
        "velocity": 0.48031496062992124,
        "noteName": "C#3",
        "duration": "209i"
      },
      {
        "time": "6656i",
        "midiNote": 55,
        "velocity": 0.49606299212598426,
        "noteName": "G3",
        "duration": "209i"
      },
      {
        "time": "6656i",
        "midiNote": 82,
        "velocity": 0.4251968503937008,
        "noteName": "A#5",
        "duration": "21i"
      },
      {
        "time": "6720i",
        "midiNote": 82,
        "velocity": 0.3858267716535433,
        "noteName": "A#5",
        "duration": "17i"
      },
      {
        "time": "6757i",
        "midiNote": 82,
        "velocity": 0.3543307086614173,
        "noteName": "A#5",
        "duration": "15i"
      },
      {
        "time": "6784i",
        "midiNote": 37,
        "velocity": 0.7795275590551181,
        "noteName": "C#2",
        "duration": "21i"
      },
      {
        "time": "6784i",
        "midiNote": 82,
        "velocity": 0.4330708661417323,
        "noteName": "A#5",
        "duration": "21i"
      },
      {
        "time": "6848i",
        "midiNote": 36,
        "velocity": 0.7952755905511811,
        "noteName": "C2",
        "duration": "17i"
      },
      {
        "time": "6848i",
        "midiNote": 82,
        "velocity": 0.4251968503937008,
        "noteName": "A#5",
        "duration": "16i"
      },
      {
        "time": "6885i",
        "midiNote": 82,
        "velocity": 0.3779527559055118,
        "noteName": "A#5",
        "duration": "15i"
      },
      {
        "time": "6912i",
        "midiNote": 82,
        "velocity": 0.4251968503937008,
        "noteName": "A#5",
        "duration": "23i"
      },
      {
        "time": "6976i",
        "midiNote": 82,
        "velocity": 0.41732283464566927,
        "noteName": "A#5",
        "duration": "13i"
      },
      {
        "time": "7013i",
        "midiNote": 82,
        "velocity": 0.3858267716535433,
        "noteName": "A#5",
        "duration": "13i"
      },
      {
        "time": "7040i",
        "midiNote": 37,
        "velocity": 0.8976377952755905,
        "noteName": "C#2",
        "duration": "17i"
      },
      {
        "time": "7040i",
        "midiNote": 82,
        "velocity": 0.41732283464566927,
        "noteName": "A#5",
        "duration": "18i"
      },
      {
        "time": "7104i",
        "midiNote": 36,
        "velocity": 0.7165354330708661,
        "noteName": "C2",
        "duration": "16i"
      },
      {
        "time": "7104i",
        "midiNote": 82,
        "velocity": 0.3700787401574803,
        "noteName": "A#5",
        "duration": "16i"
      },
      {
        "time": "7141i",
        "midiNote": 82,
        "velocity": 0.3937007874015748,
        "noteName": "A#5",
        "duration": "16i"
      },
      {
        "time": "7168i",
        "midiNote": 36,
        "velocity": 0.7952755905511811,
        "noteName": "C2",
        "duration": "17i"
      },
      {
        "time": "7168i",
        "midiNote": 82,
        "velocity": 0.4251968503937008,
        "noteName": "A#5",
        "duration": "20i"
      },
      {
        "time": "7232i",
        "midiNote": 82,
        "velocity": 0.4251968503937008,
        "noteName": "A#5",
        "duration": "15i"
      },
      {
        "time": "7269i",
        "midiNote": 82,
        "velocity": 0.3700787401574803,
        "noteName": "A#5",
        "duration": "15i"
      },
      {
        "time": "7296i",
        "midiNote": 37,
        "velocity": 0.8976377952755905,
        "noteName": "C#2",
        "duration": "21i"
      },
      {
        "time": "7296i",
        "midiNote": 82,
        "velocity": 0.3700787401574803,
        "noteName": "A#5",
        "duration": "30i"
      },
      {
        "time": "7360i",
        "midiNote": 82,
        "velocity": 0.4330708661417323,
        "noteName": "A#5",
        "duration": "13i"
      },
      {
        "time": "7397i",
        "midiNote": 82,
        "velocity": 0.4015748031496063,
        "noteName": "A#5",
        "duration": "14i"
      },
      {
        "time": "7424i",
        "midiNote": 75,
        "velocity": 0.5905511811023622,
        "noteName": "D#5",
        "duration": "15i"
      },
      {
        "time": "7424i",
        "midiNote": 82,
        "velocity": 0.3858267716535433,
        "noteName": "A#5",
        "duration": "19i"
      },
      {
        "time": "7488i",
        "midiNote": 36,
        "velocity": 0.84251968503937,
        "noteName": "C2",
        "duration": "13i"
      },
      {
        "time": "7488i",
        "midiNote": 82,
        "velocity": 0.4015748031496063,
        "noteName": "A#5",
        "duration": "14i"
      },
      {
        "time": "7525i",
        "midiNote": 75,
        "velocity": 0.6771653543307087,
        "noteName": "D#5",
        "duration": "18i"
      },
      {
        "time": "7525i",
        "midiNote": 82,
        "velocity": 0.3779527559055118,
        "noteName": "A#5",
        "duration": "17i"
      },
      {
        "time": "7552i",
        "midiNote": 37,
        "velocity": 0.8188976377952756,
        "noteName": "C#2",
        "duration": "19i"
      },
      {
        "time": "7552i",
        "midiNote": 82,
        "velocity": 0.41732283464566927,
        "noteName": "A#5",
        "duration": "20i"
      },
      {
        "time": "7587i",
        "midiNote": 36,
        "velocity": 0.7952755905511811,
        "noteName": "C2",
        "duration": "13i"
      },
      {
        "time": "7616i",
        "midiNote": 75,
        "velocity": 0.7795275590551181,
        "noteName": "D#5",
        "duration": "17i"
      },
      {
        "time": "7616i",
        "midiNote": 82,
        "velocity": 0.41732283464566927,
        "noteName": "A#5",
        "duration": "13i"
      },
      {
        "time": "7653i",
        "midiNote": 82,
        "velocity": 0.4015748031496063,
        "noteName": "A#5",
        "duration": "14i"
      },
      {
        "time": "7680i",
        "midiNote": 36,
        "velocity": 0.7952755905511811,
        "noteName": "C2",
        "duration": "19i"
      },
      {
        "time": "7680i",
        "midiNote": 82,
        "velocity": 0.47244094488188976,
        "noteName": "A#5",
        "duration": "17i"
      },
      {
        "time": "7744i",
        "midiNote": 82,
        "velocity": 0.4015748031496063,
        "noteName": "A#5",
        "duration": "12i"
      },
      {
        "time": "7781i",
        "midiNote": 82,
        "velocity": 0.36220472440944884,
        "noteName": "A#5",
        "duration": "13i"
      },
      {
        "time": "7808i",
        "midiNote": 37,
        "velocity": 0.8976377952755905,
        "noteName": "C#2",
        "duration": "19i"
      },
      {
        "time": "7808i",
        "midiNote": 82,
        "velocity": 0.3700787401574803,
        "noteName": "A#5",
        "duration": "17i"
      },
      {
        "time": "7872i",
        "midiNote": 36,
        "velocity": 0.7952755905511811,
        "noteName": "C2",
        "duration": "17i"
      },
      {
        "time": "7872i",
        "midiNote": 82,
        "velocity": 0.3937007874015748,
        "noteName": "A#5",
        "duration": "11i"
      },
      {
        "time": "7909i",
        "midiNote": 82,
        "velocity": 0.3700787401574803,
        "noteName": "A#5",
        "duration": "10i"
      },
      {
        "time": "7936i",
        "midiNote": 82,
        "velocity": 0.4015748031496063,
        "noteName": "A#5",
        "duration": "15i"
      },
      {
        "time": "8000i",
        "midiNote": 82,
        "velocity": 0.4015748031496063,
        "noteName": "A#5",
        "duration": "12i"
      },
      {
        "time": "8037i",
        "midiNote": 82,
        "velocity": 0.41732283464566927,
        "noteName": "A#5",
        "duration": "13i"
      },
      {
        "time": "8064i",
        "midiNote": 37,
        "velocity": 0.8976377952755905,
        "noteName": "C#2",
        "duration": "25i"
      },
      {
        "time": "8064i",
        "midiNote": 82,
        "velocity": 0.3937007874015748,
        "noteName": "A#5",
        "duration": "14i"
      },
      {
        "time": "8128i",
        "midiNote": 36,
        "velocity": 0.7165354330708661,
        "noteName": "C2",
        "duration": "16i"
      },
      {
        "time": "8128i",
        "midiNote": 82,
        "velocity": 0.3937007874015748,
        "noteName": "A#5",
        "duration": "9i"
      },
      {
        "time": "8165i",
        "midiNote": 82,
        "velocity": 0.3779527559055118,
        "noteName": "A#5",
        "duration": "11i"
      },
      {
        "time": "8192i",
        "midiNote": 36,
        "velocity": 0.7952755905511811,
        "noteName": "C2",
        "duration": "17i"
      },
      {
        "time": "8192i",
        "midiNote": 82,
        "velocity": 0.4251968503937008,
        "noteName": "A#5",
        "duration": "19i"
      },
      {
        "time": "8256i",
        "midiNote": 82,
        "velocity": 0.3543307086614173,
        "noteName": "A#5",
        "duration": "9i"
      },
      {
        "time": "8293i",
        "midiNote": 82,
        "velocity": 0.36220472440944884,
        "noteName": "A#5",
        "duration": "12i"
      },
      {
        "time": "8320i",
        "midiNote": 37,
        "velocity": 0.8188976377952756,
        "noteName": "C#2",
        "duration": "23i"
      },
      {
        "time": "8320i",
        "midiNote": 82,
        "velocity": 0.4015748031496063,
        "noteName": "A#5",
        "duration": "13i"
      },
      {
        "time": "8384i",
        "midiNote": 82,
        "velocity": 0.47244094488188976,
        "noteName": "A#5",
        "duration": "86i"
      },
      {
        "time": "8448i",
        "midiNote": 75,
        "velocity": 0.5905511811023622,
        "noteName": "D#5",
        "duration": "15i"
      },
      {
        "time": "8512i",
        "midiNote": 36,
        "velocity": 0.84251968503937,
        "noteName": "C2",
        "duration": "13i"
      },
      {
        "time": "8512i",
        "midiNote": 82,
        "velocity": 0.4566929133858268,
        "noteName": "A#5",
        "duration": "25i"
      },
      {
        "time": "8549i",
        "midiNote": 75,
        "velocity": 0.6771653543307087,
        "noteName": "D#5",
        "duration": "18i"
      },
      {
        "time": "8576i",
        "midiNote": 37,
        "velocity": 0.8976377952755905,
        "noteName": "C#2",
        "duration": "17i"
      },
      {
        "time": "8611i",
        "midiNote": 36,
        "velocity": 0.7952755905511811,
        "noteName": "C2",
        "duration": "13i"
      },
      {
        "time": "8640i",
        "midiNote": 75,
        "velocity": 0.7795275590551181,
        "noteName": "D#5",
        "duration": "17i"
      },
      {
        "time": "8640i",
        "midiNote": 82,
        "velocity": 0.4566929133858268,
        "noteName": "A#5",
        "duration": "13i"
      },
      {
        "time": "8677i",
        "midiNote": 82,
        "velocity": 0.4330708661417323,
        "noteName": "A#5",
        "duration": "7i"
      },
      {
        "time": "8704i",
        "midiNote": 36,
        "velocity": 0.7952755905511811,
        "noteName": "C2",
        "duration": "19i"
      },
      {
        "time": "8704i",
        "midiNote": 82,
        "velocity": 0.4251968503937008,
        "noteName": "A#5",
        "duration": "21i"
      },
      {
        "time": "8768i",
        "midiNote": 82,
        "velocity": 0.3858267716535433,
        "noteName": "A#5",
        "duration": "17i"
      },
      {
        "time": "8805i",
        "midiNote": 82,
        "velocity": 0.3543307086614173,
        "noteName": "A#5",
        "duration": "15i"
      },
      {
        "time": "8832i",
        "midiNote": 37,
        "velocity": 0.7795275590551181,
        "noteName": "C#2",
        "duration": "21i"
      },
      {
        "time": "8832i",
        "midiNote": 82,
        "velocity": 0.4330708661417323,
        "noteName": "A#5",
        "duration": "21i"
      },
      {
        "time": "8896i",
        "midiNote": 36,
        "velocity": 0.7952755905511811,
        "noteName": "C2",
        "duration": "17i"
      },
      {
        "time": "8896i",
        "midiNote": 82,
        "velocity": 0.4251968503937008,
        "noteName": "A#5",
        "duration": "16i"
      },
      {
        "time": "8933i",
        "midiNote": 82,
        "velocity": 0.3779527559055118,
        "noteName": "A#5",
        "duration": "15i"
      },
      {
        "time": "8960i",
        "midiNote": 82,
        "velocity": 0.4251968503937008,
        "noteName": "A#5",
        "duration": "23i"
      },
      {
        "time": "9024i",
        "midiNote": 82,
        "velocity": 0.41732283464566927,
        "noteName": "A#5",
        "duration": "13i"
      },
      {
        "time": "9061i",
        "midiNote": 82,
        "velocity": 0.3858267716535433,
        "noteName": "A#5",
        "duration": "13i"
      },
      {
        "time": "9088i",
        "midiNote": 37,
        "velocity": 0.8976377952755905,
        "noteName": "C#2",
        "duration": "17i"
      },
      {
        "time": "9088i",
        "midiNote": 82,
        "velocity": 0.41732283464566927,
        "noteName": "A#5",
        "duration": "18i"
      },
      {
        "time": "9152i",
        "midiNote": 36,
        "velocity": 0.7165354330708661,
        "noteName": "C2",
        "duration": "16i"
      },
      {
        "time": "9152i",
        "midiNote": 82,
        "velocity": 0.3700787401574803,
        "noteName": "A#5",
        "duration": "16i"
      },
      {
        "time": "9189i",
        "midiNote": 82,
        "velocity": 0.3937007874015748,
        "noteName": "A#5",
        "duration": "16i"
      },
      {
        "time": "9216i",
        "midiNote": 36,
        "velocity": 0.7952755905511811,
        "noteName": "C2",
        "duration": "17i"
      },
      {
        "time": "9216i",
        "midiNote": 82,
        "velocity": 0.4251968503937008,
        "noteName": "A#5",
        "duration": "20i"
      },
      {
        "time": "9280i",
        "midiNote": 82,
        "velocity": 0.4251968503937008,
        "noteName": "A#5",
        "duration": "15i"
      },
      {
        "time": "9317i",
        "midiNote": 82,
        "velocity": 0.3700787401574803,
        "noteName": "A#5",
        "duration": "15i"
      },
      {
        "time": "9344i",
        "midiNote": 37,
        "velocity": 0.8976377952755905,
        "noteName": "C#2",
        "duration": "21i"
      },
      {
        "time": "9344i",
        "midiNote": 82,
        "velocity": 0.3700787401574803,
        "noteName": "A#5",
        "duration": "30i"
      },
      {
        "time": "9408i",
        "midiNote": 82,
        "velocity": 0.4330708661417323,
        "noteName": "A#5",
        "duration": "13i"
      },
      {
        "time": "9445i",
        "midiNote": 82,
        "velocity": 0.4015748031496063,
        "noteName": "A#5",
        "duration": "14i"
      },
      {
        "time": "9472i",
        "midiNote": 75,
        "velocity": 0.5905511811023622,
        "noteName": "D#5",
        "duration": "15i"
      },
      {
        "time": "9472i",
        "midiNote": 82,
        "velocity": 0.3858267716535433,
        "noteName": "A#5",
        "duration": "19i"
      },
      {
        "time": "9536i",
        "midiNote": 36,
        "velocity": 0.84251968503937,
        "noteName": "C2",
        "duration": "13i"
      },
      {
        "time": "9536i",
        "midiNote": 82,
        "velocity": 0.4015748031496063,
        "noteName": "A#5",
        "duration": "14i"
      },
      {
        "time": "9573i",
        "midiNote": 75,
        "velocity": 0.6771653543307087,
        "noteName": "D#5",
        "duration": "18i"
      },
      {
        "time": "9573i",
        "midiNote": 82,
        "velocity": 0.3779527559055118,
        "noteName": "A#5",
        "duration": "17i"
      },
      {
        "time": "9600i",
        "midiNote": 37,
        "velocity": 0.8188976377952756,
        "noteName": "C#2",
        "duration": "19i"
      },
      {
        "time": "9600i",
        "midiNote": 82,
        "velocity": 0.41732283464566927,
        "noteName": "A#5",
        "duration": "20i"
      },
      {
        "time": "9635i",
        "midiNote": 36,
        "velocity": 0.7952755905511811,
        "noteName": "C2",
        "duration": "13i"
      },
      {
        "time": "9664i",
        "midiNote": 75,
        "velocity": 0.7795275590551181,
        "noteName": "D#5",
        "duration": "17i"
      },
      {
        "time": "9664i",
        "midiNote": 82,
        "velocity": 0.41732283464566927,
        "noteName": "A#5",
        "duration": "13i"
      },
      {
        "time": "9701i",
        "midiNote": 82,
        "velocity": 0.4015748031496063,
        "noteName": "A#5",
        "duration": "14i"
      },
      {
        "time": "9728i",
        "midiNote": 36,
        "velocity": 0.7952755905511811,
        "noteName": "C2",
        "duration": "19i"
      },
      {
        "time": "9728i",
        "midiNote": 82,
        "velocity": 0.47244094488188976,
        "noteName": "A#5",
        "duration": "17i"
      },
      {
        "time": "9792i",
        "midiNote": 82,
        "velocity": 0.4015748031496063,
        "noteName": "A#5",
        "duration": "12i"
      },
      {
        "time": "9829i",
        "midiNote": 82,
        "velocity": 0.36220472440944884,
        "noteName": "A#5",
        "duration": "13i"
      },
      {
        "time": "9856i",
        "midiNote": 37,
        "velocity": 0.8976377952755905,
        "noteName": "C#2",
        "duration": "19i"
      },
      {
        "time": "9856i",
        "midiNote": 82,
        "velocity": 0.3700787401574803,
        "noteName": "A#5",
        "duration": "17i"
      },
      {
        "time": "9920i",
        "midiNote": 36,
        "velocity": 0.7952755905511811,
        "noteName": "C2",
        "duration": "17i"
      },
      {
        "time": "9920i",
        "midiNote": 82,
        "velocity": 0.3937007874015748,
        "noteName": "A#5",
        "duration": "11i"
      },
      {
        "time": "9957i",
        "midiNote": 82,
        "velocity": 0.3700787401574803,
        "noteName": "A#5",
        "duration": "10i"
      },
      {
        "time": "9984i",
        "midiNote": 82,
        "velocity": 0.4015748031496063,
        "noteName": "A#5",
        "duration": "15i"
      },
      {
        "time": "10048i",
        "midiNote": 82,
        "velocity": 0.4015748031496063,
        "noteName": "A#5",
        "duration": "12i"
      },
      {
        "time": "10085i",
        "midiNote": 82,
        "velocity": 0.41732283464566927,
        "noteName": "A#5",
        "duration": "13i"
      },
      {
        "time": "10112i",
        "midiNote": 37,
        "velocity": 0.8976377952755905,
        "noteName": "C#2",
        "duration": "25i"
      },
      {
        "time": "10112i",
        "midiNote": 82,
        "velocity": 0.3937007874015748,
        "noteName": "A#5",
        "duration": "14i"
      },
      {
        "time": "10176i",
        "midiNote": 36,
        "velocity": 0.7165354330708661,
        "noteName": "C2",
        "duration": "16i"
      },
      {
        "time": "10176i",
        "midiNote": 82,
        "velocity": 0.3937007874015748,
        "noteName": "A#5",
        "duration": "9i"
      },
      {
        "time": "10213i",
        "midiNote": 82,
        "velocity": 0.3779527559055118,
        "noteName": "A#5",
        "duration": "11i"
      },
      {
        "time": "10240i",
        "midiNote": 36,
        "velocity": 0.7952755905511811,
        "noteName": "C2",
        "duration": "17i"
      },
      {
        "time": "10240i",
        "midiNote": 82,
        "velocity": 0.4251968503937008,
        "noteName": "A#5",
        "duration": "19i"
      },
      {
        "time": "10304i",
        "midiNote": 82,
        "velocity": 0.3543307086614173,
        "noteName": "A#5",
        "duration": "9i"
      },
      {
        "time": "10341i",
        "midiNote": 82,
        "velocity": 0.36220472440944884,
        "noteName": "A#5",
        "duration": "12i"
      },
      {
        "time": "10368i",
        "midiNote": 37,
        "velocity": 0.8188976377952756,
        "noteName": "C#2",
        "duration": "23i"
      },
      {
        "time": "10368i",
        "midiNote": 82,
        "velocity": 0.4015748031496063,
        "noteName": "A#5",
        "duration": "13i"
      },
      {
        "time": "10432i",
        "midiNote": 82,
        "velocity": 0.47244094488188976,
        "noteName": "A#5",
        "duration": "86i"
      },
      {
        "time": "10496i",
        "midiNote": 75,
        "velocity": 0.5905511811023622,
        "noteName": "D#5",
        "duration": "15i"
      },
      {
        "time": "10560i",
        "midiNote": 36,
        "velocity": 0.84251968503937,
        "noteName": "C2",
        "duration": "13i"
      },
      {
        "time": "10560i",
        "midiNote": 82,
        "velocity": 0.4566929133858268,
        "noteName": "A#5",
        "duration": "25i"
      },
      {
        "time": "10597i",
        "midiNote": 75,
        "velocity": 0.6771653543307087,
        "noteName": "D#5",
        "duration": "18i"
      },
      {
        "time": "10624i",
        "midiNote": 37,
        "velocity": 0.8976377952755905,
        "noteName": "C#2",
        "duration": "17i"
      },
      {
        "time": "10659i",
        "midiNote": 36,
        "velocity": 0.7952755905511811,
        "noteName": "C2",
        "duration": "13i"
      },
      {
        "time": "10688i",
        "midiNote": 75,
        "velocity": 0.7795275590551181,
        "noteName": "D#5",
        "duration": "17i"
      },
      {
        "time": "10688i",
        "midiNote": 82,
        "velocity": 0.4566929133858268,
        "noteName": "A#5",
        "duration": "13i"
      },
      {
        "time": "10725i",
        "midiNote": 82,
        "velocity": 0.4330708661417323,
        "noteName": "A#5",
        "duration": "7i"
      },
      {
        "time": "10752i",
        "midiNote": 36,
        "velocity": 0.7952755905511811,
        "noteName": "C2",
        "duration": "19i"
      },
      {
        "time": "10752i",
        "midiNote": 49,
        "velocity": 0.48031496062992124,
        "noteName": "C#3",
        "duration": "209i"
      },
      {
        "time": "10752i",
        "midiNote": 55,
        "velocity": 0.49606299212598426,
        "noteName": "G3",
        "duration": "209i"
      },
      {
        "time": "10752i",
        "midiNote": 82,
        "velocity": 0.4251968503937008,
        "noteName": "A#5",
        "duration": "21i"
      },
      {
        "time": "10816i",
        "midiNote": 82,
        "velocity": 0.3858267716535433,
        "noteName": "A#5",
        "duration": "17i"
      },
      {
        "time": "10853i",
        "midiNote": 82,
        "velocity": 0.3543307086614173,
        "noteName": "A#5",
        "duration": "15i"
      },
      {
        "time": "10880i",
        "midiNote": 37,
        "velocity": 0.7795275590551181,
        "noteName": "C#2",
        "duration": "21i"
      },
      {
        "time": "10880i",
        "midiNote": 82,
        "velocity": 0.4330708661417323,
        "noteName": "A#5",
        "duration": "21i"
      },
      {
        "time": "10944i",
        "midiNote": 36,
        "velocity": 0.7952755905511811,
        "noteName": "C2",
        "duration": "17i"
      },
      {
        "time": "10944i",
        "midiNote": 82,
        "velocity": 0.4251968503937008,
        "noteName": "A#5",
        "duration": "16i"
      },
      {
        "time": "10981i",
        "midiNote": 82,
        "velocity": 0.3779527559055118,
        "noteName": "A#5",
        "duration": "15i"
      },
      {
        "time": "11008i",
        "midiNote": 82,
        "velocity": 0.4251968503937008,
        "noteName": "A#5",
        "duration": "23i"
      },
      {
        "time": "11072i",
        "midiNote": 82,
        "velocity": 0.41732283464566927,
        "noteName": "A#5",
        "duration": "13i"
      },
      {
        "time": "11109i",
        "midiNote": 82,
        "velocity": 0.3858267716535433,
        "noteName": "A#5",
        "duration": "13i"
      },
      {
        "time": "11136i",
        "midiNote": 37,
        "velocity": 0.8976377952755905,
        "noteName": "C#2",
        "duration": "17i"
      },
      {
        "time": "11136i",
        "midiNote": 82,
        "velocity": 0.41732283464566927,
        "noteName": "A#5",
        "duration": "18i"
      },
      {
        "time": "11200i",
        "midiNote": 36,
        "velocity": 0.7165354330708661,
        "noteName": "C2",
        "duration": "16i"
      },
      {
        "time": "11200i",
        "midiNote": 82,
        "velocity": 0.3700787401574803,
        "noteName": "A#5",
        "duration": "16i"
      },
      {
        "time": "11237i",
        "midiNote": 82,
        "velocity": 0.3937007874015748,
        "noteName": "A#5",
        "duration": "16i"
      },
      {
        "time": "11264i",
        "midiNote": 36,
        "velocity": 0.7952755905511811,
        "noteName": "C2",
        "duration": "17i"
      },
      {
        "time": "11264i",
        "midiNote": 82,
        "velocity": 0.4251968503937008,
        "noteName": "A#5",
        "duration": "20i"
      },
      {
        "time": "11328i",
        "midiNote": 82,
        "velocity": 0.4251968503937008,
        "noteName": "A#5",
        "duration": "15i"
      },
      {
        "time": "11365i",
        "midiNote": 82,
        "velocity": 0.3700787401574803,
        "noteName": "A#5",
        "duration": "15i"
      },
      {
        "time": "11392i",
        "midiNote": 37,
        "velocity": 0.8976377952755905,
        "noteName": "C#2",
        "duration": "21i"
      },
      {
        "time": "11392i",
        "midiNote": 82,
        "velocity": 0.3700787401574803,
        "noteName": "A#5",
        "duration": "30i"
      },
      {
        "time": "11456i",
        "midiNote": 82,
        "velocity": 0.4330708661417323,
        "noteName": "A#5",
        "duration": "13i"
      },
      {
        "time": "11493i",
        "midiNote": 82,
        "velocity": 0.4015748031496063,
        "noteName": "A#5",
        "duration": "14i"
      },
      {
        "time": "11520i",
        "midiNote": 75,
        "velocity": 0.5905511811023622,
        "noteName": "D#5",
        "duration": "15i"
      },
      {
        "time": "11520i",
        "midiNote": 82,
        "velocity": 0.3858267716535433,
        "noteName": "A#5",
        "duration": "19i"
      },
      {
        "time": "11584i",
        "midiNote": 36,
        "velocity": 0.84251968503937,
        "noteName": "C2",
        "duration": "13i"
      },
      {
        "time": "11584i",
        "midiNote": 82,
        "velocity": 0.4015748031496063,
        "noteName": "A#5",
        "duration": "14i"
      },
      {
        "time": "11621i",
        "midiNote": 75,
        "velocity": 0.6771653543307087,
        "noteName": "D#5",
        "duration": "18i"
      },
      {
        "time": "11621i",
        "midiNote": 82,
        "velocity": 0.3779527559055118,
        "noteName": "A#5",
        "duration": "17i"
      },
      {
        "time": "11648i",
        "midiNote": 37,
        "velocity": 0.8188976377952756,
        "noteName": "C#2",
        "duration": "19i"
      },
      {
        "time": "11648i",
        "midiNote": 82,
        "velocity": 0.41732283464566927,
        "noteName": "A#5",
        "duration": "20i"
      },
      {
        "time": "11683i",
        "midiNote": 36,
        "velocity": 0.7952755905511811,
        "noteName": "C2",
        "duration": "13i"
      },
      {
        "time": "11712i",
        "midiNote": 75,
        "velocity": 0.7795275590551181,
        "noteName": "D#5",
        "duration": "17i"
      },
      {
        "time": "11712i",
        "midiNote": 82,
        "velocity": 0.41732283464566927,
        "noteName": "A#5",
        "duration": "13i"
      },
      {
        "time": "11749i",
        "midiNote": 82,
        "velocity": 0.4015748031496063,
        "noteName": "A#5",
        "duration": "14i"
      },
      {
        "time": "11776i",
        "midiNote": 36,
        "velocity": 0.7952755905511811,
        "noteName": "C2",
        "duration": "19i"
      },
      {
        "time": "11776i",
        "midiNote": 82,
        "velocity": 0.47244094488188976,
        "noteName": "A#5",
        "duration": "17i"
      },
      {
        "time": "11840i",
        "midiNote": 82,
        "velocity": 0.4015748031496063,
        "noteName": "A#5",
        "duration": "12i"
      },
      {
        "time": "11877i",
        "midiNote": 82,
        "velocity": 0.36220472440944884,
        "noteName": "A#5",
        "duration": "13i"
      },
      {
        "time": "11904i",
        "midiNote": 37,
        "velocity": 0.8976377952755905,
        "noteName": "C#2",
        "duration": "19i"
      },
      {
        "time": "11904i",
        "midiNote": 82,
        "velocity": 0.3700787401574803,
        "noteName": "A#5",
        "duration": "17i"
      },
      {
        "time": "11968i",
        "midiNote": 36,
        "velocity": 0.7952755905511811,
        "noteName": "C2",
        "duration": "17i"
      },
      {
        "time": "11968i",
        "midiNote": 82,
        "velocity": 0.3937007874015748,
        "noteName": "A#5",
        "duration": "11i"
      },
      {
        "time": "12005i",
        "midiNote": 82,
        "velocity": 0.3700787401574803,
        "noteName": "A#5",
        "duration": "10i"
      },
      {
        "time": "12032i",
        "midiNote": 82,
        "velocity": 0.4015748031496063,
        "noteName": "A#5",
        "duration": "15i"
      },
      {
        "time": "12096i",
        "midiNote": 82,
        "velocity": 0.4015748031496063,
        "noteName": "A#5",
        "duration": "12i"
      },
      {
        "time": "12133i",
        "midiNote": 82,
        "velocity": 0.41732283464566927,
        "noteName": "A#5",
        "duration": "13i"
      },
      {
        "time": "12160i",
        "midiNote": 37,
        "velocity": 0.8976377952755905,
        "noteName": "C#2",
        "duration": "25i"
      },
      {
        "time": "12160i",
        "midiNote": 82,
        "velocity": 0.3937007874015748,
        "noteName": "A#5",
        "duration": "14i"
      },
      {
        "time": "12224i",
        "midiNote": 36,
        "velocity": 0.7165354330708661,
        "noteName": "C2",
        "duration": "16i"
      },
      {
        "time": "12224i",
        "midiNote": 82,
        "velocity": 0.3937007874015748,
        "noteName": "A#5",
        "duration": "9i"
      },
      {
        "time": "12261i",
        "midiNote": 82,
        "velocity": 0.3779527559055118,
        "noteName": "A#5",
        "duration": "11i"
      },
      {
        "time": "12288i",
        "midiNote": 36,
        "velocity": 0.7952755905511811,
        "noteName": "C2",
        "duration": "17i"
      },
      {
        "time": "12288i",
        "midiNote": 82,
        "velocity": 0.4251968503937008,
        "noteName": "A#5",
        "duration": "19i"
      },
      {
        "time": "12352i",
        "midiNote": 82,
        "velocity": 0.3543307086614173,
        "noteName": "A#5",
        "duration": "9i"
      },
      {
        "time": "12389i",
        "midiNote": 82,
        "velocity": 0.36220472440944884,
        "noteName": "A#5",
        "duration": "12i"
      },
      {
        "time": "12416i",
        "midiNote": 37,
        "velocity": 0.8188976377952756,
        "noteName": "C#2",
        "duration": "23i"
      },
      {
        "time": "12416i",
        "midiNote": 82,
        "velocity": 0.4015748031496063,
        "noteName": "A#5",
        "duration": "13i"
      },
      {
        "time": "12480i",
        "midiNote": 82,
        "velocity": 0.47244094488188976,
        "noteName": "A#5",
        "duration": "86i"
      },
      {
        "time": "12544i",
        "midiNote": 75,
        "velocity": 0.5905511811023622,
        "noteName": "D#5",
        "duration": "15i"
      },
      {
        "time": "12608i",
        "midiNote": 36,
        "velocity": 0.84251968503937,
        "noteName": "C2",
        "duration": "13i"
      },
      {
        "time": "12608i",
        "midiNote": 82,
        "velocity": 0.4566929133858268,
        "noteName": "A#5",
        "duration": "25i"
      },
      {
        "time": "12645i",
        "midiNote": 75,
        "velocity": 0.6771653543307087,
        "noteName": "D#5",
        "duration": "18i"
      },
      {
        "time": "12672i",
        "midiNote": 37,
        "velocity": 0.8976377952755905,
        "noteName": "C#2",
        "duration": "17i"
      },
      {
        "time": "12707i",
        "midiNote": 36,
        "velocity": 0.7952755905511811,
        "noteName": "C2",
        "duration": "13i"
      },
      {
        "time": "12736i",
        "midiNote": 75,
        "velocity": 0.7795275590551181,
        "noteName": "D#5",
        "duration": "17i"
      },
      {
        "time": "12736i",
        "midiNote": 82,
        "velocity": 0.4566929133858268,
        "noteName": "A#5",
        "duration": "13i"
      },
      {
        "time": "12773i",
        "midiNote": 82,
        "velocity": 0.4330708661417323,
        "noteName": "A#5",
        "duration": "7i"
      },
      {
        "time": "12800i",
        "midiNote": 36,
        "velocity": 0.7952755905511811,
        "noteName": "C2",
        "duration": "19i"
      },
      {
        "time": "12800i",
        "midiNote": 49,
        "velocity": 0.48031496062992124,
        "noteName": "C#3",
        "duration": "209i"
      },
      {
        "time": "12800i",
        "midiNote": 55,
        "velocity": 0.49606299212598426,
        "noteName": "G3",
        "duration": "209i"
      },
      {
        "time": "12800i",
        "midiNote": 82,
        "velocity": 0.4251968503937008,
        "noteName": "A#5",
        "duration": "21i"
      },
      {
        "time": "12864i",
        "midiNote": 82,
        "velocity": 0.3858267716535433,
        "noteName": "A#5",
        "duration": "17i"
      },
      {
        "time": "12901i",
        "midiNote": 82,
        "velocity": 0.3543307086614173,
        "noteName": "A#5",
        "duration": "15i"
      },
      {
        "time": "12928i",
        "midiNote": 37,
        "velocity": 0.7795275590551181,
        "noteName": "C#2",
        "duration": "21i"
      },
      {
        "time": "12928i",
        "midiNote": 82,
        "velocity": 0.4330708661417323,
        "noteName": "A#5",
        "duration": "21i"
      },
      {
        "time": "12992i",
        "midiNote": 36,
        "velocity": 0.7952755905511811,
        "noteName": "C2",
        "duration": "17i"
      },
      {
        "time": "12992i",
        "midiNote": 82,
        "velocity": 0.4251968503937008,
        "noteName": "A#5",
        "duration": "16i"
      },
      {
        "time": "13029i",
        "midiNote": 82,
        "velocity": 0.3779527559055118,
        "noteName": "A#5",
        "duration": "15i"
      },
      {
        "time": "13056i",
        "midiNote": 82,
        "velocity": 0.4251968503937008,
        "noteName": "A#5",
        "duration": "23i"
      },
      {
        "time": "13120i",
        "midiNote": 82,
        "velocity": 0.41732283464566927,
        "noteName": "A#5",
        "duration": "13i"
      },
      {
        "time": "13157i",
        "midiNote": 82,
        "velocity": 0.3858267716535433,
        "noteName": "A#5",
        "duration": "13i"
      },
      {
        "time": "13184i",
        "midiNote": 37,
        "velocity": 0.8976377952755905,
        "noteName": "C#2",
        "duration": "17i"
      },
      {
        "time": "13184i",
        "midiNote": 82,
        "velocity": 0.41732283464566927,
        "noteName": "A#5",
        "duration": "18i"
      },
      {
        "time": "13248i",
        "midiNote": 36,
        "velocity": 0.7165354330708661,
        "noteName": "C2",
        "duration": "16i"
      },
      {
        "time": "13248i",
        "midiNote": 82,
        "velocity": 0.3700787401574803,
        "noteName": "A#5",
        "duration": "16i"
      },
      {
        "time": "13285i",
        "midiNote": 82,
        "velocity": 0.3937007874015748,
        "noteName": "A#5",
        "duration": "16i"
      },
      {
        "time": "13312i",
        "midiNote": 36,
        "velocity": 0.7952755905511811,
        "noteName": "C2",
        "duration": "17i"
      },
      {
        "time": "13312i",
        "midiNote": 82,
        "velocity": 0.4251968503937008,
        "noteName": "A#5",
        "duration": "20i"
      },
      {
        "time": "13376i",
        "midiNote": 82,
        "velocity": 0.4251968503937008,
        "noteName": "A#5",
        "duration": "15i"
      },
      {
        "time": "13413i",
        "midiNote": 82,
        "velocity": 0.3700787401574803,
        "noteName": "A#5",
        "duration": "15i"
      },
      {
        "time": "13440i",
        "midiNote": 37,
        "velocity": 0.8976377952755905,
        "noteName": "C#2",
        "duration": "21i"
      },
      {
        "time": "13440i",
        "midiNote": 82,
        "velocity": 0.3700787401574803,
        "noteName": "A#5",
        "duration": "30i"
      },
      {
        "time": "13504i",
        "midiNote": 82,
        "velocity": 0.4330708661417323,
        "noteName": "A#5",
        "duration": "13i"
      },
      {
        "time": "13541i",
        "midiNote": 82,
        "velocity": 0.4015748031496063,
        "noteName": "A#5",
        "duration": "14i"
      },
      {
        "time": "13568i",
        "midiNote": 75,
        "velocity": 0.5905511811023622,
        "noteName": "D#5",
        "duration": "15i"
      },
      {
        "time": "13568i",
        "midiNote": 82,
        "velocity": 0.3858267716535433,
        "noteName": "A#5",
        "duration": "19i"
      },
      {
        "time": "13632i",
        "midiNote": 36,
        "velocity": 0.84251968503937,
        "noteName": "C2",
        "duration": "13i"
      },
      {
        "time": "13632i",
        "midiNote": 82,
        "velocity": 0.4015748031496063,
        "noteName": "A#5",
        "duration": "14i"
      },
      {
        "time": "13669i",
        "midiNote": 75,
        "velocity": 0.6771653543307087,
        "noteName": "D#5",
        "duration": "18i"
      },
      {
        "time": "13669i",
        "midiNote": 82,
        "velocity": 0.3779527559055118,
        "noteName": "A#5",
        "duration": "17i"
      },
      {
        "time": "13696i",
        "midiNote": 37,
        "velocity": 0.8188976377952756,
        "noteName": "C#2",
        "duration": "19i"
      },
      {
        "time": "13696i",
        "midiNote": 82,
        "velocity": 0.41732283464566927,
        "noteName": "A#5",
        "duration": "20i"
      },
      {
        "time": "13731i",
        "midiNote": 36,
        "velocity": 0.7952755905511811,
        "noteName": "C2",
        "duration": "13i"
      },
      {
        "time": "13760i",
        "midiNote": 75,
        "velocity": 0.7795275590551181,
        "noteName": "D#5",
        "duration": "17i"
      },
      {
        "time": "13760i",
        "midiNote": 82,
        "velocity": 0.41732283464566927,
        "noteName": "A#5",
        "duration": "13i"
      },
      {
        "time": "13797i",
        "midiNote": 82,
        "velocity": 0.4015748031496063,
        "noteName": "A#5",
        "duration": "14i"
      },
      {
        "time": "13824i",
        "midiNote": 36,
        "velocity": 0.7952755905511811,
        "noteName": "C2",
        "duration": "19i"
      },
      {
        "time": "13824i",
        "midiNote": 82,
        "velocity": 0.47244094488188976,
        "noteName": "A#5",
        "duration": "17i"
      },
      {
        "time": "13888i",
        "midiNote": 82,
        "velocity": 0.4015748031496063,
        "noteName": "A#5",
        "duration": "12i"
      },
      {
        "time": "13925i",
        "midiNote": 82,
        "velocity": 0.36220472440944884,
        "noteName": "A#5",
        "duration": "13i"
      },
      {
        "time": "13952i",
        "midiNote": 37,
        "velocity": 0.8976377952755905,
        "noteName": "C#2",
        "duration": "19i"
      },
      {
        "time": "13952i",
        "midiNote": 82,
        "velocity": 0.3700787401574803,
        "noteName": "A#5",
        "duration": "17i"
      },
      {
        "time": "14016i",
        "midiNote": 36,
        "velocity": 0.7952755905511811,
        "noteName": "C2",
        "duration": "17i"
      },
      {
        "time": "14016i",
        "midiNote": 82,
        "velocity": 0.3937007874015748,
        "noteName": "A#5",
        "duration": "11i"
      },
      {
        "time": "14053i",
        "midiNote": 82,
        "velocity": 0.3700787401574803,
        "noteName": "A#5",
        "duration": "10i"
      },
      {
        "time": "14080i",
        "midiNote": 82,
        "velocity": 0.4015748031496063,
        "noteName": "A#5",
        "duration": "15i"
      },
      {
        "time": "14144i",
        "midiNote": 82,
        "velocity": 0.4015748031496063,
        "noteName": "A#5",
        "duration": "12i"
      },
      {
        "time": "14181i",
        "midiNote": 82,
        "velocity": 0.41732283464566927,
        "noteName": "A#5",
        "duration": "13i"
      },
      {
        "time": "14208i",
        "midiNote": 37,
        "velocity": 0.8976377952755905,
        "noteName": "C#2",
        "duration": "25i"
      },
      {
        "time": "14208i",
        "midiNote": 82,
        "velocity": 0.3937007874015748,
        "noteName": "A#5",
        "duration": "14i"
      },
      {
        "time": "14272i",
        "midiNote": 36,
        "velocity": 0.7165354330708661,
        "noteName": "C2",
        "duration": "16i"
      },
      {
        "time": "14272i",
        "midiNote": 82,
        "velocity": 0.3937007874015748,
        "noteName": "A#5",
        "duration": "9i"
      },
      {
        "time": "14309i",
        "midiNote": 82,
        "velocity": 0.3779527559055118,
        "noteName": "A#5",
        "duration": "11i"
      },
      {
        "time": "14336i",
        "midiNote": 36,
        "velocity": 0.7952755905511811,
        "noteName": "C2",
        "duration": "17i"
      },
      {
        "time": "14336i",
        "midiNote": 82,
        "velocity": 0.4251968503937008,
        "noteName": "A#5",
        "duration": "19i"
      },
      {
        "time": "14400i",
        "midiNote": 82,
        "velocity": 0.3543307086614173,
        "noteName": "A#5",
        "duration": "9i"
      },
      {
        "time": "14437i",
        "midiNote": 82,
        "velocity": 0.36220472440944884,
        "noteName": "A#5",
        "duration": "12i"
      },
      {
        "time": "14464i",
        "midiNote": 37,
        "velocity": 0.8188976377952756,
        "noteName": "C#2",
        "duration": "23i"
      },
      {
        "time": "14464i",
        "midiNote": 82,
        "velocity": 0.4015748031496063,
        "noteName": "A#5",
        "duration": "13i"
      },
      {
        "time": "14528i",
        "midiNote": 82,
        "velocity": 0.47244094488188976,
        "noteName": "A#5",
        "duration": "86i"
      },
      {
        "time": "14592i",
        "midiNote": 75,
        "velocity": 0.5905511811023622,
        "noteName": "D#5",
        "duration": "15i"
      },
      {
        "time": "14656i",
        "midiNote": 36,
        "velocity": 0.84251968503937,
        "noteName": "C2",
        "duration": "13i"
      },
      {
        "time": "14656i",
        "midiNote": 82,
        "velocity": 0.4566929133858268,
        "noteName": "A#5",
        "duration": "25i"
      },
      {
        "time": "14693i",
        "midiNote": 75,
        "velocity": 0.6771653543307087,
        "noteName": "D#5",
        "duration": "18i"
      },
      {
        "time": "14720i",
        "midiNote": 37,
        "velocity": 0.8976377952755905,
        "noteName": "C#2",
        "duration": "17i"
      },
      {
        "time": "14755i",
        "midiNote": 36,
        "velocity": 0.7952755905511811,
        "noteName": "C2",
        "duration": "13i"
      },
      {
        "time": "14784i",
        "midiNote": 75,
        "velocity": 0.7795275590551181,
        "noteName": "D#5",
        "duration": "17i"
      },
      {
        "time": "14784i",
        "midiNote": 82,
        "velocity": 0.4566929133858268,
        "noteName": "A#5",
        "duration": "13i"
      },
      {
        "time": "14821i",
        "midiNote": 82,
        "velocity": 0.4330708661417323,
        "noteName": "A#5",
        "duration": "7i"
      },
      {
        "time": "14848i",
        "midiNote": 36,
        "velocity": 0.7952755905511811,
        "noteName": "C2",
        "duration": "19i"
      },
      {
        "time": "14848i",
        "midiNote": 49,
        "velocity": 0.48031496062992124,
        "noteName": "C#3",
        "duration": "209i"
      },
      {
        "time": "14848i",
        "midiNote": 55,
        "velocity": 0.49606299212598426,
        "noteName": "G3",
        "duration": "209i"
      },
      {
        "time": "14848i",
        "midiNote": 82,
        "velocity": 0.4251968503937008,
        "noteName": "A#5",
        "duration": "21i"
      },
      {
        "time": "14912i",
        "midiNote": 82,
        "velocity": 0.3858267716535433,
        "noteName": "A#5",
        "duration": "17i"
      },
      {
        "time": "14949i",
        "midiNote": 82,
        "velocity": 0.3543307086614173,
        "noteName": "A#5",
        "duration": "15i"
      },
      {
        "time": "14976i",
        "midiNote": 37,
        "velocity": 0.7795275590551181,
        "noteName": "C#2",
        "duration": "21i"
      },
      {
        "time": "14976i",
        "midiNote": 82,
        "velocity": 0.4330708661417323,
        "noteName": "A#5",
        "duration": "21i"
      },
      {
        "time": "15040i",
        "midiNote": 36,
        "velocity": 0.7952755905511811,
        "noteName": "C2",
        "duration": "17i"
      },
      {
        "time": "15040i",
        "midiNote": 82,
        "velocity": 0.4251968503937008,
        "noteName": "A#5",
        "duration": "16i"
      },
      {
        "time": "15077i",
        "midiNote": 82,
        "velocity": 0.3779527559055118,
        "noteName": "A#5",
        "duration": "15i"
      },
      {
        "time": "15104i",
        "midiNote": 82,
        "velocity": 0.4251968503937008,
        "noteName": "A#5",
        "duration": "23i"
      },
      {
        "time": "15168i",
        "midiNote": 82,
        "velocity": 0.41732283464566927,
        "noteName": "A#5",
        "duration": "13i"
      },
      {
        "time": "15205i",
        "midiNote": 82,
        "velocity": 0.3858267716535433,
        "noteName": "A#5",
        "duration": "13i"
      },
      {
        "time": "15232i",
        "midiNote": 37,
        "velocity": 0.8976377952755905,
        "noteName": "C#2",
        "duration": "17i"
      },
      {
        "time": "15232i",
        "midiNote": 82,
        "velocity": 0.41732283464566927,
        "noteName": "A#5",
        "duration": "18i"
      },
      {
        "time": "15296i",
        "midiNote": 36,
        "velocity": 0.7165354330708661,
        "noteName": "C2",
        "duration": "16i"
      },
      {
        "time": "15296i",
        "midiNote": 82,
        "velocity": 0.3700787401574803,
        "noteName": "A#5",
        "duration": "16i"
      },
      {
        "time": "15333i",
        "midiNote": 82,
        "velocity": 0.3937007874015748,
        "noteName": "A#5",
        "duration": "16i"
      },
      {
        "time": "15360i",
        "midiNote": 36,
        "velocity": 0.7952755905511811,
        "noteName": "C2",
        "duration": "17i"
      },
      {
        "time": "15360i",
        "midiNote": 82,
        "velocity": 0.4251968503937008,
        "noteName": "A#5",
        "duration": "20i"
      },
      {
        "time": "15424i",
        "midiNote": 82,
        "velocity": 0.4251968503937008,
        "noteName": "A#5",
        "duration": "15i"
      },
      {
        "time": "15461i",
        "midiNote": 82,
        "velocity": 0.3700787401574803,
        "noteName": "A#5",
        "duration": "15i"
      },
      {
        "time": "15488i",
        "midiNote": 37,
        "velocity": 0.8976377952755905,
        "noteName": "C#2",
        "duration": "21i"
      },
      {
        "time": "15488i",
        "midiNote": 82,
        "velocity": 0.3700787401574803,
        "noteName": "A#5",
        "duration": "30i"
      },
      {
        "time": "15552i",
        "midiNote": 82,
        "velocity": 0.4330708661417323,
        "noteName": "A#5",
        "duration": "13i"
      },
      {
        "time": "15589i",
        "midiNote": 82,
        "velocity": 0.4015748031496063,
        "noteName": "A#5",
        "duration": "14i"
      },
      {
        "time": "15616i",
        "midiNote": 75,
        "velocity": 0.5905511811023622,
        "noteName": "D#5",
        "duration": "15i"
      },
      {
        "time": "15616i",
        "midiNote": 82,
        "velocity": 0.3858267716535433,
        "noteName": "A#5",
        "duration": "19i"
      },
      {
        "time": "15680i",
        "midiNote": 36,
        "velocity": 0.84251968503937,
        "noteName": "C2",
        "duration": "13i"
      },
      {
        "time": "15680i",
        "midiNote": 82,
        "velocity": 0.4015748031496063,
        "noteName": "A#5",
        "duration": "14i"
      },
      {
        "time": "15717i",
        "midiNote": 75,
        "velocity": 0.6771653543307087,
        "noteName": "D#5",
        "duration": "18i"
      },
      {
        "time": "15717i",
        "midiNote": 82,
        "velocity": 0.3779527559055118,
        "noteName": "A#5",
        "duration": "17i"
      },
      {
        "time": "15744i",
        "midiNote": 37,
        "velocity": 0.8188976377952756,
        "noteName": "C#2",
        "duration": "19i"
      },
      {
        "time": "15744i",
        "midiNote": 82,
        "velocity": 0.41732283464566927,
        "noteName": "A#5",
        "duration": "20i"
      },
      {
        "time": "15779i",
        "midiNote": 36,
        "velocity": 0.7952755905511811,
        "noteName": "C2",
        "duration": "13i"
      },
      {
        "time": "15808i",
        "midiNote": 75,
        "velocity": 0.7795275590551181,
        "noteName": "D#5",
        "duration": "17i"
      },
      {
        "time": "15808i",
        "midiNote": 82,
        "velocity": 0.41732283464566927,
        "noteName": "A#5",
        "duration": "13i"
      },
      {
        "time": "15845i",
        "midiNote": 82,
        "velocity": 0.4015748031496063,
        "noteName": "A#5",
        "duration": "14i"
      },
      {
        "time": "15872i",
        "midiNote": 36,
        "velocity": 0.7952755905511811,
        "noteName": "C2",
        "duration": "19i"
      },
      {
        "time": "15872i",
        "midiNote": 82,
        "velocity": 0.47244094488188976,
        "noteName": "A#5",
        "duration": "17i"
      },
      {
        "time": "15936i",
        "midiNote": 82,
        "velocity": 0.4015748031496063,
        "noteName": "A#5",
        "duration": "12i"
      },
      {
        "time": "15973i",
        "midiNote": 82,
        "velocity": 0.36220472440944884,
        "noteName": "A#5",
        "duration": "13i"
      },
      {
        "time": "16000i",
        "midiNote": 37,
        "velocity": 0.8976377952755905,
        "noteName": "C#2",
        "duration": "19i"
      },
      {
        "time": "16000i",
        "midiNote": 82,
        "velocity": 0.3700787401574803,
        "noteName": "A#5",
        "duration": "17i"
      },
      {
        "time": "16064i",
        "midiNote": 36,
        "velocity": 0.7952755905511811,
        "noteName": "C2",
        "duration": "17i"
      },
      {
        "time": "16064i",
        "midiNote": 82,
        "velocity": 0.3937007874015748,
        "noteName": "A#5",
        "duration": "11i"
      },
      {
        "time": "16101i",
        "midiNote": 82,
        "velocity": 0.3700787401574803,
        "noteName": "A#5",
        "duration": "10i"
      },
      {
        "time": "16128i",
        "midiNote": 82,
        "velocity": 0.4015748031496063,
        "noteName": "A#5",
        "duration": "15i"
      },
      {
        "time": "16192i",
        "midiNote": 82,
        "velocity": 0.4015748031496063,
        "noteName": "A#5",
        "duration": "12i"
      },
      {
        "time": "16229i",
        "midiNote": 82,
        "velocity": 0.41732283464566927,
        "noteName": "A#5",
        "duration": "13i"
      },
      {
        "time": "16256i",
        "midiNote": 37,
        "velocity": 0.8976377952755905,
        "noteName": "C#2",
        "duration": "25i"
      },
      {
        "time": "16256i",
        "midiNote": 82,
        "velocity": 0.3937007874015748,
        "noteName": "A#5",
        "duration": "14i"
      },
      {
        "time": "16320i",
        "midiNote": 36,
        "velocity": 0.7165354330708661,
        "noteName": "C2",
        "duration": "16i"
      },
      {
        "time": "16320i",
        "midiNote": 82,
        "velocity": 0.3937007874015748,
        "noteName": "A#5",
        "duration": "9i"
      },
      {
        "time": "16357i",
        "midiNote": 82,
        "velocity": 0.3779527559055118,
        "noteName": "A#5",
        "duration": "11i"
      },
      {
        "time": "16384i",
        "midiNote": 36,
        "velocity": 0.7952755905511811,
        "noteName": "C2",
        "duration": "17i"
      },
      {
        "time": "16384i",
        "midiNote": 82,
        "velocity": 0.4251968503937008,
        "noteName": "A#5",
        "duration": "19i"
      },
      {
        "time": "16448i",
        "midiNote": 82,
        "velocity": 0.3543307086614173,
        "noteName": "A#5",
        "duration": "9i"
      },
      {
        "time": "16485i",
        "midiNote": 82,
        "velocity": 0.36220472440944884,
        "noteName": "A#5",
        "duration": "12i"
      },
      {
        "time": "16512i",
        "midiNote": 37,
        "velocity": 0.8188976377952756,
        "noteName": "C#2",
        "duration": "23i"
      },
      {
        "time": "16512i",
        "midiNote": 82,
        "velocity": 0.4015748031496063,
        "noteName": "A#5",
        "duration": "13i"
      },
      {
        "time": "16576i",
        "midiNote": 82,
        "velocity": 0.47244094488188976,
        "noteName": "A#5",
        "duration": "86i"
      },
      {
        "time": "16640i",
        "midiNote": 75,
        "velocity": 0.5905511811023622,
        "noteName": "D#5",
        "duration": "15i"
      },
      {
        "time": "16704i",
        "midiNote": 36,
        "velocity": 0.84251968503937,
        "noteName": "C2",
        "duration": "13i"
      },
      {
        "time": "16704i",
        "midiNote": 82,
        "velocity": 0.4566929133858268,
        "noteName": "A#5",
        "duration": "25i"
      },
      {
        "time": "16741i",
        "midiNote": 75,
        "velocity": 0.6771653543307087,
        "noteName": "D#5",
        "duration": "18i"
      },
      {
        "time": "16768i",
        "midiNote": 37,
        "velocity": 0.8976377952755905,
        "noteName": "C#2",
        "duration": "17i"
      },
      {
        "time": "16803i",
        "midiNote": 36,
        "velocity": 0.7952755905511811,
        "noteName": "C2",
        "duration": "13i"
      },
      {
        "time": "16832i",
        "midiNote": 75,
        "velocity": 0.7795275590551181,
        "noteName": "D#5",
        "duration": "17i"
      },
      {
        "time": "16832i",
        "midiNote": 82,
        "velocity": 0.4566929133858268,
        "noteName": "A#5",
        "duration": "13i"
      },
      {
        "time": "16869i",
        "midiNote": 82,
        "velocity": 0.4330708661417323,
        "noteName": "A#5",
        "duration": "7i"
      },
      {
        "time": "16896i",
        "midiNote": 36,
        "velocity": 0.7952755905511811,
        "noteName": "C2",
        "duration": "19i"
      },
      {
        "time": "16896i",
        "midiNote": 82,
        "velocity": 0.4251968503937008,
        "noteName": "A#5",
        "duration": "21i"
      },
      {
        "time": "16960i",
        "midiNote": 82,
        "velocity": 0.3858267716535433,
        "noteName": "A#5",
        "duration": "17i"
      },
      {
        "time": "16997i",
        "midiNote": 82,
        "velocity": 0.3543307086614173,
        "noteName": "A#5",
        "duration": "15i"
      },
      {
        "time": "17024i",
        "midiNote": 37,
        "velocity": 0.7795275590551181,
        "noteName": "C#2",
        "duration": "21i"
      },
      {
        "time": "17024i",
        "midiNote": 82,
        "velocity": 0.4330708661417323,
        "noteName": "A#5",
        "duration": "21i"
      },
      {
        "time": "17088i",
        "midiNote": 36,
        "velocity": 0.7952755905511811,
        "noteName": "C2",
        "duration": "17i"
      },
      {
        "time": "17088i",
        "midiNote": 82,
        "velocity": 0.4251968503937008,
        "noteName": "A#5",
        "duration": "16i"
      },
      {
        "time": "17125i",
        "midiNote": 82,
        "velocity": 0.3779527559055118,
        "noteName": "A#5",
        "duration": "15i"
      },
      {
        "time": "17152i",
        "midiNote": 82,
        "velocity": 0.4251968503937008,
        "noteName": "A#5",
        "duration": "23i"
      },
      {
        "time": "17216i",
        "midiNote": 82,
        "velocity": 0.41732283464566927,
        "noteName": "A#5",
        "duration": "13i"
      },
      {
        "time": "17253i",
        "midiNote": 82,
        "velocity": 0.3858267716535433,
        "noteName": "A#5",
        "duration": "13i"
      },
      {
        "time": "17280i",
        "midiNote": 37,
        "velocity": 0.8976377952755905,
        "noteName": "C#2",
        "duration": "17i"
      },
      {
        "time": "17280i",
        "midiNote": 82,
        "velocity": 0.41732283464566927,
        "noteName": "A#5",
        "duration": "18i"
      },
      {
        "time": "17344i",
        "midiNote": 36,
        "velocity": 0.7165354330708661,
        "noteName": "C2",
        "duration": "16i"
      },
      {
        "time": "17344i",
        "midiNote": 82,
        "velocity": 0.3700787401574803,
        "noteName": "A#5",
        "duration": "16i"
      },
      {
        "time": "17381i",
        "midiNote": 82,
        "velocity": 0.3937007874015748,
        "noteName": "A#5",
        "duration": "16i"
      },
      {
        "time": "17408i",
        "midiNote": 36,
        "velocity": 0.7952755905511811,
        "noteName": "C2",
        "duration": "17i"
      },
      {
        "time": "17408i",
        "midiNote": 82,
        "velocity": 0.4251968503937008,
        "noteName": "A#5",
        "duration": "20i"
      },
      {
        "time": "17472i",
        "midiNote": 82,
        "velocity": 0.4251968503937008,
        "noteName": "A#5",
        "duration": "15i"
      },
      {
        "time": "17509i",
        "midiNote": 82,
        "velocity": 0.3700787401574803,
        "noteName": "A#5",
        "duration": "15i"
      },
      {
        "time": "17536i",
        "midiNote": 37,
        "velocity": 0.8976377952755905,
        "noteName": "C#2",
        "duration": "21i"
      },
      {
        "time": "17536i",
        "midiNote": 82,
        "velocity": 0.3700787401574803,
        "noteName": "A#5",
        "duration": "30i"
      },
      {
        "time": "17600i",
        "midiNote": 82,
        "velocity": 0.4330708661417323,
        "noteName": "A#5",
        "duration": "13i"
      },
      {
        "time": "17637i",
        "midiNote": 82,
        "velocity": 0.4015748031496063,
        "noteName": "A#5",
        "duration": "14i"
      },
      {
        "time": "17664i",
        "midiNote": 75,
        "velocity": 0.5905511811023622,
        "noteName": "D#5",
        "duration": "15i"
      },
      {
        "time": "17664i",
        "midiNote": 82,
        "velocity": 0.3858267716535433,
        "noteName": "A#5",
        "duration": "19i"
      },
      {
        "time": "17728i",
        "midiNote": 36,
        "velocity": 0.84251968503937,
        "noteName": "C2",
        "duration": "13i"
      },
      {
        "time": "17728i",
        "midiNote": 82,
        "velocity": 0.4015748031496063,
        "noteName": "A#5",
        "duration": "14i"
      },
      {
        "time": "17765i",
        "midiNote": 75,
        "velocity": 0.6771653543307087,
        "noteName": "D#5",
        "duration": "18i"
      },
      {
        "time": "17765i",
        "midiNote": 82,
        "velocity": 0.3779527559055118,
        "noteName": "A#5",
        "duration": "17i"
      },
      {
        "time": "17792i",
        "midiNote": 37,
        "velocity": 0.8188976377952756,
        "noteName": "C#2",
        "duration": "19i"
      },
      {
        "time": "17792i",
        "midiNote": 82,
        "velocity": 0.41732283464566927,
        "noteName": "A#5",
        "duration": "20i"
      },
      {
        "time": "17827i",
        "midiNote": 36,
        "velocity": 0.7952755905511811,
        "noteName": "C2",
        "duration": "13i"
      },
      {
        "time": "17856i",
        "midiNote": 75,
        "velocity": 0.7795275590551181,
        "noteName": "D#5",
        "duration": "17i"
      },
      {
        "time": "17856i",
        "midiNote": 82,
        "velocity": 0.41732283464566927,
        "noteName": "A#5",
        "duration": "13i"
      },
      {
        "time": "17893i",
        "midiNote": 82,
        "velocity": 0.4015748031496063,
        "noteName": "A#5",
        "duration": "14i"
      },
      {
        "time": "17920i",
        "midiNote": 36,
        "velocity": 0.7952755905511811,
        "noteName": "C2",
        "duration": "19i"
      },
      {
        "time": "17920i",
        "midiNote": 82,
        "velocity": 0.47244094488188976,
        "noteName": "A#5",
        "duration": "17i"
      },
      {
        "time": "17984i",
        "midiNote": 82,
        "velocity": 0.4015748031496063,
        "noteName": "A#5",
        "duration": "12i"
      },
      {
        "time": "18021i",
        "midiNote": 82,
        "velocity": 0.36220472440944884,
        "noteName": "A#5",
        "duration": "13i"
      },
      {
        "time": "18048i",
        "midiNote": 37,
        "velocity": 0.8976377952755905,
        "noteName": "C#2",
        "duration": "19i"
      },
      {
        "time": "18048i",
        "midiNote": 82,
        "velocity": 0.3700787401574803,
        "noteName": "A#5",
        "duration": "17i"
      },
      {
        "time": "18112i",
        "midiNote": 36,
        "velocity": 0.7952755905511811,
        "noteName": "C2",
        "duration": "17i"
      },
      {
        "time": "18112i",
        "midiNote": 82,
        "velocity": 0.3937007874015748,
        "noteName": "A#5",
        "duration": "11i"
      },
      {
        "time": "18149i",
        "midiNote": 82,
        "velocity": 0.3700787401574803,
        "noteName": "A#5",
        "duration": "10i"
      },
      {
        "time": "18176i",
        "midiNote": 82,
        "velocity": 0.4015748031496063,
        "noteName": "A#5",
        "duration": "15i"
      },
      {
        "time": "18240i",
        "midiNote": 82,
        "velocity": 0.4015748031496063,
        "noteName": "A#5",
        "duration": "12i"
      },
      {
        "time": "18277i",
        "midiNote": 82,
        "velocity": 0.41732283464566927,
        "noteName": "A#5",
        "duration": "13i"
      },
      {
        "time": "18304i",
        "midiNote": 37,
        "velocity": 0.8976377952755905,
        "noteName": "C#2",
        "duration": "25i"
      },
      {
        "time": "18304i",
        "midiNote": 82,
        "velocity": 0.3937007874015748,
        "noteName": "A#5",
        "duration": "14i"
      },
      {
        "time": "18368i",
        "midiNote": 36,
        "velocity": 0.7165354330708661,
        "noteName": "C2",
        "duration": "16i"
      },
      {
        "time": "18368i",
        "midiNote": 82,
        "velocity": 0.3937007874015748,
        "noteName": "A#5",
        "duration": "9i"
      },
      {
        "time": "18405i",
        "midiNote": 82,
        "velocity": 0.3779527559055118,
        "noteName": "A#5",
        "duration": "11i"
      },
      {
        "time": "18432i",
        "midiNote": 36,
        "velocity": 0.7952755905511811,
        "noteName": "C2",
        "duration": "17i"
      },
      {
        "time": "18432i",
        "midiNote": 82,
        "velocity": 0.4251968503937008,
        "noteName": "A#5",
        "duration": "19i"
      },
      {
        "time": "18496i",
        "midiNote": 82,
        "velocity": 0.3543307086614173,
        "noteName": "A#5",
        "duration": "9i"
      },
      {
        "time": "18533i",
        "midiNote": 82,
        "velocity": 0.36220472440944884,
        "noteName": "A#5",
        "duration": "12i"
      },
      {
        "time": "18560i",
        "midiNote": 37,
        "velocity": 0.8188976377952756,
        "noteName": "C#2",
        "duration": "23i"
      },
      {
        "time": "18560i",
        "midiNote": 82,
        "velocity": 0.4015748031496063,
        "noteName": "A#5",
        "duration": "13i"
      },
      {
        "time": "18624i",
        "midiNote": 82,
        "velocity": 0.47244094488188976,
        "noteName": "A#5",
        "duration": "86i"
      },
      {
        "time": "18688i",
        "midiNote": 75,
        "velocity": 0.5905511811023622,
        "noteName": "D#5",
        "duration": "15i"
      },
      {
        "time": "18752i",
        "midiNote": 36,
        "velocity": 0.84251968503937,
        "noteName": "C2",
        "duration": "13i"
      },
      {
        "time": "18752i",
        "midiNote": 82,
        "velocity": 0.4566929133858268,
        "noteName": "A#5",
        "duration": "25i"
      },
      {
        "time": "18789i",
        "midiNote": 75,
        "velocity": 0.6771653543307087,
        "noteName": "D#5",
        "duration": "18i"
      },
      {
        "time": "18816i",
        "midiNote": 37,
        "velocity": 0.8976377952755905,
        "noteName": "C#2",
        "duration": "17i"
      },
      {
        "time": "18851i",
        "midiNote": 36,
        "velocity": 0.7952755905511811,
        "noteName": "C2",
        "duration": "13i"
      },
      {
        "time": "18880i",
        "midiNote": 75,
        "velocity": 0.7795275590551181,
        "noteName": "D#5",
        "duration": "17i"
      },
      {
        "time": "18880i",
        "midiNote": 82,
        "velocity": 0.4566929133858268,
        "noteName": "A#5",
        "duration": "13i"
      },
      {
        "time": "18917i",
        "midiNote": 82,
        "velocity": 0.4330708661417323,
        "noteName": "A#5",
        "duration": "7i"
      },
      {
        "time": "18944i",
        "midiNote": 36,
        "velocity": 0.7952755905511811,
        "noteName": "C2",
        "duration": "19i"
      },
      {
        "time": "18944i",
        "midiNote": 49,
        "velocity": 0.48031496062992124,
        "noteName": "C#3",
        "duration": "209i"
      },
      {
        "time": "18944i",
        "midiNote": 55,
        "velocity": 0.49606299212598426,
        "noteName": "G3",
        "duration": "209i"
      },
      {
        "time": "18944i",
        "midiNote": 82,
        "velocity": 0.4251968503937008,
        "noteName": "A#5",
        "duration": "21i"
      },
      {
        "time": "19008i",
        "midiNote": 82,
        "velocity": 0.3858267716535433,
        "noteName": "A#5",
        "duration": "17i"
      },
      {
        "time": "19045i",
        "midiNote": 82,
        "velocity": 0.3543307086614173,
        "noteName": "A#5",
        "duration": "15i"
      },
      {
        "time": "19072i",
        "midiNote": 37,
        "velocity": 0.7795275590551181,
        "noteName": "C#2",
        "duration": "21i"
      },
      {
        "time": "19072i",
        "midiNote": 82,
        "velocity": 0.4330708661417323,
        "noteName": "A#5",
        "duration": "21i"
      },
      {
        "time": "19136i",
        "midiNote": 36,
        "velocity": 0.7952755905511811,
        "noteName": "C2",
        "duration": "17i"
      },
      {
        "time": "19136i",
        "midiNote": 82,
        "velocity": 0.4251968503937008,
        "noteName": "A#5",
        "duration": "16i"
      },
      {
        "time": "19173i",
        "midiNote": 82,
        "velocity": 0.3779527559055118,
        "noteName": "A#5",
        "duration": "15i"
      },
      {
        "time": "19200i",
        "midiNote": 82,
        "velocity": 0.4251968503937008,
        "noteName": "A#5",
        "duration": "23i"
      },
      {
        "time": "19264i",
        "midiNote": 82,
        "velocity": 0.41732283464566927,
        "noteName": "A#5",
        "duration": "13i"
      },
      {
        "time": "19301i",
        "midiNote": 82,
        "velocity": 0.3858267716535433,
        "noteName": "A#5",
        "duration": "13i"
      },
      {
        "time": "19328i",
        "midiNote": 37,
        "velocity": 0.8976377952755905,
        "noteName": "C#2",
        "duration": "17i"
      },
      {
        "time": "19328i",
        "midiNote": 82,
        "velocity": 0.41732283464566927,
        "noteName": "A#5",
        "duration": "18i"
      },
      {
        "time": "19392i",
        "midiNote": 36,
        "velocity": 0.7165354330708661,
        "noteName": "C2",
        "duration": "16i"
      },
      {
        "time": "19392i",
        "midiNote": 82,
        "velocity": 0.3700787401574803,
        "noteName": "A#5",
        "duration": "16i"
      },
      {
        "time": "19429i",
        "midiNote": 82,
        "velocity": 0.3937007874015748,
        "noteName": "A#5",
        "duration": "16i"
      },
      {
        "time": "19456i",
        "midiNote": 36,
        "velocity": 0.7952755905511811,
        "noteName": "C2",
        "duration": "17i"
      },
      {
        "time": "19456i",
        "midiNote": 82,
        "velocity": 0.4251968503937008,
        "noteName": "A#5",
        "duration": "20i"
      },
      {
        "time": "19520i",
        "midiNote": 82,
        "velocity": 0.4251968503937008,
        "noteName": "A#5",
        "duration": "15i"
      },
      {
        "time": "19557i",
        "midiNote": 82,
        "velocity": 0.3700787401574803,
        "noteName": "A#5",
        "duration": "15i"
      },
      {
        "time": "19584i",
        "midiNote": 37,
        "velocity": 0.8976377952755905,
        "noteName": "C#2",
        "duration": "21i"
      },
      {
        "time": "19584i",
        "midiNote": 82,
        "velocity": 0.3700787401574803,
        "noteName": "A#5",
        "duration": "30i"
      },
      {
        "time": "19648i",
        "midiNote": 82,
        "velocity": 0.4330708661417323,
        "noteName": "A#5",
        "duration": "13i"
      },
      {
        "time": "19685i",
        "midiNote": 82,
        "velocity": 0.4015748031496063,
        "noteName": "A#5",
        "duration": "14i"
      },
      {
        "time": "19712i",
        "midiNote": 75,
        "velocity": 0.5905511811023622,
        "noteName": "D#5",
        "duration": "15i"
      },
      {
        "time": "19712i",
        "midiNote": 82,
        "velocity": 0.3858267716535433,
        "noteName": "A#5",
        "duration": "19i"
      },
      {
        "time": "19776i",
        "midiNote": 36,
        "velocity": 0.84251968503937,
        "noteName": "C2",
        "duration": "13i"
      },
      {
        "time": "19776i",
        "midiNote": 82,
        "velocity": 0.4015748031496063,
        "noteName": "A#5",
        "duration": "14i"
      },
      {
        "time": "19813i",
        "midiNote": 75,
        "velocity": 0.6771653543307087,
        "noteName": "D#5",
        "duration": "18i"
      },
      {
        "time": "19813i",
        "midiNote": 82,
        "velocity": 0.3779527559055118,
        "noteName": "A#5",
        "duration": "17i"
      },
      {
        "time": "19840i",
        "midiNote": 37,
        "velocity": 0.8188976377952756,
        "noteName": "C#2",
        "duration": "19i"
      },
      {
        "time": "19840i",
        "midiNote": 82,
        "velocity": 0.41732283464566927,
        "noteName": "A#5",
        "duration": "20i"
      },
      {
        "time": "19875i",
        "midiNote": 36,
        "velocity": 0.7952755905511811,
        "noteName": "C2",
        "duration": "13i"
      },
      {
        "time": "19904i",
        "midiNote": 75,
        "velocity": 0.7795275590551181,
        "noteName": "D#5",
        "duration": "17i"
      },
      {
        "time": "19904i",
        "midiNote": 82,
        "velocity": 0.41732283464566927,
        "noteName": "A#5",
        "duration": "13i"
      },
      {
        "time": "19941i",
        "midiNote": 82,
        "velocity": 0.4015748031496063,
        "noteName": "A#5",
        "duration": "14i"
      },
      {
        "time": "19968i",
        "midiNote": 36,
        "velocity": 0.7952755905511811,
        "noteName": "C2",
        "duration": "19i"
      },
      {
        "time": "19968i",
        "midiNote": 82,
        "velocity": 0.47244094488188976,
        "noteName": "A#5",
        "duration": "17i"
      },
      {
        "time": "20032i",
        "midiNote": 82,
        "velocity": 0.4015748031496063,
        "noteName": "A#5",
        "duration": "12i"
      },
      {
        "time": "20069i",
        "midiNote": 82,
        "velocity": 0.36220472440944884,
        "noteName": "A#5",
        "duration": "13i"
      },
      {
        "time": "20096i",
        "midiNote": 37,
        "velocity": 0.8976377952755905,
        "noteName": "C#2",
        "duration": "19i"
      },
      {
        "time": "20096i",
        "midiNote": 82,
        "velocity": 0.3700787401574803,
        "noteName": "A#5",
        "duration": "17i"
      },
      {
        "time": "20160i",
        "midiNote": 36,
        "velocity": 0.7952755905511811,
        "noteName": "C2",
        "duration": "17i"
      },
      {
        "time": "20160i",
        "midiNote": 82,
        "velocity": 0.3937007874015748,
        "noteName": "A#5",
        "duration": "11i"
      },
      {
        "time": "20197i",
        "midiNote": 82,
        "velocity": 0.3700787401574803,
        "noteName": "A#5",
        "duration": "10i"
      },
      {
        "time": "20224i",
        "midiNote": 82,
        "velocity": 0.4015748031496063,
        "noteName": "A#5",
        "duration": "15i"
      },
      {
        "time": "20288i",
        "midiNote": 82,
        "velocity": 0.4015748031496063,
        "noteName": "A#5",
        "duration": "12i"
      },
      {
        "time": "20325i",
        "midiNote": 82,
        "velocity": 0.41732283464566927,
        "noteName": "A#5",
        "duration": "13i"
      },
      {
        "time": "20352i",
        "midiNote": 37,
        "velocity": 0.8976377952755905,
        "noteName": "C#2",
        "duration": "25i"
      },
      {
        "time": "20352i",
        "midiNote": 82,
        "velocity": 0.3937007874015748,
        "noteName": "A#5",
        "duration": "14i"
      },
      {
        "time": "20416i",
        "midiNote": 36,
        "velocity": 0.7165354330708661,
        "noteName": "C2",
        "duration": "16i"
      },
      {
        "time": "20416i",
        "midiNote": 82,
        "velocity": 0.3937007874015748,
        "noteName": "A#5",
        "duration": "9i"
      },
      {
        "time": "20453i",
        "midiNote": 82,
        "velocity": 0.3779527559055118,
        "noteName": "A#5",
        "duration": "11i"
      },
      {
        "time": "20480i",
        "midiNote": 36,
        "velocity": 0.7952755905511811,
        "noteName": "C2",
        "duration": "17i"
      },
      {
        "time": "20480i",
        "midiNote": 82,
        "velocity": 0.4251968503937008,
        "noteName": "A#5",
        "duration": "19i"
      },
      {
        "time": "20544i",
        "midiNote": 82,
        "velocity": 0.3543307086614173,
        "noteName": "A#5",
        "duration": "9i"
      },
      {
        "time": "20581i",
        "midiNote": 82,
        "velocity": 0.36220472440944884,
        "noteName": "A#5",
        "duration": "12i"
      },
      {
        "time": "20608i",
        "midiNote": 37,
        "velocity": 0.8188976377952756,
        "noteName": "C#2",
        "duration": "23i"
      },
      {
        "time": "20608i",
        "midiNote": 82,
        "velocity": 0.4015748031496063,
        "noteName": "A#5",
        "duration": "13i"
      },
      {
        "time": "20672i",
        "midiNote": 82,
        "velocity": 0.47244094488188976,
        "noteName": "A#5",
        "duration": "86i"
      },
      {
        "time": "20736i",
        "midiNote": 75,
        "velocity": 0.5905511811023622,
        "noteName": "D#5",
        "duration": "15i"
      },
      {
        "time": "20800i",
        "midiNote": 36,
        "velocity": 0.84251968503937,
        "noteName": "C2",
        "duration": "13i"
      },
      {
        "time": "20800i",
        "midiNote": 82,
        "velocity": 0.4566929133858268,
        "noteName": "A#5",
        "duration": "25i"
      },
      {
        "time": "20837i",
        "midiNote": 75,
        "velocity": 0.6771653543307087,
        "noteName": "D#5",
        "duration": "18i"
      },
      {
        "time": "20864i",
        "midiNote": 37,
        "velocity": 0.8976377952755905,
        "noteName": "C#2",
        "duration": "17i"
      },
      {
        "time": "20899i",
        "midiNote": 36,
        "velocity": 0.7952755905511811,
        "noteName": "C2",
        "duration": "13i"
      },
      {
        "time": "20928i",
        "midiNote": 75,
        "velocity": 0.7795275590551181,
        "noteName": "D#5",
        "duration": "17i"
      },
      {
        "time": "20928i",
        "midiNote": 82,
        "velocity": 0.4566929133858268,
        "noteName": "A#5",
        "duration": "13i"
      },
      {
        "time": "20965i",
        "midiNote": 82,
        "velocity": 0.4330708661417323,
        "noteName": "A#5",
        "duration": "7i"
      },
      {
        "time": "20992i",
        "midiNote": 36,
        "velocity": 0.7952755905511811,
        "noteName": "C2",
        "duration": "19i"
      },
      {
        "time": "20992i",
        "midiNote": 82,
        "velocity": 0.4251968503937008,
        "noteName": "A#5",
        "duration": "21i"
      },
      {
        "time": "21056i",
        "midiNote": 82,
        "velocity": 0.3858267716535433,
        "noteName": "A#5",
        "duration": "17i"
      },
      {
        "time": "21093i",
        "midiNote": 82,
        "velocity": 0.3543307086614173,
        "noteName": "A#5",
        "duration": "15i"
      },
      {
        "time": "21120i",
        "midiNote": 37,
        "velocity": 0.7795275590551181,
        "noteName": "C#2",
        "duration": "21i"
      },
      {
        "time": "21120i",
        "midiNote": 82,
        "velocity": 0.4330708661417323,
        "noteName": "A#5",
        "duration": "21i"
      },
      {
        "time": "21184i",
        "midiNote": 36,
        "velocity": 0.7952755905511811,
        "noteName": "C2",
        "duration": "17i"
      },
      {
        "time": "21184i",
        "midiNote": 82,
        "velocity": 0.4251968503937008,
        "noteName": "A#5",
        "duration": "16i"
      },
      {
        "time": "21221i",
        "midiNote": 82,
        "velocity": 0.3779527559055118,
        "noteName": "A#5",
        "duration": "15i"
      },
      {
        "time": "21248i",
        "midiNote": 82,
        "velocity": 0.4251968503937008,
        "noteName": "A#5",
        "duration": "23i"
      },
      {
        "time": "21312i",
        "midiNote": 82,
        "velocity": 0.41732283464566927,
        "noteName": "A#5",
        "duration": "13i"
      },
      {
        "time": "21349i",
        "midiNote": 82,
        "velocity": 0.3858267716535433,
        "noteName": "A#5",
        "duration": "13i"
      },
      {
        "time": "21376i",
        "midiNote": 37,
        "velocity": 0.8976377952755905,
        "noteName": "C#2",
        "duration": "17i"
      },
      {
        "time": "21376i",
        "midiNote": 82,
        "velocity": 0.41732283464566927,
        "noteName": "A#5",
        "duration": "18i"
      },
      {
        "time": "21440i",
        "midiNote": 36,
        "velocity": 0.7165354330708661,
        "noteName": "C2",
        "duration": "16i"
      },
      {
        "time": "21440i",
        "midiNote": 82,
        "velocity": 0.3700787401574803,
        "noteName": "A#5",
        "duration": "16i"
      },
      {
        "time": "21477i",
        "midiNote": 82,
        "velocity": 0.3937007874015748,
        "noteName": "A#5",
        "duration": "16i"
      },
      {
        "time": "21504i",
        "midiNote": 36,
        "velocity": 0.7952755905511811,
        "noteName": "C2",
        "duration": "17i"
      },
      {
        "time": "21504i",
        "midiNote": 82,
        "velocity": 0.4251968503937008,
        "noteName": "A#5",
        "duration": "20i"
      },
      {
        "time": "21568i",
        "midiNote": 82,
        "velocity": 0.4251968503937008,
        "noteName": "A#5",
        "duration": "15i"
      },
      {
        "time": "21605i",
        "midiNote": 82,
        "velocity": 0.3700787401574803,
        "noteName": "A#5",
        "duration": "15i"
      },
      {
        "time": "21632i",
        "midiNote": 37,
        "velocity": 0.8976377952755905,
        "noteName": "C#2",
        "duration": "21i"
      },
      {
        "time": "21632i",
        "midiNote": 82,
        "velocity": 0.3700787401574803,
        "noteName": "A#5",
        "duration": "30i"
      },
      {
        "time": "21696i",
        "midiNote": 82,
        "velocity": 0.4330708661417323,
        "noteName": "A#5",
        "duration": "13i"
      },
      {
        "time": "21733i",
        "midiNote": 82,
        "velocity": 0.4015748031496063,
        "noteName": "A#5",
        "duration": "14i"
      },
      {
        "time": "21760i",
        "midiNote": 75,
        "velocity": 0.5905511811023622,
        "noteName": "D#5",
        "duration": "15i"
      },
      {
        "time": "21760i",
        "midiNote": 82,
        "velocity": 0.3858267716535433,
        "noteName": "A#5",
        "duration": "19i"
      },
      {
        "time": "21824i",
        "midiNote": 36,
        "velocity": 0.84251968503937,
        "noteName": "C2",
        "duration": "13i"
      },
      {
        "time": "21824i",
        "midiNote": 82,
        "velocity": 0.4015748031496063,
        "noteName": "A#5",
        "duration": "14i"
      },
      {
        "time": "21861i",
        "midiNote": 75,
        "velocity": 0.6771653543307087,
        "noteName": "D#5",
        "duration": "18i"
      },
      {
        "time": "21861i",
        "midiNote": 82,
        "velocity": 0.3779527559055118,
        "noteName": "A#5",
        "duration": "17i"
      },
      {
        "time": "21888i",
        "midiNote": 37,
        "velocity": 0.8188976377952756,
        "noteName": "C#2",
        "duration": "19i"
      },
      {
        "time": "21888i",
        "midiNote": 82,
        "velocity": 0.41732283464566927,
        "noteName": "A#5",
        "duration": "20i"
      },
      {
        "time": "21923i",
        "midiNote": 36,
        "velocity": 0.7952755905511811,
        "noteName": "C2",
        "duration": "13i"
      },
      {
        "time": "21952i",
        "midiNote": 75,
        "velocity": 0.7795275590551181,
        "noteName": "D#5",
        "duration": "17i"
      },
      {
        "time": "21952i",
        "midiNote": 82,
        "velocity": 0.41732283464566927,
        "noteName": "A#5",
        "duration": "13i"
      },
      {
        "time": "21989i",
        "midiNote": 82,
        "velocity": 0.4015748031496063,
        "noteName": "A#5",
        "duration": "14i"
      },
      {
        "time": "22016i",
        "midiNote": 36,
        "velocity": 0.7952755905511811,
        "noteName": "C2",
        "duration": "19i"
      },
      {
        "time": "22016i",
        "midiNote": 82,
        "velocity": 0.47244094488188976,
        "noteName": "A#5",
        "duration": "17i"
      },
      {
        "time": "22080i",
        "midiNote": 82,
        "velocity": 0.4015748031496063,
        "noteName": "A#5",
        "duration": "12i"
      },
      {
        "time": "22117i",
        "midiNote": 82,
        "velocity": 0.36220472440944884,
        "noteName": "A#5",
        "duration": "13i"
      },
      {
        "time": "22144i",
        "midiNote": 37,
        "velocity": 0.8976377952755905,
        "noteName": "C#2",
        "duration": "19i"
      },
      {
        "time": "22144i",
        "midiNote": 82,
        "velocity": 0.3700787401574803,
        "noteName": "A#5",
        "duration": "17i"
      },
      {
        "time": "22208i",
        "midiNote": 36,
        "velocity": 0.7952755905511811,
        "noteName": "C2",
        "duration": "17i"
      },
      {
        "time": "22208i",
        "midiNote": 82,
        "velocity": 0.3937007874015748,
        "noteName": "A#5",
        "duration": "11i"
      },
      {
        "time": "22245i",
        "midiNote": 82,
        "velocity": 0.3700787401574803,
        "noteName": "A#5",
        "duration": "10i"
      },
      {
        "time": "22272i",
        "midiNote": 82,
        "velocity": 0.4015748031496063,
        "noteName": "A#5",
        "duration": "15i"
      },
      {
        "time": "22336i",
        "midiNote": 82,
        "velocity": 0.4015748031496063,
        "noteName": "A#5",
        "duration": "12i"
      },
      {
        "time": "22373i",
        "midiNote": 82,
        "velocity": 0.41732283464566927,
        "noteName": "A#5",
        "duration": "13i"
      },
      {
        "time": "22400i",
        "midiNote": 37,
        "velocity": 0.8976377952755905,
        "noteName": "C#2",
        "duration": "25i"
      },
      {
        "time": "22400i",
        "midiNote": 82,
        "velocity": 0.3937007874015748,
        "noteName": "A#5",
        "duration": "14i"
      },
      {
        "time": "22464i",
        "midiNote": 36,
        "velocity": 0.7165354330708661,
        "noteName": "C2",
        "duration": "16i"
      },
      {
        "time": "22464i",
        "midiNote": 82,
        "velocity": 0.3937007874015748,
        "noteName": "A#5",
        "duration": "9i"
      },
      {
        "time": "22501i",
        "midiNote": 82,
        "velocity": 0.3779527559055118,
        "noteName": "A#5",
        "duration": "11i"
      },
      {
        "time": "22528i",
        "midiNote": 36,
        "velocity": 0.7952755905511811,
        "noteName": "C2",
        "duration": "17i"
      },
      {
        "time": "22528i",
        "midiNote": 82,
        "velocity": 0.4251968503937008,
        "noteName": "A#5",
        "duration": "19i"
      },
      {
        "time": "22592i",
        "midiNote": 82,
        "velocity": 0.3543307086614173,
        "noteName": "A#5",
        "duration": "9i"
      },
      {
        "time": "22629i",
        "midiNote": 82,
        "velocity": 0.36220472440944884,
        "noteName": "A#5",
        "duration": "12i"
      },
      {
        "time": "22656i",
        "midiNote": 37,
        "velocity": 0.8188976377952756,
        "noteName": "C#2",
        "duration": "23i"
      },
      {
        "time": "22656i",
        "midiNote": 82,
        "velocity": 0.4015748031496063,
        "noteName": "A#5",
        "duration": "13i"
      },
      {
        "time": "22720i",
        "midiNote": 82,
        "velocity": 0.47244094488188976,
        "noteName": "A#5",
        "duration": "86i"
      },
      {
        "time": "22784i",
        "midiNote": 75,
        "velocity": 0.5905511811023622,
        "noteName": "D#5",
        "duration": "15i"
      },
      {
        "time": "22848i",
        "midiNote": 36,
        "velocity": 0.84251968503937,
        "noteName": "C2",
        "duration": "13i"
      },
      {
        "time": "22848i",
        "midiNote": 82,
        "velocity": 0.4566929133858268,
        "noteName": "A#5",
        "duration": "25i"
      },
      {
        "time": "22885i",
        "midiNote": 75,
        "velocity": 0.6771653543307087,
        "noteName": "D#5",
        "duration": "18i"
      },
      {
        "time": "22912i",
        "midiNote": 37,
        "velocity": 0.8976377952755905,
        "noteName": "C#2",
        "duration": "17i"
      },
      {
        "time": "22947i",
        "midiNote": 36,
        "velocity": 0.7952755905511811,
        "noteName": "C2",
        "duration": "13i"
      },
      {
        "time": "22976i",
        "midiNote": 75,
        "velocity": 0.7795275590551181,
        "noteName": "D#5",
        "duration": "17i"
      },
      {
        "time": "22976i",
        "midiNote": 82,
        "velocity": 0.4566929133858268,
        "noteName": "A#5",
        "duration": "13i"
      },
      {
        "time": "23013i",
        "midiNote": 82,
        "velocity": 0.4330708661417323,
        "noteName": "A#5",
        "duration": "7i"
      },
      {
        "time": "23040i",
        "midiNote": 36,
        "velocity": 0.7952755905511811,
        "noteName": "C2",
        "duration": "19i"
      },
      {
        "time": "23040i",
        "midiNote": 49,
        "velocity": 0.48031496062992124,
        "noteName": "C#3",
        "duration": "209i"
      },
      {
        "time": "23040i",
        "midiNote": 55,
        "velocity": 0.49606299212598426,
        "noteName": "G3",
        "duration": "209i"
      },
      {
        "time": "23040i",
        "midiNote": 82,
        "velocity": 0.4251968503937008,
        "noteName": "A#5",
        "duration": "21i"
      },
      {
        "time": "23104i",
        "midiNote": 82,
        "velocity": 0.3858267716535433,
        "noteName": "A#5",
        "duration": "17i"
      },
      {
        "time": "23141i",
        "midiNote": 82,
        "velocity": 0.3543307086614173,
        "noteName": "A#5",
        "duration": "15i"
      },
      {
        "time": "23168i",
        "midiNote": 37,
        "velocity": 0.7795275590551181,
        "noteName": "C#2",
        "duration": "21i"
      },
      {
        "time": "23168i",
        "midiNote": 82,
        "velocity": 0.4330708661417323,
        "noteName": "A#5",
        "duration": "21i"
      },
      {
        "time": "23232i",
        "midiNote": 36,
        "velocity": 0.7952755905511811,
        "noteName": "C2",
        "duration": "17i"
      },
      {
        "time": "23232i",
        "midiNote": 82,
        "velocity": 0.4251968503937008,
        "noteName": "A#5",
        "duration": "16i"
      },
      {
        "time": "23269i",
        "midiNote": 82,
        "velocity": 0.3779527559055118,
        "noteName": "A#5",
        "duration": "15i"
      },
      {
        "time": "23296i",
        "midiNote": 82,
        "velocity": 0.4251968503937008,
        "noteName": "A#5",
        "duration": "23i"
      },
      {
        "time": "23360i",
        "midiNote": 82,
        "velocity": 0.41732283464566927,
        "noteName": "A#5",
        "duration": "13i"
      },
      {
        "time": "23397i",
        "midiNote": 82,
        "velocity": 0.3858267716535433,
        "noteName": "A#5",
        "duration": "13i"
      },
      {
        "time": "23424i",
        "midiNote": 37,
        "velocity": 0.8976377952755905,
        "noteName": "C#2",
        "duration": "17i"
      },
      {
        "time": "23424i",
        "midiNote": 82,
        "velocity": 0.41732283464566927,
        "noteName": "A#5",
        "duration": "18i"
      },
      {
        "time": "23488i",
        "midiNote": 36,
        "velocity": 0.7165354330708661,
        "noteName": "C2",
        "duration": "16i"
      },
      {
        "time": "23488i",
        "midiNote": 82,
        "velocity": 0.3700787401574803,
        "noteName": "A#5",
        "duration": "16i"
      },
      {
        "time": "23525i",
        "midiNote": 82,
        "velocity": 0.3937007874015748,
        "noteName": "A#5",
        "duration": "16i"
      },
      {
        "time": "23552i",
        "midiNote": 36,
        "velocity": 0.7952755905511811,
        "noteName": "C2",
        "duration": "17i"
      },
      {
        "time": "23552i",
        "midiNote": 82,
        "velocity": 0.4251968503937008,
        "noteName": "A#5",
        "duration": "20i"
      },
      {
        "time": "23616i",
        "midiNote": 82,
        "velocity": 0.4251968503937008,
        "noteName": "A#5",
        "duration": "15i"
      },
      {
        "time": "23653i",
        "midiNote": 82,
        "velocity": 0.3700787401574803,
        "noteName": "A#5",
        "duration": "15i"
      },
      {
        "time": "23680i",
        "midiNote": 37,
        "velocity": 0.8976377952755905,
        "noteName": "C#2",
        "duration": "21i"
      },
      {
        "time": "23680i",
        "midiNote": 82,
        "velocity": 0.3700787401574803,
        "noteName": "A#5",
        "duration": "30i"
      },
      {
        "time": "23744i",
        "midiNote": 82,
        "velocity": 0.4330708661417323,
        "noteName": "A#5",
        "duration": "13i"
      },
      {
        "time": "23781i",
        "midiNote": 82,
        "velocity": 0.4015748031496063,
        "noteName": "A#5",
        "duration": "14i"
      },
      {
        "time": "23808i",
        "midiNote": 75,
        "velocity": 0.5905511811023622,
        "noteName": "D#5",
        "duration": "15i"
      },
      {
        "time": "23808i",
        "midiNote": 82,
        "velocity": 0.3858267716535433,
        "noteName": "A#5",
        "duration": "19i"
      },
      {
        "time": "23872i",
        "midiNote": 36,
        "velocity": 0.84251968503937,
        "noteName": "C2",
        "duration": "13i"
      },
      {
        "time": "23872i",
        "midiNote": 82,
        "velocity": 0.4015748031496063,
        "noteName": "A#5",
        "duration": "14i"
      },
      {
        "time": "23909i",
        "midiNote": 75,
        "velocity": 0.6771653543307087,
        "noteName": "D#5",
        "duration": "18i"
      },
      {
        "time": "23909i",
        "midiNote": 82,
        "velocity": 0.3779527559055118,
        "noteName": "A#5",
        "duration": "17i"
      },
      {
        "time": "23936i",
        "midiNote": 37,
        "velocity": 0.8188976377952756,
        "noteName": "C#2",
        "duration": "19i"
      },
      {
        "time": "23936i",
        "midiNote": 82,
        "velocity": 0.41732283464566927,
        "noteName": "A#5",
        "duration": "20i"
      },
      {
        "time": "23971i",
        "midiNote": 36,
        "velocity": 0.7952755905511811,
        "noteName": "C2",
        "duration": "13i"
      },
      {
        "time": "24000i",
        "midiNote": 75,
        "velocity": 0.7795275590551181,
        "noteName": "D#5",
        "duration": "17i"
      },
      {
        "time": "24000i",
        "midiNote": 82,
        "velocity": 0.41732283464566927,
        "noteName": "A#5",
        "duration": "13i"
      },
      {
        "time": "24037i",
        "midiNote": 82,
        "velocity": 0.4015748031496063,
        "noteName": "A#5",
        "duration": "14i"
      },
      {
        "time": "24064i",
        "midiNote": 36,
        "velocity": 0.7952755905511811,
        "noteName": "C2",
        "duration": "19i"
      },
      {
        "time": "24064i",
        "midiNote": 82,
        "velocity": 0.47244094488188976,
        "noteName": "A#5",
        "duration": "17i"
      },
      {
        "time": "24128i",
        "midiNote": 82,
        "velocity": 0.4015748031496063,
        "noteName": "A#5",
        "duration": "12i"
      },
      {
        "time": "24165i",
        "midiNote": 82,
        "velocity": 0.36220472440944884,
        "noteName": "A#5",
        "duration": "13i"
      },
      {
        "time": "24192i",
        "midiNote": 37,
        "velocity": 0.8976377952755905,
        "noteName": "C#2",
        "duration": "19i"
      },
      {
        "time": "24192i",
        "midiNote": 82,
        "velocity": 0.3700787401574803,
        "noteName": "A#5",
        "duration": "17i"
      },
      {
        "time": "24256i",
        "midiNote": 36,
        "velocity": 0.7952755905511811,
        "noteName": "C2",
        "duration": "17i"
      },
      {
        "time": "24256i",
        "midiNote": 82,
        "velocity": 0.3937007874015748,
        "noteName": "A#5",
        "duration": "11i"
      },
      {
        "time": "24293i",
        "midiNote": 82,
        "velocity": 0.3700787401574803,
        "noteName": "A#5",
        "duration": "10i"
      },
      {
        "time": "24320i",
        "midiNote": 82,
        "velocity": 0.4015748031496063,
        "noteName": "A#5",
        "duration": "15i"
      },
      {
        "time": "24384i",
        "midiNote": 82,
        "velocity": 0.4015748031496063,
        "noteName": "A#5",
        "duration": "12i"
      },
      {
        "time": "24421i",
        "midiNote": 82,
        "velocity": 0.41732283464566927,
        "noteName": "A#5",
        "duration": "13i"
      },
      {
        "time": "24448i",
        "midiNote": 37,
        "velocity": 0.8976377952755905,
        "noteName": "C#2",
        "duration": "25i"
      },
      {
        "time": "24448i",
        "midiNote": 82,
        "velocity": 0.3937007874015748,
        "noteName": "A#5",
        "duration": "14i"
      },
      {
        "time": "24512i",
        "midiNote": 36,
        "velocity": 0.7165354330708661,
        "noteName": "C2",
        "duration": "16i"
      },
      {
        "time": "24512i",
        "midiNote": 82,
        "velocity": 0.3937007874015748,
        "noteName": "A#5",
        "duration": "9i"
      },
      {
        "time": "24549i",
        "midiNote": 82,
        "velocity": 0.3779527559055118,
        "noteName": "A#5",
        "duration": "11i"
      },
      {
        "time": "24576i",
        "midiNote": 36,
        "velocity": 0.7952755905511811,
        "noteName": "C2",
        "duration": "17i"
      },
      {
        "time": "24576i",
        "midiNote": 82,
        "velocity": 0.4251968503937008,
        "noteName": "A#5",
        "duration": "19i"
      },
      {
        "time": "24640i",
        "midiNote": 82,
        "velocity": 0.3543307086614173,
        "noteName": "A#5",
        "duration": "9i"
      },
      {
        "time": "24677i",
        "midiNote": 82,
        "velocity": 0.36220472440944884,
        "noteName": "A#5",
        "duration": "12i"
      },
      {
        "time": "24704i",
        "midiNote": 37,
        "velocity": 0.8188976377952756,
        "noteName": "C#2",
        "duration": "23i"
      },
      {
        "time": "24704i",
        "midiNote": 82,
        "velocity": 0.4015748031496063,
        "noteName": "A#5",
        "duration": "13i"
      },
      {
        "time": "24768i",
        "midiNote": 82,
        "velocity": 0.47244094488188976,
        "noteName": "A#5",
        "duration": "86i"
      },
      {
        "time": "24832i",
        "midiNote": 75,
        "velocity": 0.5905511811023622,
        "noteName": "D#5",
        "duration": "15i"
      },
      {
        "time": "24896i",
        "midiNote": 36,
        "velocity": 0.84251968503937,
        "noteName": "C2",
        "duration": "13i"
      },
      {
        "time": "24896i",
        "midiNote": 82,
        "velocity": 0.4566929133858268,
        "noteName": "A#5",
        "duration": "25i"
      },
      {
        "time": "24933i",
        "midiNote": 75,
        "velocity": 0.6771653543307087,
        "noteName": "D#5",
        "duration": "18i"
      },
      {
        "time": "24960i",
        "midiNote": 37,
        "velocity": 0.8976377952755905,
        "noteName": "C#2",
        "duration": "17i"
      },
      {
        "time": "24995i",
        "midiNote": 36,
        "velocity": 0.7952755905511811,
        "noteName": "C2",
        "duration": "13i"
      },
      {
        "time": "25024i",
        "midiNote": 75,
        "velocity": 0.7795275590551181,
        "noteName": "D#5",
        "duration": "17i"
      },
      {
        "time": "25024i",
        "midiNote": 82,
        "velocity": 0.4566929133858268,
        "noteName": "A#5",
        "duration": "13i"
      },
      {
        "time": "25061i",
        "midiNote": 82,
        "velocity": 0.4330708661417323,
        "noteName": "A#5",
        "duration": "7i"
      },
      {
        "time": "25088i",
        "midiNote": 36,
        "velocity": 0.7952755905511811,
        "noteName": "C2",
        "duration": "19i"
      },
      {
        "time": "25088i",
        "midiNote": 49,
        "velocity": 0.48031496062992124,
        "noteName": "C#3",
        "duration": "209i"
      },
      {
        "time": "25088i",
        "midiNote": 55,
        "velocity": 0.49606299212598426,
        "noteName": "G3",
        "duration": "209i"
      },
      {
        "time": "25088i",
        "midiNote": 82,
        "velocity": 0.4251968503937008,
        "noteName": "A#5",
        "duration": "21i"
      },
      {
        "time": "25152i",
        "midiNote": 82,
        "velocity": 0.3858267716535433,
        "noteName": "A#5",
        "duration": "17i"
      },
      {
        "time": "25189i",
        "midiNote": 82,
        "velocity": 0.3543307086614173,
        "noteName": "A#5",
        "duration": "15i"
      },
      {
        "time": "25216i",
        "midiNote": 37,
        "velocity": 0.7795275590551181,
        "noteName": "C#2",
        "duration": "21i"
      },
      {
        "time": "25216i",
        "midiNote": 82,
        "velocity": 0.4330708661417323,
        "noteName": "A#5",
        "duration": "21i"
      },
      {
        "time": "25280i",
        "midiNote": 36,
        "velocity": 0.7952755905511811,
        "noteName": "C2",
        "duration": "17i"
      },
      {
        "time": "25280i",
        "midiNote": 82,
        "velocity": 0.4251968503937008,
        "noteName": "A#5",
        "duration": "16i"
      },
      {
        "time": "25317i",
        "midiNote": 82,
        "velocity": 0.3779527559055118,
        "noteName": "A#5",
        "duration": "15i"
      },
      {
        "time": "25344i",
        "midiNote": 82,
        "velocity": 0.4251968503937008,
        "noteName": "A#5",
        "duration": "23i"
      },
      {
        "time": "25408i",
        "midiNote": 82,
        "velocity": 0.41732283464566927,
        "noteName": "A#5",
        "duration": "13i"
      },
      {
        "time": "25445i",
        "midiNote": 82,
        "velocity": 0.3858267716535433,
        "noteName": "A#5",
        "duration": "13i"
      },
      {
        "time": "25472i",
        "midiNote": 37,
        "velocity": 0.8976377952755905,
        "noteName": "C#2",
        "duration": "17i"
      },
      {
        "time": "25472i",
        "midiNote": 82,
        "velocity": 0.41732283464566927,
        "noteName": "A#5",
        "duration": "18i"
      },
      {
        "time": "25536i",
        "midiNote": 36,
        "velocity": 0.7165354330708661,
        "noteName": "C2",
        "duration": "16i"
      },
      {
        "time": "25536i",
        "midiNote": 82,
        "velocity": 0.3700787401574803,
        "noteName": "A#5",
        "duration": "16i"
      },
      {
        "time": "25573i",
        "midiNote": 82,
        "velocity": 0.3937007874015748,
        "noteName": "A#5",
        "duration": "16i"
      },
      {
        "time": "25600i",
        "midiNote": 36,
        "velocity": 0.7952755905511811,
        "noteName": "C2",
        "duration": "17i"
      },
      {
        "time": "25600i",
        "midiNote": 82,
        "velocity": 0.4251968503937008,
        "noteName": "A#5",
        "duration": "20i"
      },
      {
        "time": "25664i",
        "midiNote": 82,
        "velocity": 0.4251968503937008,
        "noteName": "A#5",
        "duration": "15i"
      },
      {
        "time": "25701i",
        "midiNote": 82,
        "velocity": 0.3700787401574803,
        "noteName": "A#5",
        "duration": "15i"
      },
      {
        "time": "25728i",
        "midiNote": 37,
        "velocity": 0.8976377952755905,
        "noteName": "C#2",
        "duration": "21i"
      },
      {
        "time": "25728i",
        "midiNote": 82,
        "velocity": 0.3700787401574803,
        "noteName": "A#5",
        "duration": "30i"
      },
      {
        "time": "25792i",
        "midiNote": 82,
        "velocity": 0.4330708661417323,
        "noteName": "A#5",
        "duration": "13i"
      },
      {
        "time": "25829i",
        "midiNote": 82,
        "velocity": 0.4015748031496063,
        "noteName": "A#5",
        "duration": "14i"
      },
      {
        "time": "25856i",
        "midiNote": 75,
        "velocity": 0.5905511811023622,
        "noteName": "D#5",
        "duration": "15i"
      },
      {
        "time": "25856i",
        "midiNote": 82,
        "velocity": 0.3858267716535433,
        "noteName": "A#5",
        "duration": "19i"
      },
      {
        "time": "25920i",
        "midiNote": 36,
        "velocity": 0.84251968503937,
        "noteName": "C2",
        "duration": "13i"
      },
      {
        "time": "25920i",
        "midiNote": 82,
        "velocity": 0.4015748031496063,
        "noteName": "A#5",
        "duration": "14i"
      },
      {
        "time": "25957i",
        "midiNote": 75,
        "velocity": 0.6771653543307087,
        "noteName": "D#5",
        "duration": "18i"
      },
      {
        "time": "25957i",
        "midiNote": 82,
        "velocity": 0.3779527559055118,
        "noteName": "A#5",
        "duration": "17i"
      },
      {
        "time": "25984i",
        "midiNote": 37,
        "velocity": 0.8188976377952756,
        "noteName": "C#2",
        "duration": "19i"
      },
      {
        "time": "25984i",
        "midiNote": 82,
        "velocity": 0.41732283464566927,
        "noteName": "A#5",
        "duration": "20i"
      },
      {
        "time": "26019i",
        "midiNote": 36,
        "velocity": 0.7952755905511811,
        "noteName": "C2",
        "duration": "13i"
      },
      {
        "time": "26048i",
        "midiNote": 75,
        "velocity": 0.7795275590551181,
        "noteName": "D#5",
        "duration": "17i"
      },
      {
        "time": "26048i",
        "midiNote": 82,
        "velocity": 0.41732283464566927,
        "noteName": "A#5",
        "duration": "13i"
      },
      {
        "time": "26085i",
        "midiNote": 82,
        "velocity": 0.4015748031496063,
        "noteName": "A#5",
        "duration": "14i"
      },
      {
        "time": "26112i",
        "midiNote": 36,
        "velocity": 0.7952755905511811,
        "noteName": "C2",
        "duration": "19i"
      },
      {
        "time": "26112i",
        "midiNote": 82,
        "velocity": 0.47244094488188976,
        "noteName": "A#5",
        "duration": "17i"
      },
      {
        "time": "26176i",
        "midiNote": 82,
        "velocity": 0.4015748031496063,
        "noteName": "A#5",
        "duration": "12i"
      },
      {
        "time": "26213i",
        "midiNote": 82,
        "velocity": 0.36220472440944884,
        "noteName": "A#5",
        "duration": "13i"
      },
      {
        "time": "26240i",
        "midiNote": 37,
        "velocity": 0.8976377952755905,
        "noteName": "C#2",
        "duration": "19i"
      },
      {
        "time": "26240i",
        "midiNote": 82,
        "velocity": 0.3700787401574803,
        "noteName": "A#5",
        "duration": "17i"
      },
      {
        "time": "26304i",
        "midiNote": 36,
        "velocity": 0.7952755905511811,
        "noteName": "C2",
        "duration": "17i"
      },
      {
        "time": "26304i",
        "midiNote": 82,
        "velocity": 0.3937007874015748,
        "noteName": "A#5",
        "duration": "11i"
      },
      {
        "time": "26341i",
        "midiNote": 82,
        "velocity": 0.3700787401574803,
        "noteName": "A#5",
        "duration": "10i"
      },
      {
        "time": "26368i",
        "midiNote": 82,
        "velocity": 0.4015748031496063,
        "noteName": "A#5",
        "duration": "15i"
      },
      {
        "time": "26432i",
        "midiNote": 82,
        "velocity": 0.4015748031496063,
        "noteName": "A#5",
        "duration": "12i"
      },
      {
        "time": "26469i",
        "midiNote": 82,
        "velocity": 0.41732283464566927,
        "noteName": "A#5",
        "duration": "13i"
      },
      {
        "time": "26496i",
        "midiNote": 37,
        "velocity": 0.8976377952755905,
        "noteName": "C#2",
        "duration": "25i"
      },
      {
        "time": "26496i",
        "midiNote": 82,
        "velocity": 0.3937007874015748,
        "noteName": "A#5",
        "duration": "14i"
      },
      {
        "time": "26560i",
        "midiNote": 36,
        "velocity": 0.7165354330708661,
        "noteName": "C2",
        "duration": "16i"
      },
      {
        "time": "26560i",
        "midiNote": 82,
        "velocity": 0.3937007874015748,
        "noteName": "A#5",
        "duration": "9i"
      },
      {
        "time": "26597i",
        "midiNote": 82,
        "velocity": 0.3779527559055118,
        "noteName": "A#5",
        "duration": "11i"
      },
      {
        "time": "26624i",
        "midiNote": 36,
        "velocity": 0.7952755905511811,
        "noteName": "C2",
        "duration": "17i"
      },
      {
        "time": "26624i",
        "midiNote": 82,
        "velocity": 0.4251968503937008,
        "noteName": "A#5",
        "duration": "19i"
      },
      {
        "time": "26688i",
        "midiNote": 82,
        "velocity": 0.3543307086614173,
        "noteName": "A#5",
        "duration": "9i"
      },
      {
        "time": "26725i",
        "midiNote": 82,
        "velocity": 0.36220472440944884,
        "noteName": "A#5",
        "duration": "12i"
      },
      {
        "time": "26752i",
        "midiNote": 37,
        "velocity": 0.8188976377952756,
        "noteName": "C#2",
        "duration": "23i"
      },
      {
        "time": "26752i",
        "midiNote": 82,
        "velocity": 0.4015748031496063,
        "noteName": "A#5",
        "duration": "13i"
      },
      {
        "time": "26816i",
        "midiNote": 82,
        "velocity": 0.47244094488188976,
        "noteName": "A#5",
        "duration": "86i"
      },
      {
        "time": "26880i",
        "midiNote": 75,
        "velocity": 0.5905511811023622,
        "noteName": "D#5",
        "duration": "15i"
      },
      {
        "time": "26944i",
        "midiNote": 36,
        "velocity": 0.84251968503937,
        "noteName": "C2",
        "duration": "13i"
      },
      {
        "time": "26944i",
        "midiNote": 82,
        "velocity": 0.4566929133858268,
        "noteName": "A#5",
        "duration": "25i"
      },
      {
        "time": "26981i",
        "midiNote": 75,
        "velocity": 0.6771653543307087,
        "noteName": "D#5",
        "duration": "18i"
      },
      {
        "time": "27008i",
        "midiNote": 37,
        "velocity": 0.8976377952755905,
        "noteName": "C#2",
        "duration": "17i"
      },
      {
        "time": "27043i",
        "midiNote": 36,
        "velocity": 0.7952755905511811,
        "noteName": "C2",
        "duration": "13i"
      },
      {
        "time": "27072i",
        "midiNote": 75,
        "velocity": 0.7795275590551181,
        "noteName": "D#5",
        "duration": "17i"
      },
      {
        "time": "27072i",
        "midiNote": 82,
        "velocity": 0.4566929133858268,
        "noteName": "A#5",
        "duration": "13i"
      },
      {
        "time": "27109i",
        "midiNote": 82,
        "velocity": 0.4330708661417323,
        "noteName": "A#5",
        "duration": "7i"
      },
      {
        "time": "27136i",
        "midiNote": 36,
        "velocity": 0.7952755905511811,
        "noteName": "C2",
        "duration": "19i"
      },
      {
        "time": "27136i",
        "midiNote": 49,
        "velocity": 0.48031496062992124,
        "noteName": "C#3",
        "duration": "209i"
      },
      {
        "time": "27136i",
        "midiNote": 55,
        "velocity": 0.49606299212598426,
        "noteName": "G3",
        "duration": "209i"
      },
      {
        "time": "27136i",
        "midiNote": 82,
        "velocity": 0.4251968503937008,
        "noteName": "A#5",
        "duration": "21i"
      },
      {
        "time": "27200i",
        "midiNote": 82,
        "velocity": 0.3858267716535433,
        "noteName": "A#5",
        "duration": "17i"
      },
      {
        "time": "27237i",
        "midiNote": 82,
        "velocity": 0.3543307086614173,
        "noteName": "A#5",
        "duration": "15i"
      },
      {
        "time": "27264i",
        "midiNote": 37,
        "velocity": 0.7795275590551181,
        "noteName": "C#2",
        "duration": "21i"
      },
      {
        "time": "27264i",
        "midiNote": 82,
        "velocity": 0.4330708661417323,
        "noteName": "A#5",
        "duration": "21i"
      },
      {
        "time": "27328i",
        "midiNote": 36,
        "velocity": 0.7952755905511811,
        "noteName": "C2",
        "duration": "17i"
      },
      {
        "time": "27328i",
        "midiNote": 82,
        "velocity": 0.4251968503937008,
        "noteName": "A#5",
        "duration": "16i"
      },
      {
        "time": "27365i",
        "midiNote": 82,
        "velocity": 0.3779527559055118,
        "noteName": "A#5",
        "duration": "15i"
      },
      {
        "time": "27392i",
        "midiNote": 82,
        "velocity": 0.4251968503937008,
        "noteName": "A#5",
        "duration": "23i"
      },
      {
        "time": "27456i",
        "midiNote": 82,
        "velocity": 0.41732283464566927,
        "noteName": "A#5",
        "duration": "13i"
      },
      {
        "time": "27493i",
        "midiNote": 82,
        "velocity": 0.3858267716535433,
        "noteName": "A#5",
        "duration": "13i"
      },
      {
        "time": "27520i",
        "midiNote": 37,
        "velocity": 0.8976377952755905,
        "noteName": "C#2",
        "duration": "17i"
      },
      {
        "time": "27520i",
        "midiNote": 82,
        "velocity": 0.41732283464566927,
        "noteName": "A#5",
        "duration": "18i"
      },
      {
        "time": "27584i",
        "midiNote": 36,
        "velocity": 0.7165354330708661,
        "noteName": "C2",
        "duration": "16i"
      },
      {
        "time": "27584i",
        "midiNote": 82,
        "velocity": 0.3700787401574803,
        "noteName": "A#5",
        "duration": "16i"
      },
      {
        "time": "27621i",
        "midiNote": 82,
        "velocity": 0.3937007874015748,
        "noteName": "A#5",
        "duration": "16i"
      },
      {
        "time": "27648i",
        "midiNote": 36,
        "velocity": 0.7952755905511811,
        "noteName": "C2",
        "duration": "17i"
      },
      {
        "time": "27648i",
        "midiNote": 82,
        "velocity": 0.4251968503937008,
        "noteName": "A#5",
        "duration": "20i"
      },
      {
        "time": "27712i",
        "midiNote": 82,
        "velocity": 0.4251968503937008,
        "noteName": "A#5",
        "duration": "15i"
      },
      {
        "time": "27749i",
        "midiNote": 82,
        "velocity": 0.3700787401574803,
        "noteName": "A#5",
        "duration": "15i"
      },
      {
        "time": "27776i",
        "midiNote": 37,
        "velocity": 0.8976377952755905,
        "noteName": "C#2",
        "duration": "21i"
      },
      {
        "time": "27776i",
        "midiNote": 82,
        "velocity": 0.3700787401574803,
        "noteName": "A#5",
        "duration": "30i"
      },
      {
        "time": "27840i",
        "midiNote": 82,
        "velocity": 0.4330708661417323,
        "noteName": "A#5",
        "duration": "13i"
      },
      {
        "time": "27877i",
        "midiNote": 82,
        "velocity": 0.4015748031496063,
        "noteName": "A#5",
        "duration": "14i"
      },
      {
        "time": "27904i",
        "midiNote": 75,
        "velocity": 0.5905511811023622,
        "noteName": "D#5",
        "duration": "15i"
      },
      {
        "time": "27904i",
        "midiNote": 82,
        "velocity": 0.3858267716535433,
        "noteName": "A#5",
        "duration": "19i"
      },
      {
        "time": "27968i",
        "midiNote": 36,
        "velocity": 0.84251968503937,
        "noteName": "C2",
        "duration": "13i"
      },
      {
        "time": "27968i",
        "midiNote": 82,
        "velocity": 0.4015748031496063,
        "noteName": "A#5",
        "duration": "14i"
      },
      {
        "time": "28005i",
        "midiNote": 75,
        "velocity": 0.6771653543307087,
        "noteName": "D#5",
        "duration": "18i"
      },
      {
        "time": "28005i",
        "midiNote": 82,
        "velocity": 0.3779527559055118,
        "noteName": "A#5",
        "duration": "17i"
      },
      {
        "time": "28032i",
        "midiNote": 37,
        "velocity": 0.8188976377952756,
        "noteName": "C#2",
        "duration": "19i"
      },
      {
        "time": "28032i",
        "midiNote": 82,
        "velocity": 0.41732283464566927,
        "noteName": "A#5",
        "duration": "20i"
      },
      {
        "time": "28067i",
        "midiNote": 36,
        "velocity": 0.7952755905511811,
        "noteName": "C2",
        "duration": "13i"
      },
      {
        "time": "28096i",
        "midiNote": 75,
        "velocity": 0.7795275590551181,
        "noteName": "D#5",
        "duration": "17i"
      },
      {
        "time": "28096i",
        "midiNote": 82,
        "velocity": 0.41732283464566927,
        "noteName": "A#5",
        "duration": "13i"
      },
      {
        "time": "28133i",
        "midiNote": 82,
        "velocity": 0.4015748031496063,
        "noteName": "A#5",
        "duration": "14i"
      },
      {
        "time": "28160i",
        "midiNote": 36,
        "velocity": 0.7952755905511811,
        "noteName": "C2",
        "duration": "19i"
      },
      {
        "time": "28160i",
        "midiNote": 82,
        "velocity": 0.47244094488188976,
        "noteName": "A#5",
        "duration": "17i"
      },
      {
        "time": "28224i",
        "midiNote": 82,
        "velocity": 0.4015748031496063,
        "noteName": "A#5",
        "duration": "12i"
      },
      {
        "time": "28261i",
        "midiNote": 82,
        "velocity": 0.36220472440944884,
        "noteName": "A#5",
        "duration": "13i"
      },
      {
        "time": "28288i",
        "midiNote": 37,
        "velocity": 0.8976377952755905,
        "noteName": "C#2",
        "duration": "19i"
      },
      {
        "time": "28288i",
        "midiNote": 82,
        "velocity": 0.3700787401574803,
        "noteName": "A#5",
        "duration": "17i"
      },
      {
        "time": "28352i",
        "midiNote": 36,
        "velocity": 0.7952755905511811,
        "noteName": "C2",
        "duration": "17i"
      },
      {
        "time": "28352i",
        "midiNote": 82,
        "velocity": 0.3937007874015748,
        "noteName": "A#5",
        "duration": "11i"
      },
      {
        "time": "28389i",
        "midiNote": 82,
        "velocity": 0.3700787401574803,
        "noteName": "A#5",
        "duration": "10i"
      },
      {
        "time": "28416i",
        "midiNote": 82,
        "velocity": 0.4015748031496063,
        "noteName": "A#5",
        "duration": "15i"
      },
      {
        "time": "28480i",
        "midiNote": 82,
        "velocity": 0.4015748031496063,
        "noteName": "A#5",
        "duration": "12i"
      },
      {
        "time": "28517i",
        "midiNote": 82,
        "velocity": 0.41732283464566927,
        "noteName": "A#5",
        "duration": "13i"
      },
      {
        "time": "28544i",
        "midiNote": 37,
        "velocity": 0.8976377952755905,
        "noteName": "C#2",
        "duration": "25i"
      },
      {
        "time": "28544i",
        "midiNote": 82,
        "velocity": 0.3937007874015748,
        "noteName": "A#5",
        "duration": "14i"
      },
      {
        "time": "28608i",
        "midiNote": 36,
        "velocity": 0.7165354330708661,
        "noteName": "C2",
        "duration": "16i"
      },
      {
        "time": "28608i",
        "midiNote": 82,
        "velocity": 0.3937007874015748,
        "noteName": "A#5",
        "duration": "9i"
      },
      {
        "time": "28645i",
        "midiNote": 82,
        "velocity": 0.3779527559055118,
        "noteName": "A#5",
        "duration": "11i"
      },
      {
        "time": "28672i",
        "midiNote": 36,
        "velocity": 0.7952755905511811,
        "noteName": "C2",
        "duration": "17i"
      },
      {
        "time": "28672i",
        "midiNote": 82,
        "velocity": 0.4251968503937008,
        "noteName": "A#5",
        "duration": "19i"
      },
      {
        "time": "28736i",
        "midiNote": 82,
        "velocity": 0.3543307086614173,
        "noteName": "A#5",
        "duration": "9i"
      },
      {
        "time": "28773i",
        "midiNote": 82,
        "velocity": 0.36220472440944884,
        "noteName": "A#5",
        "duration": "12i"
      },
      {
        "time": "28800i",
        "midiNote": 37,
        "velocity": 0.8188976377952756,
        "noteName": "C#2",
        "duration": "23i"
      },
      {
        "time": "28800i",
        "midiNote": 82,
        "velocity": 0.4015748031496063,
        "noteName": "A#5",
        "duration": "13i"
      },
      {
        "time": "28864i",
        "midiNote": 82,
        "velocity": 0.47244094488188976,
        "noteName": "A#5",
        "duration": "86i"
      },
      {
        "time": "28928i",
        "midiNote": 75,
        "velocity": 0.5905511811023622,
        "noteName": "D#5",
        "duration": "15i"
      },
      {
        "time": "28992i",
        "midiNote": 36,
        "velocity": 0.84251968503937,
        "noteName": "C2",
        "duration": "13i"
      },
      {
        "time": "28992i",
        "midiNote": 82,
        "velocity": 0.4566929133858268,
        "noteName": "A#5",
        "duration": "25i"
      },
      {
        "time": "29029i",
        "midiNote": 75,
        "velocity": 0.6771653543307087,
        "noteName": "D#5",
        "duration": "18i"
      },
      {
        "time": "29056i",
        "midiNote": 37,
        "velocity": 0.8976377952755905,
        "noteName": "C#2",
        "duration": "17i"
      },
      {
        "time": "29091i",
        "midiNote": 36,
        "velocity": 0.7952755905511811,
        "noteName": "C2",
        "duration": "13i"
      },
      {
        "time": "29120i",
        "midiNote": 75,
        "velocity": 0.7795275590551181,
        "noteName": "D#5",
        "duration": "17i"
      },
      {
        "time": "29120i",
        "midiNote": 82,
        "velocity": 0.4566929133858268,
        "noteName": "A#5",
        "duration": "13i"
      },
      {
        "time": "29157i",
        "midiNote": 82,
        "velocity": 0.4330708661417323,
        "noteName": "A#5",
        "duration": "7i"
      },
      {
        "time": "29184i",
        "midiNote": 36,
        "velocity": 0.7952755905511811,
        "noteName": "C2",
        "duration": "19i"
      },
      {
        "time": "29184i",
        "midiNote": 82,
        "velocity": 0.4251968503937008,
        "noteName": "A#5",
        "duration": "21i"
      },
      {
        "time": "29248i",
        "midiNote": 82,
        "velocity": 0.3858267716535433,
        "noteName": "A#5",
        "duration": "17i"
      },
      {
        "time": "29285i",
        "midiNote": 82,
        "velocity": 0.3543307086614173,
        "noteName": "A#5",
        "duration": "15i"
      },
      {
        "time": "29312i",
        "midiNote": 37,
        "velocity": 0.7795275590551181,
        "noteName": "C#2",
        "duration": "21i"
      },
      {
        "time": "29312i",
        "midiNote": 82,
        "velocity": 0.4330708661417323,
        "noteName": "A#5",
        "duration": "21i"
      },
      {
        "time": "29376i",
        "midiNote": 36,
        "velocity": 0.7952755905511811,
        "noteName": "C2",
        "duration": "17i"
      },
      {
        "time": "29376i",
        "midiNote": 82,
        "velocity": 0.4251968503937008,
        "noteName": "A#5",
        "duration": "16i"
      },
      {
        "time": "29413i",
        "midiNote": 82,
        "velocity": 0.3779527559055118,
        "noteName": "A#5",
        "duration": "15i"
      },
      {
        "time": "29440i",
        "midiNote": 82,
        "velocity": 0.4251968503937008,
        "noteName": "A#5",
        "duration": "23i"
      },
      {
        "time": "29504i",
        "midiNote": 82,
        "velocity": 0.41732283464566927,
        "noteName": "A#5",
        "duration": "13i"
      },
      {
        "time": "29541i",
        "midiNote": 82,
        "velocity": 0.3858267716535433,
        "noteName": "A#5",
        "duration": "13i"
      },
      {
        "time": "29568i",
        "midiNote": 37,
        "velocity": 0.8976377952755905,
        "noteName": "C#2",
        "duration": "17i"
      },
      {
        "time": "29568i",
        "midiNote": 82,
        "velocity": 0.41732283464566927,
        "noteName": "A#5",
        "duration": "18i"
      },
      {
        "time": "29632i",
        "midiNote": 36,
        "velocity": 0.7165354330708661,
        "noteName": "C2",
        "duration": "16i"
      },
      {
        "time": "29632i",
        "midiNote": 82,
        "velocity": 0.3700787401574803,
        "noteName": "A#5",
        "duration": "16i"
      },
      {
        "time": "29669i",
        "midiNote": 82,
        "velocity": 0.3937007874015748,
        "noteName": "A#5",
        "duration": "16i"
      },
      {
        "time": "29696i",
        "midiNote": 36,
        "velocity": 0.7952755905511811,
        "noteName": "C2",
        "duration": "17i"
      },
      {
        "time": "29696i",
        "midiNote": 82,
        "velocity": 0.4251968503937008,
        "noteName": "A#5",
        "duration": "20i"
      },
      {
        "time": "29760i",
        "midiNote": 82,
        "velocity": 0.4251968503937008,
        "noteName": "A#5",
        "duration": "15i"
      },
      {
        "time": "29797i",
        "midiNote": 82,
        "velocity": 0.3700787401574803,
        "noteName": "A#5",
        "duration": "15i"
      },
      {
        "time": "29824i",
        "midiNote": 37,
        "velocity": 0.8976377952755905,
        "noteName": "C#2",
        "duration": "21i"
      },
      {
        "time": "29824i",
        "midiNote": 82,
        "velocity": 0.3700787401574803,
        "noteName": "A#5",
        "duration": "30i"
      },
      {
        "time": "29888i",
        "midiNote": 82,
        "velocity": 0.4330708661417323,
        "noteName": "A#5",
        "duration": "13i"
      },
      {
        "time": "29925i",
        "midiNote": 82,
        "velocity": 0.4015748031496063,
        "noteName": "A#5",
        "duration": "14i"
      },
      {
        "time": "29952i",
        "midiNote": 75,
        "velocity": 0.5905511811023622,
        "noteName": "D#5",
        "duration": "15i"
      },
      {
        "time": "29952i",
        "midiNote": 82,
        "velocity": 0.3858267716535433,
        "noteName": "A#5",
        "duration": "19i"
      },
      {
        "time": "30016i",
        "midiNote": 36,
        "velocity": 0.84251968503937,
        "noteName": "C2",
        "duration": "13i"
      },
      {
        "time": "30016i",
        "midiNote": 82,
        "velocity": 0.4015748031496063,
        "noteName": "A#5",
        "duration": "14i"
      },
      {
        "time": "30053i",
        "midiNote": 75,
        "velocity": 0.6771653543307087,
        "noteName": "D#5",
        "duration": "18i"
      },
      {
        "time": "30053i",
        "midiNote": 82,
        "velocity": 0.3779527559055118,
        "noteName": "A#5",
        "duration": "17i"
      },
      {
        "time": "30080i",
        "midiNote": 37,
        "velocity": 0.8188976377952756,
        "noteName": "C#2",
        "duration": "19i"
      },
      {
        "time": "30080i",
        "midiNote": 82,
        "velocity": 0.41732283464566927,
        "noteName": "A#5",
        "duration": "20i"
      },
      {
        "time": "30115i",
        "midiNote": 36,
        "velocity": 0.7952755905511811,
        "noteName": "C2",
        "duration": "13i"
      },
      {
        "time": "30144i",
        "midiNote": 75,
        "velocity": 0.7795275590551181,
        "noteName": "D#5",
        "duration": "17i"
      },
      {
        "time": "30144i",
        "midiNote": 82,
        "velocity": 0.41732283464566927,
        "noteName": "A#5",
        "duration": "13i"
      },
      {
        "time": "30181i",
        "midiNote": 82,
        "velocity": 0.4015748031496063,
        "noteName": "A#5",
        "duration": "14i"
      },
      {
        "time": "30208i",
        "midiNote": 36,
        "velocity": 0.7952755905511811,
        "noteName": "C2",
        "duration": "19i"
      },
      {
        "time": "30208i",
        "midiNote": 82,
        "velocity": 0.47244094488188976,
        "noteName": "A#5",
        "duration": "17i"
      },
      {
        "time": "30272i",
        "midiNote": 82,
        "velocity": 0.4015748031496063,
        "noteName": "A#5",
        "duration": "12i"
      },
      {
        "time": "30309i",
        "midiNote": 82,
        "velocity": 0.36220472440944884,
        "noteName": "A#5",
        "duration": "13i"
      },
      {
        "time": "30336i",
        "midiNote": 37,
        "velocity": 0.8976377952755905,
        "noteName": "C#2",
        "duration": "19i"
      },
      {
        "time": "30336i",
        "midiNote": 82,
        "velocity": 0.3700787401574803,
        "noteName": "A#5",
        "duration": "17i"
      },
      {
        "time": "30400i",
        "midiNote": 36,
        "velocity": 0.7952755905511811,
        "noteName": "C2",
        "duration": "17i"
      },
      {
        "time": "30400i",
        "midiNote": 82,
        "velocity": 0.3937007874015748,
        "noteName": "A#5",
        "duration": "11i"
      },
      {
        "time": "30437i",
        "midiNote": 82,
        "velocity": 0.3700787401574803,
        "noteName": "A#5",
        "duration": "10i"
      },
      {
        "time": "30464i",
        "midiNote": 82,
        "velocity": 0.4015748031496063,
        "noteName": "A#5",
        "duration": "15i"
      },
      {
        "time": "30528i",
        "midiNote": 82,
        "velocity": 0.4015748031496063,
        "noteName": "A#5",
        "duration": "12i"
      },
      {
        "time": "30565i",
        "midiNote": 82,
        "velocity": 0.41732283464566927,
        "noteName": "A#5",
        "duration": "13i"
      },
      {
        "time": "30592i",
        "midiNote": 37,
        "velocity": 0.8976377952755905,
        "noteName": "C#2",
        "duration": "25i"
      },
      {
        "time": "30592i",
        "midiNote": 82,
        "velocity": 0.3937007874015748,
        "noteName": "A#5",
        "duration": "14i"
      },
      {
        "time": "30656i",
        "midiNote": 36,
        "velocity": 0.7165354330708661,
        "noteName": "C2",
        "duration": "16i"
      },
      {
        "time": "30656i",
        "midiNote": 82,
        "velocity": 0.3937007874015748,
        "noteName": "A#5",
        "duration": "9i"
      },
      {
        "time": "30693i",
        "midiNote": 82,
        "velocity": 0.3779527559055118,
        "noteName": "A#5",
        "duration": "11i"
      },
      {
        "time": "30720i",
        "midiNote": 36,
        "velocity": 0.7952755905511811,
        "noteName": "C2",
        "duration": "17i"
      },
      {
        "time": "30720i",
        "midiNote": 82,
        "velocity": 0.4251968503937008,
        "noteName": "A#5",
        "duration": "19i"
      },
      {
        "time": "30784i",
        "midiNote": 82,
        "velocity": 0.3543307086614173,
        "noteName": "A#5",
        "duration": "9i"
      },
      {
        "time": "30821i",
        "midiNote": 82,
        "velocity": 0.36220472440944884,
        "noteName": "A#5",
        "duration": "12i"
      },
      {
        "time": "30848i",
        "midiNote": 37,
        "velocity": 0.8188976377952756,
        "noteName": "C#2",
        "duration": "23i"
      },
      {
        "time": "30848i",
        "midiNote": 82,
        "velocity": 0.4015748031496063,
        "noteName": "A#5",
        "duration": "13i"
      },
      {
        "time": "30912i",
        "midiNote": 82,
        "velocity": 0.47244094488188976,
        "noteName": "A#5",
        "duration": "86i"
      },
      {
        "time": "30976i",
        "midiNote": 75,
        "velocity": 0.5905511811023622,
        "noteName": "D#5",
        "duration": "15i"
      },
      {
        "time": "31040i",
        "midiNote": 36,
        "velocity": 0.84251968503937,
        "noteName": "C2",
        "duration": "13i"
      },
      {
        "time": "31040i",
        "midiNote": 82,
        "velocity": 0.4566929133858268,
        "noteName": "A#5",
        "duration": "25i"
      },
      {
        "time": "31077i",
        "midiNote": 75,
        "velocity": 0.6771653543307087,
        "noteName": "D#5",
        "duration": "18i"
      },
      {
        "time": "31104i",
        "midiNote": 37,
        "velocity": 0.8976377952755905,
        "noteName": "C#2",
        "duration": "17i"
      },
      {
        "time": "31139i",
        "midiNote": 36,
        "velocity": 0.7952755905511811,
        "noteName": "C2",
        "duration": "13i"
      },
      {
        "time": "31168i",
        "midiNote": 75,
        "velocity": 0.7795275590551181,
        "noteName": "D#5",
        "duration": "17i"
      },
      {
        "time": "31168i",
        "midiNote": 82,
        "velocity": 0.4566929133858268,
        "noteName": "A#5",
        "duration": "13i"
      },
      {
        "time": "31205i",
        "midiNote": 82,
        "velocity": 0.4330708661417323,
        "noteName": "A#5",
        "duration": "7i"
      },
      {
        "time": "31232i",
        "midiNote": 36,
        "velocity": 0.7480314960629921,
        "noteName": "C2",
        "duration": "163i"
      },
      {
        "time": "31232i",
        "midiNote": 49,
        "velocity": 0.5354330708661418,
        "noteName": "C#3",
        "duration": "125i"
      },
      {
        "time": "31232i",
        "midiNote": 57,
        "velocity": 0.4881889763779528,
        "noteName": "A3",
        "duration": "121i"
      },
      {
        "time": "31424i",
        "midiNote": 48,
        "velocity": 0.6614173228346457,
        "noteName": "C3",
        "duration": "15i"
      },
      {
        "time": "31552i",
        "midiNote": 48,
        "velocity": 0.7480314960629921,
        "noteName": "C3",
        "duration": "12i"
      },
      {
        "time": "31616i",
        "midiNote": 43,
        "velocity": 0.6062992125984252,
        "noteName": "G2",
        "duration": "14i"
      },
      {
        "time": "31680i",
        "midiNote": 47,
        "velocity": 0.5826771653543307,
        "noteName": "B2",
        "duration": "13i"
      },
      {
        "time": "31715i",
        "midiNote": 47,
        "velocity": 0.6614173228346457,
        "noteName": "B2",
        "duration": "13i"
      },
      {
        "time": "31744i",
        "midiNote": 36,
        "velocity": 0.7952755905511811,
        "noteName": "C2",
        "duration": "19i"
      },
      {
        "time": "31744i",
        "midiNote": 49,
        "velocity": 0.48031496062992124,
        "noteName": "C#3",
        "duration": "209i"
      },
      {
        "time": "31744i",
        "midiNote": 55,
        "velocity": 0.49606299212598426,
        "noteName": "G3",
        "duration": "209i"
      },
      {
        "time": "31744i",
        "midiNote": 82,
        "velocity": 0.4251968503937008,
        "noteName": "A#5",
        "duration": "21i"
      },
      {
        "time": "31808i",
        "midiNote": 82,
        "velocity": 0.3858267716535433,
        "noteName": "A#5",
        "duration": "17i"
      },
      {
        "time": "31845i",
        "midiNote": 82,
        "velocity": 0.3543307086614173,
        "noteName": "A#5",
        "duration": "15i"
      },
      {
        "time": "31872i",
        "midiNote": 37,
        "velocity": 0.7795275590551181,
        "noteName": "C#2",
        "duration": "21i"
      },
      {
        "time": "31872i",
        "midiNote": 82,
        "velocity": 0.4330708661417323,
        "noteName": "A#5",
        "duration": "21i"
      },
      {
        "time": "31936i",
        "midiNote": 36,
        "velocity": 0.7952755905511811,
        "noteName": "C2",
        "duration": "17i"
      },
      {
        "time": "31936i",
        "midiNote": 82,
        "velocity": 0.4251968503937008,
        "noteName": "A#5",
        "duration": "16i"
      },
      {
        "time": "31973i",
        "midiNote": 82,
        "velocity": 0.3779527559055118,
        "noteName": "A#5",
        "duration": "15i"
      },
      {
        "time": "32000i",
        "midiNote": 82,
        "velocity": 0.4251968503937008,
        "noteName": "A#5",
        "duration": "23i"
      },
      {
        "time": "32064i",
        "midiNote": 82,
        "velocity": 0.41732283464566927,
        "noteName": "A#5",
        "duration": "13i"
      },
      {
        "time": "32101i",
        "midiNote": 82,
        "velocity": 0.3858267716535433,
        "noteName": "A#5",
        "duration": "13i"
      },
      {
        "time": "32128i",
        "midiNote": 37,
        "velocity": 0.8976377952755905,
        "noteName": "C#2",
        "duration": "17i"
      },
      {
        "time": "32128i",
        "midiNote": 82,
        "velocity": 0.41732283464566927,
        "noteName": "A#5",
        "duration": "18i"
      },
      {
        "time": "32192i",
        "midiNote": 36,
        "velocity": 0.7165354330708661,
        "noteName": "C2",
        "duration": "16i"
      },
      {
        "time": "32192i",
        "midiNote": 82,
        "velocity": 0.3700787401574803,
        "noteName": "A#5",
        "duration": "16i"
      },
      {
        "time": "32229i",
        "midiNote": 82,
        "velocity": 0.3937007874015748,
        "noteName": "A#5",
        "duration": "16i"
      },
      {
        "time": "32256i",
        "midiNote": 36,
        "velocity": 0.7952755905511811,
        "noteName": "C2",
        "duration": "17i"
      },
      {
        "time": "32256i",
        "midiNote": 82,
        "velocity": 0.4251968503937008,
        "noteName": "A#5",
        "duration": "20i"
      },
      {
        "time": "32320i",
        "midiNote": 82,
        "velocity": 0.4251968503937008,
        "noteName": "A#5",
        "duration": "15i"
      },
      {
        "time": "32357i",
        "midiNote": 82,
        "velocity": 0.3700787401574803,
        "noteName": "A#5",
        "duration": "15i"
      },
      {
        "time": "32384i",
        "midiNote": 37,
        "velocity": 0.8976377952755905,
        "noteName": "C#2",
        "duration": "21i"
      },
      {
        "time": "32384i",
        "midiNote": 82,
        "velocity": 0.3700787401574803,
        "noteName": "A#5",
        "duration": "30i"
      },
      {
        "time": "32448i",
        "midiNote": 82,
        "velocity": 0.4330708661417323,
        "noteName": "A#5",
        "duration": "13i"
      },
      {
        "time": "32485i",
        "midiNote": 82,
        "velocity": 0.4015748031496063,
        "noteName": "A#5",
        "duration": "14i"
      },
      {
        "time": "32512i",
        "midiNote": 75,
        "velocity": 0.5905511811023622,
        "noteName": "D#5",
        "duration": "15i"
      },
      {
        "time": "32512i",
        "midiNote": 82,
        "velocity": 0.3858267716535433,
        "noteName": "A#5",
        "duration": "19i"
      },
      {
        "time": "32576i",
        "midiNote": 36,
        "velocity": 0.84251968503937,
        "noteName": "C2",
        "duration": "13i"
      },
      {
        "time": "32576i",
        "midiNote": 82,
        "velocity": 0.4015748031496063,
        "noteName": "A#5",
        "duration": "14i"
      },
      {
        "time": "32613i",
        "midiNote": 75,
        "velocity": 0.6771653543307087,
        "noteName": "D#5",
        "duration": "18i"
      },
      {
        "time": "32613i",
        "midiNote": 82,
        "velocity": 0.3779527559055118,
        "noteName": "A#5",
        "duration": "17i"
      },
      {
        "time": "32640i",
        "midiNote": 37,
        "velocity": 0.8188976377952756,
        "noteName": "C#2",
        "duration": "19i"
      },
      {
        "time": "32640i",
        "midiNote": 82,
        "velocity": 0.41732283464566927,
        "noteName": "A#5",
        "duration": "20i"
      },
      {
        "time": "32675i",
        "midiNote": 36,
        "velocity": 0.7952755905511811,
        "noteName": "C2",
        "duration": "13i"
      },
      {
        "time": "32704i",
        "midiNote": 75,
        "velocity": 0.7795275590551181,
        "noteName": "D#5",
        "duration": "17i"
      },
      {
        "time": "32704i",
        "midiNote": 82,
        "velocity": 0.41732283464566927,
        "noteName": "A#5",
        "duration": "13i"
      },
      {
        "time": "32741i",
        "midiNote": 82,
        "velocity": 0.4015748031496063,
        "noteName": "A#5",
        "duration": "14i"
      },
      {
        "time": "32768i",
        "midiNote": 36,
        "velocity": 0.7952755905511811,
        "noteName": "C2",
        "duration": "19i"
      },
      {
        "time": "32768i",
        "midiNote": 82,
        "velocity": 0.47244094488188976,
        "noteName": "A#5",
        "duration": "17i"
      },
      {
        "time": "32832i",
        "midiNote": 82,
        "velocity": 0.4015748031496063,
        "noteName": "A#5",
        "duration": "12i"
      },
      {
        "time": "32869i",
        "midiNote": 82,
        "velocity": 0.36220472440944884,
        "noteName": "A#5",
        "duration": "13i"
      },
      {
        "time": "32896i",
        "midiNote": 37,
        "velocity": 0.8976377952755905,
        "noteName": "C#2",
        "duration": "19i"
      },
      {
        "time": "32896i",
        "midiNote": 82,
        "velocity": 0.3700787401574803,
        "noteName": "A#5",
        "duration": "17i"
      },
      {
        "time": "32960i",
        "midiNote": 36,
        "velocity": 0.7952755905511811,
        "noteName": "C2",
        "duration": "17i"
      },
      {
        "time": "32960i",
        "midiNote": 82,
        "velocity": 0.3937007874015748,
        "noteName": "A#5",
        "duration": "11i"
      },
      {
        "time": "32997i",
        "midiNote": 82,
        "velocity": 0.3700787401574803,
        "noteName": "A#5",
        "duration": "10i"
      },
      {
        "time": "33024i",
        "midiNote": 82,
        "velocity": 0.4015748031496063,
        "noteName": "A#5",
        "duration": "15i"
      },
      {
        "time": "33088i",
        "midiNote": 82,
        "velocity": 0.4015748031496063,
        "noteName": "A#5",
        "duration": "12i"
      },
      {
        "time": "33125i",
        "midiNote": 82,
        "velocity": 0.41732283464566927,
        "noteName": "A#5",
        "duration": "13i"
      },
      {
        "time": "33152i",
        "midiNote": 37,
        "velocity": 0.8976377952755905,
        "noteName": "C#2",
        "duration": "25i"
      },
      {
        "time": "33152i",
        "midiNote": 82,
        "velocity": 0.3937007874015748,
        "noteName": "A#5",
        "duration": "14i"
      },
      {
        "time": "33216i",
        "midiNote": 36,
        "velocity": 0.7165354330708661,
        "noteName": "C2",
        "duration": "16i"
      },
      {
        "time": "33216i",
        "midiNote": 82,
        "velocity": 0.3937007874015748,
        "noteName": "A#5",
        "duration": "9i"
      },
      {
        "time": "33253i",
        "midiNote": 82,
        "velocity": 0.3779527559055118,
        "noteName": "A#5",
        "duration": "11i"
      },
      {
        "time": "33280i",
        "midiNote": 36,
        "velocity": 0.7952755905511811,
        "noteName": "C2",
        "duration": "17i"
      },
      {
        "time": "33280i",
        "midiNote": 82,
        "velocity": 0.4251968503937008,
        "noteName": "A#5",
        "duration": "19i"
      },
      {
        "time": "33344i",
        "midiNote": 82,
        "velocity": 0.3543307086614173,
        "noteName": "A#5",
        "duration": "9i"
      },
      {
        "time": "33381i",
        "midiNote": 82,
        "velocity": 0.36220472440944884,
        "noteName": "A#5",
        "duration": "12i"
      },
      {
        "time": "33408i",
        "midiNote": 37,
        "velocity": 0.8188976377952756,
        "noteName": "C#2",
        "duration": "23i"
      },
      {
        "time": "33408i",
        "midiNote": 82,
        "velocity": 0.4015748031496063,
        "noteName": "A#5",
        "duration": "13i"
      },
      {
        "time": "33472i",
        "midiNote": 82,
        "velocity": 0.47244094488188976,
        "noteName": "A#5",
        "duration": "86i"
      },
      {
        "time": "33536i",
        "midiNote": 75,
        "velocity": 0.5905511811023622,
        "noteName": "D#5",
        "duration": "15i"
      },
      {
        "time": "33600i",
        "midiNote": 36,
        "velocity": 0.84251968503937,
        "noteName": "C2",
        "duration": "13i"
      },
      {
        "time": "33600i",
        "midiNote": 82,
        "velocity": 0.4566929133858268,
        "noteName": "A#5",
        "duration": "25i"
      },
      {
        "time": "33637i",
        "midiNote": 75,
        "velocity": 0.6771653543307087,
        "noteName": "D#5",
        "duration": "18i"
      },
      {
        "time": "33664i",
        "midiNote": 37,
        "velocity": 0.8976377952755905,
        "noteName": "C#2",
        "duration": "17i"
      },
      {
        "time": "33699i",
        "midiNote": 36,
        "velocity": 0.7952755905511811,
        "noteName": "C2",
        "duration": "13i"
      },
      {
        "time": "33728i",
        "midiNote": 75,
        "velocity": 0.7795275590551181,
        "noteName": "D#5",
        "duration": "17i"
      },
      {
        "time": "33728i",
        "midiNote": 82,
        "velocity": 0.4566929133858268,
        "noteName": "A#5",
        "duration": "13i"
      },
      {
        "time": "33765i",
        "midiNote": 82,
        "velocity": 0.4330708661417323,
        "noteName": "A#5",
        "duration": "7i"
      },
      {
        "time": "33792i",
        "midiNote": 36,
        "velocity": 0.7952755905511811,
        "noteName": "C2",
        "duration": "19i"
      },
      {
        "time": "33792i",
        "midiNote": 49,
        "velocity": 0.48031496062992124,
        "noteName": "C#3",
        "duration": "209i"
      },
      {
        "time": "33792i",
        "midiNote": 55,
        "velocity": 0.49606299212598426,
        "noteName": "G3",
        "duration": "209i"
      },
      {
        "time": "33792i",
        "midiNote": 82,
        "velocity": 0.4251968503937008,
        "noteName": "A#5",
        "duration": "21i"
      },
      {
        "time": "33856i",
        "midiNote": 82,
        "velocity": 0.3858267716535433,
        "noteName": "A#5",
        "duration": "17i"
      },
      {
        "time": "33893i",
        "midiNote": 82,
        "velocity": 0.3543307086614173,
        "noteName": "A#5",
        "duration": "15i"
      },
      {
        "time": "33920i",
        "midiNote": 37,
        "velocity": 0.7795275590551181,
        "noteName": "C#2",
        "duration": "21i"
      },
      {
        "time": "33920i",
        "midiNote": 82,
        "velocity": 0.4330708661417323,
        "noteName": "A#5",
        "duration": "21i"
      },
      {
        "time": "33984i",
        "midiNote": 36,
        "velocity": 0.7952755905511811,
        "noteName": "C2",
        "duration": "17i"
      },
      {
        "time": "33984i",
        "midiNote": 82,
        "velocity": 0.4251968503937008,
        "noteName": "A#5",
        "duration": "16i"
      },
      {
        "time": "34021i",
        "midiNote": 82,
        "velocity": 0.3779527559055118,
        "noteName": "A#5",
        "duration": "15i"
      },
      {
        "time": "34048i",
        "midiNote": 82,
        "velocity": 0.4251968503937008,
        "noteName": "A#5",
        "duration": "23i"
      },
      {
        "time": "34112i",
        "midiNote": 82,
        "velocity": 0.41732283464566927,
        "noteName": "A#5",
        "duration": "13i"
      },
      {
        "time": "34149i",
        "midiNote": 82,
        "velocity": 0.3858267716535433,
        "noteName": "A#5",
        "duration": "13i"
      },
      {
        "time": "34176i",
        "midiNote": 37,
        "velocity": 0.8976377952755905,
        "noteName": "C#2",
        "duration": "17i"
      },
      {
        "time": "34176i",
        "midiNote": 82,
        "velocity": 0.41732283464566927,
        "noteName": "A#5",
        "duration": "18i"
      },
      {
        "time": "34240i",
        "midiNote": 36,
        "velocity": 0.7165354330708661,
        "noteName": "C2",
        "duration": "16i"
      },
      {
        "time": "34240i",
        "midiNote": 82,
        "velocity": 0.3700787401574803,
        "noteName": "A#5",
        "duration": "16i"
      },
      {
        "time": "34277i",
        "midiNote": 82,
        "velocity": 0.3937007874015748,
        "noteName": "A#5",
        "duration": "16i"
      },
      {
        "time": "34304i",
        "midiNote": 36,
        "velocity": 0.7952755905511811,
        "noteName": "C2",
        "duration": "17i"
      },
      {
        "time": "34304i",
        "midiNote": 82,
        "velocity": 0.4251968503937008,
        "noteName": "A#5",
        "duration": "20i"
      },
      {
        "time": "34368i",
        "midiNote": 82,
        "velocity": 0.4251968503937008,
        "noteName": "A#5",
        "duration": "15i"
      },
      {
        "time": "34405i",
        "midiNote": 82,
        "velocity": 0.3700787401574803,
        "noteName": "A#5",
        "duration": "15i"
      },
      {
        "time": "34432i",
        "midiNote": 37,
        "velocity": 0.8976377952755905,
        "noteName": "C#2",
        "duration": "21i"
      },
      {
        "time": "34432i",
        "midiNote": 82,
        "velocity": 0.3700787401574803,
        "noteName": "A#5",
        "duration": "30i"
      },
      {
        "time": "34496i",
        "midiNote": 82,
        "velocity": 0.4330708661417323,
        "noteName": "A#5",
        "duration": "13i"
      },
      {
        "time": "34533i",
        "midiNote": 82,
        "velocity": 0.4015748031496063,
        "noteName": "A#5",
        "duration": "14i"
      },
      {
        "time": "34560i",
        "midiNote": 75,
        "velocity": 0.5905511811023622,
        "noteName": "D#5",
        "duration": "15i"
      },
      {
        "time": "34560i",
        "midiNote": 82,
        "velocity": 0.3858267716535433,
        "noteName": "A#5",
        "duration": "19i"
      },
      {
        "time": "34624i",
        "midiNote": 36,
        "velocity": 0.84251968503937,
        "noteName": "C2",
        "duration": "13i"
      },
      {
        "time": "34624i",
        "midiNote": 82,
        "velocity": 0.4015748031496063,
        "noteName": "A#5",
        "duration": "14i"
      },
      {
        "time": "34661i",
        "midiNote": 75,
        "velocity": 0.6771653543307087,
        "noteName": "D#5",
        "duration": "18i"
      },
      {
        "time": "34661i",
        "midiNote": 82,
        "velocity": 0.3779527559055118,
        "noteName": "A#5",
        "duration": "17i"
      },
      {
        "time": "34688i",
        "midiNote": 37,
        "velocity": 0.8188976377952756,
        "noteName": "C#2",
        "duration": "19i"
      },
      {
        "time": "34688i",
        "midiNote": 82,
        "velocity": 0.41732283464566927,
        "noteName": "A#5",
        "duration": "20i"
      },
      {
        "time": "34723i",
        "midiNote": 36,
        "velocity": 0.7952755905511811,
        "noteName": "C2",
        "duration": "13i"
      },
      {
        "time": "34752i",
        "midiNote": 75,
        "velocity": 0.7795275590551181,
        "noteName": "D#5",
        "duration": "17i"
      },
      {
        "time": "34752i",
        "midiNote": 82,
        "velocity": 0.41732283464566927,
        "noteName": "A#5",
        "duration": "13i"
      },
      {
        "time": "34789i",
        "midiNote": 82,
        "velocity": 0.4015748031496063,
        "noteName": "A#5",
        "duration": "14i"
      },
      {
        "time": "34816i",
        "midiNote": 36,
        "velocity": 0.7952755905511811,
        "noteName": "C2",
        "duration": "19i"
      },
      {
        "time": "34816i",
        "midiNote": 82,
        "velocity": 0.47244094488188976,
        "noteName": "A#5",
        "duration": "17i"
      },
      {
        "time": "34880i",
        "midiNote": 82,
        "velocity": 0.4015748031496063,
        "noteName": "A#5",
        "duration": "12i"
      },
      {
        "time": "34917i",
        "midiNote": 82,
        "velocity": 0.36220472440944884,
        "noteName": "A#5",
        "duration": "13i"
      },
      {
        "time": "34944i",
        "midiNote": 37,
        "velocity": 0.8976377952755905,
        "noteName": "C#2",
        "duration": "19i"
      },
      {
        "time": "34944i",
        "midiNote": 82,
        "velocity": 0.3700787401574803,
        "noteName": "A#5",
        "duration": "17i"
      },
      {
        "time": "35008i",
        "midiNote": 36,
        "velocity": 0.7952755905511811,
        "noteName": "C2",
        "duration": "17i"
      },
      {
        "time": "35008i",
        "midiNote": 82,
        "velocity": 0.3937007874015748,
        "noteName": "A#5",
        "duration": "11i"
      },
      {
        "time": "35045i",
        "midiNote": 82,
        "velocity": 0.3700787401574803,
        "noteName": "A#5",
        "duration": "10i"
      },
      {
        "time": "35072i",
        "midiNote": 82,
        "velocity": 0.4015748031496063,
        "noteName": "A#5",
        "duration": "15i"
      },
      {
        "time": "35136i",
        "midiNote": 82,
        "velocity": 0.4015748031496063,
        "noteName": "A#5",
        "duration": "12i"
      },
      {
        "time": "35173i",
        "midiNote": 82,
        "velocity": 0.41732283464566927,
        "noteName": "A#5",
        "duration": "13i"
      },
      {
        "time": "35200i",
        "midiNote": 37,
        "velocity": 0.8976377952755905,
        "noteName": "C#2",
        "duration": "25i"
      },
      {
        "time": "35200i",
        "midiNote": 82,
        "velocity": 0.3937007874015748,
        "noteName": "A#5",
        "duration": "14i"
      },
      {
        "time": "35264i",
        "midiNote": 36,
        "velocity": 0.7165354330708661,
        "noteName": "C2",
        "duration": "16i"
      },
      {
        "time": "35264i",
        "midiNote": 82,
        "velocity": 0.3937007874015748,
        "noteName": "A#5",
        "duration": "9i"
      },
      {
        "time": "35301i",
        "midiNote": 82,
        "velocity": 0.3779527559055118,
        "noteName": "A#5",
        "duration": "11i"
      },
      {
        "time": "35328i",
        "midiNote": 36,
        "velocity": 0.7952755905511811,
        "noteName": "C2",
        "duration": "17i"
      },
      {
        "time": "35328i",
        "midiNote": 82,
        "velocity": 0.4251968503937008,
        "noteName": "A#5",
        "duration": "19i"
      },
      {
        "time": "35392i",
        "midiNote": 82,
        "velocity": 0.3543307086614173,
        "noteName": "A#5",
        "duration": "9i"
      },
      {
        "time": "35429i",
        "midiNote": 82,
        "velocity": 0.36220472440944884,
        "noteName": "A#5",
        "duration": "12i"
      },
      {
        "time": "35456i",
        "midiNote": 37,
        "velocity": 0.8188976377952756,
        "noteName": "C#2",
        "duration": "23i"
      },
      {
        "time": "35456i",
        "midiNote": 82,
        "velocity": 0.4015748031496063,
        "noteName": "A#5",
        "duration": "13i"
      },
      {
        "time": "35520i",
        "midiNote": 82,
        "velocity": 0.47244094488188976,
        "noteName": "A#5",
        "duration": "86i"
      },
      {
        "time": "35584i",
        "midiNote": 75,
        "velocity": 0.5905511811023622,
        "noteName": "D#5",
        "duration": "15i"
      },
      {
        "time": "35648i",
        "midiNote": 36,
        "velocity": 0.84251968503937,
        "noteName": "C2",
        "duration": "13i"
      },
      {
        "time": "35648i",
        "midiNote": 82,
        "velocity": 0.4566929133858268,
        "noteName": "A#5",
        "duration": "25i"
      },
      {
        "time": "35685i",
        "midiNote": 75,
        "velocity": 0.6771653543307087,
        "noteName": "D#5",
        "duration": "18i"
      },
      {
        "time": "35712i",
        "midiNote": 37,
        "velocity": 0.8976377952755905,
        "noteName": "C#2",
        "duration": "17i"
      },
      {
        "time": "35747i",
        "midiNote": 36,
        "velocity": 0.7952755905511811,
        "noteName": "C2",
        "duration": "13i"
      },
      {
        "time": "35776i",
        "midiNote": 75,
        "velocity": 0.7795275590551181,
        "noteName": "D#5",
        "duration": "17i"
      },
      {
        "time": "35776i",
        "midiNote": 82,
        "velocity": 0.4566929133858268,
        "noteName": "A#5",
        "duration": "13i"
      },
      {
        "time": "35813i",
        "midiNote": 82,
        "velocity": 0.4330708661417323,
        "noteName": "A#5",
        "duration": "7i"
      },
      {
        "time": "35840i",
        "midiNote": 36,
        "velocity": 0.7952755905511811,
        "noteName": "C2",
        "duration": "19i"
      },
      {
        "time": "35840i",
        "midiNote": 49,
        "velocity": 0.48031496062992124,
        "noteName": "C#3",
        "duration": "209i"
      },
      {
        "time": "35840i",
        "midiNote": 55,
        "velocity": 0.49606299212598426,
        "noteName": "G3",
        "duration": "209i"
      },
      {
        "time": "35840i",
        "midiNote": 82,
        "velocity": 0.4251968503937008,
        "noteName": "A#5",
        "duration": "21i"
      },
      {
        "time": "35904i",
        "midiNote": 82,
        "velocity": 0.3858267716535433,
        "noteName": "A#5",
        "duration": "17i"
      },
      {
        "time": "35941i",
        "midiNote": 82,
        "velocity": 0.3543307086614173,
        "noteName": "A#5",
        "duration": "15i"
      },
      {
        "time": "35968i",
        "midiNote": 37,
        "velocity": 0.7795275590551181,
        "noteName": "C#2",
        "duration": "21i"
      },
      {
        "time": "35968i",
        "midiNote": 82,
        "velocity": 0.4330708661417323,
        "noteName": "A#5",
        "duration": "21i"
      },
      {
        "time": "36032i",
        "midiNote": 36,
        "velocity": 0.7952755905511811,
        "noteName": "C2",
        "duration": "17i"
      },
      {
        "time": "36032i",
        "midiNote": 82,
        "velocity": 0.4251968503937008,
        "noteName": "A#5",
        "duration": "16i"
      },
      {
        "time": "36069i",
        "midiNote": 82,
        "velocity": 0.3779527559055118,
        "noteName": "A#5",
        "duration": "15i"
      },
      {
        "time": "36096i",
        "midiNote": 82,
        "velocity": 0.4251968503937008,
        "noteName": "A#5",
        "duration": "23i"
      },
      {
        "time": "36160i",
        "midiNote": 82,
        "velocity": 0.41732283464566927,
        "noteName": "A#5",
        "duration": "13i"
      },
      {
        "time": "36197i",
        "midiNote": 82,
        "velocity": 0.3858267716535433,
        "noteName": "A#5",
        "duration": "13i"
      },
      {
        "time": "36224i",
        "midiNote": 37,
        "velocity": 0.8976377952755905,
        "noteName": "C#2",
        "duration": "17i"
      },
      {
        "time": "36224i",
        "midiNote": 82,
        "velocity": 0.41732283464566927,
        "noteName": "A#5",
        "duration": "18i"
      },
      {
        "time": "36288i",
        "midiNote": 36,
        "velocity": 0.7165354330708661,
        "noteName": "C2",
        "duration": "16i"
      },
      {
        "time": "36288i",
        "midiNote": 82,
        "velocity": 0.3700787401574803,
        "noteName": "A#5",
        "duration": "16i"
      },
      {
        "time": "36325i",
        "midiNote": 82,
        "velocity": 0.3937007874015748,
        "noteName": "A#5",
        "duration": "16i"
      },
      {
        "time": "36352i",
        "midiNote": 36,
        "velocity": 0.7952755905511811,
        "noteName": "C2",
        "duration": "17i"
      },
      {
        "time": "36352i",
        "midiNote": 82,
        "velocity": 0.4251968503937008,
        "noteName": "A#5",
        "duration": "20i"
      },
      {
        "time": "36416i",
        "midiNote": 82,
        "velocity": 0.4251968503937008,
        "noteName": "A#5",
        "duration": "15i"
      },
      {
        "time": "36453i",
        "midiNote": 82,
        "velocity": 0.3700787401574803,
        "noteName": "A#5",
        "duration": "15i"
      },
      {
        "time": "36480i",
        "midiNote": 37,
        "velocity": 0.8976377952755905,
        "noteName": "C#2",
        "duration": "21i"
      },
      {
        "time": "36480i",
        "midiNote": 82,
        "velocity": 0.3700787401574803,
        "noteName": "A#5",
        "duration": "30i"
      },
      {
        "time": "36544i",
        "midiNote": 82,
        "velocity": 0.4330708661417323,
        "noteName": "A#5",
        "duration": "13i"
      },
      {
        "time": "36581i",
        "midiNote": 82,
        "velocity": 0.4015748031496063,
        "noteName": "A#5",
        "duration": "14i"
      },
      {
        "time": "36608i",
        "midiNote": 75,
        "velocity": 0.5905511811023622,
        "noteName": "D#5",
        "duration": "15i"
      },
      {
        "time": "36608i",
        "midiNote": 82,
        "velocity": 0.3858267716535433,
        "noteName": "A#5",
        "duration": "19i"
      },
      {
        "time": "36672i",
        "midiNote": 36,
        "velocity": 0.84251968503937,
        "noteName": "C2",
        "duration": "13i"
      },
      {
        "time": "36672i",
        "midiNote": 82,
        "velocity": 0.4015748031496063,
        "noteName": "A#5",
        "duration": "14i"
      },
      {
        "time": "36709i",
        "midiNote": 75,
        "velocity": 0.6771653543307087,
        "noteName": "D#5",
        "duration": "18i"
      },
      {
        "time": "36709i",
        "midiNote": 82,
        "velocity": 0.3779527559055118,
        "noteName": "A#5",
        "duration": "17i"
      },
      {
        "time": "36736i",
        "midiNote": 37,
        "velocity": 0.8188976377952756,
        "noteName": "C#2",
        "duration": "19i"
      },
      {
        "time": "36736i",
        "midiNote": 82,
        "velocity": 0.41732283464566927,
        "noteName": "A#5",
        "duration": "20i"
      },
      {
        "time": "36771i",
        "midiNote": 36,
        "velocity": 0.7952755905511811,
        "noteName": "C2",
        "duration": "13i"
      },
      {
        "time": "36800i",
        "midiNote": 75,
        "velocity": 0.7795275590551181,
        "noteName": "D#5",
        "duration": "17i"
      },
      {
        "time": "36800i",
        "midiNote": 82,
        "velocity": 0.41732283464566927,
        "noteName": "A#5",
        "duration": "13i"
      },
      {
        "time": "36837i",
        "midiNote": 82,
        "velocity": 0.4015748031496063,
        "noteName": "A#5",
        "duration": "14i"
      },
      {
        "time": "36864i",
        "midiNote": 36,
        "velocity": 0.7952755905511811,
        "noteName": "C2",
        "duration": "19i"
      },
      {
        "time": "36864i",
        "midiNote": 82,
        "velocity": 0.47244094488188976,
        "noteName": "A#5",
        "duration": "17i"
      },
      {
        "time": "36928i",
        "midiNote": 82,
        "velocity": 0.4015748031496063,
        "noteName": "A#5",
        "duration": "12i"
      },
      {
        "time": "36965i",
        "midiNote": 82,
        "velocity": 0.36220472440944884,
        "noteName": "A#5",
        "duration": "13i"
      },
      {
        "time": "36992i",
        "midiNote": 37,
        "velocity": 0.8976377952755905,
        "noteName": "C#2",
        "duration": "19i"
      },
      {
        "time": "36992i",
        "midiNote": 82,
        "velocity": 0.3700787401574803,
        "noteName": "A#5",
        "duration": "17i"
      },
      {
        "time": "37056i",
        "midiNote": 36,
        "velocity": 0.7952755905511811,
        "noteName": "C2",
        "duration": "17i"
      },
      {
        "time": "37056i",
        "midiNote": 82,
        "velocity": 0.3937007874015748,
        "noteName": "A#5",
        "duration": "11i"
      },
      {
        "time": "37093i",
        "midiNote": 82,
        "velocity": 0.3700787401574803,
        "noteName": "A#5",
        "duration": "10i"
      },
      {
        "time": "37120i",
        "midiNote": 82,
        "velocity": 0.4015748031496063,
        "noteName": "A#5",
        "duration": "15i"
      },
      {
        "time": "37184i",
        "midiNote": 82,
        "velocity": 0.4015748031496063,
        "noteName": "A#5",
        "duration": "12i"
      },
      {
        "time": "37221i",
        "midiNote": 82,
        "velocity": 0.41732283464566927,
        "noteName": "A#5",
        "duration": "13i"
      },
      {
        "time": "37248i",
        "midiNote": 37,
        "velocity": 0.8976377952755905,
        "noteName": "C#2",
        "duration": "25i"
      },
      {
        "time": "37248i",
        "midiNote": 82,
        "velocity": 0.3937007874015748,
        "noteName": "A#5",
        "duration": "14i"
      },
      {
        "time": "37312i",
        "midiNote": 36,
        "velocity": 0.7165354330708661,
        "noteName": "C2",
        "duration": "16i"
      },
      {
        "time": "37312i",
        "midiNote": 82,
        "velocity": 0.3937007874015748,
        "noteName": "A#5",
        "duration": "9i"
      },
      {
        "time": "37349i",
        "midiNote": 82,
        "velocity": 0.3779527559055118,
        "noteName": "A#5",
        "duration": "11i"
      },
      {
        "time": "37376i",
        "midiNote": 36,
        "velocity": 0.7952755905511811,
        "noteName": "C2",
        "duration": "17i"
      },
      {
        "time": "37376i",
        "midiNote": 82,
        "velocity": 0.4251968503937008,
        "noteName": "A#5",
        "duration": "19i"
      },
      {
        "time": "37440i",
        "midiNote": 82,
        "velocity": 0.3543307086614173,
        "noteName": "A#5",
        "duration": "9i"
      },
      {
        "time": "37477i",
        "midiNote": 82,
        "velocity": 0.36220472440944884,
        "noteName": "A#5",
        "duration": "12i"
      },
      {
        "time": "37504i",
        "midiNote": 37,
        "velocity": 0.8188976377952756,
        "noteName": "C#2",
        "duration": "23i"
      },
      {
        "time": "37504i",
        "midiNote": 82,
        "velocity": 0.4015748031496063,
        "noteName": "A#5",
        "duration": "13i"
      },
      {
        "time": "37568i",
        "midiNote": 82,
        "velocity": 0.47244094488188976,
        "noteName": "A#5",
        "duration": "86i"
      },
      {
        "time": "37632i",
        "midiNote": 75,
        "velocity": 0.5905511811023622,
        "noteName": "D#5",
        "duration": "15i"
      },
      {
        "time": "37696i",
        "midiNote": 36,
        "velocity": 0.84251968503937,
        "noteName": "C2",
        "duration": "13i"
      },
      {
        "time": "37696i",
        "midiNote": 82,
        "velocity": 0.4566929133858268,
        "noteName": "A#5",
        "duration": "25i"
      },
      {
        "time": "37733i",
        "midiNote": 75,
        "velocity": 0.6771653543307087,
        "noteName": "D#5",
        "duration": "18i"
      },
      {
        "time": "37760i",
        "midiNote": 37,
        "velocity": 0.8976377952755905,
        "noteName": "C#2",
        "duration": "17i"
      },
      {
        "time": "37795i",
        "midiNote": 36,
        "velocity": 0.7952755905511811,
        "noteName": "C2",
        "duration": "13i"
      },
      {
        "time": "37824i",
        "midiNote": 75,
        "velocity": 0.7795275590551181,
        "noteName": "D#5",
        "duration": "17i"
      },
      {
        "time": "37824i",
        "midiNote": 82,
        "velocity": 0.4566929133858268,
        "noteName": "A#5",
        "duration": "13i"
      },
      {
        "time": "37861i",
        "midiNote": 82,
        "velocity": 0.4330708661417323,
        "noteName": "A#5",
        "duration": "7i"
      },
      {
        "time": "37888i",
        "midiNote": 36,
        "velocity": 0.7952755905511811,
        "noteName": "C2",
        "duration": "19i"
      },
      {
        "time": "37888i",
        "midiNote": 49,
        "velocity": 0.48031496062992124,
        "noteName": "C#3",
        "duration": "209i"
      },
      {
        "time": "37888i",
        "midiNote": 55,
        "velocity": 0.49606299212598426,
        "noteName": "G3",
        "duration": "209i"
      },
      {
        "time": "37888i",
        "midiNote": 82,
        "velocity": 0.4251968503937008,
        "noteName": "A#5",
        "duration": "21i"
      },
      {
        "time": "37952i",
        "midiNote": 82,
        "velocity": 0.3858267716535433,
        "noteName": "A#5",
        "duration": "17i"
      },
      {
        "time": "37989i",
        "midiNote": 82,
        "velocity": 0.3543307086614173,
        "noteName": "A#5",
        "duration": "15i"
      },
      {
        "time": "38016i",
        "midiNote": 37,
        "velocity": 0.7795275590551181,
        "noteName": "C#2",
        "duration": "21i"
      },
      {
        "time": "38016i",
        "midiNote": 82,
        "velocity": 0.4330708661417323,
        "noteName": "A#5",
        "duration": "21i"
      },
      {
        "time": "38080i",
        "midiNote": 36,
        "velocity": 0.7952755905511811,
        "noteName": "C2",
        "duration": "17i"
      },
      {
        "time": "38080i",
        "midiNote": 82,
        "velocity": 0.4251968503937008,
        "noteName": "A#5",
        "duration": "16i"
      },
      {
        "time": "38117i",
        "midiNote": 82,
        "velocity": 0.3779527559055118,
        "noteName": "A#5",
        "duration": "15i"
      },
      {
        "time": "38144i",
        "midiNote": 82,
        "velocity": 0.4251968503937008,
        "noteName": "A#5",
        "duration": "23i"
      },
      {
        "time": "38208i",
        "midiNote": 82,
        "velocity": 0.41732283464566927,
        "noteName": "A#5",
        "duration": "13i"
      },
      {
        "time": "38245i",
        "midiNote": 82,
        "velocity": 0.3858267716535433,
        "noteName": "A#5",
        "duration": "13i"
      },
      {
        "time": "38272i",
        "midiNote": 37,
        "velocity": 0.8976377952755905,
        "noteName": "C#2",
        "duration": "17i"
      },
      {
        "time": "38272i",
        "midiNote": 82,
        "velocity": 0.41732283464566927,
        "noteName": "A#5",
        "duration": "18i"
      },
      {
        "time": "38336i",
        "midiNote": 36,
        "velocity": 0.7165354330708661,
        "noteName": "C2",
        "duration": "16i"
      },
      {
        "time": "38336i",
        "midiNote": 82,
        "velocity": 0.3700787401574803,
        "noteName": "A#5",
        "duration": "16i"
      },
      {
        "time": "38373i",
        "midiNote": 82,
        "velocity": 0.3937007874015748,
        "noteName": "A#5",
        "duration": "16i"
      },
      {
        "time": "38400i",
        "midiNote": 36,
        "velocity": 0.7952755905511811,
        "noteName": "C2",
        "duration": "17i"
      },
      {
        "time": "38400i",
        "midiNote": 82,
        "velocity": 0.4251968503937008,
        "noteName": "A#5",
        "duration": "20i"
      },
      {
        "time": "38464i",
        "midiNote": 82,
        "velocity": 0.4251968503937008,
        "noteName": "A#5",
        "duration": "15i"
      },
      {
        "time": "38501i",
        "midiNote": 82,
        "velocity": 0.3700787401574803,
        "noteName": "A#5",
        "duration": "15i"
      },
      {
        "time": "38528i",
        "midiNote": 37,
        "velocity": 0.8976377952755905,
        "noteName": "C#2",
        "duration": "21i"
      },
      {
        "time": "38528i",
        "midiNote": 82,
        "velocity": 0.3700787401574803,
        "noteName": "A#5",
        "duration": "30i"
      },
      {
        "time": "38592i",
        "midiNote": 82,
        "velocity": 0.4330708661417323,
        "noteName": "A#5",
        "duration": "13i"
      },
      {
        "time": "38629i",
        "midiNote": 82,
        "velocity": 0.4015748031496063,
        "noteName": "A#5",
        "duration": "14i"
      },
      {
        "time": "38656i",
        "midiNote": 75,
        "velocity": 0.5905511811023622,
        "noteName": "D#5",
        "duration": "15i"
      },
      {
        "time": "38656i",
        "midiNote": 82,
        "velocity": 0.3858267716535433,
        "noteName": "A#5",
        "duration": "19i"
      },
      {
        "time": "38720i",
        "midiNote": 36,
        "velocity": 0.84251968503937,
        "noteName": "C2",
        "duration": "13i"
      },
      {
        "time": "38720i",
        "midiNote": 82,
        "velocity": 0.4015748031496063,
        "noteName": "A#5",
        "duration": "14i"
      },
      {
        "time": "38757i",
        "midiNote": 75,
        "velocity": 0.6771653543307087,
        "noteName": "D#5",
        "duration": "18i"
      },
      {
        "time": "38757i",
        "midiNote": 82,
        "velocity": 0.3779527559055118,
        "noteName": "A#5",
        "duration": "17i"
      },
      {
        "time": "38784i",
        "midiNote": 37,
        "velocity": 0.8188976377952756,
        "noteName": "C#2",
        "duration": "19i"
      },
      {
        "time": "38784i",
        "midiNote": 82,
        "velocity": 0.41732283464566927,
        "noteName": "A#5",
        "duration": "20i"
      },
      {
        "time": "38819i",
        "midiNote": 36,
        "velocity": 0.7952755905511811,
        "noteName": "C2",
        "duration": "13i"
      },
      {
        "time": "38848i",
        "midiNote": 75,
        "velocity": 0.7795275590551181,
        "noteName": "D#5",
        "duration": "17i"
      },
      {
        "time": "38848i",
        "midiNote": 82,
        "velocity": 0.41732283464566927,
        "noteName": "A#5",
        "duration": "13i"
      },
      {
        "time": "38885i",
        "midiNote": 82,
        "velocity": 0.4015748031496063,
        "noteName": "A#5",
        "duration": "14i"
      },
      {
        "time": "38912i",
        "midiNote": 36,
        "velocity": 0.7952755905511811,
        "noteName": "C2",
        "duration": "19i"
      },
      {
        "time": "38912i",
        "midiNote": 82,
        "velocity": 0.47244094488188976,
        "noteName": "A#5",
        "duration": "17i"
      },
      {
        "time": "38976i",
        "midiNote": 82,
        "velocity": 0.4015748031496063,
        "noteName": "A#5",
        "duration": "12i"
      },
      {
        "time": "39013i",
        "midiNote": 82,
        "velocity": 0.36220472440944884,
        "noteName": "A#5",
        "duration": "13i"
      },
      {
        "time": "39040i",
        "midiNote": 37,
        "velocity": 0.8976377952755905,
        "noteName": "C#2",
        "duration": "19i"
      },
      {
        "time": "39040i",
        "midiNote": 82,
        "velocity": 0.3700787401574803,
        "noteName": "A#5",
        "duration": "17i"
      },
      {
        "time": "39104i",
        "midiNote": 36,
        "velocity": 0.7952755905511811,
        "noteName": "C2",
        "duration": "17i"
      },
      {
        "time": "39104i",
        "midiNote": 82,
        "velocity": 0.3937007874015748,
        "noteName": "A#5",
        "duration": "11i"
      },
      {
        "time": "39141i",
        "midiNote": 82,
        "velocity": 0.3700787401574803,
        "noteName": "A#5",
        "duration": "10i"
      },
      {
        "time": "39168i",
        "midiNote": 82,
        "velocity": 0.4015748031496063,
        "noteName": "A#5",
        "duration": "15i"
      },
      {
        "time": "39232i",
        "midiNote": 82,
        "velocity": 0.4015748031496063,
        "noteName": "A#5",
        "duration": "12i"
      },
      {
        "time": "39269i",
        "midiNote": 82,
        "velocity": 0.41732283464566927,
        "noteName": "A#5",
        "duration": "13i"
      },
      {
        "time": "39296i",
        "midiNote": 37,
        "velocity": 0.8976377952755905,
        "noteName": "C#2",
        "duration": "25i"
      },
      {
        "time": "39296i",
        "midiNote": 82,
        "velocity": 0.3937007874015748,
        "noteName": "A#5",
        "duration": "14i"
      },
      {
        "time": "39360i",
        "midiNote": 36,
        "velocity": 0.7165354330708661,
        "noteName": "C2",
        "duration": "16i"
      },
      {
        "time": "39360i",
        "midiNote": 82,
        "velocity": 0.3937007874015748,
        "noteName": "A#5",
        "duration": "9i"
      },
      {
        "time": "39397i",
        "midiNote": 82,
        "velocity": 0.3779527559055118,
        "noteName": "A#5",
        "duration": "11i"
      },
      {
        "time": "39424i",
        "midiNote": 36,
        "velocity": 0.7952755905511811,
        "noteName": "C2",
        "duration": "17i"
      },
      {
        "time": "39424i",
        "midiNote": 82,
        "velocity": 0.4251968503937008,
        "noteName": "A#5",
        "duration": "19i"
      },
      {
        "time": "39488i",
        "midiNote": 82,
        "velocity": 0.3543307086614173,
        "noteName": "A#5",
        "duration": "9i"
      },
      {
        "time": "39525i",
        "midiNote": 82,
        "velocity": 0.36220472440944884,
        "noteName": "A#5",
        "duration": "12i"
      },
      {
        "time": "39552i",
        "midiNote": 37,
        "velocity": 0.8188976377952756,
        "noteName": "C#2",
        "duration": "23i"
      },
      {
        "time": "39552i",
        "midiNote": 82,
        "velocity": 0.4015748031496063,
        "noteName": "A#5",
        "duration": "13i"
      },
      {
        "time": "39616i",
        "midiNote": 82,
        "velocity": 0.47244094488188976,
        "noteName": "A#5",
        "duration": "86i"
      },
      {
        "time": "39680i",
        "midiNote": 75,
        "velocity": 0.5905511811023622,
        "noteName": "D#5",
        "duration": "15i"
      },
      {
        "time": "39744i",
        "midiNote": 36,
        "velocity": 0.84251968503937,
        "noteName": "C2",
        "duration": "13i"
      },
      {
        "time": "39744i",
        "midiNote": 82,
        "velocity": 0.4566929133858268,
        "noteName": "A#5",
        "duration": "25i"
      },
      {
        "time": "39781i",
        "midiNote": 75,
        "velocity": 0.6771653543307087,
        "noteName": "D#5",
        "duration": "18i"
      },
      {
        "time": "39808i",
        "midiNote": 37,
        "velocity": 0.8976377952755905,
        "noteName": "C#2",
        "duration": "17i"
      },
      {
        "time": "39843i",
        "midiNote": 36,
        "velocity": 0.7952755905511811,
        "noteName": "C2",
        "duration": "13i"
      },
      {
        "time": "39872i",
        "midiNote": 75,
        "velocity": 0.7795275590551181,
        "noteName": "D#5",
        "duration": "17i"
      },
      {
        "time": "39872i",
        "midiNote": 82,
        "velocity": 0.4566929133858268,
        "noteName": "A#5",
        "duration": "13i"
      },
      {
        "time": "39909i",
        "midiNote": 82,
        "velocity": 0.4330708661417323,
        "noteName": "A#5",
        "duration": "7i"
      },
      {
        "time": "39936i",
        "midiNote": 36,
        "velocity": 0.8188976377952756,
        "noteName": "C2",
        "duration": "153i"
      },
      {
        "time": "39936i",
        "midiNote": 54,
        "velocity": 0.5826771653543307,
        "noteName": "F#3",
        "duration": "15i"
      },
      {
        "time": "39936i",
        "midiNote": 55,
        "velocity": 0.5511811023622047,
        "noteName": "G3",
        "duration": "275i"
      },
      {
        "time": "39936i",
        "midiNote": 57,
        "velocity": 0.5196850393700787,
        "noteName": "A3",
        "duration": "274i"
      },
      {
        "time": "39968i",
        "midiNote": 54,
        "velocity": 0.33070866141732286,
        "noteName": "F#3",
        "duration": "15i"
      },
      {
        "time": "40000i",
        "midiNote": 54,
        "velocity": 0.44881889763779526,
        "noteName": "F#3",
        "duration": "15i"
      },
      {
        "time": "40032i",
        "midiNote": 54,
        "velocity": 0.31496062992125984,
        "noteName": "F#3",
        "duration": "9i"
      },
      {
        "time": "40064i",
        "midiNote": 37,
        "velocity": 0.7795275590551181,
        "noteName": "C#2",
        "duration": "205i"
      },
      {
        "time": "40064i",
        "midiNote": 54,
        "velocity": 0.6377952755905512,
        "noteName": "F#3",
        "duration": "17i"
      },
      {
        "time": "40096i",
        "midiNote": 54,
        "velocity": 0.3543307086614173,
        "noteName": "F#3",
        "duration": "16i"
      },
      {
        "time": "40128i",
        "midiNote": 36,
        "velocity": 0.7401574803149606,
        "noteName": "C2",
        "duration": "109i"
      },
      {
        "time": "40128i",
        "midiNote": 54,
        "velocity": 0.4251968503937008,
        "noteName": "F#3",
        "duration": "17i"
      },
      {
        "time": "40160i",
        "midiNote": 54,
        "velocity": 0.28346456692913385,
        "noteName": "F#3",
        "duration": "16i"
      },
      {
        "time": "40192i",
        "midiNote": 54,
        "velocity": 0.4645669291338583,
        "noteName": "F#3",
        "duration": "16i"
      },
      {
        "time": "40224i",
        "midiNote": 54,
        "velocity": 0.2755905511811024,
        "noteName": "F#3",
        "duration": "15i"
      },
      {
        "time": "40256i",
        "midiNote": 36,
        "velocity": 0.7401574803149606,
        "noteName": "C2",
        "duration": "89i"
      },
      {
        "time": "40256i",
        "midiNote": 54,
        "velocity": 0.3858267716535433,
        "noteName": "F#3",
        "duration": "18i"
      },
      {
        "time": "40288i",
        "midiNote": 54,
        "velocity": 0.28346456692913385,
        "noteName": "F#3",
        "duration": "14i"
      },
      {
        "time": "40320i",
        "midiNote": 37,
        "velocity": 0.7795275590551181,
        "noteName": "C#2",
        "duration": "89i"
      },
      {
        "time": "40320i",
        "midiNote": 54,
        "velocity": 0.5826771653543307,
        "noteName": "F#3",
        "duration": "19i"
      },
      {
        "time": "40352i",
        "midiNote": 54,
        "velocity": 0.30708661417322836,
        "noteName": "F#3",
        "duration": "11i"
      },
      {
        "time": "40384i",
        "midiNote": 36,
        "velocity": 0.6929133858267716,
        "noteName": "C2",
        "duration": "19i"
      },
      {
        "time": "40384i",
        "midiNote": 54,
        "velocity": 0.4251968503937008,
        "noteName": "F#3",
        "duration": "20i"
      },
      {
        "time": "40416i",
        "midiNote": 54,
        "velocity": 0.36220472440944884,
        "noteName": "F#3",
        "duration": "14i"
      },
      {
        "time": "40448i",
        "midiNote": 36,
        "velocity": 0.8661417322834646,
        "noteName": "C2",
        "duration": "115i"
      },
      {
        "time": "40448i",
        "midiNote": 54,
        "velocity": 0.6062992125984252,
        "noteName": "F#3",
        "duration": "21i"
      },
      {
        "time": "40960i",
        "midiNote": 36,
        "velocity": 0.7952755905511811,
        "noteName": "C2",
        "duration": "19i"
      },
      {
        "time": "40960i",
        "midiNote": 49,
        "velocity": 0.48031496062992124,
        "noteName": "C#3",
        "duration": "209i"
      },
      {
        "time": "40960i",
        "midiNote": 55,
        "velocity": 0.49606299212598426,
        "noteName": "G3",
        "duration": "209i"
      },
      {
        "time": "40960i",
        "midiNote": 82,
        "velocity": 0.4251968503937008,
        "noteName": "A#5",
        "duration": "21i"
      },
      {
        "time": "41024i",
        "midiNote": 82,
        "velocity": 0.3858267716535433,
        "noteName": "A#5",
        "duration": "17i"
      },
      {
        "time": "41061i",
        "midiNote": 82,
        "velocity": 0.3543307086614173,
        "noteName": "A#5",
        "duration": "15i"
      },
      {
        "time": "41088i",
        "midiNote": 37,
        "velocity": 0.7795275590551181,
        "noteName": "C#2",
        "duration": "21i"
      },
      {
        "time": "41088i",
        "midiNote": 82,
        "velocity": 0.4330708661417323,
        "noteName": "A#5",
        "duration": "21i"
      },
      {
        "time": "41152i",
        "midiNote": 36,
        "velocity": 0.7952755905511811,
        "noteName": "C2",
        "duration": "17i"
      },
      {
        "time": "41152i",
        "midiNote": 82,
        "velocity": 0.4251968503937008,
        "noteName": "A#5",
        "duration": "16i"
      },
      {
        "time": "41189i",
        "midiNote": 82,
        "velocity": 0.3779527559055118,
        "noteName": "A#5",
        "duration": "15i"
      },
      {
        "time": "41216i",
        "midiNote": 82,
        "velocity": 0.4251968503937008,
        "noteName": "A#5",
        "duration": "23i"
      },
      {
        "time": "41280i",
        "midiNote": 82,
        "velocity": 0.41732283464566927,
        "noteName": "A#5",
        "duration": "13i"
      },
      {
        "time": "41317i",
        "midiNote": 82,
        "velocity": 0.3858267716535433,
        "noteName": "A#5",
        "duration": "13i"
      },
      {
        "time": "41344i",
        "midiNote": 37,
        "velocity": 0.8976377952755905,
        "noteName": "C#2",
        "duration": "17i"
      },
      {
        "time": "41344i",
        "midiNote": 82,
        "velocity": 0.41732283464566927,
        "noteName": "A#5",
        "duration": "18i"
      },
      {
        "time": "41408i",
        "midiNote": 36,
        "velocity": 0.7165354330708661,
        "noteName": "C2",
        "duration": "16i"
      },
      {
        "time": "41408i",
        "midiNote": 82,
        "velocity": 0.3700787401574803,
        "noteName": "A#5",
        "duration": "16i"
      },
      {
        "time": "41445i",
        "midiNote": 82,
        "velocity": 0.3937007874015748,
        "noteName": "A#5",
        "duration": "16i"
      },
      {
        "time": "41472i",
        "midiNote": 36,
        "velocity": 0.7952755905511811,
        "noteName": "C2",
        "duration": "17i"
      },
      {
        "time": "41472i",
        "midiNote": 82,
        "velocity": 0.4251968503937008,
        "noteName": "A#5",
        "duration": "20i"
      },
      {
        "time": "41536i",
        "midiNote": 82,
        "velocity": 0.4251968503937008,
        "noteName": "A#5",
        "duration": "15i"
      },
      {
        "time": "41573i",
        "midiNote": 82,
        "velocity": 0.3700787401574803,
        "noteName": "A#5",
        "duration": "15i"
      },
      {
        "time": "41600i",
        "midiNote": 37,
        "velocity": 0.8976377952755905,
        "noteName": "C#2",
        "duration": "21i"
      },
      {
        "time": "41600i",
        "midiNote": 82,
        "velocity": 0.3700787401574803,
        "noteName": "A#5",
        "duration": "30i"
      },
      {
        "time": "41664i",
        "midiNote": 82,
        "velocity": 0.4330708661417323,
        "noteName": "A#5",
        "duration": "13i"
      },
      {
        "time": "41701i",
        "midiNote": 82,
        "velocity": 0.4015748031496063,
        "noteName": "A#5",
        "duration": "14i"
      },
      {
        "time": "41728i",
        "midiNote": 75,
        "velocity": 0.5905511811023622,
        "noteName": "D#5",
        "duration": "15i"
      },
      {
        "time": "41728i",
        "midiNote": 82,
        "velocity": 0.3858267716535433,
        "noteName": "A#5",
        "duration": "19i"
      },
      {
        "time": "41792i",
        "midiNote": 36,
        "velocity": 0.84251968503937,
        "noteName": "C2",
        "duration": "13i"
      },
      {
        "time": "41792i",
        "midiNote": 82,
        "velocity": 0.4015748031496063,
        "noteName": "A#5",
        "duration": "14i"
      },
      {
        "time": "41829i",
        "midiNote": 75,
        "velocity": 0.6771653543307087,
        "noteName": "D#5",
        "duration": "18i"
      },
      {
        "time": "41829i",
        "midiNote": 82,
        "velocity": 0.3779527559055118,
        "noteName": "A#5",
        "duration": "17i"
      },
      {
        "time": "41856i",
        "midiNote": 37,
        "velocity": 0.8188976377952756,
        "noteName": "C#2",
        "duration": "19i"
      },
      {
        "time": "41856i",
        "midiNote": 82,
        "velocity": 0.41732283464566927,
        "noteName": "A#5",
        "duration": "20i"
      },
      {
        "time": "41891i",
        "midiNote": 36,
        "velocity": 0.7952755905511811,
        "noteName": "C2",
        "duration": "13i"
      },
      {
        "time": "41920i",
        "midiNote": 75,
        "velocity": 0.7795275590551181,
        "noteName": "D#5",
        "duration": "17i"
      },
      {
        "time": "41920i",
        "midiNote": 82,
        "velocity": 0.41732283464566927,
        "noteName": "A#5",
        "duration": "13i"
      },
      {
        "time": "41957i",
        "midiNote": 82,
        "velocity": 0.4015748031496063,
        "noteName": "A#5",
        "duration": "14i"
      },
      {
        "time": "41984i",
        "midiNote": 36,
        "velocity": 0.7952755905511811,
        "noteName": "C2",
        "duration": "19i"
      },
      {
        "time": "41984i",
        "midiNote": 82,
        "velocity": 0.47244094488188976,
        "noteName": "A#5",
        "duration": "17i"
      },
      {
        "time": "42048i",
        "midiNote": 82,
        "velocity": 0.4015748031496063,
        "noteName": "A#5",
        "duration": "12i"
      },
      {
        "time": "42085i",
        "midiNote": 82,
        "velocity": 0.36220472440944884,
        "noteName": "A#5",
        "duration": "13i"
      },
      {
        "time": "42112i",
        "midiNote": 37,
        "velocity": 0.8976377952755905,
        "noteName": "C#2",
        "duration": "19i"
      },
      {
        "time": "42112i",
        "midiNote": 82,
        "velocity": 0.3700787401574803,
        "noteName": "A#5",
        "duration": "17i"
      },
      {
        "time": "42176i",
        "midiNote": 36,
        "velocity": 0.7952755905511811,
        "noteName": "C2",
        "duration": "17i"
      },
      {
        "time": "42176i",
        "midiNote": 82,
        "velocity": 0.3937007874015748,
        "noteName": "A#5",
        "duration": "11i"
      },
      {
        "time": "42213i",
        "midiNote": 82,
        "velocity": 0.3700787401574803,
        "noteName": "A#5",
        "duration": "10i"
      },
      {
        "time": "42240i",
        "midiNote": 82,
        "velocity": 0.4015748031496063,
        "noteName": "A#5",
        "duration": "15i"
      },
      {
        "time": "42304i",
        "midiNote": 82,
        "velocity": 0.4015748031496063,
        "noteName": "A#5",
        "duration": "12i"
      },
      {
        "time": "42341i",
        "midiNote": 82,
        "velocity": 0.41732283464566927,
        "noteName": "A#5",
        "duration": "13i"
      },
      {
        "time": "42368i",
        "midiNote": 37,
        "velocity": 0.8976377952755905,
        "noteName": "C#2",
        "duration": "25i"
      },
      {
        "time": "42368i",
        "midiNote": 82,
        "velocity": 0.3937007874015748,
        "noteName": "A#5",
        "duration": "14i"
      },
      {
        "time": "42432i",
        "midiNote": 36,
        "velocity": 0.7165354330708661,
        "noteName": "C2",
        "duration": "16i"
      },
      {
        "time": "42432i",
        "midiNote": 82,
        "velocity": 0.3937007874015748,
        "noteName": "A#5",
        "duration": "9i"
      },
      {
        "time": "42469i",
        "midiNote": 82,
        "velocity": 0.3779527559055118,
        "noteName": "A#5",
        "duration": "11i"
      },
      {
        "time": "42496i",
        "midiNote": 36,
        "velocity": 0.7952755905511811,
        "noteName": "C2",
        "duration": "17i"
      },
      {
        "time": "42496i",
        "midiNote": 82,
        "velocity": 0.4251968503937008,
        "noteName": "A#5",
        "duration": "19i"
      },
      {
        "time": "42560i",
        "midiNote": 82,
        "velocity": 0.3543307086614173,
        "noteName": "A#5",
        "duration": "9i"
      },
      {
        "time": "42597i",
        "midiNote": 82,
        "velocity": 0.36220472440944884,
        "noteName": "A#5",
        "duration": "12i"
      },
      {
        "time": "42624i",
        "midiNote": 37,
        "velocity": 0.8188976377952756,
        "noteName": "C#2",
        "duration": "23i"
      },
      {
        "time": "42624i",
        "midiNote": 82,
        "velocity": 0.4015748031496063,
        "noteName": "A#5",
        "duration": "13i"
      },
      {
        "time": "42688i",
        "midiNote": 82,
        "velocity": 0.47244094488188976,
        "noteName": "A#5",
        "duration": "86i"
      },
      {
        "time": "42752i",
        "midiNote": 75,
        "velocity": 0.5905511811023622,
        "noteName": "D#5",
        "duration": "15i"
      },
      {
        "time": "42816i",
        "midiNote": 36,
        "velocity": 0.84251968503937,
        "noteName": "C2",
        "duration": "13i"
      },
      {
        "time": "42816i",
        "midiNote": 82,
        "velocity": 0.4566929133858268,
        "noteName": "A#5",
        "duration": "25i"
      },
      {
        "time": "42853i",
        "midiNote": 75,
        "velocity": 0.6771653543307087,
        "noteName": "D#5",
        "duration": "18i"
      },
      {
        "time": "42880i",
        "midiNote": 37,
        "velocity": 0.8976377952755905,
        "noteName": "C#2",
        "duration": "17i"
      },
      {
        "time": "42915i",
        "midiNote": 36,
        "velocity": 0.7952755905511811,
        "noteName": "C2",
        "duration": "13i"
      },
      {
        "time": "42944i",
        "midiNote": 75,
        "velocity": 0.7795275590551181,
        "noteName": "D#5",
        "duration": "17i"
      },
      {
        "time": "42944i",
        "midiNote": 82,
        "velocity": 0.4566929133858268,
        "noteName": "A#5",
        "duration": "13i"
      },
      {
        "time": "42981i",
        "midiNote": 82,
        "velocity": 0.4330708661417323,
        "noteName": "A#5",
        "duration": "7i"
      },
      {
        "time": "43008i",
        "midiNote": 36,
        "velocity": 0.7952755905511811,
        "noteName": "C2",
        "duration": "19i"
      },
      {
        "time": "43008i",
        "midiNote": 49,
        "velocity": 0.48031496062992124,
        "noteName": "C#3",
        "duration": "209i"
      },
      {
        "time": "43008i",
        "midiNote": 55,
        "velocity": 0.49606299212598426,
        "noteName": "G3",
        "duration": "209i"
      },
      {
        "time": "43008i",
        "midiNote": 82,
        "velocity": 0.4251968503937008,
        "noteName": "A#5",
        "duration": "21i"
      },
      {
        "time": "43072i",
        "midiNote": 82,
        "velocity": 0.3858267716535433,
        "noteName": "A#5",
        "duration": "17i"
      },
      {
        "time": "43109i",
        "midiNote": 82,
        "velocity": 0.3543307086614173,
        "noteName": "A#5",
        "duration": "15i"
      },
      {
        "time": "43136i",
        "midiNote": 37,
        "velocity": 0.7795275590551181,
        "noteName": "C#2",
        "duration": "21i"
      },
      {
        "time": "43136i",
        "midiNote": 82,
        "velocity": 0.4330708661417323,
        "noteName": "A#5",
        "duration": "21i"
      },
      {
        "time": "43200i",
        "midiNote": 36,
        "velocity": 0.7952755905511811,
        "noteName": "C2",
        "duration": "17i"
      },
      {
        "time": "43200i",
        "midiNote": 82,
        "velocity": 0.4251968503937008,
        "noteName": "A#5",
        "duration": "16i"
      },
      {
        "time": "43237i",
        "midiNote": 82,
        "velocity": 0.3779527559055118,
        "noteName": "A#5",
        "duration": "15i"
      },
      {
        "time": "43264i",
        "midiNote": 82,
        "velocity": 0.4251968503937008,
        "noteName": "A#5",
        "duration": "23i"
      },
      {
        "time": "43328i",
        "midiNote": 82,
        "velocity": 0.41732283464566927,
        "noteName": "A#5",
        "duration": "13i"
      },
      {
        "time": "43365i",
        "midiNote": 82,
        "velocity": 0.3858267716535433,
        "noteName": "A#5",
        "duration": "13i"
      },
      {
        "time": "43392i",
        "midiNote": 37,
        "velocity": 0.8976377952755905,
        "noteName": "C#2",
        "duration": "17i"
      },
      {
        "time": "43392i",
        "midiNote": 82,
        "velocity": 0.41732283464566927,
        "noteName": "A#5",
        "duration": "18i"
      },
      {
        "time": "43456i",
        "midiNote": 36,
        "velocity": 0.7165354330708661,
        "noteName": "C2",
        "duration": "16i"
      },
      {
        "time": "43456i",
        "midiNote": 82,
        "velocity": 0.3700787401574803,
        "noteName": "A#5",
        "duration": "16i"
      },
      {
        "time": "43493i",
        "midiNote": 82,
        "velocity": 0.3937007874015748,
        "noteName": "A#5",
        "duration": "16i"
      },
      {
        "time": "43520i",
        "midiNote": 36,
        "velocity": 0.7952755905511811,
        "noteName": "C2",
        "duration": "17i"
      },
      {
        "time": "43520i",
        "midiNote": 82,
        "velocity": 0.4251968503937008,
        "noteName": "A#5",
        "duration": "20i"
      },
      {
        "time": "43584i",
        "midiNote": 82,
        "velocity": 0.4251968503937008,
        "noteName": "A#5",
        "duration": "15i"
      },
      {
        "time": "43621i",
        "midiNote": 82,
        "velocity": 0.3700787401574803,
        "noteName": "A#5",
        "duration": "15i"
      },
      {
        "time": "43648i",
        "midiNote": 37,
        "velocity": 0.8976377952755905,
        "noteName": "C#2",
        "duration": "21i"
      },
      {
        "time": "43648i",
        "midiNote": 82,
        "velocity": 0.3700787401574803,
        "noteName": "A#5",
        "duration": "30i"
      },
      {
        "time": "43712i",
        "midiNote": 82,
        "velocity": 0.4330708661417323,
        "noteName": "A#5",
        "duration": "13i"
      },
      {
        "time": "43749i",
        "midiNote": 82,
        "velocity": 0.4015748031496063,
        "noteName": "A#5",
        "duration": "14i"
      },
      {
        "time": "43776i",
        "midiNote": 75,
        "velocity": 0.5905511811023622,
        "noteName": "D#5",
        "duration": "15i"
      },
      {
        "time": "43776i",
        "midiNote": 82,
        "velocity": 0.3858267716535433,
        "noteName": "A#5",
        "duration": "19i"
      },
      {
        "time": "43840i",
        "midiNote": 36,
        "velocity": 0.84251968503937,
        "noteName": "C2",
        "duration": "13i"
      },
      {
        "time": "43840i",
        "midiNote": 82,
        "velocity": 0.4015748031496063,
        "noteName": "A#5",
        "duration": "14i"
      },
      {
        "time": "43877i",
        "midiNote": 75,
        "velocity": 0.6771653543307087,
        "noteName": "D#5",
        "duration": "18i"
      },
      {
        "time": "43877i",
        "midiNote": 82,
        "velocity": 0.3779527559055118,
        "noteName": "A#5",
        "duration": "17i"
      },
      {
        "time": "43904i",
        "midiNote": 37,
        "velocity": 0.8188976377952756,
        "noteName": "C#2",
        "duration": "19i"
      },
      {
        "time": "43904i",
        "midiNote": 82,
        "velocity": 0.41732283464566927,
        "noteName": "A#5",
        "duration": "20i"
      },
      {
        "time": "43939i",
        "midiNote": 36,
        "velocity": 0.7952755905511811,
        "noteName": "C2",
        "duration": "13i"
      },
      {
        "time": "43968i",
        "midiNote": 75,
        "velocity": 0.7795275590551181,
        "noteName": "D#5",
        "duration": "17i"
      },
      {
        "time": "43968i",
        "midiNote": 82,
        "velocity": 0.41732283464566927,
        "noteName": "A#5",
        "duration": "13i"
      },
      {
        "time": "44005i",
        "midiNote": 82,
        "velocity": 0.4015748031496063,
        "noteName": "A#5",
        "duration": "14i"
      },
      {
        "time": "44032i",
        "midiNote": 36,
        "velocity": 0.7952755905511811,
        "noteName": "C2",
        "duration": "19i"
      },
      {
        "time": "44032i",
        "midiNote": 82,
        "velocity": 0.47244094488188976,
        "noteName": "A#5",
        "duration": "17i"
      },
      {
        "time": "44096i",
        "midiNote": 82,
        "velocity": 0.4015748031496063,
        "noteName": "A#5",
        "duration": "12i"
      },
      {
        "time": "44133i",
        "midiNote": 82,
        "velocity": 0.36220472440944884,
        "noteName": "A#5",
        "duration": "13i"
      },
      {
        "time": "44160i",
        "midiNote": 37,
        "velocity": 0.8976377952755905,
        "noteName": "C#2",
        "duration": "19i"
      },
      {
        "time": "44160i",
        "midiNote": 82,
        "velocity": 0.3700787401574803,
        "noteName": "A#5",
        "duration": "17i"
      },
      {
        "time": "44224i",
        "midiNote": 36,
        "velocity": 0.7952755905511811,
        "noteName": "C2",
        "duration": "17i"
      },
      {
        "time": "44224i",
        "midiNote": 82,
        "velocity": 0.3937007874015748,
        "noteName": "A#5",
        "duration": "11i"
      },
      {
        "time": "44261i",
        "midiNote": 82,
        "velocity": 0.3700787401574803,
        "noteName": "A#5",
        "duration": "10i"
      },
      {
        "time": "44288i",
        "midiNote": 82,
        "velocity": 0.4015748031496063,
        "noteName": "A#5",
        "duration": "15i"
      },
      {
        "time": "44352i",
        "midiNote": 82,
        "velocity": 0.4015748031496063,
        "noteName": "A#5",
        "duration": "12i"
      },
      {
        "time": "44389i",
        "midiNote": 82,
        "velocity": 0.41732283464566927,
        "noteName": "A#5",
        "duration": "13i"
      },
      {
        "time": "44416i",
        "midiNote": 37,
        "velocity": 0.8976377952755905,
        "noteName": "C#2",
        "duration": "25i"
      },
      {
        "time": "44416i",
        "midiNote": 82,
        "velocity": 0.3937007874015748,
        "noteName": "A#5",
        "duration": "14i"
      },
      {
        "time": "44480i",
        "midiNote": 36,
        "velocity": 0.7165354330708661,
        "noteName": "C2",
        "duration": "16i"
      },
      {
        "time": "44480i",
        "midiNote": 82,
        "velocity": 0.3937007874015748,
        "noteName": "A#5",
        "duration": "9i"
      },
      {
        "time": "44517i",
        "midiNote": 82,
        "velocity": 0.3779527559055118,
        "noteName": "A#5",
        "duration": "11i"
      },
      {
        "time": "44544i",
        "midiNote": 36,
        "velocity": 0.7952755905511811,
        "noteName": "C2",
        "duration": "17i"
      },
      {
        "time": "44544i",
        "midiNote": 82,
        "velocity": 0.4251968503937008,
        "noteName": "A#5",
        "duration": "19i"
      },
      {
        "time": "44608i",
        "midiNote": 82,
        "velocity": 0.3543307086614173,
        "noteName": "A#5",
        "duration": "9i"
      },
      {
        "time": "44645i",
        "midiNote": 82,
        "velocity": 0.36220472440944884,
        "noteName": "A#5",
        "duration": "12i"
      },
      {
        "time": "44672i",
        "midiNote": 37,
        "velocity": 0.8188976377952756,
        "noteName": "C#2",
        "duration": "23i"
      },
      {
        "time": "44672i",
        "midiNote": 82,
        "velocity": 0.4015748031496063,
        "noteName": "A#5",
        "duration": "13i"
      },
      {
        "time": "44736i",
        "midiNote": 82,
        "velocity": 0.47244094488188976,
        "noteName": "A#5",
        "duration": "86i"
      },
      {
        "time": "44800i",
        "midiNote": 75,
        "velocity": 0.5905511811023622,
        "noteName": "D#5",
        "duration": "15i"
      },
      {
        "time": "44864i",
        "midiNote": 36,
        "velocity": 0.84251968503937,
        "noteName": "C2",
        "duration": "13i"
      },
      {
        "time": "44864i",
        "midiNote": 82,
        "velocity": 0.4566929133858268,
        "noteName": "A#5",
        "duration": "25i"
      },
      {
        "time": "44901i",
        "midiNote": 75,
        "velocity": 0.6771653543307087,
        "noteName": "D#5",
        "duration": "18i"
      },
      {
        "time": "44928i",
        "midiNote": 37,
        "velocity": 0.8976377952755905,
        "noteName": "C#2",
        "duration": "17i"
      },
      {
        "time": "44963i",
        "midiNote": 36,
        "velocity": 0.7952755905511811,
        "noteName": "C2",
        "duration": "13i"
      },
      {
        "time": "44992i",
        "midiNote": 75,
        "velocity": 0.7795275590551181,
        "noteName": "D#5",
        "duration": "17i"
      },
      {
        "time": "44992i",
        "midiNote": 82,
        "velocity": 0.4566929133858268,
        "noteName": "A#5",
        "duration": "13i"
      },
      {
        "time": "45029i",
        "midiNote": 82,
        "velocity": 0.4330708661417323,
        "noteName": "A#5",
        "duration": "7i"
      },
      {
        "time": "45056i",
        "midiNote": 36,
        "velocity": 0.7952755905511811,
        "noteName": "C2",
        "duration": "19i"
      },
      {
        "time": "45056i",
        "midiNote": 49,
        "velocity": 0.48031496062992124,
        "noteName": "C#3",
        "duration": "209i"
      },
      {
        "time": "45056i",
        "midiNote": 55,
        "velocity": 0.49606299212598426,
        "noteName": "G3",
        "duration": "209i"
      },
      {
        "time": "45056i",
        "midiNote": 82,
        "velocity": 0.4251968503937008,
        "noteName": "A#5",
        "duration": "21i"
      },
      {
        "time": "45120i",
        "midiNote": 82,
        "velocity": 0.3858267716535433,
        "noteName": "A#5",
        "duration": "17i"
      },
      {
        "time": "45157i",
        "midiNote": 82,
        "velocity": 0.3543307086614173,
        "noteName": "A#5",
        "duration": "15i"
      },
      {
        "time": "45184i",
        "midiNote": 37,
        "velocity": 0.7795275590551181,
        "noteName": "C#2",
        "duration": "21i"
      },
      {
        "time": "45184i",
        "midiNote": 82,
        "velocity": 0.4330708661417323,
        "noteName": "A#5",
        "duration": "21i"
      },
      {
        "time": "45248i",
        "midiNote": 36,
        "velocity": 0.7952755905511811,
        "noteName": "C2",
        "duration": "17i"
      },
      {
        "time": "45248i",
        "midiNote": 82,
        "velocity": 0.4251968503937008,
        "noteName": "A#5",
        "duration": "16i"
      },
      {
        "time": "45285i",
        "midiNote": 82,
        "velocity": 0.3779527559055118,
        "noteName": "A#5",
        "duration": "15i"
      },
      {
        "time": "45312i",
        "midiNote": 82,
        "velocity": 0.4251968503937008,
        "noteName": "A#5",
        "duration": "23i"
      },
      {
        "time": "45376i",
        "midiNote": 82,
        "velocity": 0.41732283464566927,
        "noteName": "A#5",
        "duration": "13i"
      },
      {
        "time": "45413i",
        "midiNote": 82,
        "velocity": 0.3858267716535433,
        "noteName": "A#5",
        "duration": "13i"
      },
      {
        "time": "45440i",
        "midiNote": 37,
        "velocity": 0.8976377952755905,
        "noteName": "C#2",
        "duration": "17i"
      },
      {
        "time": "45440i",
        "midiNote": 82,
        "velocity": 0.41732283464566927,
        "noteName": "A#5",
        "duration": "18i"
      },
      {
        "time": "45504i",
        "midiNote": 36,
        "velocity": 0.7165354330708661,
        "noteName": "C2",
        "duration": "16i"
      },
      {
        "time": "45504i",
        "midiNote": 82,
        "velocity": 0.3700787401574803,
        "noteName": "A#5",
        "duration": "16i"
      },
      {
        "time": "45541i",
        "midiNote": 82,
        "velocity": 0.3937007874015748,
        "noteName": "A#5",
        "duration": "16i"
      },
      {
        "time": "45568i",
        "midiNote": 36,
        "velocity": 0.7952755905511811,
        "noteName": "C2",
        "duration": "17i"
      },
      {
        "time": "45568i",
        "midiNote": 82,
        "velocity": 0.4251968503937008,
        "noteName": "A#5",
        "duration": "20i"
      },
      {
        "time": "45632i",
        "midiNote": 82,
        "velocity": 0.4251968503937008,
        "noteName": "A#5",
        "duration": "15i"
      },
      {
        "time": "45669i",
        "midiNote": 82,
        "velocity": 0.3700787401574803,
        "noteName": "A#5",
        "duration": "15i"
      },
      {
        "time": "45696i",
        "midiNote": 37,
        "velocity": 0.8976377952755905,
        "noteName": "C#2",
        "duration": "21i"
      },
      {
        "time": "45696i",
        "midiNote": 82,
        "velocity": 0.3700787401574803,
        "noteName": "A#5",
        "duration": "30i"
      },
      {
        "time": "45760i",
        "midiNote": 82,
        "velocity": 0.4330708661417323,
        "noteName": "A#5",
        "duration": "13i"
      },
      {
        "time": "45797i",
        "midiNote": 82,
        "velocity": 0.4015748031496063,
        "noteName": "A#5",
        "duration": "14i"
      },
      {
        "time": "45824i",
        "midiNote": 75,
        "velocity": 0.5905511811023622,
        "noteName": "D#5",
        "duration": "15i"
      },
      {
        "time": "45824i",
        "midiNote": 82,
        "velocity": 0.3858267716535433,
        "noteName": "A#5",
        "duration": "19i"
      },
      {
        "time": "45888i",
        "midiNote": 36,
        "velocity": 0.84251968503937,
        "noteName": "C2",
        "duration": "13i"
      },
      {
        "time": "45888i",
        "midiNote": 82,
        "velocity": 0.4015748031496063,
        "noteName": "A#5",
        "duration": "14i"
      },
      {
        "time": "45925i",
        "midiNote": 75,
        "velocity": 0.6771653543307087,
        "noteName": "D#5",
        "duration": "18i"
      },
      {
        "time": "45925i",
        "midiNote": 82,
        "velocity": 0.3779527559055118,
        "noteName": "A#5",
        "duration": "17i"
      },
      {
        "time": "45952i",
        "midiNote": 37,
        "velocity": 0.8188976377952756,
        "noteName": "C#2",
        "duration": "19i"
      },
      {
        "time": "45952i",
        "midiNote": 82,
        "velocity": 0.41732283464566927,
        "noteName": "A#5",
        "duration": "20i"
      },
      {
        "time": "45987i",
        "midiNote": 36,
        "velocity": 0.7952755905511811,
        "noteName": "C2",
        "duration": "13i"
      },
      {
        "time": "46016i",
        "midiNote": 75,
        "velocity": 0.7795275590551181,
        "noteName": "D#5",
        "duration": "17i"
      },
      {
        "time": "46016i",
        "midiNote": 82,
        "velocity": 0.41732283464566927,
        "noteName": "A#5",
        "duration": "13i"
      },
      {
        "time": "46053i",
        "midiNote": 82,
        "velocity": 0.4015748031496063,
        "noteName": "A#5",
        "duration": "14i"
      },
      {
        "time": "46080i",
        "midiNote": 36,
        "velocity": 0.7952755905511811,
        "noteName": "C2",
        "duration": "19i"
      },
      {
        "time": "46080i",
        "midiNote": 82,
        "velocity": 0.47244094488188976,
        "noteName": "A#5",
        "duration": "17i"
      },
      {
        "time": "46144i",
        "midiNote": 82,
        "velocity": 0.4015748031496063,
        "noteName": "A#5",
        "duration": "12i"
      },
      {
        "time": "46181i",
        "midiNote": 82,
        "velocity": 0.36220472440944884,
        "noteName": "A#5",
        "duration": "13i"
      },
      {
        "time": "46208i",
        "midiNote": 37,
        "velocity": 0.8976377952755905,
        "noteName": "C#2",
        "duration": "19i"
      },
      {
        "time": "46208i",
        "midiNote": 82,
        "velocity": 0.3700787401574803,
        "noteName": "A#5",
        "duration": "17i"
      },
      {
        "time": "46272i",
        "midiNote": 36,
        "velocity": 0.7952755905511811,
        "noteName": "C2",
        "duration": "17i"
      },
      {
        "time": "46272i",
        "midiNote": 82,
        "velocity": 0.3937007874015748,
        "noteName": "A#5",
        "duration": "11i"
      },
      {
        "time": "46309i",
        "midiNote": 82,
        "velocity": 0.3700787401574803,
        "noteName": "A#5",
        "duration": "10i"
      },
      {
        "time": "46336i",
        "midiNote": 82,
        "velocity": 0.4015748031496063,
        "noteName": "A#5",
        "duration": "15i"
      },
      {
        "time": "46400i",
        "midiNote": 82,
        "velocity": 0.4015748031496063,
        "noteName": "A#5",
        "duration": "12i"
      },
      {
        "time": "46437i",
        "midiNote": 82,
        "velocity": 0.41732283464566927,
        "noteName": "A#5",
        "duration": "13i"
      },
      {
        "time": "46464i",
        "midiNote": 37,
        "velocity": 0.8976377952755905,
        "noteName": "C#2",
        "duration": "25i"
      },
      {
        "time": "46464i",
        "midiNote": 82,
        "velocity": 0.3937007874015748,
        "noteName": "A#5",
        "duration": "14i"
      },
      {
        "time": "46528i",
        "midiNote": 36,
        "velocity": 0.7165354330708661,
        "noteName": "C2",
        "duration": "16i"
      },
      {
        "time": "46528i",
        "midiNote": 82,
        "velocity": 0.3937007874015748,
        "noteName": "A#5",
        "duration": "9i"
      },
      {
        "time": "46565i",
        "midiNote": 82,
        "velocity": 0.3779527559055118,
        "noteName": "A#5",
        "duration": "11i"
      },
      {
        "time": "46592i",
        "midiNote": 36,
        "velocity": 0.7952755905511811,
        "noteName": "C2",
        "duration": "17i"
      },
      {
        "time": "46592i",
        "midiNote": 82,
        "velocity": 0.4251968503937008,
        "noteName": "A#5",
        "duration": "19i"
      },
      {
        "time": "46656i",
        "midiNote": 82,
        "velocity": 0.3543307086614173,
        "noteName": "A#5",
        "duration": "9i"
      },
      {
        "time": "46693i",
        "midiNote": 82,
        "velocity": 0.36220472440944884,
        "noteName": "A#5",
        "duration": "12i"
      },
      {
        "time": "46720i",
        "midiNote": 37,
        "velocity": 0.8188976377952756,
        "noteName": "C#2",
        "duration": "23i"
      },
      {
        "time": "46720i",
        "midiNote": 82,
        "velocity": 0.4015748031496063,
        "noteName": "A#5",
        "duration": "13i"
      },
      {
        "time": "46784i",
        "midiNote": 82,
        "velocity": 0.47244094488188976,
        "noteName": "A#5",
        "duration": "86i"
      },
      {
        "time": "46848i",
        "midiNote": 75,
        "velocity": 0.5905511811023622,
        "noteName": "D#5",
        "duration": "15i"
      },
      {
        "time": "46912i",
        "midiNote": 36,
        "velocity": 0.84251968503937,
        "noteName": "C2",
        "duration": "13i"
      },
      {
        "time": "46912i",
        "midiNote": 82,
        "velocity": 0.4566929133858268,
        "noteName": "A#5",
        "duration": "25i"
      },
      {
        "time": "46949i",
        "midiNote": 75,
        "velocity": 0.6771653543307087,
        "noteName": "D#5",
        "duration": "18i"
      },
      {
        "time": "46976i",
        "midiNote": 37,
        "velocity": 0.8976377952755905,
        "noteName": "C#2",
        "duration": "17i"
      },
      {
        "time": "47011i",
        "midiNote": 36,
        "velocity": 0.7952755905511811,
        "noteName": "C2",
        "duration": "13i"
      },
      {
        "time": "47040i",
        "midiNote": 75,
        "velocity": 0.7795275590551181,
        "noteName": "D#5",
        "duration": "17i"
      },
      {
        "time": "47040i",
        "midiNote": 82,
        "velocity": 0.4566929133858268,
        "noteName": "A#5",
        "duration": "13i"
      },
      {
        "time": "47077i",
        "midiNote": 82,
        "velocity": 0.4330708661417323,
        "noteName": "A#5",
        "duration": "7i"
      },
      {
        "time": "47104i",
        "midiNote": 36,
        "velocity": 0.7952755905511811,
        "noteName": "C2",
        "duration": "19i"
      },
      {
        "time": "47104i",
        "midiNote": 49,
        "velocity": 0.48031496062992124,
        "noteName": "C#3",
        "duration": "209i"
      },
      {
        "time": "47104i",
        "midiNote": 55,
        "velocity": 0.49606299212598426,
        "noteName": "G3",
        "duration": "209i"
      },
      {
        "time": "47104i",
        "midiNote": 82,
        "velocity": 0.4251968503937008,
        "noteName": "A#5",
        "duration": "21i"
      },
      {
        "time": "47168i",
        "midiNote": 82,
        "velocity": 0.3858267716535433,
        "noteName": "A#5",
        "duration": "17i"
      },
      {
        "time": "47205i",
        "midiNote": 82,
        "velocity": 0.3543307086614173,
        "noteName": "A#5",
        "duration": "15i"
      },
      {
        "time": "47232i",
        "midiNote": 37,
        "velocity": 0.7795275590551181,
        "noteName": "C#2",
        "duration": "21i"
      },
      {
        "time": "47232i",
        "midiNote": 82,
        "velocity": 0.4330708661417323,
        "noteName": "A#5",
        "duration": "21i"
      },
      {
        "time": "47296i",
        "midiNote": 36,
        "velocity": 0.7952755905511811,
        "noteName": "C2",
        "duration": "17i"
      },
      {
        "time": "47296i",
        "midiNote": 82,
        "velocity": 0.4251968503937008,
        "noteName": "A#5",
        "duration": "16i"
      },
      {
        "time": "47333i",
        "midiNote": 82,
        "velocity": 0.3779527559055118,
        "noteName": "A#5",
        "duration": "15i"
      },
      {
        "time": "47360i",
        "midiNote": 82,
        "velocity": 0.4251968503937008,
        "noteName": "A#5",
        "duration": "23i"
      },
      {
        "time": "47424i",
        "midiNote": 82,
        "velocity": 0.41732283464566927,
        "noteName": "A#5",
        "duration": "13i"
      },
      {
        "time": "47461i",
        "midiNote": 82,
        "velocity": 0.3858267716535433,
        "noteName": "A#5",
        "duration": "13i"
      },
      {
        "time": "47488i",
        "midiNote": 37,
        "velocity": 0.8976377952755905,
        "noteName": "C#2",
        "duration": "17i"
      },
      {
        "time": "47488i",
        "midiNote": 82,
        "velocity": 0.41732283464566927,
        "noteName": "A#5",
        "duration": "18i"
      },
      {
        "time": "47552i",
        "midiNote": 36,
        "velocity": 0.7165354330708661,
        "noteName": "C2",
        "duration": "16i"
      },
      {
        "time": "47552i",
        "midiNote": 82,
        "velocity": 0.3700787401574803,
        "noteName": "A#5",
        "duration": "16i"
      },
      {
        "time": "47589i",
        "midiNote": 82,
        "velocity": 0.3937007874015748,
        "noteName": "A#5",
        "duration": "16i"
      },
      {
        "time": "47616i",
        "midiNote": 36,
        "velocity": 0.7952755905511811,
        "noteName": "C2",
        "duration": "17i"
      },
      {
        "time": "47616i",
        "midiNote": 82,
        "velocity": 0.4251968503937008,
        "noteName": "A#5",
        "duration": "20i"
      },
      {
        "time": "47680i",
        "midiNote": 82,
        "velocity": 0.4251968503937008,
        "noteName": "A#5",
        "duration": "15i"
      },
      {
        "time": "47717i",
        "midiNote": 82,
        "velocity": 0.3700787401574803,
        "noteName": "A#5",
        "duration": "15i"
      },
      {
        "time": "47744i",
        "midiNote": 37,
        "velocity": 0.8976377952755905,
        "noteName": "C#2",
        "duration": "21i"
      },
      {
        "time": "47744i",
        "midiNote": 82,
        "velocity": 0.3700787401574803,
        "noteName": "A#5",
        "duration": "30i"
      },
      {
        "time": "47808i",
        "midiNote": 82,
        "velocity": 0.4330708661417323,
        "noteName": "A#5",
        "duration": "13i"
      },
      {
        "time": "47845i",
        "midiNote": 82,
        "velocity": 0.4015748031496063,
        "noteName": "A#5",
        "duration": "14i"
      },
      {
        "time": "47872i",
        "midiNote": 75,
        "velocity": 0.5905511811023622,
        "noteName": "D#5",
        "duration": "15i"
      },
      {
        "time": "47872i",
        "midiNote": 82,
        "velocity": 0.3858267716535433,
        "noteName": "A#5",
        "duration": "19i"
      },
      {
        "time": "47936i",
        "midiNote": 36,
        "velocity": 0.84251968503937,
        "noteName": "C2",
        "duration": "13i"
      },
      {
        "time": "47936i",
        "midiNote": 82,
        "velocity": 0.4015748031496063,
        "noteName": "A#5",
        "duration": "14i"
      },
      {
        "time": "47973i",
        "midiNote": 75,
        "velocity": 0.6771653543307087,
        "noteName": "D#5",
        "duration": "18i"
      },
      {
        "time": "47973i",
        "midiNote": 82,
        "velocity": 0.3779527559055118,
        "noteName": "A#5",
        "duration": "17i"
      },
      {
        "time": "48000i",
        "midiNote": 37,
        "velocity": 0.8188976377952756,
        "noteName": "C#2",
        "duration": "19i"
      },
      {
        "time": "48000i",
        "midiNote": 82,
        "velocity": 0.41732283464566927,
        "noteName": "A#5",
        "duration": "20i"
      },
      {
        "time": "48035i",
        "midiNote": 36,
        "velocity": 0.7952755905511811,
        "noteName": "C2",
        "duration": "13i"
      },
      {
        "time": "48064i",
        "midiNote": 75,
        "velocity": 0.7795275590551181,
        "noteName": "D#5",
        "duration": "17i"
      },
      {
        "time": "48064i",
        "midiNote": 82,
        "velocity": 0.41732283464566927,
        "noteName": "A#5",
        "duration": "13i"
      },
      {
        "time": "48101i",
        "midiNote": 82,
        "velocity": 0.4015748031496063,
        "noteName": "A#5",
        "duration": "14i"
      },
      {
        "time": "48128i",
        "midiNote": 36,
        "velocity": 0.7952755905511811,
        "noteName": "C2",
        "duration": "19i"
      },
      {
        "time": "48128i",
        "midiNote": 82,
        "velocity": 0.47244094488188976,
        "noteName": "A#5",
        "duration": "17i"
      },
      {
        "time": "48192i",
        "midiNote": 82,
        "velocity": 0.4015748031496063,
        "noteName": "A#5",
        "duration": "12i"
      },
      {
        "time": "48229i",
        "midiNote": 82,
        "velocity": 0.36220472440944884,
        "noteName": "A#5",
        "duration": "13i"
      },
      {
        "time": "48256i",
        "midiNote": 37,
        "velocity": 0.8976377952755905,
        "noteName": "C#2",
        "duration": "19i"
      },
      {
        "time": "48256i",
        "midiNote": 82,
        "velocity": 0.3700787401574803,
        "noteName": "A#5",
        "duration": "17i"
      },
      {
        "time": "48320i",
        "midiNote": 36,
        "velocity": 0.7952755905511811,
        "noteName": "C2",
        "duration": "17i"
      },
      {
        "time": "48320i",
        "midiNote": 82,
        "velocity": 0.3937007874015748,
        "noteName": "A#5",
        "duration": "11i"
      },
      {
        "time": "48357i",
        "midiNote": 82,
        "velocity": 0.3700787401574803,
        "noteName": "A#5",
        "duration": "10i"
      },
      {
        "time": "48384i",
        "midiNote": 82,
        "velocity": 0.4015748031496063,
        "noteName": "A#5",
        "duration": "15i"
      },
      {
        "time": "48448i",
        "midiNote": 82,
        "velocity": 0.4015748031496063,
        "noteName": "A#5",
        "duration": "12i"
      },
      {
        "time": "48485i",
        "midiNote": 82,
        "velocity": 0.41732283464566927,
        "noteName": "A#5",
        "duration": "13i"
      },
      {
        "time": "48512i",
        "midiNote": 37,
        "velocity": 0.8976377952755905,
        "noteName": "C#2",
        "duration": "25i"
      },
      {
        "time": "48512i",
        "midiNote": 82,
        "velocity": 0.3937007874015748,
        "noteName": "A#5",
        "duration": "14i"
      },
      {
        "time": "48576i",
        "midiNote": 36,
        "velocity": 0.7165354330708661,
        "noteName": "C2",
        "duration": "16i"
      },
      {
        "time": "48576i",
        "midiNote": 82,
        "velocity": 0.3937007874015748,
        "noteName": "A#5",
        "duration": "9i"
      },
      {
        "time": "48613i",
        "midiNote": 82,
        "velocity": 0.3779527559055118,
        "noteName": "A#5",
        "duration": "11i"
      },
      {
        "time": "48640i",
        "midiNote": 36,
        "velocity": 0.7952755905511811,
        "noteName": "C2",
        "duration": "17i"
      },
      {
        "time": "48640i",
        "midiNote": 82,
        "velocity": 0.4251968503937008,
        "noteName": "A#5",
        "duration": "19i"
      },
      {
        "time": "48704i",
        "midiNote": 82,
        "velocity": 0.3543307086614173,
        "noteName": "A#5",
        "duration": "9i"
      },
      {
        "time": "48741i",
        "midiNote": 82,
        "velocity": 0.36220472440944884,
        "noteName": "A#5",
        "duration": "12i"
      },
      {
        "time": "48768i",
        "midiNote": 37,
        "velocity": 0.8188976377952756,
        "noteName": "C#2",
        "duration": "23i"
      },
      {
        "time": "48768i",
        "midiNote": 82,
        "velocity": 0.4015748031496063,
        "noteName": "A#5",
        "duration": "13i"
      },
      {
        "time": "48832i",
        "midiNote": 82,
        "velocity": 0.47244094488188976,
        "noteName": "A#5",
        "duration": "86i"
      },
      {
        "time": "48896i",
        "midiNote": 75,
        "velocity": 0.5905511811023622,
        "noteName": "D#5",
        "duration": "15i"
      },
      {
        "time": "48960i",
        "midiNote": 36,
        "velocity": 0.84251968503937,
        "noteName": "C2",
        "duration": "13i"
      },
      {
        "time": "48960i",
        "midiNote": 82,
        "velocity": 0.4566929133858268,
        "noteName": "A#5",
        "duration": "25i"
      },
      {
        "time": "48997i",
        "midiNote": 75,
        "velocity": 0.6771653543307087,
        "noteName": "D#5",
        "duration": "18i"
      },
      {
        "time": "49024i",
        "midiNote": 37,
        "velocity": 0.8976377952755905,
        "noteName": "C#2",
        "duration": "17i"
      },
      {
        "time": "49059i",
        "midiNote": 36,
        "velocity": 0.7952755905511811,
        "noteName": "C2",
        "duration": "13i"
      },
      {
        "time": "49088i",
        "midiNote": 75,
        "velocity": 0.7795275590551181,
        "noteName": "D#5",
        "duration": "17i"
      },
      {
        "time": "49088i",
        "midiNote": 82,
        "velocity": 0.4566929133858268,
        "noteName": "A#5",
        "duration": "13i"
      },
      {
        "time": "49125i",
        "midiNote": 82,
        "velocity": 0.4330708661417323,
        "noteName": "A#5",
        "duration": "7i"
      },
      {
        "time": "49152i",
        "midiNote": 36,
        "velocity": 0.5905511811023622,
        "noteName": "C2",
        "duration": "414i"
      },
      {
        "time": "49152i",
        "midiNote": 49,
        "velocity": 0.5669291338582677,
        "noteName": "C#3",
        "duration": "408i"
      },
      {
        "time": "49152i",
        "midiNote": 57,
        "velocity": 0.5354330708661418,
        "noteName": "A3",
        "duration": "412i"
      }
    ],
    [
      {
        "time": "4544i",
        "midiNote": 29,
        "velocity": 0.6141732283464567,
        "noteName": "F1",
        "duration": "62i"
      },
      {
        "time": "4608i",
        "midiNote": 30,
        "velocity": 0.7165354330708661,
        "noteName": "F#1",
        "duration": "173i"
      },
      {
        "time": "4800i",
        "midiNote": 32,
        "velocity": 0.6929133858267716,
        "noteName": "G#1",
        "duration": "227i"
      },
      {
        "time": "5056i",
        "midiNote": 32,
        "velocity": 0.6456692913385826,
        "noteName": "G#1",
        "duration": "63i"
      },
      {
        "time": "5120i",
        "midiNote": 29,
        "velocity": 0.5826771653543307,
        "noteName": "F1",
        "duration": "173i"
      },
      {
        "time": "5312i",
        "midiNote": 30,
        "velocity": 0.6456692913385826,
        "noteName": "F#1",
        "duration": "187i"
      },
      {
        "time": "5504i",
        "midiNote": 30,
        "velocity": 0.6929133858267716,
        "noteName": "F#1",
        "duration": "60i"
      },
      {
        "time": "5568i",
        "midiNote": 34,
        "velocity": 0.5826771653543307,
        "noteName": "A#1",
        "duration": "61i"
      },
      {
        "time": "5632i",
        "midiNote": 35,
        "velocity": 0.6929133858267716,
        "noteName": "B1",
        "duration": "165i"
      },
      {
        "time": "5824i",
        "midiNote": 35,
        "velocity": 0.6929133858267716,
        "noteName": "B1",
        "duration": "195i"
      },
      {
        "time": "6016i",
        "midiNote": 37,
        "velocity": 0.6456692913385826,
        "noteName": "C#2",
        "duration": "60i"
      },
      {
        "time": "6080i",
        "midiNote": 39,
        "velocity": 0.7165354330708661,
        "noteName": "D#2",
        "duration": "247i"
      },
      {
        "time": "6336i",
        "midiNote": 29,
        "velocity": 0.6929133858267716,
        "noteName": "F1",
        "duration": "233i"
      },
      {
        "time": "6592i",
        "midiNote": 29,
        "velocity": 0.6692913385826772,
        "noteName": "F1",
        "duration": "53i"
      },
      {
        "time": "6656i",
        "midiNote": 30,
        "velocity": 0.6929133858267716,
        "noteName": "F#1",
        "duration": "169i"
      },
      {
        "time": "6848i",
        "midiNote": 32,
        "velocity": 0.6456692913385826,
        "noteName": "G#1",
        "duration": "225i"
      },
      {
        "time": "7104i",
        "midiNote": 32,
        "velocity": 0.6141732283464567,
        "noteName": "G#1",
        "duration": "63i"
      },
      {
        "time": "7168i",
        "midiNote": 34,
        "velocity": 0.6929133858267716,
        "noteName": "A#1",
        "duration": "175i"
      },
      {
        "time": "7360i",
        "midiNote": 34,
        "velocity": 0.6456692913385826,
        "noteName": "A#1",
        "duration": "107i"
      },
      {
        "time": "7488i",
        "midiNote": 34,
        "velocity": 0.7480314960629921,
        "noteName": "A#1",
        "duration": "117i"
      },
      {
        "time": "7616i",
        "midiNote": 32,
        "velocity": 0.6929133858267716,
        "noteName": "G#1",
        "duration": "57i"
      },
      {
        "time": "7680i",
        "midiNote": 30,
        "velocity": 0.6929133858267716,
        "noteName": "F#1",
        "duration": "170i"
      },
      {
        "time": "7872i",
        "midiNote": 32,
        "velocity": 0.6929133858267716,
        "noteName": "G#1",
        "duration": "111i"
      },
      {
        "time": "8000i",
        "midiNote": 32,
        "velocity": 0.6929133858267716,
        "noteName": "G#1",
        "duration": "172i"
      },
      {
        "time": "8192i",
        "midiNote": 29,
        "velocity": 0.5826771653543307,
        "noteName": "F1",
        "duration": "175i"
      },
      {
        "time": "8384i",
        "midiNote": 30,
        "velocity": 0.6929133858267716,
        "noteName": "F#1",
        "duration": "234i"
      },
      {
        "time": "8640i",
        "midiNote": 30,
        "velocity": 0.6141732283464567,
        "noteName": "F#1",
        "duration": "27i"
      },
      {
        "time": "8704i",
        "midiNote": 30,
        "velocity": 0.7165354330708661,
        "noteName": "F#1",
        "duration": "170i"
      },
      {
        "time": "8896i",
        "midiNote": 32,
        "velocity": 0.6929133858267716,
        "noteName": "G#1",
        "duration": "255i"
      },
      {
        "time": "9152i",
        "midiNote": 34,
        "velocity": 0.6456692913385826,
        "noteName": "A#1",
        "duration": "61i"
      },
      {
        "time": "9216i",
        "midiNote": 35,
        "velocity": 0.7165354330708661,
        "noteName": "B1",
        "duration": "173i"
      },
      {
        "time": "9408i",
        "midiNote": 34,
        "velocity": 0.6929133858267716,
        "noteName": "A#1",
        "duration": "255i"
      },
      {
        "time": "9664i",
        "midiNote": 30,
        "velocity": 0.5748031496062992,
        "noteName": "F#1",
        "duration": "56i"
      },
      {
        "time": "9728i",
        "midiNote": 29,
        "velocity": 0.6456692913385826,
        "noteName": "F1",
        "duration": "244i"
      },
      {
        "time": "9984i",
        "midiNote": 33,
        "velocity": 0.6692913385826772,
        "noteName": "A1",
        "duration": "169i"
      },
      {
        "time": "10176i",
        "midiNote": 33,
        "velocity": 0.5984251968503937,
        "noteName": "A1",
        "duration": "63i"
      },
      {
        "time": "10240i",
        "midiNote": 34,
        "velocity": 0.7165354330708661,
        "noteName": "A#1",
        "duration": "447i"
      },
      {
        "time": "10688i",
        "midiNote": 32,
        "velocity": 0.7165354330708661,
        "noteName": "G#1",
        "duration": "57i"
      },
      {
        "time": "10752i",
        "midiNote": 30,
        "velocity": 0.6929133858267716,
        "noteName": "F#1",
        "duration": "169i"
      },
      {
        "time": "10944i",
        "midiNote": 32,
        "velocity": 0.6456692913385826,
        "noteName": "G#1",
        "duration": "225i"
      },
      {
        "time": "11200i",
        "midiNote": 32,
        "velocity": 0.6141732283464567,
        "noteName": "G#1",
        "duration": "63i"
      },
      {
        "time": "11264i",
        "midiNote": 34,
        "velocity": 0.6929133858267716,
        "noteName": "A#1",
        "duration": "175i"
      },
      {
        "time": "11456i",
        "midiNote": 34,
        "velocity": 0.6456692913385826,
        "noteName": "A#1",
        "duration": "107i"
      },
      {
        "time": "11584i",
        "midiNote": 34,
        "velocity": 0.7480314960629921,
        "noteName": "A#1",
        "duration": "117i"
      },
      {
        "time": "11712i",
        "midiNote": 32,
        "velocity": 0.6929133858267716,
        "noteName": "G#1",
        "duration": "57i"
      },
      {
        "time": "11776i",
        "midiNote": 30,
        "velocity": 0.6929133858267716,
        "noteName": "F#1",
        "duration": "170i"
      },
      {
        "time": "11968i",
        "midiNote": 32,
        "velocity": 0.6929133858267716,
        "noteName": "G#1",
        "duration": "111i"
      },
      {
        "time": "12096i",
        "midiNote": 32,
        "velocity": 0.6929133858267716,
        "noteName": "G#1",
        "duration": "172i"
      },
      {
        "time": "12288i",
        "midiNote": 29,
        "velocity": 0.5826771653543307,
        "noteName": "F1",
        "duration": "175i"
      },
      {
        "time": "12480i",
        "midiNote": 30,
        "velocity": 0.6929133858267716,
        "noteName": "F#1",
        "duration": "234i"
      },
      {
        "time": "12736i",
        "midiNote": 30,
        "velocity": 0.6141732283464567,
        "noteName": "F#1",
        "duration": "27i"
      },
      {
        "time": "12800i",
        "midiNote": 30,
        "velocity": 0.6929133858267716,
        "noteName": "F#1",
        "duration": "175i"
      },
      {
        "time": "12992i",
        "midiNote": 32,
        "velocity": 0.6929133858267716,
        "noteName": "G#1",
        "duration": "183i"
      },
      {
        "time": "13184i",
        "midiNote": 32,
        "velocity": 0.6929133858267716,
        "noteName": "G#1",
        "duration": "59i"
      },
      {
        "time": "13248i",
        "midiNote": 34,
        "velocity": 0.6141732283464567,
        "noteName": "A#1",
        "duration": "65i"
      },
      {
        "time": "13312i",
        "midiNote": 36,
        "velocity": 0.6456692913385826,
        "noteName": "C2",
        "duration": "174i"
      },
      {
        "time": "13504i",
        "midiNote": 37,
        "velocity": 0.6929133858267716,
        "noteName": "C#2",
        "duration": "179i"
      },
      {
        "time": "13696i",
        "midiNote": 37,
        "velocity": 0.6929133858267716,
        "noteName": "C#2",
        "duration": "67i"
      },
      {
        "time": "13760i",
        "midiNote": 34,
        "velocity": 0.5826771653543307,
        "noteName": "A#1",
        "duration": "59i"
      },
      {
        "time": "13824i",
        "midiNote": 35,
        "velocity": 0.6299212598425197,
        "noteName": "B1",
        "duration": "165i"
      },
      {
        "time": "14016i",
        "midiNote": 35,
        "velocity": 0.6456692913385826,
        "noteName": "B1",
        "duration": "186i"
      },
      {
        "time": "14208i",
        "midiNote": 30,
        "velocity": 0.6299212598425197,
        "noteName": "F#1",
        "duration": "132i"
      },
      {
        "time": "14336i",
        "midiNote": 32,
        "velocity": 0.6929133858267716,
        "noteName": "G#1",
        "duration": "389i"
      },
      {
        "time": "14720i",
        "midiNote": 29,
        "velocity": 0.6299212598425197,
        "noteName": "F1",
        "duration": "107i"
      },
      {
        "time": "14848i",
        "midiNote": 30,
        "velocity": 0.6929133858267716,
        "noteName": "F#1",
        "duration": "170i"
      },
      {
        "time": "15040i",
        "midiNote": 32,
        "velocity": 0.6929133858267716,
        "noteName": "G#1",
        "duration": "226i"
      },
      {
        "time": "15296i",
        "midiNote": 32,
        "velocity": 0.6141732283464567,
        "noteName": "G#1",
        "duration": "63i"
      },
      {
        "time": "15360i",
        "midiNote": 34,
        "velocity": 0.6456692913385826,
        "noteName": "A#1",
        "duration": "171i"
      },
      {
        "time": "15552i",
        "midiNote": 34,
        "velocity": 0.6929133858267716,
        "noteName": "A#1",
        "duration": "178i"
      },
      {
        "time": "15744i",
        "midiNote": 34,
        "velocity": 0.6929133858267716,
        "noteName": "A#1",
        "duration": "63i"
      },
      {
        "time": "15808i",
        "midiNote": 32,
        "velocity": 0.6141732283464567,
        "noteName": "G#1",
        "duration": "63i"
      },
      {
        "time": "15872i",
        "midiNote": 30,
        "velocity": 0.6929133858267716,
        "noteName": "F#1",
        "duration": "171i"
      },
      {
        "time": "16064i",
        "midiNote": 32,
        "velocity": 0.7165354330708661,
        "noteName": "G#1",
        "duration": "174i"
      },
      {
        "time": "16256i",
        "midiNote": 32,
        "velocity": 0.7165354330708661,
        "noteName": "G#1",
        "duration": "63i"
      },
      {
        "time": "16320i",
        "midiNote": 30,
        "velocity": 0.6141732283464567,
        "noteName": "F#1",
        "duration": "63i"
      },
      {
        "time": "16384i",
        "midiNote": 29,
        "velocity": 0.5511811023622047,
        "noteName": "F1",
        "duration": "187i"
      },
      {
        "time": "16576i",
        "midiNote": 30,
        "velocity": 0.7480314960629921,
        "noteName": "F#1",
        "duration": "127i"
      },
      {
        "time": "16704i",
        "midiNote": 34,
        "velocity": 0.7165354330708661,
        "noteName": "A#1",
        "duration": "127i"
      },
      {
        "time": "16832i",
        "midiNote": 29,
        "velocity": 0.6141732283464567,
        "noteName": "F1",
        "duration": "62i"
      },
      {
        "time": "16896i",
        "midiNote": 30,
        "velocity": 0.7165354330708661,
        "noteName": "F#1",
        "duration": "167i"
      },
      {
        "time": "17088i",
        "midiNote": 32,
        "velocity": 0.6929133858267716,
        "noteName": "G#1",
        "duration": "227i"
      },
      {
        "time": "17344i",
        "midiNote": 32,
        "velocity": 0.6456692913385826,
        "noteName": "G#1",
        "duration": "63i"
      },
      {
        "time": "17408i",
        "midiNote": 34,
        "velocity": 0.5826771653543307,
        "noteName": "A#1",
        "duration": "173i"
      },
      {
        "time": "17600i",
        "midiNote": 34,
        "velocity": 0.6456692913385826,
        "noteName": "A#1",
        "duration": "187i"
      },
      {
        "time": "17792i",
        "midiNote": 29,
        "velocity": 0.6220472440944882,
        "noteName": "F1",
        "duration": "60i"
      },
      {
        "time": "17856i",
        "midiNote": 34,
        "velocity": 0.7007874015748031,
        "noteName": "A#1",
        "duration": "61i"
      },
      {
        "time": "17920i",
        "midiNote": 35,
        "velocity": 0.6929133858267716,
        "noteName": "B1",
        "duration": "165i"
      },
      {
        "time": "18112i",
        "midiNote": 35,
        "velocity": 0.6929133858267716,
        "noteName": "B1",
        "duration": "191i"
      },
      {
        "time": "18304i",
        "midiNote": 37,
        "velocity": 0.6456692913385826,
        "noteName": "C#2",
        "duration": "60i"
      },
      {
        "time": "18368i",
        "midiNote": 39,
        "velocity": 0.7165354330708661,
        "noteName": "D#2",
        "duration": "247i"
      },
      {
        "time": "18624i",
        "midiNote": 29,
        "velocity": 0.6929133858267716,
        "noteName": "F1",
        "duration": "233i"
      },
      {
        "time": "18880i",
        "midiNote": 29,
        "velocity": 0.6692913385826772,
        "noteName": "F1",
        "duration": "53i"
      },
      {
        "time": "18944i",
        "midiNote": 30,
        "velocity": 0.6929133858267716,
        "noteName": "F#1",
        "duration": "169i"
      },
      {
        "time": "19136i",
        "midiNote": 32,
        "velocity": 0.6456692913385826,
        "noteName": "G#1",
        "duration": "225i"
      },
      {
        "time": "19392i",
        "midiNote": 32,
        "velocity": 0.6141732283464567,
        "noteName": "G#1",
        "duration": "63i"
      },
      {
        "time": "19456i",
        "midiNote": 34,
        "velocity": 0.6929133858267716,
        "noteName": "A#1",
        "duration": "175i"
      },
      {
        "time": "19648i",
        "midiNote": 34,
        "velocity": 0.6456692913385826,
        "noteName": "A#1",
        "duration": "107i"
      },
      {
        "time": "19776i",
        "midiNote": 34,
        "velocity": 0.7480314960629921,
        "noteName": "A#1",
        "duration": "117i"
      },
      {
        "time": "19904i",
        "midiNote": 32,
        "velocity": 0.6929133858267716,
        "noteName": "G#1",
        "duration": "57i"
      },
      {
        "time": "19968i",
        "midiNote": 30,
        "velocity": 0.6929133858267716,
        "noteName": "F#1",
        "duration": "170i"
      },
      {
        "time": "20160i",
        "midiNote": 32,
        "velocity": 0.6929133858267716,
        "noteName": "G#1",
        "duration": "111i"
      },
      {
        "time": "20288i",
        "midiNote": 32,
        "velocity": 0.6929133858267716,
        "noteName": "G#1",
        "duration": "172i"
      },
      {
        "time": "20480i",
        "midiNote": 29,
        "velocity": 0.5826771653543307,
        "noteName": "F1",
        "duration": "175i"
      },
      {
        "time": "20672i",
        "midiNote": 30,
        "velocity": 0.6929133858267716,
        "noteName": "F#1",
        "duration": "234i"
      },
      {
        "time": "20928i",
        "midiNote": 30,
        "velocity": 0.6141732283464567,
        "noteName": "F#1",
        "duration": "27i"
      },
      {
        "time": "20992i",
        "midiNote": 30,
        "velocity": 0.7165354330708661,
        "noteName": "F#1",
        "duration": "170i"
      },
      {
        "time": "21184i",
        "midiNote": 32,
        "velocity": 0.6929133858267716,
        "noteName": "G#1",
        "duration": "255i"
      },
      {
        "time": "21440i",
        "midiNote": 34,
        "velocity": 0.6456692913385826,
        "noteName": "A#1",
        "duration": "61i"
      },
      {
        "time": "21504i",
        "midiNote": 35,
        "velocity": 0.7165354330708661,
        "noteName": "B1",
        "duration": "173i"
      },
      {
        "time": "21696i",
        "midiNote": 34,
        "velocity": 0.6929133858267716,
        "noteName": "A#1",
        "duration": "255i"
      },
      {
        "time": "21952i",
        "midiNote": 30,
        "velocity": 0.5748031496062992,
        "noteName": "F#1",
        "duration": "56i"
      },
      {
        "time": "22016i",
        "midiNote": 29,
        "velocity": 0.6456692913385826,
        "noteName": "F1",
        "duration": "244i"
      },
      {
        "time": "22272i",
        "midiNote": 33,
        "velocity": 0.6692913385826772,
        "noteName": "A1",
        "duration": "169i"
      },
      {
        "time": "22464i",
        "midiNote": 33,
        "velocity": 0.5984251968503937,
        "noteName": "A1",
        "duration": "63i"
      },
      {
        "time": "22528i",
        "midiNote": 34,
        "velocity": 0.7165354330708661,
        "noteName": "A#1",
        "duration": "447i"
      },
      {
        "time": "22976i",
        "midiNote": 32,
        "velocity": 0.7165354330708661,
        "noteName": "G#1",
        "duration": "57i"
      },
      {
        "time": "23040i",
        "midiNote": 30,
        "velocity": 0.6929133858267716,
        "noteName": "F#1",
        "duration": "169i"
      },
      {
        "time": "23232i",
        "midiNote": 32,
        "velocity": 0.6456692913385826,
        "noteName": "G#1",
        "duration": "225i"
      },
      {
        "time": "23488i",
        "midiNote": 32,
        "velocity": 0.6141732283464567,
        "noteName": "G#1",
        "duration": "63i"
      },
      {
        "time": "23552i",
        "midiNote": 34,
        "velocity": 0.6929133858267716,
        "noteName": "A#1",
        "duration": "175i"
      },
      {
        "time": "23744i",
        "midiNote": 34,
        "velocity": 0.6456692913385826,
        "noteName": "A#1",
        "duration": "107i"
      },
      {
        "time": "23872i",
        "midiNote": 34,
        "velocity": 0.7480314960629921,
        "noteName": "A#1",
        "duration": "117i"
      },
      {
        "time": "24000i",
        "midiNote": 32,
        "velocity": 0.6929133858267716,
        "noteName": "G#1",
        "duration": "57i"
      },
      {
        "time": "24064i",
        "midiNote": 30,
        "velocity": 0.6929133858267716,
        "noteName": "F#1",
        "duration": "170i"
      },
      {
        "time": "24256i",
        "midiNote": 32,
        "velocity": 0.6929133858267716,
        "noteName": "G#1",
        "duration": "111i"
      },
      {
        "time": "24384i",
        "midiNote": 32,
        "velocity": 0.6929133858267716,
        "noteName": "G#1",
        "duration": "172i"
      },
      {
        "time": "24576i",
        "midiNote": 29,
        "velocity": 0.5826771653543307,
        "noteName": "F1",
        "duration": "175i"
      },
      {
        "time": "24768i",
        "midiNote": 30,
        "velocity": 0.6929133858267716,
        "noteName": "F#1",
        "duration": "234i"
      },
      {
        "time": "25024i",
        "midiNote": 30,
        "velocity": 0.6141732283464567,
        "noteName": "F#1",
        "duration": "27i"
      },
      {
        "time": "25088i",
        "midiNote": 30,
        "velocity": 0.6929133858267716,
        "noteName": "F#1",
        "duration": "175i"
      },
      {
        "time": "25280i",
        "midiNote": 32,
        "velocity": 0.6929133858267716,
        "noteName": "G#1",
        "duration": "183i"
      },
      {
        "time": "25472i",
        "midiNote": 32,
        "velocity": 0.6929133858267716,
        "noteName": "G#1",
        "duration": "59i"
      },
      {
        "time": "25536i",
        "midiNote": 34,
        "velocity": 0.6141732283464567,
        "noteName": "A#1",
        "duration": "65i"
      },
      {
        "time": "25600i",
        "midiNote": 36,
        "velocity": 0.6456692913385826,
        "noteName": "C2",
        "duration": "174i"
      },
      {
        "time": "25792i",
        "midiNote": 37,
        "velocity": 0.6929133858267716,
        "noteName": "C#2",
        "duration": "179i"
      },
      {
        "time": "25984i",
        "midiNote": 37,
        "velocity": 0.6929133858267716,
        "noteName": "C#2",
        "duration": "67i"
      },
      {
        "time": "26048i",
        "midiNote": 34,
        "velocity": 0.5826771653543307,
        "noteName": "A#1",
        "duration": "59i"
      },
      {
        "time": "26112i",
        "midiNote": 35,
        "velocity": 0.6299212598425197,
        "noteName": "B1",
        "duration": "165i"
      },
      {
        "time": "26304i",
        "midiNote": 35,
        "velocity": 0.6456692913385826,
        "noteName": "B1",
        "duration": "186i"
      },
      {
        "time": "26496i",
        "midiNote": 30,
        "velocity": 0.6299212598425197,
        "noteName": "F#1",
        "duration": "132i"
      },
      {
        "time": "26624i",
        "midiNote": 32,
        "velocity": 0.6929133858267716,
        "noteName": "G#1",
        "duration": "389i"
      },
      {
        "time": "27008i",
        "midiNote": 29,
        "velocity": 0.6299212598425197,
        "noteName": "F1",
        "duration": "107i"
      },
      {
        "time": "27136i",
        "midiNote": 46,
        "velocity": 0.5669291338582677,
        "noteName": "A#2",
        "duration": "31i"
      },
      {
        "time": "27168i",
        "midiNote": 39,
        "velocity": 0.5433070866141733,
        "noteName": "D#2",
        "duration": "31i"
      },
      {
        "time": "27200i",
        "midiNote": 37,
        "velocity": 0.5511811023622047,
        "noteName": "C#2",
        "duration": "27i"
      },
      {
        "time": "27232i",
        "midiNote": 36,
        "velocity": 0.5433070866141733,
        "noteName": "C2",
        "duration": "23i"
      },
      {
        "time": "27264i",
        "midiNote": 34,
        "velocity": 0.5354330708661418,
        "noteName": "A#1",
        "duration": "63i"
      },
      {
        "time": "27328i",
        "midiNote": 36,
        "velocity": 0.5590551181102362,
        "noteName": "C2",
        "duration": "313i"
      },
      {
        "time": "27648i",
        "midiNote": 37,
        "velocity": 0.5433070866141733,
        "noteName": "C#2",
        "duration": "191i"
      },
      {
        "time": "27840i",
        "midiNote": 30,
        "velocity": 0.5354330708661418,
        "noteName": "F#1",
        "duration": "191i"
      },
      {
        "time": "28032i",
        "midiNote": 34,
        "velocity": 0.5354330708661418,
        "noteName": "A#1",
        "duration": "127i"
      },
      {
        "time": "28160i",
        "midiNote": 36,
        "velocity": 0.6299212598425197,
        "noteName": "C2",
        "duration": "191i"
      },
      {
        "time": "28352i",
        "midiNote": 37,
        "velocity": 0.6456692913385826,
        "noteName": "C#2",
        "duration": "164i"
      },
      {
        "time": "28544i",
        "midiNote": 37,
        "velocity": 0.5748031496062992,
        "noteName": "C#2",
        "duration": "63i"
      },
      {
        "time": "28608i",
        "midiNote": 34,
        "velocity": 0.6141732283464567,
        "noteName": "A#1",
        "duration": "61i"
      },
      {
        "time": "28672i",
        "midiNote": 30,
        "velocity": 0.5826771653543307,
        "noteName": "F#1",
        "duration": "277i"
      },
      {
        "time": "28992i",
        "midiNote": 30,
        "velocity": 0.6456692913385826,
        "noteName": "F#1",
        "duration": "127i"
      },
      {
        "time": "29120i",
        "midiNote": 32,
        "velocity": 0.6141732283464567,
        "noteName": "G#1",
        "duration": "63i"
      },
      {
        "time": "29184i",
        "midiNote": 34,
        "velocity": 0.6299212598425197,
        "noteName": "A#1",
        "duration": "187i"
      },
      {
        "time": "29376i",
        "midiNote": 36,
        "velocity": 0.6692913385826772,
        "noteName": "C2",
        "duration": "233i"
      },
      {
        "time": "29632i",
        "midiNote": 36,
        "velocity": 0.6141732283464567,
        "noteName": "C2",
        "duration": "51i"
      },
      {
        "time": "29696i",
        "midiNote": 37,
        "velocity": 0.6141732283464567,
        "noteName": "C#2",
        "duration": "127i"
      },
      {
        "time": "29824i",
        "midiNote": 29,
        "velocity": 0.5826771653543307,
        "noteName": "F1",
        "duration": "63i"
      },
      {
        "time": "29888i",
        "midiNote": 30,
        "velocity": 0.6141732283464567,
        "noteName": "F#1",
        "duration": "187i"
      },
      {
        "time": "30080i",
        "midiNote": 32,
        "velocity": 0.6141732283464567,
        "noteName": "G#1",
        "duration": "63i"
      },
      {
        "time": "30144i",
        "midiNote": 34,
        "velocity": 0.5826771653543307,
        "noteName": "A#1",
        "duration": "63i"
      },
      {
        "time": "30208i",
        "midiNote": 36,
        "velocity": 0.6692913385826772,
        "noteName": "C2",
        "duration": "181i"
      },
      {
        "time": "30400i",
        "midiNote": 37,
        "velocity": 0.6299212598425197,
        "noteName": "C#2",
        "duration": "169i"
      },
      {
        "time": "30592i",
        "midiNote": 37,
        "velocity": 0.6456692913385826,
        "noteName": "C#2",
        "duration": "118i"
      },
      {
        "time": "30720i",
        "midiNote": 35,
        "velocity": 0.6692913385826772,
        "noteName": "B1",
        "duration": "177i"
      },
      {
        "time": "30912i",
        "midiNote": 35,
        "velocity": 0.4881889763779528,
        "noteName": "B1",
        "duration": "169i"
      },
      {
        "time": "31104i",
        "midiNote": 35,
        "velocity": 0.5984251968503937,
        "noteName": "B1",
        "duration": "59i"
      },
      {
        "time": "31168i",
        "midiNote": 34,
        "velocity": 0.5748031496062992,
        "noteName": "A#1",
        "duration": "63i"
      },
      {
        "time": "31232i",
        "midiNote": 32,
        "velocity": 0.6299212598425197,
        "noteName": "G#1",
        "duration": "253i"
      },
      {
        "time": "31488i",
        "midiNote": 34,
        "velocity": 0.6456692913385826,
        "noteName": "A#1",
        "duration": "188i"
      },
      {
        "time": "31680i",
        "midiNote": 32,
        "velocity": 0.6299212598425197,
        "noteName": "G#1",
        "duration": "53i"
      },
      {
        "time": "31744i",
        "midiNote": 30,
        "velocity": 0.6929133858267716,
        "noteName": "F#1",
        "duration": "169i"
      },
      {
        "time": "31936i",
        "midiNote": 32,
        "velocity": 0.6456692913385826,
        "noteName": "G#1",
        "duration": "225i"
      },
      {
        "time": "32192i",
        "midiNote": 32,
        "velocity": 0.6141732283464567,
        "noteName": "G#1",
        "duration": "63i"
      },
      {
        "time": "32256i",
        "midiNote": 34,
        "velocity": 0.6929133858267716,
        "noteName": "A#1",
        "duration": "175i"
      },
      {
        "time": "32448i",
        "midiNote": 34,
        "velocity": 0.6456692913385826,
        "noteName": "A#1",
        "duration": "107i"
      },
      {
        "time": "32576i",
        "midiNote": 34,
        "velocity": 0.7480314960629921,
        "noteName": "A#1",
        "duration": "117i"
      },
      {
        "time": "32704i",
        "midiNote": 32,
        "velocity": 0.6929133858267716,
        "noteName": "G#1",
        "duration": "57i"
      },
      {
        "time": "32768i",
        "midiNote": 30,
        "velocity": 0.6929133858267716,
        "noteName": "F#1",
        "duration": "170i"
      },
      {
        "time": "32960i",
        "midiNote": 32,
        "velocity": 0.6929133858267716,
        "noteName": "G#1",
        "duration": "111i"
      },
      {
        "time": "33088i",
        "midiNote": 32,
        "velocity": 0.6929133858267716,
        "noteName": "G#1",
        "duration": "172i"
      },
      {
        "time": "33280i",
        "midiNote": 29,
        "velocity": 0.5826771653543307,
        "noteName": "F1",
        "duration": "175i"
      },
      {
        "time": "33472i",
        "midiNote": 30,
        "velocity": 0.6929133858267716,
        "noteName": "F#1",
        "duration": "234i"
      },
      {
        "time": "33728i",
        "midiNote": 30,
        "velocity": 0.6141732283464567,
        "noteName": "F#1",
        "duration": "27i"
      },
      {
        "time": "33792i",
        "midiNote": 30,
        "velocity": 0.6929133858267716,
        "noteName": "F#1",
        "duration": "175i"
      },
      {
        "time": "33984i",
        "midiNote": 32,
        "velocity": 0.6929133858267716,
        "noteName": "G#1",
        "duration": "183i"
      },
      {
        "time": "34176i",
        "midiNote": 32,
        "velocity": 0.6929133858267716,
        "noteName": "G#1",
        "duration": "59i"
      },
      {
        "time": "34240i",
        "midiNote": 34,
        "velocity": 0.6141732283464567,
        "noteName": "A#1",
        "duration": "65i"
      },
      {
        "time": "34304i",
        "midiNote": 36,
        "velocity": 0.6456692913385826,
        "noteName": "C2",
        "duration": "174i"
      },
      {
        "time": "34496i",
        "midiNote": 37,
        "velocity": 0.6929133858267716,
        "noteName": "C#2",
        "duration": "179i"
      },
      {
        "time": "34688i",
        "midiNote": 37,
        "velocity": 0.6929133858267716,
        "noteName": "C#2",
        "duration": "67i"
      },
      {
        "time": "34752i",
        "midiNote": 34,
        "velocity": 0.5826771653543307,
        "noteName": "A#1",
        "duration": "59i"
      },
      {
        "time": "34816i",
        "midiNote": 35,
        "velocity": 0.6299212598425197,
        "noteName": "B1",
        "duration": "165i"
      },
      {
        "time": "35008i",
        "midiNote": 35,
        "velocity": 0.6456692913385826,
        "noteName": "B1",
        "duration": "186i"
      },
      {
        "time": "35200i",
        "midiNote": 30,
        "velocity": 0.6299212598425197,
        "noteName": "F#1",
        "duration": "132i"
      },
      {
        "time": "35328i",
        "midiNote": 32,
        "velocity": 0.6929133858267716,
        "noteName": "G#1",
        "duration": "389i"
      },
      {
        "time": "35712i",
        "midiNote": 29,
        "velocity": 0.6299212598425197,
        "noteName": "F1",
        "duration": "107i"
      },
      {
        "time": "35840i",
        "midiNote": 30,
        "velocity": 0.6456692913385826,
        "noteName": "F#1",
        "duration": "119i"
      },
      {
        "time": "37376i",
        "midiNote": 29,
        "velocity": 0.7480314960629921,
        "noteName": "F1",
        "duration": "126i"
      },
      {
        "time": "37568i",
        "midiNote": 30,
        "velocity": 0.7480314960629921,
        "noteName": "F#1",
        "duration": "198i"
      },
      {
        "time": "37760i",
        "midiNote": 32,
        "velocity": 0.6929133858267716,
        "noteName": "G#1",
        "duration": "59i"
      },
      {
        "time": "37824i",
        "midiNote": 34,
        "velocity": 0.6299212598425197,
        "noteName": "A#1",
        "duration": "57i"
      },
      {
        "time": "37888i",
        "midiNote": 30,
        "velocity": 0.7480314960629921,
        "noteName": "F#1",
        "duration": "145i"
      },
      {
        "time": "38080i",
        "midiNote": 32,
        "velocity": 0.7165354330708661,
        "noteName": "G#1",
        "duration": "285i"
      },
      {
        "time": "38400i",
        "midiNote": 29,
        "velocity": 0.7165354330708661,
        "noteName": "F1",
        "duration": "165i"
      },
      {
        "time": "38592i",
        "midiNote": 30,
        "velocity": 0.8188976377952756,
        "noteName": "F#1",
        "duration": "39i"
      },
      {
        "time": "38656i",
        "midiNote": 30,
        "velocity": 0.7480314960629921,
        "noteName": "F#1",
        "duration": "241i"
      },
      {
        "time": "38912i",
        "midiNote": 35,
        "velocity": 0.7480314960629921,
        "noteName": "B1",
        "duration": "185i"
      },
      {
        "time": "39104i",
        "midiNote": 35,
        "velocity": 0.6299212598425197,
        "noteName": "B1",
        "duration": "55i"
      },
      {
        "time": "39168i",
        "midiNote": 34,
        "velocity": 0.6929133858267716,
        "noteName": "A#1",
        "duration": "174i"
      },
      {
        "time": "39360i",
        "midiNote": 34,
        "velocity": 0.7165354330708661,
        "noteName": "A#1",
        "duration": "63i"
      },
      {
        "time": "39424i",
        "midiNote": 32,
        "velocity": 0.8188976377952756,
        "noteName": "G#1",
        "duration": "177i"
      },
      {
        "time": "39616i",
        "midiNote": 32,
        "velocity": 0.8188976377952756,
        "noteName": "G#1",
        "duration": "40i"
      },
      {
        "time": "39680i",
        "midiNote": 32,
        "velocity": 0.8188976377952756,
        "noteName": "G#1",
        "duration": "109i"
      },
      {
        "time": "39808i",
        "midiNote": 32,
        "velocity": 0.8582677165354331,
        "noteName": "G#1",
        "duration": "87i"
      },
      {
        "time": "39936i",
        "midiNote": 30,
        "velocity": 0.6299212598425197,
        "noteName": "F#1",
        "duration": "175i"
      },
      {
        "time": "40128i",
        "midiNote": 32,
        "velocity": 0.6141732283464567,
        "noteName": "G#1",
        "duration": "285i"
      },
      {
        "time": "40448i",
        "midiNote": 34,
        "velocity": 0.7165354330708661,
        "noteName": "A#1",
        "duration": "93i"
      },
      {
        "time": "40704i",
        "midiNote": 33,
        "velocity": 0.6456692913385826,
        "noteName": "A1",
        "duration": "214i"
      },
      {
        "time": "40960i",
        "midiNote": 31,
        "velocity": 0.6929133858267716,
        "noteName": "G1",
        "duration": "169i"
      },
      {
        "time": "41152i",
        "midiNote": 33,
        "velocity": 0.6456692913385826,
        "noteName": "A1",
        "duration": "225i"
      },
      {
        "time": "41408i",
        "midiNote": 33,
        "velocity": 0.6141732283464567,
        "noteName": "A1",
        "duration": "63i"
      },
      {
        "time": "41472i",
        "midiNote": 35,
        "velocity": 0.6929133858267716,
        "noteName": "B1",
        "duration": "175i"
      },
      {
        "time": "41664i",
        "midiNote": 35,
        "velocity": 0.6456692913385826,
        "noteName": "B1",
        "duration": "107i"
      },
      {
        "time": "41792i",
        "midiNote": 35,
        "velocity": 0.7480314960629921,
        "noteName": "B1",
        "duration": "117i"
      },
      {
        "time": "41920i",
        "midiNote": 33,
        "velocity": 0.6929133858267716,
        "noteName": "A1",
        "duration": "57i"
      },
      {
        "time": "41984i",
        "midiNote": 31,
        "velocity": 0.6929133858267716,
        "noteName": "G1",
        "duration": "170i"
      },
      {
        "time": "42176i",
        "midiNote": 33,
        "velocity": 0.6929133858267716,
        "noteName": "A1",
        "duration": "111i"
      },
      {
        "time": "42304i",
        "midiNote": 33,
        "velocity": 0.6929133858267716,
        "noteName": "A1",
        "duration": "172i"
      },
      {
        "time": "42496i",
        "midiNote": 30,
        "velocity": 0.5826771653543307,
        "noteName": "F#1",
        "duration": "175i"
      },
      {
        "time": "42688i",
        "midiNote": 31,
        "velocity": 0.6929133858267716,
        "noteName": "G1",
        "duration": "234i"
      },
      {
        "time": "42944i",
        "midiNote": 31,
        "velocity": 0.6141732283464567,
        "noteName": "G1",
        "duration": "27i"
      },
      {
        "time": "43008i",
        "midiNote": 31,
        "velocity": 0.6929133858267716,
        "noteName": "G1",
        "duration": "175i"
      },
      {
        "time": "43200i",
        "midiNote": 33,
        "velocity": 0.6929133858267716,
        "noteName": "A1",
        "duration": "183i"
      },
      {
        "time": "43392i",
        "midiNote": 33,
        "velocity": 0.6929133858267716,
        "noteName": "A1",
        "duration": "59i"
      },
      {
        "time": "43456i",
        "midiNote": 35,
        "velocity": 0.6141732283464567,
        "noteName": "B1",
        "duration": "65i"
      },
      {
        "time": "43520i",
        "midiNote": 37,
        "velocity": 0.6456692913385826,
        "noteName": "C#2",
        "duration": "174i"
      },
      {
        "time": "43712i",
        "midiNote": 38,
        "velocity": 0.6929133858267716,
        "noteName": "D2",
        "duration": "179i"
      },
      {
        "time": "43904i",
        "midiNote": 38,
        "velocity": 0.6929133858267716,
        "noteName": "D2",
        "duration": "67i"
      },
      {
        "time": "43968i",
        "midiNote": 35,
        "velocity": 0.5826771653543307,
        "noteName": "B1",
        "duration": "59i"
      },
      {
        "time": "44032i",
        "midiNote": 36,
        "velocity": 0.6299212598425197,
        "noteName": "C2",
        "duration": "165i"
      },
      {
        "time": "44224i",
        "midiNote": 36,
        "velocity": 0.6456692913385826,
        "noteName": "C2",
        "duration": "186i"
      },
      {
        "time": "44416i",
        "midiNote": 31,
        "velocity": 0.6299212598425197,
        "noteName": "G1",
        "duration": "132i"
      },
      {
        "time": "44544i",
        "midiNote": 33,
        "velocity": 0.6929133858267716,
        "noteName": "A1",
        "duration": "389i"
      },
      {
        "time": "44928i",
        "midiNote": 30,
        "velocity": 0.6299212598425197,
        "noteName": "F#1",
        "duration": "107i"
      },
      {
        "time": "45056i",
        "midiNote": 31,
        "velocity": 0.6929133858267716,
        "noteName": "G1",
        "duration": "169i"
      },
      {
        "time": "45248i",
        "midiNote": 33,
        "velocity": 0.6456692913385826,
        "noteName": "A1",
        "duration": "225i"
      },
      {
        "time": "45504i",
        "midiNote": 33,
        "velocity": 0.6141732283464567,
        "noteName": "A1",
        "duration": "63i"
      },
      {
        "time": "45568i",
        "midiNote": 35,
        "velocity": 0.6929133858267716,
        "noteName": "B1",
        "duration": "175i"
      },
      {
        "time": "45760i",
        "midiNote": 35,
        "velocity": 0.6456692913385826,
        "noteName": "B1",
        "duration": "107i"
      },
      {
        "time": "45888i",
        "midiNote": 35,
        "velocity": 0.7480314960629921,
        "noteName": "B1",
        "duration": "117i"
      },
      {
        "time": "46016i",
        "midiNote": 33,
        "velocity": 0.6929133858267716,
        "noteName": "A1",
        "duration": "57i"
      },
      {
        "time": "46080i",
        "midiNote": 31,
        "velocity": 0.6929133858267716,
        "noteName": "G1",
        "duration": "170i"
      },
      {
        "time": "46272i",
        "midiNote": 33,
        "velocity": 0.6929133858267716,
        "noteName": "A1",
        "duration": "111i"
      },
      {
        "time": "46400i",
        "midiNote": 33,
        "velocity": 0.6929133858267716,
        "noteName": "A1",
        "duration": "172i"
      },
      {
        "time": "46592i",
        "midiNote": 30,
        "velocity": 0.5826771653543307,
        "noteName": "F#1",
        "duration": "175i"
      },
      {
        "time": "46784i",
        "midiNote": 31,
        "velocity": 0.6929133858267716,
        "noteName": "G1",
        "duration": "234i"
      },
      {
        "time": "47040i",
        "midiNote": 31,
        "velocity": 0.6141732283464567,
        "noteName": "G1",
        "duration": "27i"
      },
      {
        "time": "47104i",
        "midiNote": 31,
        "velocity": 0.6929133858267716,
        "noteName": "G1",
        "duration": "175i"
      },
      {
        "time": "47296i",
        "midiNote": 33,
        "velocity": 0.6929133858267716,
        "noteName": "A1",
        "duration": "183i"
      },
      {
        "time": "47488i",
        "midiNote": 33,
        "velocity": 0.6929133858267716,
        "noteName": "A1",
        "duration": "59i"
      },
      {
        "time": "47552i",
        "midiNote": 35,
        "velocity": 0.6141732283464567,
        "noteName": "B1",
        "duration": "65i"
      },
      {
        "time": "47616i",
        "midiNote": 37,
        "velocity": 0.6456692913385826,
        "noteName": "C#2",
        "duration": "174i"
      },
      {
        "time": "47808i",
        "midiNote": 38,
        "velocity": 0.6929133858267716,
        "noteName": "D2",
        "duration": "179i"
      },
      {
        "time": "48000i",
        "midiNote": 38,
        "velocity": 0.6929133858267716,
        "noteName": "D2",
        "duration": "67i"
      },
      {
        "time": "48064i",
        "midiNote": 35,
        "velocity": 0.5826771653543307,
        "noteName": "B1",
        "duration": "59i"
      },
      {
        "time": "48128i",
        "midiNote": 36,
        "velocity": 0.6299212598425197,
        "noteName": "C2",
        "duration": "165i"
      },
      {
        "time": "48320i",
        "midiNote": 36,
        "velocity": 0.6456692913385826,
        "noteName": "C2",
        "duration": "186i"
      },
      {
        "time": "48512i",
        "midiNote": 31,
        "velocity": 0.6299212598425197,
        "noteName": "G1",
        "duration": "132i"
      },
      {
        "time": "48640i",
        "midiNote": 33,
        "velocity": 0.6929133858267716,
        "noteName": "A1",
        "duration": "389i"
      },
      {
        "time": "49024i",
        "midiNote": 30,
        "velocity": 0.6299212598425197,
        "noteName": "F#1",
        "duration": "107i"
      },
      {
        "time": "49152i",
        "midiNote": 26,
        "velocity": 0.6141732283464567,
        "noteName": "D1",
        "duration": "1592i"
      },
      {
        "time": "49152i",
        "midiNote": 38,
        "velocity": 0.6299212598425197,
        "noteName": "D2",
        "duration": "1589i"
      }
    ],
    [
      {
        "time": "10752i",
        "midiNote": 56,
        "velocity": 0.3464566929133858,
        "noteName": "G#3",
        "duration": "170i"
      },
      {
        "time": "10752i",
        "midiNote": 58,
        "velocity": 0.3779527559055118,
        "noteName": "A#3",
        "duration": "173i"
      },
      {
        "time": "10752i",
        "midiNote": 61,
        "velocity": 0.4330708661417323,
        "noteName": "C#4",
        "duration": "173i"
      },
      {
        "time": "10944i",
        "midiNote": 56,
        "velocity": 0.4330708661417323,
        "noteName": "G#3",
        "duration": "259i"
      },
      {
        "time": "10944i",
        "midiNote": 60,
        "velocity": 0.3858267716535433,
        "noteName": "C4",
        "duration": "255i"
      },
      {
        "time": "10944i",
        "midiNote": 63,
        "velocity": 0.4094488188976378,
        "noteName": "D#4",
        "duration": "255i"
      },
      {
        "time": "11264i",
        "midiNote": 58,
        "velocity": 0.4015748031496063,
        "noteName": "A#3",
        "duration": "421i"
      },
      {
        "time": "11264i",
        "midiNote": 61,
        "velocity": 0.4094488188976378,
        "noteName": "C#4",
        "duration": "425i"
      },
      {
        "time": "11264i",
        "midiNote": 65,
        "velocity": 0.4251968503937008,
        "noteName": "F4",
        "duration": "416i"
      },
      {
        "time": "11776i",
        "midiNote": 56,
        "velocity": 0.29133858267716534,
        "noteName": "G#3",
        "duration": "165i"
      },
      {
        "time": "11776i",
        "midiNote": 58,
        "velocity": 0.3779527559055118,
        "noteName": "A#3",
        "duration": "168i"
      },
      {
        "time": "11776i",
        "midiNote": 61,
        "velocity": 0.4015748031496063,
        "noteName": "C#4",
        "duration": "171i"
      },
      {
        "time": "11968i",
        "midiNote": 58,
        "velocity": 0.4015748031496063,
        "noteName": "A#3",
        "duration": "261i"
      },
      {
        "time": "11968i",
        "midiNote": 60,
        "velocity": 0.4251968503937008,
        "noteName": "C4",
        "duration": "261i"
      },
      {
        "time": "11968i",
        "midiNote": 63,
        "velocity": 0.4094488188976378,
        "noteName": "D#4",
        "duration": "265i"
      },
      {
        "time": "12288i",
        "midiNote": 56,
        "velocity": 0.4566929133858268,
        "noteName": "G#3",
        "duration": "159i"
      },
      {
        "time": "12288i",
        "midiNote": 60,
        "velocity": 0.47244094488188976,
        "noteName": "C4",
        "duration": "163i"
      },
      {
        "time": "12480i",
        "midiNote": 58,
        "velocity": 0.4566929133858268,
        "noteName": "A#3",
        "duration": "273i"
      },
      {
        "time": "12480i",
        "midiNote": 61,
        "velocity": 0.5039370078740157,
        "noteName": "C#4",
        "duration": "273i"
      },
      {
        "time": "12800i",
        "midiNote": 56,
        "velocity": 0.4015748031496063,
        "noteName": "G#3",
        "duration": "161i"
      },
      {
        "time": "12800i",
        "midiNote": 58,
        "velocity": 0.4015748031496063,
        "noteName": "A#3",
        "duration": "162i"
      },
      {
        "time": "12800i",
        "midiNote": 61,
        "velocity": 0.4330708661417323,
        "noteName": "C#4",
        "duration": "163i"
      },
      {
        "time": "12992i",
        "midiNote": 56,
        "velocity": 0.4330708661417323,
        "noteName": "G#3",
        "duration": "273i"
      },
      {
        "time": "12992i",
        "midiNote": 60,
        "velocity": 0.3464566929133858,
        "noteName": "C4",
        "duration": "267i"
      },
      {
        "time": "12992i",
        "midiNote": 63,
        "velocity": 0.4015748031496063,
        "noteName": "D#4",
        "duration": "277i"
      },
      {
        "time": "13312i",
        "midiNote": 56,
        "velocity": 0.36220472440944884,
        "noteName": "G#3",
        "duration": "157i"
      },
      {
        "time": "13312i",
        "midiNote": 60,
        "velocity": 0.4094488188976378,
        "noteName": "C4",
        "duration": "154i"
      },
      {
        "time": "13312i",
        "midiNote": 63,
        "velocity": 0.3937007874015748,
        "noteName": "D#4",
        "duration": "164i"
      },
      {
        "time": "13312i",
        "midiNote": 68,
        "velocity": 0.3937007874015748,
        "noteName": "G#4",
        "duration": "161i"
      },
      {
        "time": "13504i",
        "midiNote": 56,
        "velocity": 0.3464566929133858,
        "noteName": "G#3",
        "duration": "280i"
      },
      {
        "time": "13504i",
        "midiNote": 61,
        "velocity": 0.44881889763779526,
        "noteName": "C#4",
        "duration": "279i"
      },
      {
        "time": "13504i",
        "midiNote": 65,
        "velocity": 0.4330708661417323,
        "noteName": "F4",
        "duration": "281i"
      },
      {
        "time": "13824i",
        "midiNote": 59,
        "velocity": 0.36220472440944884,
        "noteName": "B3",
        "duration": "479i"
      },
      {
        "time": "13824i",
        "midiNote": 63,
        "velocity": 0.3779527559055118,
        "noteName": "D#4",
        "duration": "475i"
      },
      {
        "time": "13824i",
        "midiNote": 66,
        "velocity": 0.3543307086614173,
        "noteName": "F#4",
        "duration": "479i"
      },
      {
        "time": "14336i",
        "midiNote": 58,
        "velocity": 0.44881889763779526,
        "noteName": "A#3",
        "duration": "470i"
      },
      {
        "time": "14336i",
        "midiNote": 63,
        "velocity": 0.4566929133858268,
        "noteName": "D#4",
        "duration": "471i"
      },
      {
        "time": "14336i",
        "midiNote": 66,
        "velocity": 0.3937007874015748,
        "noteName": "F#4",
        "duration": "472i"
      },
      {
        "time": "14848i",
        "midiNote": 56,
        "velocity": 0.3464566929133858,
        "noteName": "G#3",
        "duration": "163i"
      },
      {
        "time": "14848i",
        "midiNote": 58,
        "velocity": 0.33858267716535434,
        "noteName": "A#3",
        "duration": "163i"
      },
      {
        "time": "14848i",
        "midiNote": 61,
        "velocity": 0.3700787401574803,
        "noteName": "C#4",
        "duration": "161i"
      },
      {
        "time": "15040i",
        "midiNote": 56,
        "velocity": 0.4094488188976378,
        "noteName": "G#3",
        "duration": "269i"
      },
      {
        "time": "15040i",
        "midiNote": 60,
        "velocity": 0.3937007874015748,
        "noteName": "C4",
        "duration": "266i"
      },
      {
        "time": "15040i",
        "midiNote": 63,
        "velocity": 0.4330708661417323,
        "noteName": "D#4",
        "duration": "268i"
      },
      {
        "time": "15360i",
        "midiNote": 53,
        "velocity": 0.36220472440944884,
        "noteName": "F3",
        "duration": "465i"
      },
      {
        "time": "15360i",
        "midiNote": 58,
        "velocity": 0.33858267716535434,
        "noteName": "A#3",
        "duration": "467i"
      },
      {
        "time": "15360i",
        "midiNote": 61,
        "velocity": 0.36220472440944884,
        "noteName": "C#4",
        "duration": "474i"
      },
      {
        "time": "15872i",
        "midiNote": 56,
        "velocity": 0.4094488188976378,
        "noteName": "G#3",
        "duration": "167i"
      },
      {
        "time": "15872i",
        "midiNote": 58,
        "velocity": 0.3937007874015748,
        "noteName": "A#3",
        "duration": "167i"
      },
      {
        "time": "15872i",
        "midiNote": 61,
        "velocity": 0.33858267716535434,
        "noteName": "C#4",
        "duration": "162i"
      },
      {
        "time": "16064i",
        "midiNote": 56,
        "velocity": 0.3779527559055118,
        "noteName": "G#3",
        "duration": "268i"
      },
      {
        "time": "16064i",
        "midiNote": 60,
        "velocity": 0.3700787401574803,
        "noteName": "C4",
        "duration": "269i"
      },
      {
        "time": "16064i",
        "midiNote": 63,
        "velocity": 0.4015748031496063,
        "noteName": "D#4",
        "duration": "269i"
      },
      {
        "time": "16384i",
        "midiNote": 56,
        "velocity": 0.3464566929133858,
        "noteName": "G#3",
        "duration": "161i"
      },
      {
        "time": "16384i",
        "midiNote": 60,
        "velocity": 0.33070866141732286,
        "noteName": "C4",
        "duration": "155i"
      },
      {
        "time": "16384i",
        "midiNote": 65,
        "velocity": 0.3464566929133858,
        "noteName": "F4",
        "duration": "156i"
      },
      {
        "time": "16576i",
        "midiNote": 56,
        "velocity": 0.31496062992125984,
        "noteName": "G#3",
        "duration": "283i"
      },
      {
        "time": "16576i",
        "midiNote": 58,
        "velocity": 0.3937007874015748,
        "noteName": "A#3",
        "duration": "281i"
      },
      {
        "time": "16576i",
        "midiNote": 61,
        "velocity": 0.4094488188976378,
        "noteName": "C#4",
        "duration": "290i"
      },
      {
        "time": "16896i",
        "midiNote": 56,
        "velocity": 0.36220472440944884,
        "noteName": "G#3",
        "duration": "157i"
      },
      {
        "time": "16896i",
        "midiNote": 58,
        "velocity": 0.3937007874015748,
        "noteName": "A#3",
        "duration": "157i"
      },
      {
        "time": "16896i",
        "midiNote": 61,
        "velocity": 0.3779527559055118,
        "noteName": "C#4",
        "duration": "161i"
      },
      {
        "time": "17088i",
        "midiNote": 56,
        "velocity": 0.3937007874015748,
        "noteName": "G#3",
        "duration": "280i"
      },
      {
        "time": "17088i",
        "midiNote": 60,
        "velocity": 0.3858267716535433,
        "noteName": "C4",
        "duration": "271i"
      },
      {
        "time": "17088i",
        "midiNote": 63,
        "velocity": 0.3937007874015748,
        "noteName": "D#4",
        "duration": "280i"
      },
      {
        "time": "17408i",
        "midiNote": 58,
        "velocity": 0.33858267716535434,
        "noteName": "A#3",
        "duration": "470i"
      },
      {
        "time": "17408i",
        "midiNote": 61,
        "velocity": 0.3700787401574803,
        "noteName": "C#4",
        "duration": "469i"
      },
      {
        "time": "17408i",
        "midiNote": 65,
        "velocity": 0.3937007874015748,
        "noteName": "F4",
        "duration": "469i"
      },
      {
        "time": "17920i",
        "midiNote": 59,
        "velocity": 0.4251968503937008,
        "noteName": "B3",
        "duration": "417i"
      },
      {
        "time": "17920i",
        "midiNote": 63,
        "velocity": 0.3700787401574803,
        "noteName": "D#4",
        "duration": "415i"
      },
      {
        "time": "17920i",
        "midiNote": 66,
        "velocity": 0.4094488188976378,
        "noteName": "F#4",
        "duration": "416i"
      },
      {
        "time": "18368i",
        "midiNote": 56,
        "velocity": 0.3543307086614173,
        "noteName": "G#3",
        "duration": "233i"
      },
      {
        "time": "18368i",
        "midiNote": 61,
        "velocity": 0.3700787401574803,
        "noteName": "C#4",
        "duration": "241i"
      },
      {
        "time": "18368i",
        "midiNote": 65,
        "velocity": 0.4015748031496063,
        "noteName": "F4",
        "duration": "239i"
      },
      {
        "time": "18752i",
        "midiNote": 56,
        "velocity": 0.3779527559055118,
        "noteName": "G#3",
        "duration": "169i"
      },
      {
        "time": "18752i",
        "midiNote": 60,
        "velocity": 0.4015748031496063,
        "noteName": "C4",
        "duration": "171i"
      },
      {
        "time": "18752i",
        "midiNote": 63,
        "velocity": 0.3779527559055118,
        "noteName": "D#4",
        "duration": "175i"
      },
      {
        "time": "18944i",
        "midiNote": 56,
        "velocity": 0.44881889763779526,
        "noteName": "G#3",
        "duration": "156i"
      },
      {
        "time": "18944i",
        "midiNote": 58,
        "velocity": 0.44881889763779526,
        "noteName": "A#3",
        "duration": "158i"
      },
      {
        "time": "18944i",
        "midiNote": 61,
        "velocity": 0.4566929133858268,
        "noteName": "C#4",
        "duration": "159i"
      },
      {
        "time": "19136i",
        "midiNote": 56,
        "velocity": 0.4094488188976378,
        "noteName": "G#3",
        "duration": "269i"
      },
      {
        "time": "19136i",
        "midiNote": 60,
        "velocity": 0.4566929133858268,
        "noteName": "C4",
        "duration": "266i"
      },
      {
        "time": "19136i",
        "midiNote": 63,
        "velocity": 0.4330708661417323,
        "noteName": "D#4",
        "duration": "271i"
      },
      {
        "time": "19456i",
        "midiNote": 53,
        "velocity": 0.3464566929133858,
        "noteName": "F3",
        "duration": "445i"
      },
      {
        "time": "19456i",
        "midiNote": 58,
        "velocity": 0.3779527559055118,
        "noteName": "A#3",
        "duration": "449i"
      },
      {
        "time": "19456i",
        "midiNote": 61,
        "velocity": 0.3937007874015748,
        "noteName": "C#4",
        "duration": "454i"
      },
      {
        "time": "19968i",
        "midiNote": 56,
        "velocity": 0.44881889763779526,
        "noteName": "G#3",
        "duration": "160i"
      },
      {
        "time": "19968i",
        "midiNote": 58,
        "velocity": 0.4330708661417323,
        "noteName": "A#3",
        "duration": "160i"
      },
      {
        "time": "19968i",
        "midiNote": 61,
        "velocity": 0.4330708661417323,
        "noteName": "C#4",
        "duration": "159i"
      },
      {
        "time": "20160i",
        "midiNote": 56,
        "velocity": 0.36220472440944884,
        "noteName": "G#3",
        "duration": "484i"
      },
      {
        "time": "20160i",
        "midiNote": 60,
        "velocity": 0.4330708661417323,
        "noteName": "C4",
        "duration": "481i"
      },
      {
        "time": "20160i",
        "midiNote": 63,
        "velocity": 0.3937007874015748,
        "noteName": "D#4",
        "duration": "489i"
      },
      {
        "time": "20672i",
        "midiNote": 56,
        "velocity": 0.4330708661417323,
        "noteName": "G#3",
        "duration": "291i"
      },
      {
        "time": "20672i",
        "midiNote": 58,
        "velocity": 0.4330708661417323,
        "noteName": "A#3",
        "duration": "289i"
      },
      {
        "time": "20672i",
        "midiNote": 61,
        "velocity": 0.4330708661417323,
        "noteName": "C#4",
        "duration": "289i"
      },
      {
        "time": "20992i",
        "midiNote": 56,
        "velocity": 0.4015748031496063,
        "noteName": "G#3",
        "duration": "161i"
      },
      {
        "time": "20992i",
        "midiNote": 58,
        "velocity": 0.4330708661417323,
        "noteName": "A#3",
        "duration": "161i"
      },
      {
        "time": "20992i",
        "midiNote": 61,
        "velocity": 0.4015748031496063,
        "noteName": "C#4",
        "duration": "159i"
      },
      {
        "time": "21184i",
        "midiNote": 56,
        "velocity": 0.4094488188976378,
        "noteName": "G#3",
        "duration": "264i"
      },
      {
        "time": "21184i",
        "midiNote": 60,
        "velocity": 0.4566929133858268,
        "noteName": "C4",
        "duration": "259i"
      },
      {
        "time": "21184i",
        "midiNote": 63,
        "velocity": 0.4094488188976378,
        "noteName": "D#4",
        "duration": "265i"
      },
      {
        "time": "21504i",
        "midiNote": 59,
        "velocity": 0.4881889763779528,
        "noteName": "B3",
        "duration": "167i"
      },
      {
        "time": "21504i",
        "midiNote": 63,
        "velocity": 0.44881889763779526,
        "noteName": "D#4",
        "duration": "168i"
      },
      {
        "time": "21504i",
        "midiNote": 66,
        "velocity": 0.4330708661417323,
        "noteName": "F#4",
        "duration": "167i"
      },
      {
        "time": "21696i",
        "midiNote": 58,
        "velocity": 0.44881889763779526,
        "noteName": "A#3",
        "duration": "262i"
      },
      {
        "time": "21696i",
        "midiNote": 61,
        "velocity": 0.4330708661417323,
        "noteName": "C#4",
        "duration": "260i"
      },
      {
        "time": "21696i",
        "midiNote": 65,
        "velocity": 0.4251968503937008,
        "noteName": "F4",
        "duration": "257i"
      },
      {
        "time": "22016i",
        "midiNote": 57,
        "velocity": 0.4251968503937008,
        "noteName": "A3",
        "duration": "159i"
      },
      {
        "time": "22016i",
        "midiNote": 60,
        "velocity": 0.4251968503937008,
        "noteName": "C4",
        "duration": "163i"
      },
      {
        "time": "22016i",
        "midiNote": 63,
        "velocity": 0.4094488188976378,
        "noteName": "D#4",
        "duration": "167i"
      },
      {
        "time": "22208i",
        "midiNote": 57,
        "velocity": 0.5039370078740157,
        "noteName": "A3",
        "duration": "289i"
      },
      {
        "time": "22208i",
        "midiNote": 63,
        "velocity": 0.5196850393700787,
        "noteName": "D#4",
        "duration": "290i"
      },
      {
        "time": "22528i",
        "midiNote": 58,
        "velocity": 0.5196850393700787,
        "noteName": "A#3",
        "duration": "477i"
      },
      {
        "time": "22528i",
        "midiNote": 61,
        "velocity": 0.5039370078740157,
        "noteName": "C#4",
        "duration": "481i"
      },
      {
        "time": "23040i",
        "midiNote": 56,
        "velocity": 0.3464566929133858,
        "noteName": "G#3",
        "duration": "170i"
      },
      {
        "time": "23040i",
        "midiNote": 58,
        "velocity": 0.3779527559055118,
        "noteName": "A#3",
        "duration": "173i"
      },
      {
        "time": "23040i",
        "midiNote": 61,
        "velocity": 0.4330708661417323,
        "noteName": "C#4",
        "duration": "173i"
      },
      {
        "time": "23232i",
        "midiNote": 56,
        "velocity": 0.4330708661417323,
        "noteName": "G#3",
        "duration": "259i"
      },
      {
        "time": "23232i",
        "midiNote": 60,
        "velocity": 0.3858267716535433,
        "noteName": "C4",
        "duration": "255i"
      },
      {
        "time": "23232i",
        "midiNote": 63,
        "velocity": 0.4094488188976378,
        "noteName": "D#4",
        "duration": "255i"
      },
      {
        "time": "23552i",
        "midiNote": 58,
        "velocity": 0.4015748031496063,
        "noteName": "A#3",
        "duration": "421i"
      },
      {
        "time": "23552i",
        "midiNote": 61,
        "velocity": 0.4094488188976378,
        "noteName": "C#4",
        "duration": "425i"
      },
      {
        "time": "23552i",
        "midiNote": 65,
        "velocity": 0.4251968503937008,
        "noteName": "F4",
        "duration": "416i"
      },
      {
        "time": "24064i",
        "midiNote": 56,
        "velocity": 0.29133858267716534,
        "noteName": "G#3",
        "duration": "165i"
      },
      {
        "time": "24064i",
        "midiNote": 58,
        "velocity": 0.3779527559055118,
        "noteName": "A#3",
        "duration": "168i"
      },
      {
        "time": "24064i",
        "midiNote": 61,
        "velocity": 0.4015748031496063,
        "noteName": "C#4",
        "duration": "171i"
      },
      {
        "time": "24256i",
        "midiNote": 58,
        "velocity": 0.4015748031496063,
        "noteName": "A#3",
        "duration": "261i"
      },
      {
        "time": "24256i",
        "midiNote": 60,
        "velocity": 0.4251968503937008,
        "noteName": "C4",
        "duration": "261i"
      },
      {
        "time": "24256i",
        "midiNote": 63,
        "velocity": 0.4094488188976378,
        "noteName": "D#4",
        "duration": "265i"
      },
      {
        "time": "24576i",
        "midiNote": 56,
        "velocity": 0.4566929133858268,
        "noteName": "G#3",
        "duration": "159i"
      },
      {
        "time": "24576i",
        "midiNote": 60,
        "velocity": 0.47244094488188976,
        "noteName": "C4",
        "duration": "163i"
      },
      {
        "time": "24768i",
        "midiNote": 58,
        "velocity": 0.4566929133858268,
        "noteName": "A#3",
        "duration": "273i"
      },
      {
        "time": "24768i",
        "midiNote": 61,
        "velocity": 0.5039370078740157,
        "noteName": "C#4",
        "duration": "273i"
      },
      {
        "time": "25088i",
        "midiNote": 56,
        "velocity": 0.4015748031496063,
        "noteName": "G#3",
        "duration": "161i"
      },
      {
        "time": "25088i",
        "midiNote": 58,
        "velocity": 0.4015748031496063,
        "noteName": "A#3",
        "duration": "162i"
      },
      {
        "time": "25088i",
        "midiNote": 61,
        "velocity": 0.4330708661417323,
        "noteName": "C#4",
        "duration": "163i"
      },
      {
        "time": "25280i",
        "midiNote": 56,
        "velocity": 0.4330708661417323,
        "noteName": "G#3",
        "duration": "273i"
      },
      {
        "time": "25280i",
        "midiNote": 60,
        "velocity": 0.3464566929133858,
        "noteName": "C4",
        "duration": "267i"
      },
      {
        "time": "25280i",
        "midiNote": 63,
        "velocity": 0.4015748031496063,
        "noteName": "D#4",
        "duration": "277i"
      },
      {
        "time": "25600i",
        "midiNote": 56,
        "velocity": 0.36220472440944884,
        "noteName": "G#3",
        "duration": "157i"
      },
      {
        "time": "25600i",
        "midiNote": 60,
        "velocity": 0.4094488188976378,
        "noteName": "C4",
        "duration": "154i"
      },
      {
        "time": "25600i",
        "midiNote": 63,
        "velocity": 0.3937007874015748,
        "noteName": "D#4",
        "duration": "164i"
      },
      {
        "time": "25600i",
        "midiNote": 68,
        "velocity": 0.3937007874015748,
        "noteName": "G#4",
        "duration": "161i"
      },
      {
        "time": "25792i",
        "midiNote": 56,
        "velocity": 0.3464566929133858,
        "noteName": "G#3",
        "duration": "280i"
      },
      {
        "time": "25792i",
        "midiNote": 61,
        "velocity": 0.44881889763779526,
        "noteName": "C#4",
        "duration": "279i"
      },
      {
        "time": "25792i",
        "midiNote": 65,
        "velocity": 0.4330708661417323,
        "noteName": "F4",
        "duration": "281i"
      },
      {
        "time": "26112i",
        "midiNote": 59,
        "velocity": 0.36220472440944884,
        "noteName": "B3",
        "duration": "479i"
      },
      {
        "time": "26112i",
        "midiNote": 63,
        "velocity": 0.3779527559055118,
        "noteName": "D#4",
        "duration": "475i"
      },
      {
        "time": "26112i",
        "midiNote": 66,
        "velocity": 0.3543307086614173,
        "noteName": "F#4",
        "duration": "479i"
      },
      {
        "time": "26624i",
        "midiNote": 58,
        "velocity": 0.44881889763779526,
        "noteName": "A#3",
        "duration": "470i"
      },
      {
        "time": "26624i",
        "midiNote": 63,
        "velocity": 0.4566929133858268,
        "noteName": "D#4",
        "duration": "471i"
      },
      {
        "time": "26624i",
        "midiNote": 66,
        "velocity": 0.3937007874015748,
        "noteName": "F#4",
        "duration": "472i"
      },
      {
        "time": "27136i",
        "midiNote": 58,
        "velocity": 0.4330708661417323,
        "noteName": "A#3",
        "duration": "177i"
      },
      {
        "time": "27136i",
        "midiNote": 61,
        "velocity": 0.4330708661417323,
        "noteName": "C#4",
        "duration": "170i"
      },
      {
        "time": "27136i",
        "midiNote": 65,
        "velocity": 0.44881889763779526,
        "noteName": "F4",
        "duration": "173i"
      },
      {
        "time": "27136i",
        "midiNote": 77,
        "velocity": 0.41732283464566927,
        "noteName": "F5",
        "duration": "83i"
      },
      {
        "time": "27136i",
        "midiNote": 89,
        "velocity": 0.3543307086614173,
        "noteName": "F6",
        "duration": "84i"
      },
      {
        "time": "27264i",
        "midiNote": 77,
        "velocity": 0.47244094488188976,
        "noteName": "F5",
        "duration": "94i"
      },
      {
        "time": "27264i",
        "midiNote": 89,
        "velocity": 0.4409448818897638,
        "noteName": "F6",
        "duration": "94i"
      },
      {
        "time": "27328i",
        "midiNote": 60,
        "velocity": 0.36220472440944884,
        "noteName": "C4",
        "duration": "280i"
      },
      {
        "time": "27328i",
        "midiNote": 63,
        "velocity": 0.4566929133858268,
        "noteName": "D#4",
        "duration": "284i"
      },
      {
        "time": "27328i",
        "midiNote": 68,
        "velocity": 0.3937007874015748,
        "noteName": "G#4",
        "duration": "283i"
      },
      {
        "time": "27392i",
        "midiNote": 75,
        "velocity": 0.3858267716535433,
        "noteName": "D#5",
        "duration": "76i"
      },
      {
        "time": "27392i",
        "midiNote": 87,
        "velocity": 0.44881889763779526,
        "noteName": "D#6",
        "duration": "81i"
      },
      {
        "time": "27520i",
        "midiNote": 75,
        "velocity": 0.41732283464566927,
        "noteName": "D#5",
        "duration": "86i"
      },
      {
        "time": "27520i",
        "midiNote": 87,
        "velocity": 0.5039370078740157,
        "noteName": "D#6",
        "duration": "88i"
      },
      {
        "time": "27648i",
        "midiNote": 56,
        "velocity": 0.31496062992125984,
        "noteName": "G#3",
        "duration": "159i"
      },
      {
        "time": "27648i",
        "midiNote": 61,
        "velocity": 0.3779527559055118,
        "noteName": "C#4",
        "duration": "161i"
      },
      {
        "time": "27648i",
        "midiNote": 65,
        "velocity": 0.36220472440944884,
        "noteName": "F4",
        "duration": "159i"
      },
      {
        "time": "27648i",
        "midiNote": 73,
        "velocity": 0.47244094488188976,
        "noteName": "C#5",
        "duration": "81i"
      },
      {
        "time": "27648i",
        "midiNote": 85,
        "velocity": 0.47244094488188976,
        "noteName": "C#6",
        "duration": "84i"
      },
      {
        "time": "27776i",
        "midiNote": 73,
        "velocity": 0.47244094488188976,
        "noteName": "C#5",
        "duration": "87i"
      },
      {
        "time": "27776i",
        "midiNote": 85,
        "velocity": 0.5196850393700787,
        "noteName": "C#6",
        "duration": "91i"
      },
      {
        "time": "27840i",
        "midiNote": 56,
        "velocity": 0.3700787401574803,
        "noteName": "G#3",
        "duration": "277i"
      },
      {
        "time": "27840i",
        "midiNote": 61,
        "velocity": 0.3543307086614173,
        "noteName": "C#4",
        "duration": "273i"
      },
      {
        "time": "27840i",
        "midiNote": 66,
        "velocity": 0.3779527559055118,
        "noteName": "F#4",
        "duration": "270i"
      },
      {
        "time": "27904i",
        "midiNote": 73,
        "velocity": 0.44881889763779526,
        "noteName": "C#5",
        "duration": "88i"
      },
      {
        "time": "27904i",
        "midiNote": 85,
        "velocity": 0.47244094488188976,
        "noteName": "C#6",
        "duration": "94i"
      },
      {
        "time": "28032i",
        "midiNote": 73,
        "velocity": 0.5039370078740157,
        "noteName": "C#5",
        "duration": "82i"
      },
      {
        "time": "28032i",
        "midiNote": 85,
        "velocity": 0.5196850393700787,
        "noteName": "C#6",
        "duration": "91i"
      },
      {
        "time": "28160i",
        "midiNote": 60,
        "velocity": 0.36220472440944884,
        "noteName": "C4",
        "duration": "159i"
      },
      {
        "time": "28160i",
        "midiNote": 63,
        "velocity": 0.36220472440944884,
        "noteName": "D#4",
        "duration": "156i"
      },
      {
        "time": "28160i",
        "midiNote": 68,
        "velocity": 0.4094488188976378,
        "noteName": "G#4",
        "duration": "163i"
      },
      {
        "time": "28160i",
        "midiNote": 75,
        "velocity": 0.4645669291338583,
        "noteName": "D#5",
        "duration": "90i"
      },
      {
        "time": "28160i",
        "midiNote": 87,
        "velocity": 0.5354330708661418,
        "noteName": "D#6",
        "duration": "96i"
      },
      {
        "time": "28288i",
        "midiNote": 75,
        "velocity": 0.47244094488188976,
        "noteName": "D#5",
        "duration": "92i"
      },
      {
        "time": "28288i",
        "midiNote": 87,
        "velocity": 0.5196850393700787,
        "noteName": "D#6",
        "duration": "94i"
      },
      {
        "time": "28352i",
        "midiNote": 56,
        "velocity": 0.2204724409448819,
        "noteName": "G#3",
        "duration": "264i"
      },
      {
        "time": "28352i",
        "midiNote": 61,
        "velocity": 0.3464566929133858,
        "noteName": "C#4",
        "duration": "263i"
      },
      {
        "time": "28352i",
        "midiNote": 65,
        "velocity": 0.3543307086614173,
        "noteName": "F4",
        "duration": "263i"
      },
      {
        "time": "28416i",
        "midiNote": 73,
        "velocity": 0.5196850393700787,
        "noteName": "C#5",
        "duration": "79i"
      },
      {
        "time": "28416i",
        "midiNote": 85,
        "velocity": 0.5196850393700787,
        "noteName": "C#6",
        "duration": "82i"
      },
      {
        "time": "28544i",
        "midiNote": 73,
        "velocity": 0.44881889763779526,
        "noteName": "C#5",
        "duration": "83i"
      },
      {
        "time": "28544i",
        "midiNote": 85,
        "velocity": 0.5196850393700787,
        "noteName": "C#6",
        "duration": "85i"
      },
      {
        "time": "28672i",
        "midiNote": 56,
        "velocity": 0.33858267716535434,
        "noteName": "G#3",
        "duration": "469i"
      },
      {
        "time": "28672i",
        "midiNote": 58,
        "velocity": 0.3543307086614173,
        "noteName": "A#3",
        "duration": "469i"
      },
      {
        "time": "28672i",
        "midiNote": 61,
        "velocity": 0.3700787401574803,
        "noteName": "C#4",
        "duration": "463i"
      },
      {
        "time": "28672i",
        "midiNote": 73,
        "velocity": 0.4645669291338583,
        "noteName": "C#5",
        "duration": "91i"
      },
      {
        "time": "28672i",
        "midiNote": 85,
        "velocity": 0.5039370078740157,
        "noteName": "C#6",
        "duration": "95i"
      },
      {
        "time": "28800i",
        "midiNote": 73,
        "velocity": 0.44881889763779526,
        "noteName": "C#5",
        "duration": "87i"
      },
      {
        "time": "28800i",
        "midiNote": 85,
        "velocity": 0.5196850393700787,
        "noteName": "C#6",
        "duration": "91i"
      },
      {
        "time": "28928i",
        "midiNote": 73,
        "velocity": 0.5039370078740157,
        "noteName": "C#5",
        "duration": "81i"
      },
      {
        "time": "28928i",
        "midiNote": 85,
        "velocity": 0.5196850393700787,
        "noteName": "C#6",
        "duration": "86i"
      },
      {
        "time": "29056i",
        "midiNote": 73,
        "velocity": 0.44881889763779526,
        "noteName": "C#5",
        "duration": "84i"
      },
      {
        "time": "29056i",
        "midiNote": 85,
        "velocity": 0.5039370078740157,
        "noteName": "C#6",
        "duration": "90i"
      },
      {
        "time": "29184i",
        "midiNote": 58,
        "velocity": 0.3228346456692913,
        "noteName": "A#3",
        "duration": "162i"
      },
      {
        "time": "29184i",
        "midiNote": 61,
        "velocity": 0.3779527559055118,
        "noteName": "C#4",
        "duration": "161i"
      },
      {
        "time": "29184i",
        "midiNote": 65,
        "velocity": 0.36220472440944884,
        "noteName": "F4",
        "duration": "163i"
      },
      {
        "time": "29184i",
        "midiNote": 73,
        "velocity": 0.4645669291338583,
        "noteName": "C#5",
        "duration": "84i"
      },
      {
        "time": "29184i",
        "midiNote": 85,
        "velocity": 0.5196850393700787,
        "noteName": "C#6",
        "duration": "91i"
      },
      {
        "time": "29312i",
        "midiNote": 73,
        "velocity": 0.47244094488188976,
        "noteName": "C#5",
        "duration": "66i"
      },
      {
        "time": "29312i",
        "midiNote": 85,
        "velocity": 0.5196850393700787,
        "noteName": "C#6",
        "duration": "73i"
      },
      {
        "time": "29376i",
        "midiNote": 58,
        "velocity": 0.33070866141732286,
        "noteName": "A#3",
        "duration": "263i"
      },
      {
        "time": "29376i",
        "midiNote": 60,
        "velocity": 0.4015748031496063,
        "noteName": "C4",
        "duration": "261i"
      },
      {
        "time": "29376i",
        "midiNote": 63,
        "velocity": 0.3700787401574803,
        "noteName": "D#4",
        "duration": "268i"
      },
      {
        "time": "29440i",
        "midiNote": 75,
        "velocity": 0.44881889763779526,
        "noteName": "D#5",
        "duration": "87i"
      },
      {
        "time": "29440i",
        "midiNote": 87,
        "velocity": 0.47244094488188976,
        "noteName": "D#6",
        "duration": "91i"
      },
      {
        "time": "29568i",
        "midiNote": 75,
        "velocity": 0.5039370078740157,
        "noteName": "D#5",
        "duration": "84i"
      },
      {
        "time": "29568i",
        "midiNote": 87,
        "velocity": 0.5354330708661418,
        "noteName": "D#6",
        "duration": "86i"
      },
      {
        "time": "29696i",
        "midiNote": 56,
        "velocity": 0.31496062992125984,
        "noteName": "G#3",
        "duration": "161i"
      },
      {
        "time": "29696i",
        "midiNote": 61,
        "velocity": 0.3779527559055118,
        "noteName": "C#4",
        "duration": "161i"
      },
      {
        "time": "29696i",
        "midiNote": 65,
        "velocity": 0.3543307086614173,
        "noteName": "F4",
        "duration": "161i"
      },
      {
        "time": "29696i",
        "midiNote": 73,
        "velocity": 0.5196850393700787,
        "noteName": "C#5",
        "duration": "75i"
      },
      {
        "time": "29696i",
        "midiNote": 85,
        "velocity": 0.5039370078740157,
        "noteName": "C#6",
        "duration": "79i"
      },
      {
        "time": "29824i",
        "midiNote": 73,
        "velocity": 0.4251968503937008,
        "noteName": "C#5",
        "duration": "81i"
      },
      {
        "time": "29824i",
        "midiNote": 85,
        "velocity": 0.5039370078740157,
        "noteName": "C#6",
        "duration": "85i"
      },
      {
        "time": "29888i",
        "midiNote": 56,
        "velocity": 0.3779527559055118,
        "noteName": "G#3",
        "duration": "268i"
      },
      {
        "time": "29888i",
        "midiNote": 61,
        "velocity": 0.3543307086614173,
        "noteName": "C#4",
        "duration": "265i"
      },
      {
        "time": "29888i",
        "midiNote": 66,
        "velocity": 0.3779527559055118,
        "noteName": "F#4",
        "duration": "263i"
      },
      {
        "time": "29952i",
        "midiNote": 73,
        "velocity": 0.44881889763779526,
        "noteName": "C#5",
        "duration": "91i"
      },
      {
        "time": "29952i",
        "midiNote": 85,
        "velocity": 0.47244094488188976,
        "noteName": "C#6",
        "duration": "95i"
      },
      {
        "time": "30080i",
        "midiNote": 73,
        "velocity": 0.47244094488188976,
        "noteName": "C#5",
        "duration": "79i"
      },
      {
        "time": "30080i",
        "midiNote": 85,
        "velocity": 0.5039370078740157,
        "noteName": "C#6",
        "duration": "85i"
      },
      {
        "time": "30208i",
        "midiNote": 60,
        "velocity": 0.3464566929133858,
        "noteName": "C4",
        "duration": "156i"
      },
      {
        "time": "30208i",
        "midiNote": 63,
        "velocity": 0.36220472440944884,
        "noteName": "D#4",
        "duration": "159i"
      },
      {
        "time": "30208i",
        "midiNote": 68,
        "velocity": 0.3779527559055118,
        "noteName": "G#4",
        "duration": "161i"
      },
      {
        "time": "30208i",
        "midiNote": 75,
        "velocity": 0.44881889763779526,
        "noteName": "D#5",
        "duration": "87i"
      },
      {
        "time": "30208i",
        "midiNote": 87,
        "velocity": 0.5196850393700787,
        "noteName": "D#6",
        "duration": "93i"
      },
      {
        "time": "30336i",
        "midiNote": 75,
        "velocity": 0.5039370078740157,
        "noteName": "D#5",
        "duration": "88i"
      },
      {
        "time": "30336i",
        "midiNote": 87,
        "velocity": 0.5196850393700787,
        "noteName": "D#6",
        "duration": "90i"
      },
      {
        "time": "30400i",
        "midiNote": 56,
        "velocity": 0.29133858267716534,
        "noteName": "G#3",
        "duration": "263i"
      },
      {
        "time": "30400i",
        "midiNote": 61,
        "velocity": 0.3779527559055118,
        "noteName": "C#4",
        "duration": "262i"
      },
      {
        "time": "30400i",
        "midiNote": 65,
        "velocity": 0.3937007874015748,
        "noteName": "F4",
        "duration": "265i"
      },
      {
        "time": "30464i",
        "midiNote": 73,
        "velocity": 0.47244094488188976,
        "noteName": "C#5",
        "duration": "85i"
      },
      {
        "time": "30464i",
        "midiNote": 85,
        "velocity": 0.47244094488188976,
        "noteName": "C#6",
        "duration": "92i"
      },
      {
        "time": "30592i",
        "midiNote": 73,
        "velocity": 0.4645669291338583,
        "noteName": "C#5",
        "duration": "73i"
      },
      {
        "time": "30592i",
        "midiNote": 85,
        "velocity": 0.5196850393700787,
        "noteName": "C#6",
        "duration": "80i"
      },
      {
        "time": "30720i",
        "midiNote": 54,
        "velocity": 0.33070866141732286,
        "noteName": "F#3",
        "duration": "485i"
      },
      {
        "time": "30720i",
        "midiNote": 59,
        "velocity": 0.4015748031496063,
        "noteName": "B3",
        "duration": "482i"
      },
      {
        "time": "30720i",
        "midiNote": 63,
        "velocity": 0.3228346456692913,
        "noteName": "D#4",
        "duration": "479i"
      },
      {
        "time": "30720i",
        "midiNote": 75,
        "velocity": 0.4645669291338583,
        "noteName": "D#5",
        "duration": "79i"
      },
      {
        "time": "30720i",
        "midiNote": 87,
        "velocity": 0.5039370078740157,
        "noteName": "D#6",
        "duration": "86i"
      },
      {
        "time": "30848i",
        "midiNote": 75,
        "velocity": 0.4094488188976378,
        "noteName": "D#5",
        "duration": "81i"
      },
      {
        "time": "30848i",
        "midiNote": 87,
        "velocity": 0.47244094488188976,
        "noteName": "D#6",
        "duration": "85i"
      },
      {
        "time": "30976i",
        "midiNote": 75,
        "velocity": 0.4645669291338583,
        "noteName": "D#5",
        "duration": "75i"
      },
      {
        "time": "30976i",
        "midiNote": 87,
        "velocity": 0.47244094488188976,
        "noteName": "D#6",
        "duration": "82i"
      },
      {
        "time": "31104i",
        "midiNote": 75,
        "velocity": 0.44881889763779526,
        "noteName": "D#5",
        "duration": "73i"
      },
      {
        "time": "31104i",
        "midiNote": 87,
        "velocity": 0.5039370078740157,
        "noteName": "D#6",
        "duration": "80i"
      },
      {
        "time": "31232i",
        "midiNote": 54,
        "velocity": 0.36220472440944884,
        "noteName": "F#3",
        "duration": "243i"
      },
      {
        "time": "31232i",
        "midiNote": 58,
        "velocity": 0.3700787401574803,
        "noteName": "A#3",
        "duration": "236i"
      },
      {
        "time": "31232i",
        "midiNote": 63,
        "velocity": 0.3700787401574803,
        "noteName": "D#4",
        "duration": "246i"
      },
      {
        "time": "31232i",
        "midiNote": 75,
        "velocity": 0.4645669291338583,
        "noteName": "D#5",
        "duration": "339i"
      },
      {
        "time": "31232i",
        "midiNote": 87,
        "velocity": 0.5196850393700787,
        "noteName": "D#6",
        "duration": "345i"
      },
      {
        "time": "31488i",
        "midiNote": 53,
        "velocity": 0.36220472440944884,
        "noteName": "F3",
        "duration": "215i"
      },
      {
        "time": "31488i",
        "midiNote": 58,
        "velocity": 0.3228346456692913,
        "noteName": "A#3",
        "duration": "220i"
      },
      {
        "time": "31488i",
        "midiNote": 61,
        "velocity": 0.4330708661417323,
        "noteName": "C#4",
        "duration": "221i"
      },
      {
        "time": "31744i",
        "midiNote": 56,
        "velocity": 0.3464566929133858,
        "noteName": "G#3",
        "duration": "170i"
      },
      {
        "time": "31744i",
        "midiNote": 58,
        "velocity": 0.3779527559055118,
        "noteName": "A#3",
        "duration": "173i"
      },
      {
        "time": "31744i",
        "midiNote": 61,
        "velocity": 0.4330708661417323,
        "noteName": "C#4",
        "duration": "173i"
      },
      {
        "time": "31936i",
        "midiNote": 56,
        "velocity": 0.4330708661417323,
        "noteName": "G#3",
        "duration": "259i"
      },
      {
        "time": "31936i",
        "midiNote": 60,
        "velocity": 0.3858267716535433,
        "noteName": "C4",
        "duration": "255i"
      },
      {
        "time": "31936i",
        "midiNote": 63,
        "velocity": 0.4094488188976378,
        "noteName": "D#4",
        "duration": "255i"
      },
      {
        "time": "32256i",
        "midiNote": 58,
        "velocity": 0.4015748031496063,
        "noteName": "A#3",
        "duration": "421i"
      },
      {
        "time": "32256i",
        "midiNote": 61,
        "velocity": 0.4094488188976378,
        "noteName": "C#4",
        "duration": "425i"
      },
      {
        "time": "32256i",
        "midiNote": 65,
        "velocity": 0.4251968503937008,
        "noteName": "F4",
        "duration": "416i"
      },
      {
        "time": "32768i",
        "midiNote": 56,
        "velocity": 0.29133858267716534,
        "noteName": "G#3",
        "duration": "165i"
      },
      {
        "time": "32768i",
        "midiNote": 58,
        "velocity": 0.3779527559055118,
        "noteName": "A#3",
        "duration": "168i"
      },
      {
        "time": "32768i",
        "midiNote": 61,
        "velocity": 0.4015748031496063,
        "noteName": "C#4",
        "duration": "171i"
      },
      {
        "time": "32960i",
        "midiNote": 58,
        "velocity": 0.4015748031496063,
        "noteName": "A#3",
        "duration": "261i"
      },
      {
        "time": "32960i",
        "midiNote": 60,
        "velocity": 0.4251968503937008,
        "noteName": "C4",
        "duration": "261i"
      },
      {
        "time": "32960i",
        "midiNote": 63,
        "velocity": 0.4094488188976378,
        "noteName": "D#4",
        "duration": "265i"
      },
      {
        "time": "33280i",
        "midiNote": 56,
        "velocity": 0.4566929133858268,
        "noteName": "G#3",
        "duration": "159i"
      },
      {
        "time": "33280i",
        "midiNote": 60,
        "velocity": 0.47244094488188976,
        "noteName": "C4",
        "duration": "163i"
      },
      {
        "time": "33472i",
        "midiNote": 58,
        "velocity": 0.4566929133858268,
        "noteName": "A#3",
        "duration": "273i"
      },
      {
        "time": "33472i",
        "midiNote": 61,
        "velocity": 0.5039370078740157,
        "noteName": "C#4",
        "duration": "273i"
      },
      {
        "time": "33792i",
        "midiNote": 56,
        "velocity": 0.4015748031496063,
        "noteName": "G#3",
        "duration": "161i"
      },
      {
        "time": "33792i",
        "midiNote": 58,
        "velocity": 0.4015748031496063,
        "noteName": "A#3",
        "duration": "162i"
      },
      {
        "time": "33792i",
        "midiNote": 61,
        "velocity": 0.4330708661417323,
        "noteName": "C#4",
        "duration": "163i"
      },
      {
        "time": "33984i",
        "midiNote": 56,
        "velocity": 0.4330708661417323,
        "noteName": "G#3",
        "duration": "273i"
      },
      {
        "time": "33984i",
        "midiNote": 60,
        "velocity": 0.3464566929133858,
        "noteName": "C4",
        "duration": "267i"
      },
      {
        "time": "33984i",
        "midiNote": 63,
        "velocity": 0.4015748031496063,
        "noteName": "D#4",
        "duration": "277i"
      },
      {
        "time": "34304i",
        "midiNote": 56,
        "velocity": 0.36220472440944884,
        "noteName": "G#3",
        "duration": "157i"
      },
      {
        "time": "34304i",
        "midiNote": 60,
        "velocity": 0.4094488188976378,
        "noteName": "C4",
        "duration": "154i"
      },
      {
        "time": "34304i",
        "midiNote": 63,
        "velocity": 0.3937007874015748,
        "noteName": "D#4",
        "duration": "164i"
      },
      {
        "time": "34304i",
        "midiNote": 68,
        "velocity": 0.3937007874015748,
        "noteName": "G#4",
        "duration": "161i"
      },
      {
        "time": "34496i",
        "midiNote": 56,
        "velocity": 0.3464566929133858,
        "noteName": "G#3",
        "duration": "280i"
      },
      {
        "time": "34496i",
        "midiNote": 61,
        "velocity": 0.44881889763779526,
        "noteName": "C#4",
        "duration": "279i"
      },
      {
        "time": "34496i",
        "midiNote": 65,
        "velocity": 0.4330708661417323,
        "noteName": "F4",
        "duration": "281i"
      },
      {
        "time": "34816i",
        "midiNote": 59,
        "velocity": 0.36220472440944884,
        "noteName": "B3",
        "duration": "479i"
      },
      {
        "time": "34816i",
        "midiNote": 63,
        "velocity": 0.3779527559055118,
        "noteName": "D#4",
        "duration": "475i"
      },
      {
        "time": "34816i",
        "midiNote": 66,
        "velocity": 0.3543307086614173,
        "noteName": "F#4",
        "duration": "479i"
      },
      {
        "time": "35328i",
        "midiNote": 58,
        "velocity": 0.44881889763779526,
        "noteName": "A#3",
        "duration": "470i"
      },
      {
        "time": "35328i",
        "midiNote": 63,
        "velocity": 0.4566929133858268,
        "noteName": "D#4",
        "duration": "471i"
      },
      {
        "time": "35328i",
        "midiNote": 66,
        "velocity": 0.3937007874015748,
        "noteName": "F#4",
        "duration": "472i"
      },
      {
        "time": "35840i",
        "midiNote": 56,
        "velocity": 0.2992125984251969,
        "noteName": "G#3",
        "duration": "170i"
      },
      {
        "time": "35840i",
        "midiNote": 58,
        "velocity": 0.33070866141732286,
        "noteName": "A#3",
        "duration": "173i"
      },
      {
        "time": "35840i",
        "midiNote": 61,
        "velocity": 0.3858267716535433,
        "noteName": "C#4",
        "duration": "173i"
      },
      {
        "time": "36032i",
        "midiNote": 56,
        "velocity": 0.3858267716535433,
        "noteName": "G#3",
        "duration": "259i"
      },
      {
        "time": "36032i",
        "midiNote": 60,
        "velocity": 0.33858267716535434,
        "noteName": "C4",
        "duration": "255i"
      },
      {
        "time": "36032i",
        "midiNote": 63,
        "velocity": 0.36220472440944884,
        "noteName": "D#4",
        "duration": "255i"
      },
      {
        "time": "36352i",
        "midiNote": 58,
        "velocity": 0.3543307086614173,
        "noteName": "A#3",
        "duration": "421i"
      },
      {
        "time": "36352i",
        "midiNote": 61,
        "velocity": 0.36220472440944884,
        "noteName": "C#4",
        "duration": "425i"
      },
      {
        "time": "36352i",
        "midiNote": 65,
        "velocity": 0.3779527559055118,
        "noteName": "F4",
        "duration": "416i"
      },
      {
        "time": "36864i",
        "midiNote": 56,
        "velocity": 0.2440944881889764,
        "noteName": "G#3",
        "duration": "165i"
      },
      {
        "time": "36864i",
        "midiNote": 58,
        "velocity": 0.33070866141732286,
        "noteName": "A#3",
        "duration": "168i"
      },
      {
        "time": "36864i",
        "midiNote": 61,
        "velocity": 0.3543307086614173,
        "noteName": "C#4",
        "duration": "171i"
      },
      {
        "time": "37056i",
        "midiNote": 58,
        "velocity": 0.3543307086614173,
        "noteName": "A#3",
        "duration": "261i"
      },
      {
        "time": "37056i",
        "midiNote": 60,
        "velocity": 0.3779527559055118,
        "noteName": "C4",
        "duration": "261i"
      },
      {
        "time": "37056i",
        "midiNote": 63,
        "velocity": 0.36220472440944884,
        "noteName": "D#4",
        "duration": "265i"
      },
      {
        "time": "37376i",
        "midiNote": 56,
        "velocity": 0.4094488188976378,
        "noteName": "G#3",
        "duration": "159i"
      },
      {
        "time": "37376i",
        "midiNote": 60,
        "velocity": 0.4251968503937008,
        "noteName": "C4",
        "duration": "163i"
      },
      {
        "time": "37568i",
        "midiNote": 58,
        "velocity": 0.4094488188976378,
        "noteName": "A#3",
        "duration": "273i"
      },
      {
        "time": "37568i",
        "midiNote": 61,
        "velocity": 0.4566929133858268,
        "noteName": "C#4",
        "duration": "273i"
      },
      {
        "time": "37888i",
        "midiNote": 56,
        "velocity": 0.3543307086614173,
        "noteName": "G#3",
        "duration": "161i"
      },
      {
        "time": "37888i",
        "midiNote": 58,
        "velocity": 0.3543307086614173,
        "noteName": "A#3",
        "duration": "162i"
      },
      {
        "time": "37888i",
        "midiNote": 61,
        "velocity": 0.3858267716535433,
        "noteName": "C#4",
        "duration": "163i"
      },
      {
        "time": "38080i",
        "midiNote": 56,
        "velocity": 0.3858267716535433,
        "noteName": "G#3",
        "duration": "273i"
      },
      {
        "time": "38080i",
        "midiNote": 60,
        "velocity": 0.2992125984251969,
        "noteName": "C4",
        "duration": "267i"
      },
      {
        "time": "38080i",
        "midiNote": 63,
        "velocity": 0.3543307086614173,
        "noteName": "D#4",
        "duration": "277i"
      },
      {
        "time": "38400i",
        "midiNote": 56,
        "velocity": 0.31496062992125984,
        "noteName": "G#3",
        "duration": "157i"
      },
      {
        "time": "38400i",
        "midiNote": 60,
        "velocity": 0.36220472440944884,
        "noteName": "C4",
        "duration": "154i"
      },
      {
        "time": "38400i",
        "midiNote": 63,
        "velocity": 0.3464566929133858,
        "noteName": "D#4",
        "duration": "164i"
      },
      {
        "time": "38400i",
        "midiNote": 68,
        "velocity": 0.3464566929133858,
        "noteName": "G#4",
        "duration": "161i"
      },
      {
        "time": "38592i",
        "midiNote": 56,
        "velocity": 0.2992125984251969,
        "noteName": "G#3",
        "duration": "280i"
      },
      {
        "time": "38592i",
        "midiNote": 61,
        "velocity": 0.4015748031496063,
        "noteName": "C#4",
        "duration": "279i"
      },
      {
        "time": "38592i",
        "midiNote": 65,
        "velocity": 0.3858267716535433,
        "noteName": "F4",
        "duration": "281i"
      },
      {
        "time": "38912i",
        "midiNote": 59,
        "velocity": 0.31496062992125984,
        "noteName": "B3",
        "duration": "479i"
      },
      {
        "time": "38912i",
        "midiNote": 63,
        "velocity": 0.33070866141732286,
        "noteName": "D#4",
        "duration": "475i"
      },
      {
        "time": "38912i",
        "midiNote": 66,
        "velocity": 0.30708661417322836,
        "noteName": "F#4",
        "duration": "479i"
      },
      {
        "time": "39424i",
        "midiNote": 58,
        "velocity": 0.4015748031496063,
        "noteName": "A#3",
        "duration": "470i"
      },
      {
        "time": "39424i",
        "midiNote": 63,
        "velocity": 0.4094488188976378,
        "noteName": "D#4",
        "duration": "471i"
      },
      {
        "time": "39424i",
        "midiNote": 66,
        "velocity": 0.3464566929133858,
        "noteName": "F#4",
        "duration": "472i"
      },
      {
        "time": "39936i",
        "midiNote": 56,
        "velocity": 0.3779527559055118,
        "noteName": "G#3",
        "duration": "135i"
      },
      {
        "time": "39936i",
        "midiNote": 58,
        "velocity": 0.4094488188976378,
        "noteName": "A#3",
        "duration": "137i"
      },
      {
        "time": "39936i",
        "midiNote": 61,
        "velocity": 0.4015748031496063,
        "noteName": "C#4",
        "duration": "135i"
      },
      {
        "time": "40128i",
        "midiNote": 56,
        "velocity": 0.4015748031496063,
        "noteName": "G#3",
        "duration": "269i"
      },
      {
        "time": "40128i",
        "midiNote": 60,
        "velocity": 0.4330708661417323,
        "noteName": "C4",
        "duration": "267i"
      },
      {
        "time": "40128i",
        "midiNote": 63,
        "velocity": 0.3937007874015748,
        "noteName": "D#4",
        "duration": "272i"
      },
      {
        "time": "40448i",
        "midiNote": 56,
        "velocity": 0.29133858267716534,
        "noteName": "G#3",
        "duration": "132i"
      },
      {
        "time": "40448i",
        "midiNote": 58,
        "velocity": 0.33858267716535434,
        "noteName": "A#3",
        "duration": "128i"
      },
      {
        "time": "40448i",
        "midiNote": 61,
        "velocity": 0.3700787401574803,
        "noteName": "C#4",
        "duration": "129i"
      },
      {
        "time": "40704i",
        "midiNote": 55,
        "velocity": 0.44881889763779526,
        "noteName": "G3",
        "duration": "176i"
      },
      {
        "time": "40704i",
        "midiNote": 59,
        "velocity": 0.4330708661417323,
        "noteName": "B3",
        "duration": "181i"
      },
      {
        "time": "40704i",
        "midiNote": 64,
        "velocity": 0.4566929133858268,
        "noteName": "E4",
        "duration": "186i"
      },
      {
        "time": "40960i",
        "midiNote": 57,
        "velocity": 0.3464566929133858,
        "noteName": "A3",
        "duration": "170i"
      },
      {
        "time": "40960i",
        "midiNote": 59,
        "velocity": 0.3779527559055118,
        "noteName": "B3",
        "duration": "173i"
      },
      {
        "time": "40960i",
        "midiNote": 62,
        "velocity": 0.4330708661417323,
        "noteName": "D4",
        "duration": "173i"
      },
      {
        "time": "41152i",
        "midiNote": 57,
        "velocity": 0.4330708661417323,
        "noteName": "A3",
        "duration": "259i"
      },
      {
        "time": "41152i",
        "midiNote": 61,
        "velocity": 0.3858267716535433,
        "noteName": "C#4",
        "duration": "255i"
      },
      {
        "time": "41152i",
        "midiNote": 64,
        "velocity": 0.4094488188976378,
        "noteName": "E4",
        "duration": "255i"
      },
      {
        "time": "41472i",
        "midiNote": 59,
        "velocity": 0.4015748031496063,
        "noteName": "B3",
        "duration": "421i"
      },
      {
        "time": "41472i",
        "midiNote": 62,
        "velocity": 0.4094488188976378,
        "noteName": "D4",
        "duration": "425i"
      },
      {
        "time": "41472i",
        "midiNote": 66,
        "velocity": 0.4251968503937008,
        "noteName": "F#4",
        "duration": "416i"
      },
      {
        "time": "41984i",
        "midiNote": 57,
        "velocity": 0.29133858267716534,
        "noteName": "A3",
        "duration": "165i"
      },
      {
        "time": "41984i",
        "midiNote": 59,
        "velocity": 0.3779527559055118,
        "noteName": "B3",
        "duration": "168i"
      },
      {
        "time": "41984i",
        "midiNote": 62,
        "velocity": 0.4015748031496063,
        "noteName": "D4",
        "duration": "171i"
      },
      {
        "time": "42176i",
        "midiNote": 59,
        "velocity": 0.4015748031496063,
        "noteName": "B3",
        "duration": "261i"
      },
      {
        "time": "42176i",
        "midiNote": 61,
        "velocity": 0.4251968503937008,
        "noteName": "C#4",
        "duration": "261i"
      },
      {
        "time": "42176i",
        "midiNote": 64,
        "velocity": 0.4094488188976378,
        "noteName": "E4",
        "duration": "265i"
      },
      {
        "time": "42496i",
        "midiNote": 57,
        "velocity": 0.4566929133858268,
        "noteName": "A3",
        "duration": "159i"
      },
      {
        "time": "42496i",
        "midiNote": 61,
        "velocity": 0.47244094488188976,
        "noteName": "C#4",
        "duration": "163i"
      },
      {
        "time": "42688i",
        "midiNote": 59,
        "velocity": 0.4566929133858268,
        "noteName": "B3",
        "duration": "273i"
      },
      {
        "time": "42688i",
        "midiNote": 62,
        "velocity": 0.5039370078740157,
        "noteName": "D4",
        "duration": "273i"
      },
      {
        "time": "43008i",
        "midiNote": 57,
        "velocity": 0.4015748031496063,
        "noteName": "A3",
        "duration": "161i"
      },
      {
        "time": "43008i",
        "midiNote": 59,
        "velocity": 0.4015748031496063,
        "noteName": "B3",
        "duration": "162i"
      },
      {
        "time": "43008i",
        "midiNote": 62,
        "velocity": 0.4330708661417323,
        "noteName": "D4",
        "duration": "163i"
      },
      {
        "time": "43200i",
        "midiNote": 57,
        "velocity": 0.4330708661417323,
        "noteName": "A3",
        "duration": "273i"
      },
      {
        "time": "43200i",
        "midiNote": 61,
        "velocity": 0.3464566929133858,
        "noteName": "C#4",
        "duration": "267i"
      },
      {
        "time": "43200i",
        "midiNote": 64,
        "velocity": 0.4015748031496063,
        "noteName": "E4",
        "duration": "277i"
      },
      {
        "time": "43520i",
        "midiNote": 57,
        "velocity": 0.36220472440944884,
        "noteName": "A3",
        "duration": "157i"
      },
      {
        "time": "43520i",
        "midiNote": 61,
        "velocity": 0.4094488188976378,
        "noteName": "C#4",
        "duration": "154i"
      },
      {
        "time": "43520i",
        "midiNote": 64,
        "velocity": 0.3937007874015748,
        "noteName": "E4",
        "duration": "164i"
      },
      {
        "time": "43520i",
        "midiNote": 69,
        "velocity": 0.3937007874015748,
        "noteName": "A4",
        "duration": "161i"
      },
      {
        "time": "43712i",
        "midiNote": 57,
        "velocity": 0.3464566929133858,
        "noteName": "A3",
        "duration": "280i"
      },
      {
        "time": "43712i",
        "midiNote": 62,
        "velocity": 0.44881889763779526,
        "noteName": "D4",
        "duration": "279i"
      },
      {
        "time": "43712i",
        "midiNote": 66,
        "velocity": 0.4330708661417323,
        "noteName": "F#4",
        "duration": "281i"
      },
      {
        "time": "44032i",
        "midiNote": 60,
        "velocity": 0.36220472440944884,
        "noteName": "C4",
        "duration": "479i"
      },
      {
        "time": "44032i",
        "midiNote": 64,
        "velocity": 0.3779527559055118,
        "noteName": "E4",
        "duration": "475i"
      },
      {
        "time": "44032i",
        "midiNote": 67,
        "velocity": 0.3543307086614173,
        "noteName": "G4",
        "duration": "479i"
      },
      {
        "time": "44544i",
        "midiNote": 59,
        "velocity": 0.44881889763779526,
        "noteName": "B3",
        "duration": "470i"
      },
      {
        "time": "44544i",
        "midiNote": 64,
        "velocity": 0.4566929133858268,
        "noteName": "E4",
        "duration": "471i"
      },
      {
        "time": "44544i",
        "midiNote": 67,
        "velocity": 0.3937007874015748,
        "noteName": "G4",
        "duration": "472i"
      },
      {
        "time": "45056i",
        "midiNote": 57,
        "velocity": 0.3464566929133858,
        "noteName": "A3",
        "duration": "170i"
      },
      {
        "time": "45056i",
        "midiNote": 59,
        "velocity": 0.3779527559055118,
        "noteName": "B3",
        "duration": "173i"
      },
      {
        "time": "45056i",
        "midiNote": 62,
        "velocity": 0.4330708661417323,
        "noteName": "D4",
        "duration": "173i"
      },
      {
        "time": "45248i",
        "midiNote": 57,
        "velocity": 0.4330708661417323,
        "noteName": "A3",
        "duration": "259i"
      },
      {
        "time": "45248i",
        "midiNote": 61,
        "velocity": 0.3858267716535433,
        "noteName": "C#4",
        "duration": "255i"
      },
      {
        "time": "45248i",
        "midiNote": 64,
        "velocity": 0.4094488188976378,
        "noteName": "E4",
        "duration": "255i"
      },
      {
        "time": "45568i",
        "midiNote": 59,
        "velocity": 0.4015748031496063,
        "noteName": "B3",
        "duration": "421i"
      },
      {
        "time": "45568i",
        "midiNote": 62,
        "velocity": 0.4094488188976378,
        "noteName": "D4",
        "duration": "425i"
      },
      {
        "time": "45568i",
        "midiNote": 66,
        "velocity": 0.4251968503937008,
        "noteName": "F#4",
        "duration": "416i"
      },
      {
        "time": "46080i",
        "midiNote": 57,
        "velocity": 0.29133858267716534,
        "noteName": "A3",
        "duration": "165i"
      },
      {
        "time": "46080i",
        "midiNote": 59,
        "velocity": 0.3779527559055118,
        "noteName": "B3",
        "duration": "168i"
      },
      {
        "time": "46080i",
        "midiNote": 62,
        "velocity": 0.4015748031496063,
        "noteName": "D4",
        "duration": "171i"
      },
      {
        "time": "46272i",
        "midiNote": 59,
        "velocity": 0.4015748031496063,
        "noteName": "B3",
        "duration": "261i"
      },
      {
        "time": "46272i",
        "midiNote": 61,
        "velocity": 0.4251968503937008,
        "noteName": "C#4",
        "duration": "261i"
      },
      {
        "time": "46272i",
        "midiNote": 64,
        "velocity": 0.4094488188976378,
        "noteName": "E4",
        "duration": "265i"
      },
      {
        "time": "46592i",
        "midiNote": 57,
        "velocity": 0.4566929133858268,
        "noteName": "A3",
        "duration": "159i"
      },
      {
        "time": "46592i",
        "midiNote": 61,
        "velocity": 0.47244094488188976,
        "noteName": "C#4",
        "duration": "163i"
      },
      {
        "time": "46784i",
        "midiNote": 59,
        "velocity": 0.4566929133858268,
        "noteName": "B3",
        "duration": "273i"
      },
      {
        "time": "46784i",
        "midiNote": 62,
        "velocity": 0.5039370078740157,
        "noteName": "D4",
        "duration": "273i"
      },
      {
        "time": "47104i",
        "midiNote": 57,
        "velocity": 0.4015748031496063,
        "noteName": "A3",
        "duration": "161i"
      },
      {
        "time": "47104i",
        "midiNote": 59,
        "velocity": 0.4015748031496063,
        "noteName": "B3",
        "duration": "162i"
      },
      {
        "time": "47104i",
        "midiNote": 62,
        "velocity": 0.4330708661417323,
        "noteName": "D4",
        "duration": "163i"
      },
      {
        "time": "47296i",
        "midiNote": 57,
        "velocity": 0.4330708661417323,
        "noteName": "A3",
        "duration": "273i"
      },
      {
        "time": "47296i",
        "midiNote": 61,
        "velocity": 0.3464566929133858,
        "noteName": "C#4",
        "duration": "267i"
      },
      {
        "time": "47296i",
        "midiNote": 64,
        "velocity": 0.4015748031496063,
        "noteName": "E4",
        "duration": "277i"
      },
      {
        "time": "47616i",
        "midiNote": 57,
        "velocity": 0.36220472440944884,
        "noteName": "A3",
        "duration": "157i"
      },
      {
        "time": "47616i",
        "midiNote": 61,
        "velocity": 0.4094488188976378,
        "noteName": "C#4",
        "duration": "154i"
      },
      {
        "time": "47616i",
        "midiNote": 64,
        "velocity": 0.3937007874015748,
        "noteName": "E4",
        "duration": "164i"
      },
      {
        "time": "47616i",
        "midiNote": 69,
        "velocity": 0.3937007874015748,
        "noteName": "A4",
        "duration": "161i"
      },
      {
        "time": "47808i",
        "midiNote": 57,
        "velocity": 0.3464566929133858,
        "noteName": "A3",
        "duration": "280i"
      },
      {
        "time": "47808i",
        "midiNote": 62,
        "velocity": 0.44881889763779526,
        "noteName": "D4",
        "duration": "279i"
      },
      {
        "time": "47808i",
        "midiNote": 66,
        "velocity": 0.4330708661417323,
        "noteName": "F#4",
        "duration": "281i"
      },
      {
        "time": "48128i",
        "midiNote": 60,
        "velocity": 0.36220472440944884,
        "noteName": "C4",
        "duration": "479i"
      },
      {
        "time": "48128i",
        "midiNote": 64,
        "velocity": 0.3779527559055118,
        "noteName": "E4",
        "duration": "475i"
      },
      {
        "time": "48128i",
        "midiNote": 67,
        "velocity": 0.3543307086614173,
        "noteName": "G4",
        "duration": "479i"
      },
      {
        "time": "48640i",
        "midiNote": 59,
        "velocity": 0.44881889763779526,
        "noteName": "B3",
        "duration": "470i"
      },
      {
        "time": "48640i",
        "midiNote": 64,
        "velocity": 0.4566929133858268,
        "noteName": "E4",
        "duration": "471i"
      },
      {
        "time": "48640i",
        "midiNote": 67,
        "velocity": 0.3937007874015748,
        "noteName": "G4",
        "duration": "472i"
      },
      {
        "time": "49152i",
        "midiNote": 57,
        "velocity": 0.3543307086614173,
        "noteName": "A3",
        "duration": "1560i"
      },
      {
        "time": "49152i",
        "midiNote": 62,
        "velocity": 0.3937007874015748,
        "noteName": "D4",
        "duration": "1561i"
      },
      {
        "time": "49152i",
        "midiNote": 66,
        "velocity": 0.3937007874015748,
        "noteName": "F#4",
        "duration": "1563i"
      },
      {
        "time": "49664i",
        "midiNote": 26,
        "velocity": 0.4251968503937008,
        "noteName": "D1",
        "duration": "1062i"
      },
      {
        "time": "49664i",
        "midiNote": 38,
        "velocity": 0.3464566929133858,
        "noteName": "D2",
        "duration": "1060i"
      }
    ],
    [
      {
        "time": "2368i",
        "midiNote": 73,
        "velocity": 0.7322834645669292,
        "noteName": "C#5",
        "duration": "77i"
      },
      {
        "time": "2432i",
        "midiNote": 72,
        "velocity": 0.7322834645669292,
        "noteName": "C5",
        "duration": "72i"
      },
      {
        "time": "2496i",
        "midiNote": 73,
        "velocity": 0.7322834645669292,
        "noteName": "C#5",
        "duration": "212i"
      },
      {
        "time": "2880i",
        "midiNote": 73,
        "velocity": 0.7322834645669292,
        "noteName": "C#5",
        "duration": "77i"
      },
      {
        "time": "2944i",
        "midiNote": 72,
        "velocity": 0.7322834645669292,
        "noteName": "C5",
        "duration": "28i"
      },
      {
        "time": "3008i",
        "midiNote": 72,
        "velocity": 0.7322834645669292,
        "noteName": "C5",
        "duration": "159i"
      },
      {
        "time": "3136i",
        "midiNote": 73,
        "velocity": 0.7322834645669292,
        "noteName": "C#5",
        "duration": "79i"
      },
      {
        "time": "3200i",
        "midiNote": 72,
        "velocity": 0.7322834645669292,
        "noteName": "C5",
        "duration": "30i"
      },
      {
        "time": "3264i",
        "midiNote": 72,
        "velocity": 0.7322834645669292,
        "noteName": "C5",
        "duration": "103i"
      },
      {
        "time": "3520i",
        "midiNote": 72,
        "velocity": 0.7322834645669292,
        "noteName": "C5",
        "duration": "79i"
      },
      {
        "time": "3584i",
        "midiNote": 73,
        "velocity": 0.7322834645669292,
        "noteName": "C#5",
        "duration": "52i"
      },
      {
        "time": "3648i",
        "midiNote": 73,
        "velocity": 0.7322834645669292,
        "noteName": "C#5",
        "duration": "79i"
      },
      {
        "time": "3712i",
        "midiNote": 72,
        "velocity": 0.7322834645669292,
        "noteName": "C5",
        "duration": "28i"
      },
      {
        "time": "3776i",
        "midiNote": 72,
        "velocity": 0.7322834645669292,
        "noteName": "C5",
        "duration": "79i"
      },
      {
        "time": "3840i",
        "midiNote": 70,
        "velocity": 0.7322834645669292,
        "noteName": "A#4",
        "duration": "77i"
      },
      {
        "time": "3904i",
        "midiNote": 72,
        "velocity": 0.7322834645669292,
        "noteName": "C5",
        "duration": "79i"
      },
      {
        "time": "3968i",
        "midiNote": 70,
        "velocity": 0.7322834645669292,
        "noteName": "A#4",
        "duration": "77i"
      },
      {
        "time": "4032i",
        "midiNote": 68,
        "velocity": 0.7322834645669292,
        "noteName": "G#4",
        "duration": "216i"
      },
      {
        "time": "4416i",
        "midiNote": 73,
        "velocity": 0.7322834645669292,
        "noteName": "C#5",
        "duration": "79i"
      },
      {
        "time": "4480i",
        "midiNote": 72,
        "velocity": 0.7322834645669292,
        "noteName": "C5",
        "duration": "74i"
      },
      {
        "time": "4544i",
        "midiNote": 73,
        "velocity": 0.7322834645669292,
        "noteName": "C#5",
        "duration": "202i"
      },
      {
        "time": "4800i",
        "midiNote": 70,
        "velocity": 0.7322834645669292,
        "noteName": "A#4",
        "duration": "23i"
      },
      {
        "time": "4864i",
        "midiNote": 70,
        "velocity": 0.7322834645669292,
        "noteName": "A#4",
        "duration": "79i"
      },
      {
        "time": "4928i",
        "midiNote": 72,
        "velocity": 0.7322834645669292,
        "noteName": "C5",
        "duration": "79i"
      },
      {
        "time": "4992i",
        "midiNote": 73,
        "velocity": 0.7322834645669292,
        "noteName": "C#5",
        "duration": "77i"
      },
      {
        "time": "5056i",
        "midiNote": 75,
        "velocity": 0.7322834645669292,
        "noteName": "D#5",
        "duration": "172i"
      },
      {
        "time": "5312i",
        "midiNote": 73,
        "velocity": 0.7322834645669292,
        "noteName": "C#5",
        "duration": "26i"
      },
      {
        "time": "5376i",
        "midiNote": 73,
        "velocity": 0.7322834645669292,
        "noteName": "C#5",
        "duration": "79i"
      },
      {
        "time": "5440i",
        "midiNote": 75,
        "velocity": 0.7322834645669292,
        "noteName": "D#5",
        "duration": "79i"
      },
      {
        "time": "5504i",
        "midiNote": 77,
        "velocity": 0.7322834645669292,
        "noteName": "F5",
        "duration": "73i"
      },
      {
        "time": "5568i",
        "midiNote": 73,
        "velocity": 0.7322834645669292,
        "noteName": "C#5",
        "duration": "79i"
      },
      {
        "time": "5632i",
        "midiNote": 78,
        "velocity": 0.7322834645669292,
        "noteName": "F#5",
        "duration": "147i"
      },
      {
        "time": "5760i",
        "midiNote": 77,
        "velocity": 0.7322834645669292,
        "noteName": "F5",
        "duration": "77i"
      },
      {
        "time": "5824i",
        "midiNote": 75,
        "velocity": 0.7322834645669292,
        "noteName": "D#5",
        "duration": "153i"
      },
      {
        "time": "5952i",
        "midiNote": 73,
        "velocity": 0.7322834645669292,
        "noteName": "C#5",
        "duration": "141i"
      },
      {
        "time": "6080i",
        "midiNote": 77,
        "velocity": 0.7322834645669292,
        "noteName": "F5",
        "duration": "42i"
      },
      {
        "time": "6115i",
        "midiNote": 75,
        "velocity": 0.7322834645669292,
        "noteName": "D#5",
        "duration": "26i"
      },
      {
        "time": "6144i",
        "midiNote": 77,
        "velocity": 0.7322834645669292,
        "noteName": "F5",
        "duration": "282i"
      },
      {
        "time": "6464i",
        "midiNote": 73,
        "velocity": 0.7322834645669292,
        "noteName": "C#5",
        "duration": "77i"
      },
      {
        "time": "6528i",
        "midiNote": 72,
        "velocity": 0.7322834645669292,
        "noteName": "C5",
        "duration": "79i"
      },
      {
        "time": "6592i",
        "midiNote": 73,
        "velocity": 0.7322834645669292,
        "noteName": "C#5",
        "duration": "193i"
      },
      {
        "time": "6976i",
        "midiNote": 73,
        "velocity": 0.7322834645669292,
        "noteName": "C#5",
        "duration": "79i"
      },
      {
        "time": "7040i",
        "midiNote": 72,
        "velocity": 0.7322834645669292,
        "noteName": "C5",
        "duration": "27i"
      },
      {
        "time": "7104i",
        "midiNote": 72,
        "velocity": 0.7322834645669292,
        "noteName": "C5",
        "duration": "159i"
      },
      {
        "time": "7232i",
        "midiNote": 73,
        "velocity": 0.7322834645669292,
        "noteName": "C#5",
        "duration": "76i"
      },
      {
        "time": "7296i",
        "midiNote": 72,
        "velocity": 0.7322834645669292,
        "noteName": "C5",
        "duration": "79i"
      },
      {
        "time": "7360i",
        "midiNote": 70,
        "velocity": 0.7322834645669292,
        "noteName": "A#4",
        "duration": "159i"
      },
      {
        "time": "7488i",
        "midiNote": 73,
        "velocity": 0.7322834645669292,
        "noteName": "C#5",
        "duration": "79i"
      },
      {
        "time": "7552i",
        "midiNote": 72,
        "velocity": 0.7322834645669292,
        "noteName": "C5",
        "duration": "74i"
      },
      {
        "time": "7616i",
        "midiNote": 73,
        "velocity": 0.7322834645669292,
        "noteName": "C#5",
        "duration": "183i"
      },
      {
        "time": "7808i",
        "midiNote": 72,
        "velocity": 0.7322834645669292,
        "noteName": "C5",
        "duration": "79i"
      },
      {
        "time": "7872i",
        "midiNote": 70,
        "velocity": 0.7322834645669292,
        "noteName": "A#4",
        "duration": "159i"
      },
      {
        "time": "8000i",
        "midiNote": 68,
        "velocity": 0.7322834645669292,
        "noteName": "G#4",
        "duration": "124i"
      },
      {
        "time": "8128i",
        "midiNote": 68,
        "velocity": 0.7322834645669292,
        "noteName": "G#4",
        "duration": "199i"
      },
      {
        "time": "8288i",
        "midiNote": 66,
        "velocity": 0.7322834645669292,
        "noteName": "F#4",
        "duration": "35i"
      },
      {
        "time": "8320i",
        "midiNote": 65,
        "velocity": 0.7322834645669292,
        "noteName": "F4",
        "duration": "39i"
      },
      {
        "time": "8352i",
        "midiNote": 63,
        "velocity": 0.7322834645669292,
        "noteName": "D#4",
        "duration": "39i"
      },
      {
        "time": "8384i",
        "midiNote": 61,
        "velocity": 0.7322834645669292,
        "noteName": "C#4",
        "duration": "88i"
      },
      {
        "time": "8512i",
        "midiNote": 68,
        "velocity": 0.7322834645669292,
        "noteName": "G#4",
        "duration": "79i"
      },
      {
        "time": "8576i",
        "midiNote": 70,
        "velocity": 0.7322834645669292,
        "noteName": "A#4",
        "duration": "51i"
      },
      {
        "time": "8640i",
        "midiNote": 68,
        "velocity": 0.7322834645669292,
        "noteName": "G#4",
        "duration": "159i"
      },
      {
        "time": "8768i",
        "midiNote": 70,
        "velocity": 0.7322834645669292,
        "noteName": "A#4",
        "duration": "77i"
      },
      {
        "time": "8896i",
        "midiNote": 68,
        "velocity": 0.7322834645669292,
        "noteName": "G#4",
        "duration": "48i"
      },
      {
        "time": "8960i",
        "midiNote": 68,
        "velocity": 0.7322834645669292,
        "noteName": "G#4",
        "duration": "79i"
      },
      {
        "time": "9024i",
        "midiNote": 70,
        "velocity": 0.7322834645669292,
        "noteName": "A#4",
        "duration": "77i"
      },
      {
        "time": "9088i",
        "midiNote": 72,
        "velocity": 0.7322834645669292,
        "noteName": "C5",
        "duration": "79i"
      },
      {
        "time": "9152i",
        "midiNote": 75,
        "velocity": 0.7322834645669292,
        "noteName": "D#5",
        "duration": "159i"
      },
      {
        "time": "9280i",
        "midiNote": 73,
        "velocity": 0.7322834645669292,
        "noteName": "C#5",
        "duration": "86i"
      },
      {
        "time": "9408i",
        "midiNote": 70,
        "velocity": 0.7322834645669292,
        "noteName": "A#4",
        "duration": "22i"
      },
      {
        "time": "9472i",
        "midiNote": 70,
        "velocity": 0.7322834645669292,
        "noteName": "A#4",
        "duration": "79i"
      },
      {
        "time": "9536i",
        "midiNote": 72,
        "velocity": 0.7322834645669292,
        "noteName": "C5",
        "duration": "79i"
      },
      {
        "time": "9600i",
        "midiNote": 73,
        "velocity": 0.7322834645669292,
        "noteName": "C#5",
        "duration": "79i"
      },
      {
        "time": "9664i",
        "midiNote": 70,
        "velocity": 0.7322834645669292,
        "noteName": "A#4",
        "duration": "76i"
      },
      {
        "time": "9728i",
        "midiNote": 78,
        "velocity": 0.7322834645669292,
        "noteName": "F#5",
        "duration": "153i"
      },
      {
        "time": "9856i",
        "midiNote": 77,
        "velocity": 0.7322834645669292,
        "noteName": "F5",
        "duration": "79i"
      },
      {
        "time": "9920i",
        "midiNote": 75,
        "velocity": 0.7322834645669292,
        "noteName": "D#5",
        "duration": "152i"
      },
      {
        "time": "10048i",
        "midiNote": 73,
        "velocity": 0.7322834645669292,
        "noteName": "C#5",
        "duration": "153i"
      },
      {
        "time": "10176i",
        "midiNote": 77,
        "velocity": 0.7322834645669292,
        "noteName": "F5",
        "duration": "39i"
      },
      {
        "time": "10208i",
        "midiNote": 75,
        "velocity": 0.7322834645669292,
        "noteName": "D#5",
        "duration": "28i"
      },
      {
        "time": "10240i",
        "midiNote": 77,
        "velocity": 0.7322834645669292,
        "noteName": "F5",
        "duration": "192i"
      },
      {
        "time": "10432i",
        "midiNote": 77,
        "velocity": 0.7322834645669292,
        "noteName": "F5",
        "duration": "30i"
      },
      {
        "time": "10496i",
        "midiNote": 75,
        "velocity": 0.7322834645669292,
        "noteName": "D#5",
        "duration": "78i"
      },
      {
        "time": "10560i",
        "midiNote": 73,
        "velocity": 0.7322834645669292,
        "noteName": "C#5",
        "duration": "79i"
      },
      {
        "time": "10624i",
        "midiNote": 72,
        "velocity": 0.7322834645669292,
        "noteName": "C5",
        "duration": "79i"
      },
      {
        "time": "10688i",
        "midiNote": 70,
        "velocity": 0.7322834645669292,
        "noteName": "A#4",
        "duration": "114i"
      },
      {
        "time": "10880i",
        "midiNote": 73,
        "velocity": 0.7322834645669292,
        "noteName": "C#5",
        "duration": "82i"
      },
      {
        "time": "10944i",
        "midiNote": 72,
        "velocity": 0.7322834645669292,
        "noteName": "C5",
        "duration": "232i"
      },
      {
        "time": "11136i",
        "midiNote": 73,
        "velocity": 0.7322834645669292,
        "noteName": "C#5",
        "duration": "20i"
      },
      {
        "time": "11200i",
        "midiNote": 73,
        "velocity": 0.7322834645669292,
        "noteName": "C#5",
        "duration": "244i"
      },
      {
        "time": "11456i",
        "midiNote": 77,
        "velocity": 0.7322834645669292,
        "noteName": "F5",
        "duration": "96i"
      },
      {
        "time": "11520i",
        "midiNote": 75,
        "velocity": 0.7322834645669292,
        "noteName": "D#5",
        "duration": "79i"
      },
      {
        "time": "11584i",
        "midiNote": 73,
        "velocity": 0.7322834645669292,
        "noteName": "C#5",
        "duration": "81i"
      },
      {
        "time": "11648i",
        "midiNote": 72,
        "velocity": 0.7322834645669292,
        "noteName": "C5",
        "duration": "86i"
      },
      {
        "time": "11712i",
        "midiNote": 70,
        "velocity": 0.7322834645669292,
        "noteName": "A#4",
        "duration": "177i"
      },
      {
        "time": "11904i",
        "midiNote": 73,
        "velocity": 0.7322834645669292,
        "noteName": "C#5",
        "duration": "79i"
      },
      {
        "time": "11968i",
        "midiNote": 72,
        "velocity": 0.7322834645669292,
        "noteName": "C5",
        "duration": "237i"
      },
      {
        "time": "12160i",
        "midiNote": 73,
        "velocity": 0.7322834645669292,
        "noteName": "C#5",
        "duration": "74i"
      },
      {
        "time": "12224i",
        "midiNote": 75,
        "velocity": 0.7322834645669292,
        "noteName": "D#5",
        "duration": "40i"
      },
      {
        "time": "12256i",
        "midiNote": 73,
        "velocity": 0.7322834645669292,
        "noteName": "C#5",
        "duration": "37i"
      },
      {
        "time": "12288i",
        "midiNote": 75,
        "velocity": 0.7322834645669292,
        "noteName": "D#5",
        "duration": "186i"
      },
      {
        "time": "12480i",
        "midiNote": 73,
        "velocity": 0.7322834645669292,
        "noteName": "C#5",
        "duration": "51i"
      },
      {
        "time": "12544i",
        "midiNote": 73,
        "velocity": 0.7322834645669292,
        "noteName": "C#5",
        "duration": "87i"
      },
      {
        "time": "12608i",
        "midiNote": 75,
        "velocity": 0.7322834645669292,
        "noteName": "D#5",
        "duration": "77i"
      },
      {
        "time": "12672i",
        "midiNote": 77,
        "velocity": 0.7322834645669292,
        "noteName": "F5",
        "duration": "72i"
      },
      {
        "time": "12736i",
        "midiNote": 80,
        "velocity": 0.7322834645669292,
        "noteName": "G#5",
        "duration": "239i"
      },
      {
        "time": "12928i",
        "midiNote": 78,
        "velocity": 0.7322834645669292,
        "noteName": "F#5",
        "duration": "68i"
      },
      {
        "time": "12992i",
        "midiNote": 77,
        "velocity": 0.7322834645669292,
        "noteName": "F5",
        "duration": "239i"
      },
      {
        "time": "13184i",
        "midiNote": 75,
        "velocity": 0.7322834645669292,
        "noteName": "D#5",
        "duration": "77i"
      },
      {
        "time": "13248i",
        "midiNote": 77,
        "velocity": 0.7322834645669292,
        "noteName": "F5",
        "duration": "39i"
      },
      {
        "time": "13280i",
        "midiNote": 75,
        "velocity": 0.7322834645669292,
        "noteName": "D#5",
        "duration": "37i"
      },
      {
        "time": "13312i",
        "midiNote": 77,
        "velocity": 0.7322834645669292,
        "noteName": "F5",
        "duration": "39i"
      },
      {
        "time": "13344i",
        "midiNote": 75,
        "velocity": 0.7322834645669292,
        "noteName": "D#5",
        "duration": "156i"
      },
      {
        "time": "13504i",
        "midiNote": 73,
        "velocity": 0.7322834645669292,
        "noteName": "C#5",
        "duration": "22i"
      },
      {
        "time": "13568i",
        "midiNote": 73,
        "velocity": 0.7322834645669292,
        "noteName": "C#5",
        "duration": "79i"
      },
      {
        "time": "13632i",
        "midiNote": 75,
        "velocity": 0.7322834645669292,
        "noteName": "D#5",
        "duration": "73i"
      },
      {
        "time": "13696i",
        "midiNote": 77,
        "velocity": 0.7322834645669292,
        "noteName": "F5",
        "duration": "78i"
      },
      {
        "time": "13760i",
        "midiNote": 80,
        "velocity": 0.7322834645669292,
        "noteName": "G#5",
        "duration": "79i"
      },
      {
        "time": "13824i",
        "midiNote": 78,
        "velocity": 0.7322834645669292,
        "noteName": "F#5",
        "duration": "159i"
      },
      {
        "time": "13952i",
        "midiNote": 77,
        "velocity": 0.7322834645669292,
        "noteName": "F5",
        "duration": "72i"
      },
      {
        "time": "14016i",
        "midiNote": 75,
        "velocity": 0.7322834645669292,
        "noteName": "D#5",
        "duration": "159i"
      },
      {
        "time": "14144i",
        "midiNote": 73,
        "velocity": 0.7322834645669292,
        "noteName": "C#5",
        "duration": "75i"
      },
      {
        "time": "14208i",
        "midiNote": 75,
        "velocity": 0.7322834645669292,
        "noteName": "D#5",
        "duration": "79i"
      },
      {
        "time": "14272i",
        "midiNote": 77,
        "velocity": 0.7322834645669292,
        "noteName": "F5",
        "duration": "39i"
      },
      {
        "time": "14304i",
        "midiNote": 75,
        "velocity": 0.7322834645669292,
        "noteName": "D#5",
        "duration": "34i"
      },
      {
        "time": "14336i",
        "midiNote": 77,
        "velocity": 0.7322834645669292,
        "noteName": "F5",
        "duration": "39i"
      },
      {
        "time": "14368i",
        "midiNote": 75,
        "velocity": 0.7322834645669292,
        "noteName": "D#5",
        "duration": "39i"
      },
      {
        "time": "14400i",
        "midiNote": 73,
        "velocity": 0.7322834645669292,
        "noteName": "C#5",
        "duration": "35i"
      },
      {
        "time": "14432i",
        "midiNote": 70,
        "velocity": 0.7322834645669292,
        "noteName": "A#4",
        "duration": "39i"
      },
      {
        "time": "14464i",
        "midiNote": 68,
        "velocity": 0.7322834645669292,
        "noteName": "G#4",
        "duration": "162i"
      },
      {
        "time": "14656i",
        "midiNote": 73,
        "velocity": 0.7322834645669292,
        "noteName": "C#5",
        "duration": "75i"
      },
      {
        "time": "14720i",
        "midiNote": 72,
        "velocity": 0.7322834645669292,
        "noteName": "C5",
        "duration": "78i"
      },
      {
        "time": "14784i",
        "midiNote": 73,
        "velocity": 0.7322834645669292,
        "noteName": "C#5",
        "duration": "167i"
      },
      {
        "time": "15168i",
        "midiNote": 68,
        "velocity": 0.7322834645669292,
        "noteName": "G#4",
        "duration": "75i"
      },
      {
        "time": "15232i",
        "midiNote": 73,
        "velocity": 0.7322834645669292,
        "noteName": "C#5",
        "duration": "79i"
      },
      {
        "time": "15296i",
        "midiNote": 72,
        "velocity": 0.7322834645669292,
        "noteName": "C5",
        "duration": "157i"
      },
      {
        "time": "15424i",
        "midiNote": 73,
        "velocity": 0.7322834645669292,
        "noteName": "C#5",
        "duration": "78i"
      },
      {
        "time": "15488i",
        "midiNote": 72,
        "velocity": 0.7322834645669292,
        "noteName": "C5",
        "duration": "79i"
      },
      {
        "time": "15552i",
        "midiNote": 73,
        "velocity": 0.7322834645669292,
        "noteName": "C#5",
        "duration": "117i"
      },
      {
        "time": "15680i",
        "midiNote": 73,
        "velocity": 0.7322834645669292,
        "noteName": "C#5",
        "duration": "79i"
      },
      {
        "time": "15744i",
        "midiNote": 72,
        "velocity": 0.7322834645669292,
        "noteName": "C5",
        "duration": "79i"
      },
      {
        "time": "15808i",
        "midiNote": 73,
        "velocity": 0.7322834645669292,
        "noteName": "C#5",
        "duration": "128i"
      },
      {
        "time": "15936i",
        "midiNote": 73,
        "velocity": 0.7322834645669292,
        "noteName": "C#5",
        "duration": "0i"
      },
      {
        "time": "16000i",
        "midiNote": 72,
        "velocity": 0.7322834645669292,
        "noteName": "C5",
        "duration": "79i"
      },
      {
        "time": "16064i",
        "midiNote": 70,
        "velocity": 0.7322834645669292,
        "noteName": "A#4",
        "duration": "53i"
      },
      {
        "time": "16128i",
        "midiNote": 70,
        "velocity": 0.7322834645669292,
        "noteName": "A#4",
        "duration": "79i"
      },
      {
        "time": "16192i",
        "midiNote": 68,
        "velocity": 0.7322834645669292,
        "noteName": "G#4",
        "duration": "79i"
      },
      {
        "time": "16256i",
        "midiNote": 65,
        "velocity": 0.7322834645669292,
        "noteName": "F4",
        "duration": "79i"
      },
      {
        "time": "16320i",
        "midiNote": 68,
        "velocity": 0.7322834645669292,
        "noteName": "G#4",
        "duration": "188i"
      },
      {
        "time": "16704i",
        "midiNote": 68,
        "velocity": 0.7322834645669292,
        "noteName": "G#4",
        "duration": "79i"
      },
      {
        "time": "16768i",
        "midiNote": 70,
        "velocity": 0.7322834645669292,
        "noteName": "A#4",
        "duration": "34i"
      },
      {
        "time": "16832i",
        "midiNote": 70,
        "velocity": 0.7322834645669292,
        "noteName": "A#4",
        "duration": "156i"
      },
      {
        "time": "16960i",
        "midiNote": 68,
        "velocity": 0.7322834645669292,
        "noteName": "G#4",
        "duration": "19i"
      },
      {
        "time": "17024i",
        "midiNote": 68,
        "velocity": 0.7322834645669292,
        "noteName": "G#4",
        "duration": "96i"
      },
      {
        "time": "17152i",
        "midiNote": 68,
        "velocity": 0.7322834645669292,
        "noteName": "G#4",
        "duration": "75i"
      },
      {
        "time": "17216i",
        "midiNote": 70,
        "velocity": 0.7322834645669292,
        "noteName": "A#4",
        "duration": "79i"
      },
      {
        "time": "17280i",
        "midiNote": 72,
        "velocity": 0.7322834645669292,
        "noteName": "C5",
        "duration": "79i"
      },
      {
        "time": "17344i",
        "midiNote": 75,
        "velocity": 0.7322834645669292,
        "noteName": "D#5",
        "duration": "52i"
      },
      {
        "time": "17408i",
        "midiNote": 75,
        "velocity": 0.7322834645669292,
        "noteName": "D#5",
        "duration": "79i"
      },
      {
        "time": "17472i",
        "midiNote": 77,
        "velocity": 0.7322834645669292,
        "noteName": "F5",
        "duration": "159i"
      },
      {
        "time": "17600i",
        "midiNote": 73,
        "velocity": 0.7322834645669292,
        "noteName": "C#5",
        "duration": "22i"
      },
      {
        "time": "17664i",
        "midiNote": 73,
        "velocity": 0.7322834645669292,
        "noteName": "C#5",
        "duration": "79i"
      },
      {
        "time": "17728i",
        "midiNote": 75,
        "velocity": 0.7322834645669292,
        "noteName": "D#5",
        "duration": "76i"
      },
      {
        "time": "17792i",
        "midiNote": 77,
        "velocity": 0.7322834645669292,
        "noteName": "F5",
        "duration": "79i"
      },
      {
        "time": "17856i",
        "midiNote": 80,
        "velocity": 0.7322834645669292,
        "noteName": "G#5",
        "duration": "79i"
      },
      {
        "time": "17920i",
        "midiNote": 78,
        "velocity": 0.7322834645669292,
        "noteName": "F#5",
        "duration": "159i"
      },
      {
        "time": "18048i",
        "midiNote": 77,
        "velocity": 0.7322834645669292,
        "noteName": "F5",
        "duration": "79i"
      },
      {
        "time": "18112i",
        "midiNote": 75,
        "velocity": 0.7322834645669292,
        "noteName": "D#5",
        "duration": "155i"
      },
      {
        "time": "18240i",
        "midiNote": 73,
        "velocity": 0.7322834645669292,
        "noteName": "C#5",
        "duration": "159i"
      },
      {
        "time": "18368i",
        "midiNote": 80,
        "velocity": 0.7322834645669292,
        "noteName": "G#5",
        "duration": "319i"
      },
      {
        "time": "18624i",
        "midiNote": 78,
        "velocity": 0.7322834645669292,
        "noteName": "F#5",
        "duration": "39i"
      },
      {
        "time": "18656i",
        "midiNote": 77,
        "velocity": 0.7322834645669292,
        "noteName": "F5",
        "duration": "39i"
      },
      {
        "time": "18688i",
        "midiNote": 75,
        "velocity": 0.7322834645669292,
        "noteName": "D#5",
        "duration": "79i"
      },
      {
        "time": "18752i",
        "midiNote": 73,
        "velocity": 0.7322834645669292,
        "noteName": "C#5",
        "duration": "79i"
      },
      {
        "time": "18816i",
        "midiNote": 72,
        "velocity": 0.7322834645669292,
        "noteName": "C5",
        "duration": "79i"
      },
      {
        "time": "18880i",
        "midiNote": 73,
        "velocity": 0.7322834645669292,
        "noteName": "C#5",
        "duration": "155i"
      },
      {
        "time": "19264i",
        "midiNote": 77,
        "velocity": 0.7322834645669292,
        "noteName": "F5",
        "duration": "79i"
      },
      {
        "time": "19328i",
        "midiNote": 72,
        "velocity": 0.7322834645669292,
        "noteName": "C5",
        "duration": "47i"
      },
      {
        "time": "19392i",
        "midiNote": 72,
        "velocity": 0.7322834645669292,
        "noteName": "C5",
        "duration": "157i"
      },
      {
        "time": "19520i",
        "midiNote": 73,
        "velocity": 0.7322834645669292,
        "noteName": "C#5",
        "duration": "79i"
      },
      {
        "time": "19584i",
        "midiNote": 72,
        "velocity": 0.7322834645669292,
        "noteName": "C5",
        "duration": "79i"
      },
      {
        "time": "19648i",
        "midiNote": 73,
        "velocity": 0.7322834645669292,
        "noteName": "C#5",
        "duration": "159i"
      },
      {
        "time": "19776i",
        "midiNote": 68,
        "velocity": 0.7322834645669292,
        "noteName": "G#4",
        "duration": "79i"
      },
      {
        "time": "19840i",
        "midiNote": 75,
        "velocity": 0.7322834645669292,
        "noteName": "D#5",
        "duration": "79i"
      },
      {
        "time": "19904i",
        "midiNote": 73,
        "velocity": 0.7322834645669292,
        "noteName": "C#5",
        "duration": "119i"
      },
      {
        "time": "20003i",
        "midiNote": 72,
        "velocity": 0.7322834645669292,
        "noteName": "C5",
        "duration": "39i"
      },
      {
        "time": "20032i",
        "midiNote": 68,
        "velocity": 0.7322834645669292,
        "noteName": "G#4",
        "duration": "96i"
      },
      {
        "time": "20160i",
        "midiNote": 68,
        "velocity": 0.7322834645669292,
        "noteName": "G#4",
        "duration": "68i"
      },
      {
        "time": "20224i",
        "midiNote": 72,
        "velocity": 0.7322834645669292,
        "noteName": "C5",
        "duration": "77i"
      },
      {
        "time": "20288i",
        "midiNote": 75,
        "velocity": 0.7322834645669292,
        "noteName": "D#5",
        "duration": "159i"
      },
      {
        "time": "20416i",
        "midiNote": 70,
        "velocity": 0.7322834645669292,
        "noteName": "A#4",
        "duration": "119i"
      },
      {
        "time": "20515i",
        "midiNote": 68,
        "velocity": 0.7322834645669292,
        "noteName": "G#4",
        "duration": "33i"
      },
      {
        "time": "20544i",
        "midiNote": 65,
        "velocity": 0.7322834645669292,
        "noteName": "F4",
        "duration": "39i"
      },
      {
        "time": "20579i",
        "midiNote": 63,
        "velocity": 0.7322834645669292,
        "noteName": "D#4",
        "duration": "39i"
      },
      {
        "time": "20608i",
        "midiNote": 65,
        "velocity": 0.7322834645669292,
        "noteName": "F4",
        "duration": "39i"
      },
      {
        "time": "20643i",
        "midiNote": 68,
        "velocity": 0.7322834645669292,
        "noteName": "G#4",
        "duration": "92i"
      },
      {
        "time": "20800i",
        "midiNote": 80,
        "velocity": 0.7322834645669292,
        "noteName": "G#5",
        "duration": "79i"
      },
      {
        "time": "20864i",
        "midiNote": 77,
        "velocity": 0.7322834645669292,
        "noteName": "F5",
        "duration": "45i"
      },
      {
        "time": "20928i",
        "midiNote": 77,
        "velocity": 0.7322834645669292,
        "noteName": "F5",
        "duration": "39i"
      },
      {
        "time": "20963i",
        "midiNote": 75,
        "velocity": 0.7322834645669292,
        "noteName": "D#5",
        "duration": "39i"
      },
      {
        "time": "20992i",
        "midiNote": 73,
        "velocity": 0.7322834645669292,
        "noteName": "C#5",
        "duration": "230i"
      },
      {
        "time": "21184i",
        "midiNote": 68,
        "velocity": 0.7322834645669292,
        "noteName": "G#4",
        "duration": "32i"
      },
      {
        "time": "21248i",
        "midiNote": 68,
        "velocity": 0.7322834645669292,
        "noteName": "G#4",
        "duration": "79i"
      },
      {
        "time": "21312i",
        "midiNote": 70,
        "velocity": 0.7322834645669292,
        "noteName": "A#4",
        "duration": "79i"
      },
      {
        "time": "21376i",
        "midiNote": 73,
        "velocity": 0.7322834645669292,
        "noteName": "C#5",
        "duration": "54i"
      },
      {
        "time": "21440i",
        "midiNote": 75,
        "velocity": 0.7322834645669292,
        "noteName": "D#5",
        "duration": "199i"
      },
      {
        "time": "21696i",
        "midiNote": 73,
        "velocity": 0.7322834645669292,
        "noteName": "C#5",
        "duration": "47i"
      },
      {
        "time": "21760i",
        "midiNote": 73,
        "velocity": 0.7322834645669292,
        "noteName": "C#5",
        "duration": "79i"
      },
      {
        "time": "21824i",
        "midiNote": 75,
        "velocity": 0.7322834645669292,
        "noteName": "D#5",
        "duration": "79i"
      },
      {
        "time": "21888i",
        "midiNote": 77,
        "velocity": 0.7322834645669292,
        "noteName": "F5",
        "duration": "79i"
      },
      {
        "time": "21952i",
        "midiNote": 73,
        "velocity": 0.7322834645669292,
        "noteName": "C#5",
        "duration": "79i"
      },
      {
        "time": "22016i",
        "midiNote": 78,
        "velocity": 0.7322834645669292,
        "noteName": "F#5",
        "duration": "159i"
      },
      {
        "time": "22144i",
        "midiNote": 77,
        "velocity": 0.7322834645669292,
        "noteName": "F5",
        "duration": "79i"
      },
      {
        "time": "22208i",
        "midiNote": 75,
        "velocity": 0.7322834645669292,
        "noteName": "D#5",
        "duration": "159i"
      },
      {
        "time": "22336i",
        "midiNote": 73,
        "velocity": 0.7322834645669292,
        "noteName": "C#5",
        "duration": "147i"
      },
      {
        "time": "22464i",
        "midiNote": 77,
        "velocity": 0.7322834645669292,
        "noteName": "F5",
        "duration": "39i"
      },
      {
        "time": "22499i",
        "midiNote": 75,
        "velocity": 0.7322834645669292,
        "noteName": "D#5",
        "duration": "27i"
      },
      {
        "time": "22528i",
        "midiNote": 77,
        "velocity": 0.7322834645669292,
        "noteName": "F5",
        "duration": "128i"
      },
      {
        "time": "22656i",
        "midiNote": 77,
        "velocity": 0.7322834645669292,
        "noteName": "F5",
        "duration": "4i"
      },
      {
        "time": "22720i",
        "midiNote": 80,
        "velocity": 0.7322834645669292,
        "noteName": "G#5",
        "duration": "79i"
      },
      {
        "time": "22784i",
        "midiNote": 78,
        "velocity": 0.7322834645669292,
        "noteName": "F#5",
        "duration": "79i"
      },
      {
        "time": "22848i",
        "midiNote": 77,
        "velocity": 0.7322834645669292,
        "noteName": "F5",
        "duration": "79i"
      },
      {
        "time": "22912i",
        "midiNote": 75,
        "velocity": 0.7322834645669292,
        "noteName": "D#5",
        "duration": "68i"
      },
      {
        "time": "22976i",
        "midiNote": 77,
        "velocity": 0.7322834645669292,
        "noteName": "F5",
        "duration": "39i"
      },
      {
        "time": "23011i",
        "midiNote": 75,
        "velocity": 0.7322834645669292,
        "noteName": "D#5",
        "duration": "42i"
      },
      {
        "time": "23040i",
        "midiNote": 73,
        "velocity": 0.7322834645669292,
        "noteName": "C#5",
        "duration": "79i"
      },
      {
        "time": "23168i",
        "midiNote": 73,
        "velocity": 0.7322834645669292,
        "noteName": "C#5",
        "duration": "79i"
      },
      {
        "time": "23232i",
        "midiNote": 72,
        "velocity": 0.7322834645669292,
        "noteName": "C5",
        "duration": "232i"
      },
      {
        "time": "23424i",
        "midiNote": 73,
        "velocity": 0.7322834645669292,
        "noteName": "C#5",
        "duration": "20i"
      },
      {
        "time": "23488i",
        "midiNote": 73,
        "velocity": 0.7322834645669292,
        "noteName": "C#5",
        "duration": "244i"
      },
      {
        "time": "23744i",
        "midiNote": 77,
        "velocity": 0.7322834645669292,
        "noteName": "F5",
        "duration": "79i"
      },
      {
        "time": "23808i",
        "midiNote": 75,
        "velocity": 0.7322834645669292,
        "noteName": "D#5",
        "duration": "79i"
      },
      {
        "time": "23872i",
        "midiNote": 73,
        "velocity": 0.7322834645669292,
        "noteName": "C#5",
        "duration": "79i"
      },
      {
        "time": "23936i",
        "midiNote": 72,
        "velocity": 0.7322834645669292,
        "noteName": "C5",
        "duration": "79i"
      },
      {
        "time": "24000i",
        "midiNote": 70,
        "velocity": 0.7322834645669292,
        "noteName": "A#4",
        "duration": "177i"
      },
      {
        "time": "24192i",
        "midiNote": 73,
        "velocity": 0.7322834645669292,
        "noteName": "C#5",
        "duration": "79i"
      },
      {
        "time": "24256i",
        "midiNote": 72,
        "velocity": 0.7322834645669292,
        "noteName": "C5",
        "duration": "237i"
      },
      {
        "time": "24448i",
        "midiNote": 73,
        "velocity": 0.7322834645669292,
        "noteName": "C#5",
        "duration": "74i"
      },
      {
        "time": "24512i",
        "midiNote": 75,
        "velocity": 0.7322834645669292,
        "noteName": "D#5",
        "duration": "39i"
      },
      {
        "time": "24544i",
        "midiNote": 73,
        "velocity": 0.7322834645669292,
        "noteName": "C#5",
        "duration": "37i"
      },
      {
        "time": "24576i",
        "midiNote": 75,
        "velocity": 0.7322834645669292,
        "noteName": "D#5",
        "duration": "186i"
      },
      {
        "time": "24768i",
        "midiNote": 73,
        "velocity": 0.7322834645669292,
        "noteName": "C#5",
        "duration": "51i"
      },
      {
        "time": "24832i",
        "midiNote": 73,
        "velocity": 0.7322834645669292,
        "noteName": "C#5",
        "duration": "79i"
      },
      {
        "time": "24896i",
        "midiNote": 75,
        "velocity": 0.7322834645669292,
        "noteName": "D#5",
        "duration": "77i"
      },
      {
        "time": "24960i",
        "midiNote": 77,
        "velocity": 0.7322834645669292,
        "noteName": "F5",
        "duration": "72i"
      },
      {
        "time": "25024i",
        "midiNote": 80,
        "velocity": 0.7322834645669292,
        "noteName": "G#5",
        "duration": "239i"
      },
      {
        "time": "25216i",
        "midiNote": 78,
        "velocity": 0.7322834645669292,
        "noteName": "F#5",
        "duration": "68i"
      },
      {
        "time": "25280i",
        "midiNote": 77,
        "velocity": 0.7322834645669292,
        "noteName": "F5",
        "duration": "239i"
      },
      {
        "time": "25472i",
        "midiNote": 75,
        "velocity": 0.7322834645669292,
        "noteName": "D#5",
        "duration": "77i"
      },
      {
        "time": "25536i",
        "midiNote": 77,
        "velocity": 0.7322834645669292,
        "noteName": "F5",
        "duration": "39i"
      },
      {
        "time": "25568i",
        "midiNote": 75,
        "velocity": 0.7322834645669292,
        "noteName": "D#5",
        "duration": "37i"
      },
      {
        "time": "25600i",
        "midiNote": 77,
        "velocity": 0.7322834645669292,
        "noteName": "F5",
        "duration": "39i"
      },
      {
        "time": "25632i",
        "midiNote": 75,
        "velocity": 0.7322834645669292,
        "noteName": "D#5",
        "duration": "156i"
      },
      {
        "time": "25792i",
        "midiNote": 73,
        "velocity": 0.7322834645669292,
        "noteName": "C#5",
        "duration": "22i"
      },
      {
        "time": "25856i",
        "midiNote": 73,
        "velocity": 0.7322834645669292,
        "noteName": "C#5",
        "duration": "79i"
      },
      {
        "time": "25920i",
        "midiNote": 75,
        "velocity": 0.7322834645669292,
        "noteName": "D#5",
        "duration": "73i"
      },
      {
        "time": "25984i",
        "midiNote": 77,
        "velocity": 0.7322834645669292,
        "noteName": "F5",
        "duration": "78i"
      },
      {
        "time": "26048i",
        "midiNote": 80,
        "velocity": 0.7322834645669292,
        "noteName": "G#5",
        "duration": "79i"
      },
      {
        "time": "26112i",
        "midiNote": 78,
        "velocity": 0.7322834645669292,
        "noteName": "F#5",
        "duration": "159i"
      },
      {
        "time": "26240i",
        "midiNote": 77,
        "velocity": 0.7322834645669292,
        "noteName": "F5",
        "duration": "72i"
      },
      {
        "time": "26304i",
        "midiNote": 75,
        "velocity": 0.7322834645669292,
        "noteName": "D#5",
        "duration": "159i"
      },
      {
        "time": "26432i",
        "midiNote": 73,
        "velocity": 0.7322834645669292,
        "noteName": "C#5",
        "duration": "75i"
      },
      {
        "time": "26496i",
        "midiNote": 75,
        "velocity": 0.7322834645669292,
        "noteName": "D#5",
        "duration": "79i"
      },
      {
        "time": "26560i",
        "midiNote": 77,
        "velocity": 0.7322834645669292,
        "noteName": "F5",
        "duration": "39i"
      },
      {
        "time": "26592i",
        "midiNote": 75,
        "velocity": 0.7322834645669292,
        "noteName": "D#5",
        "duration": "34i"
      },
      {
        "time": "26624i",
        "midiNote": 77,
        "velocity": 0.7322834645669292,
        "noteName": "F5",
        "duration": "39i"
      },
      {
        "time": "26656i",
        "midiNote": 75,
        "velocity": 0.7322834645669292,
        "noteName": "D#5",
        "duration": "39i"
      },
      {
        "time": "26688i",
        "midiNote": 73,
        "velocity": 0.7322834645669292,
        "noteName": "C#5",
        "duration": "35i"
      },
      {
        "time": "26720i",
        "midiNote": 70,
        "velocity": 0.7322834645669292,
        "noteName": "A#4",
        "duration": "39i"
      },
      {
        "time": "26752i",
        "midiNote": 68,
        "velocity": 0.7322834645669292,
        "noteName": "G#4",
        "duration": "159i"
      },
      {
        "time": "26880i",
        "midiNote": 75,
        "velocity": 0.7322834645669292,
        "noteName": "D#5",
        "duration": "159i"
      },
      {
        "time": "27008i",
        "midiNote": 73,
        "velocity": 0.7322834645669292,
        "noteName": "C#5",
        "duration": "21i"
      },
      {
        "time": "27072i",
        "midiNote": 75,
        "velocity": 0.7322834645669292,
        "noteName": "D#5",
        "duration": "150i"
      },
      {
        "time": "27200i",
        "midiNote": 72,
        "velocity": 0.7322834645669292,
        "noteName": "C5",
        "duration": "79i"
      },
      {
        "time": "27264i",
        "midiNote": 73,
        "velocity": 0.7322834645669292,
        "noteName": "C#5",
        "duration": "206i"
      },
      {
        "time": "27520i",
        "midiNote": 77,
        "velocity": 0.7322834645669292,
        "noteName": "F5",
        "duration": "79i"
      },
      {
        "time": "27584i",
        "midiNote": 75,
        "velocity": 0.7322834645669292,
        "noteName": "D#5",
        "duration": "159i"
      },
      {
        "time": "27712i",
        "midiNote": 77,
        "velocity": 0.7322834645669292,
        "noteName": "F5",
        "duration": "128i"
      },
      {
        "time": "27840i",
        "midiNote": 80,
        "velocity": 0.7322834645669292,
        "noteName": "G#5",
        "duration": "79i"
      },
      {
        "time": "27904i",
        "midiNote": 78,
        "velocity": 0.7322834645669292,
        "noteName": "F#5",
        "duration": "76i"
      },
      {
        "time": "27968i",
        "midiNote": 77,
        "velocity": 0.7322834645669292,
        "noteName": "F5",
        "duration": "79i"
      },
      {
        "time": "28032i",
        "midiNote": 75,
        "velocity": 0.7322834645669292,
        "noteName": "D#5",
        "duration": "79i"
      },
      {
        "time": "28096i",
        "midiNote": 73,
        "velocity": 0.7322834645669292,
        "noteName": "C#5",
        "duration": "79i"
      },
      {
        "time": "28160i",
        "midiNote": 75,
        "velocity": 0.7322834645669292,
        "noteName": "D#5",
        "duration": "79i"
      },
      {
        "time": "28224i",
        "midiNote": 77,
        "velocity": 0.7322834645669292,
        "noteName": "F5",
        "duration": "126i"
      },
      {
        "time": "28352i",
        "midiNote": 77,
        "velocity": 0.7322834645669292,
        "noteName": "F5",
        "duration": "39i"
      },
      {
        "time": "28384i",
        "midiNote": 75,
        "velocity": 0.7322834645669292,
        "noteName": "D#5",
        "duration": "39i"
      },
      {
        "time": "28416i",
        "midiNote": 73,
        "velocity": 0.7322834645669292,
        "noteName": "C#5",
        "duration": "159i"
      },
      {
        "time": "28544i",
        "midiNote": 68,
        "velocity": 0.7322834645669292,
        "noteName": "G#4",
        "duration": "77i"
      },
      {
        "time": "28608i",
        "midiNote": 70,
        "velocity": 0.7322834645669292,
        "noteName": "A#4",
        "duration": "34i"
      },
      {
        "time": "28640i",
        "midiNote": 68,
        "velocity": 0.7322834645669292,
        "noteName": "G#4",
        "duration": "32i"
      },
      {
        "time": "28672i",
        "midiNote": 70,
        "velocity": 0.7322834645669292,
        "noteName": "A#4",
        "duration": "262i"
      },
      {
        "time": "28992i",
        "midiNote": 72,
        "velocity": 0.7322834645669292,
        "noteName": "C5",
        "duration": "79i"
      },
      {
        "time": "29056i",
        "midiNote": 73,
        "velocity": 0.7322834645669292,
        "noteName": "C#5",
        "duration": "69i"
      },
      {
        "time": "29120i",
        "midiNote": 75,
        "velocity": 0.7322834645669292,
        "noteName": "D#5",
        "duration": "159i"
      },
      {
        "time": "29248i",
        "midiNote": 73,
        "velocity": 0.7322834645669292,
        "noteName": "C#5",
        "duration": "77i"
      },
      {
        "time": "29312i",
        "midiNote": 70,
        "velocity": 0.7322834645669292,
        "noteName": "A#4",
        "duration": "79i"
      },
      {
        "time": "29376i",
        "midiNote": 72,
        "velocity": 0.7322834645669292,
        "noteName": "C5",
        "duration": "39i"
      },
      {
        "time": "29408i",
        "midiNote": 70,
        "velocity": 0.7322834645669292,
        "noteName": "A#4",
        "duration": "39i"
      },
      {
        "time": "29440i",
        "midiNote": 68,
        "velocity": 0.7322834645669292,
        "noteName": "G#4",
        "duration": "192i"
      },
      {
        "time": "29632i",
        "midiNote": 68,
        "velocity": 0.7322834645669292,
        "noteName": "G#4",
        "duration": "20i"
      },
      {
        "time": "29696i",
        "midiNote": 70,
        "velocity": 0.7322834645669292,
        "noteName": "A#4",
        "duration": "79i"
      },
      {
        "time": "29760i",
        "midiNote": 73,
        "velocity": 0.7322834645669292,
        "noteName": "C#5",
        "duration": "66i"
      },
      {
        "time": "29824i",
        "midiNote": 72,
        "velocity": 0.7322834645669292,
        "noteName": "C5",
        "duration": "70i"
      },
      {
        "time": "29888i",
        "midiNote": 70,
        "velocity": 0.7322834645669292,
        "noteName": "A#4",
        "duration": "159i"
      },
      {
        "time": "30048i",
        "midiNote": 68,
        "velocity": 0.7322834645669292,
        "noteName": "G#4",
        "duration": "30i"
      },
      {
        "time": "30080i",
        "midiNote": 70,
        "velocity": 0.7322834645669292,
        "noteName": "A#4",
        "duration": "79i"
      },
      {
        "time": "30144i",
        "midiNote": 73,
        "velocity": 0.7322834645669292,
        "noteName": "C#5",
        "duration": "24i"
      },
      {
        "time": "30208i",
        "midiNote": 75,
        "velocity": 0.7322834645669292,
        "noteName": "D#5",
        "duration": "79i"
      },
      {
        "time": "30272i",
        "midiNote": 77,
        "velocity": 0.7322834645669292,
        "noteName": "F5",
        "duration": "128i"
      },
      {
        "time": "30400i",
        "midiNote": 77,
        "velocity": 0.7322834645669292,
        "noteName": "F5",
        "duration": "4i"
      },
      {
        "time": "30592i",
        "midiNote": 77,
        "velocity": 0.7322834645669292,
        "noteName": "F5",
        "duration": "19i"
      },
      {
        "time": "30656i",
        "midiNote": 80,
        "velocity": 0.7322834645669292,
        "noteName": "G#5",
        "duration": "79i"
      },
      {
        "time": "30720i",
        "midiNote": 78,
        "velocity": 0.7322834645669292,
        "noteName": "F#5",
        "duration": "232i"
      },
      {
        "time": "30912i",
        "midiNote": 77,
        "velocity": 0.7322834645669292,
        "noteName": "F5",
        "duration": "150i"
      },
      {
        "time": "31040i",
        "midiNote": 75,
        "velocity": 0.7322834645669292,
        "noteName": "D#5",
        "duration": "159i"
      },
      {
        "time": "31168i",
        "midiNote": 77,
        "velocity": 0.7322834645669292,
        "noteName": "F5",
        "duration": "79i"
      },
      {
        "time": "31232i",
        "midiNote": 78,
        "velocity": 0.7322834645669292,
        "noteName": "F#5",
        "duration": "39i"
      },
      {
        "time": "31264i",
        "midiNote": 77,
        "velocity": 0.7322834645669292,
        "noteName": "F5",
        "duration": "39i"
      },
      {
        "time": "31296i",
        "midiNote": 75,
        "velocity": 0.7322834645669292,
        "noteName": "D#5",
        "duration": "157i"
      },
      {
        "time": "31424i",
        "midiNote": 77,
        "velocity": 0.7322834645669292,
        "noteName": "F5",
        "duration": "22i"
      },
      {
        "time": "31488i",
        "midiNote": 77,
        "velocity": 0.7322834645669292,
        "noteName": "F5",
        "duration": "79i"
      },
      {
        "time": "31552i",
        "midiNote": 75,
        "velocity": 0.7322834645669292,
        "noteName": "D#5",
        "duration": "79i"
      },
      {
        "time": "31616i",
        "midiNote": 73,
        "velocity": 0.7322834645669292,
        "noteName": "C#5",
        "duration": "79i"
      },
      {
        "time": "31680i",
        "midiNote": 72,
        "velocity": 0.7322834645669292,
        "noteName": "C5",
        "duration": "69i"
      },
      {
        "time": "31872i",
        "midiNote": 73,
        "velocity": 0.7322834645669292,
        "noteName": "C#5",
        "duration": "79i"
      },
      {
        "time": "31936i",
        "midiNote": 72,
        "velocity": 0.7322834645669292,
        "noteName": "C5",
        "duration": "232i"
      },
      {
        "time": "32128i",
        "midiNote": 73,
        "velocity": 0.7322834645669292,
        "noteName": "C#5",
        "duration": "20i"
      },
      {
        "time": "32192i",
        "midiNote": 73,
        "velocity": 0.7322834645669292,
        "noteName": "C#5",
        "duration": "244i"
      },
      {
        "time": "32448i",
        "midiNote": 77,
        "velocity": 0.7322834645669292,
        "noteName": "F5",
        "duration": "79i"
      },
      {
        "time": "32512i",
        "midiNote": 75,
        "velocity": 0.7322834645669292,
        "noteName": "D#5",
        "duration": "79i"
      },
      {
        "time": "32576i",
        "midiNote": 73,
        "velocity": 0.7322834645669292,
        "noteName": "C#5",
        "duration": "79i"
      },
      {
        "time": "32640i",
        "midiNote": 72,
        "velocity": 0.7322834645669292,
        "noteName": "C5",
        "duration": "79i"
      },
      {
        "time": "32704i",
        "midiNote": 70,
        "velocity": 0.7322834645669292,
        "noteName": "A#4",
        "duration": "177i"
      },
      {
        "time": "32896i",
        "midiNote": 73,
        "velocity": 0.7322834645669292,
        "noteName": "C#5",
        "duration": "79i"
      },
      {
        "time": "32960i",
        "midiNote": 72,
        "velocity": 0.7322834645669292,
        "noteName": "C5",
        "duration": "237i"
      },
      {
        "time": "33152i",
        "midiNote": 73,
        "velocity": 0.7322834645669292,
        "noteName": "C#5",
        "duration": "74i"
      },
      {
        "time": "33216i",
        "midiNote": 75,
        "velocity": 0.7322834645669292,
        "noteName": "D#5",
        "duration": "39i"
      },
      {
        "time": "33248i",
        "midiNote": 73,
        "velocity": 0.7322834645669292,
        "noteName": "C#5",
        "duration": "37i"
      },
      {
        "time": "33280i",
        "midiNote": 75,
        "velocity": 0.7322834645669292,
        "noteName": "D#5",
        "duration": "186i"
      },
      {
        "time": "33472i",
        "midiNote": 73,
        "velocity": 0.7322834645669292,
        "noteName": "C#5",
        "duration": "51i"
      },
      {
        "time": "33536i",
        "midiNote": 73,
        "velocity": 0.7322834645669292,
        "noteName": "C#5",
        "duration": "79i"
      },
      {
        "time": "33600i",
        "midiNote": 75,
        "velocity": 0.7322834645669292,
        "noteName": "D#5",
        "duration": "77i"
      },
      {
        "time": "33664i",
        "midiNote": 77,
        "velocity": 0.7322834645669292,
        "noteName": "F5",
        "duration": "72i"
      },
      {
        "time": "33728i",
        "midiNote": 80,
        "velocity": 0.7322834645669292,
        "noteName": "G#5",
        "duration": "239i"
      },
      {
        "time": "33920i",
        "midiNote": 78,
        "velocity": 0.7322834645669292,
        "noteName": "F#5",
        "duration": "68i"
      },
      {
        "time": "33984i",
        "midiNote": 77,
        "velocity": 0.7322834645669292,
        "noteName": "F5",
        "duration": "239i"
      },
      {
        "time": "34176i",
        "midiNote": 75,
        "velocity": 0.7322834645669292,
        "noteName": "D#5",
        "duration": "77i"
      },
      {
        "time": "34240i",
        "midiNote": 77,
        "velocity": 0.7322834645669292,
        "noteName": "F5",
        "duration": "39i"
      },
      {
        "time": "34272i",
        "midiNote": 75,
        "velocity": 0.7322834645669292,
        "noteName": "D#5",
        "duration": "37i"
      },
      {
        "time": "34304i",
        "midiNote": 77,
        "velocity": 0.7322834645669292,
        "noteName": "F5",
        "duration": "39i"
      },
      {
        "time": "34336i",
        "midiNote": 75,
        "velocity": 0.7322834645669292,
        "noteName": "D#5",
        "duration": "156i"
      },
      {
        "time": "34496i",
        "midiNote": 73,
        "velocity": 0.7322834645669292,
        "noteName": "C#5",
        "duration": "22i"
      },
      {
        "time": "34560i",
        "midiNote": 73,
        "velocity": 0.7322834645669292,
        "noteName": "C#5",
        "duration": "79i"
      },
      {
        "time": "34624i",
        "midiNote": 75,
        "velocity": 0.7322834645669292,
        "noteName": "D#5",
        "duration": "73i"
      },
      {
        "time": "34688i",
        "midiNote": 77,
        "velocity": 0.7322834645669292,
        "noteName": "F5",
        "duration": "78i"
      },
      {
        "time": "34752i",
        "midiNote": 80,
        "velocity": 0.7322834645669292,
        "noteName": "G#5",
        "duration": "79i"
      },
      {
        "time": "34816i",
        "midiNote": 78,
        "velocity": 0.7322834645669292,
        "noteName": "F#5",
        "duration": "159i"
      },
      {
        "time": "34944i",
        "midiNote": 77,
        "velocity": 0.7322834645669292,
        "noteName": "F5",
        "duration": "72i"
      },
      {
        "time": "35008i",
        "midiNote": 75,
        "velocity": 0.7322834645669292,
        "noteName": "D#5",
        "duration": "159i"
      },
      {
        "time": "35136i",
        "midiNote": 73,
        "velocity": 0.7322834645669292,
        "noteName": "C#5",
        "duration": "75i"
      },
      {
        "time": "35200i",
        "midiNote": 75,
        "velocity": 0.7322834645669292,
        "noteName": "D#5",
        "duration": "79i"
      },
      {
        "time": "35264i",
        "midiNote": 77,
        "velocity": 0.7322834645669292,
        "noteName": "F5",
        "duration": "39i"
      },
      {
        "time": "35296i",
        "midiNote": 75,
        "velocity": 0.7322834645669292,
        "noteName": "D#5",
        "duration": "34i"
      },
      {
        "time": "35328i",
        "midiNote": 77,
        "velocity": 0.7322834645669292,
        "noteName": "F5",
        "duration": "39i"
      },
      {
        "time": "35360i",
        "midiNote": 75,
        "velocity": 0.7322834645669292,
        "noteName": "D#5",
        "duration": "39i"
      },
      {
        "time": "35392i",
        "midiNote": 73,
        "velocity": 0.7322834645669292,
        "noteName": "C#5",
        "duration": "35i"
      },
      {
        "time": "35424i",
        "midiNote": 70,
        "velocity": 0.7322834645669292,
        "noteName": "A#4",
        "duration": "39i"
      },
      {
        "time": "35456i",
        "midiNote": 68,
        "velocity": 0.7322834645669292,
        "noteName": "G#4",
        "duration": "79i"
      },
      {
        "time": "35520i",
        "midiNote": 77,
        "velocity": 0.7322834645669292,
        "noteName": "F5",
        "duration": "25i"
      },
      {
        "time": "35584i",
        "midiNote": 77,
        "velocity": 0.7322834645669292,
        "noteName": "F5",
        "duration": "79i"
      },
      {
        "time": "35648i",
        "midiNote": 75,
        "velocity": 0.7322834645669292,
        "noteName": "D#5",
        "duration": "79i"
      },
      {
        "time": "35712i",
        "midiNote": 73,
        "velocity": 0.7322834645669292,
        "noteName": "C#5",
        "duration": "77i"
      },
      {
        "time": "35776i",
        "midiNote": 72,
        "velocity": 0.7322834645669292,
        "noteName": "C5",
        "duration": "54i"
      },
      {
        "time": "35968i",
        "midiNote": 73,
        "velocity": 0.7322834645669292,
        "noteName": "C#5",
        "duration": "79i"
      },
      {
        "time": "36032i",
        "midiNote": 72,
        "velocity": 0.7322834645669292,
        "noteName": "C5",
        "duration": "232i"
      },
      {
        "time": "36224i",
        "midiNote": 73,
        "velocity": 0.7322834645669292,
        "noteName": "C#5",
        "duration": "20i"
      },
      {
        "time": "36288i",
        "midiNote": 73,
        "velocity": 0.7322834645669292,
        "noteName": "C#5",
        "duration": "244i"
      },
      {
        "time": "36544i",
        "midiNote": 77,
        "velocity": 0.7322834645669292,
        "noteName": "F5",
        "duration": "79i"
      },
      {
        "time": "36608i",
        "midiNote": 75,
        "velocity": 0.7322834645669292,
        "noteName": "D#5",
        "duration": "79i"
      },
      {
        "time": "36672i",
        "midiNote": 73,
        "velocity": 0.7322834645669292,
        "noteName": "C#5",
        "duration": "79i"
      },
      {
        "time": "36736i",
        "midiNote": 72,
        "velocity": 0.7322834645669292,
        "noteName": "C5",
        "duration": "79i"
      },
      {
        "time": "36800i",
        "midiNote": 70,
        "velocity": 0.7322834645669292,
        "noteName": "A#4",
        "duration": "177i"
      },
      {
        "time": "36992i",
        "midiNote": 73,
        "velocity": 0.7322834645669292,
        "noteName": "C#5",
        "duration": "79i"
      },
      {
        "time": "37056i",
        "midiNote": 72,
        "velocity": 0.7322834645669292,
        "noteName": "C5",
        "duration": "237i"
      },
      {
        "time": "37248i",
        "midiNote": 73,
        "velocity": 0.7322834645669292,
        "noteName": "C#5",
        "duration": "74i"
      },
      {
        "time": "37312i",
        "midiNote": 75,
        "velocity": 0.7322834645669292,
        "noteName": "D#5",
        "duration": "39i"
      },
      {
        "time": "37344i",
        "midiNote": 73,
        "velocity": 0.7322834645669292,
        "noteName": "C#5",
        "duration": "37i"
      },
      {
        "time": "37376i",
        "midiNote": 75,
        "velocity": 0.7322834645669292,
        "noteName": "D#5",
        "duration": "186i"
      },
      {
        "time": "37568i",
        "midiNote": 73,
        "velocity": 0.7322834645669292,
        "noteName": "C#5",
        "duration": "51i"
      },
      {
        "time": "37632i",
        "midiNote": 73,
        "velocity": 0.7322834645669292,
        "noteName": "C#5",
        "duration": "79i"
      },
      {
        "time": "37696i",
        "midiNote": 75,
        "velocity": 0.7322834645669292,
        "noteName": "D#5",
        "duration": "77i"
      },
      {
        "time": "37760i",
        "midiNote": 77,
        "velocity": 0.7322834645669292,
        "noteName": "F5",
        "duration": "72i"
      },
      {
        "time": "37824i",
        "midiNote": 80,
        "velocity": 0.7322834645669292,
        "noteName": "G#5",
        "duration": "239i"
      },
      {
        "time": "38016i",
        "midiNote": 78,
        "velocity": 0.7322834645669292,
        "noteName": "F#5",
        "duration": "68i"
      },
      {
        "time": "38080i",
        "midiNote": 77,
        "velocity": 0.7322834645669292,
        "noteName": "F5",
        "duration": "239i"
      },
      {
        "time": "38272i",
        "midiNote": 75,
        "velocity": 0.7322834645669292,
        "noteName": "D#5",
        "duration": "77i"
      },
      {
        "time": "38336i",
        "midiNote": 77,
        "velocity": 0.7322834645669292,
        "noteName": "F5",
        "duration": "39i"
      },
      {
        "time": "38368i",
        "midiNote": 75,
        "velocity": 0.7322834645669292,
        "noteName": "D#5",
        "duration": "37i"
      },
      {
        "time": "38400i",
        "midiNote": 77,
        "velocity": 0.7322834645669292,
        "noteName": "F5",
        "duration": "39i"
      },
      {
        "time": "38432i",
        "midiNote": 75,
        "velocity": 0.7322834645669292,
        "noteName": "D#5",
        "duration": "156i"
      },
      {
        "time": "38592i",
        "midiNote": 73,
        "velocity": 0.7322834645669292,
        "noteName": "C#5",
        "duration": "22i"
      },
      {
        "time": "38656i",
        "midiNote": 73,
        "velocity": 0.7322834645669292,
        "noteName": "C#5",
        "duration": "79i"
      },
      {
        "time": "38720i",
        "midiNote": 75,
        "velocity": 0.7322834645669292,
        "noteName": "D#5",
        "duration": "73i"
      },
      {
        "time": "38784i",
        "midiNote": 77,
        "velocity": 0.7322834645669292,
        "noteName": "F5",
        "duration": "78i"
      },
      {
        "time": "38848i",
        "midiNote": 80,
        "velocity": 0.7322834645669292,
        "noteName": "G#5",
        "duration": "79i"
      },
      {
        "time": "38912i",
        "midiNote": 78,
        "velocity": 0.7322834645669292,
        "noteName": "F#5",
        "duration": "159i"
      },
      {
        "time": "39040i",
        "midiNote": 77,
        "velocity": 0.7322834645669292,
        "noteName": "F5",
        "duration": "72i"
      },
      {
        "time": "39104i",
        "midiNote": 75,
        "velocity": 0.7322834645669292,
        "noteName": "D#5",
        "duration": "159i"
      },
      {
        "time": "39232i",
        "midiNote": 73,
        "velocity": 0.7322834645669292,
        "noteName": "C#5",
        "duration": "75i"
      },
      {
        "time": "39296i",
        "midiNote": 75,
        "velocity": 0.7322834645669292,
        "noteName": "D#5",
        "duration": "79i"
      },
      {
        "time": "39360i",
        "midiNote": 77,
        "velocity": 0.7322834645669292,
        "noteName": "F5",
        "duration": "39i"
      },
      {
        "time": "39392i",
        "midiNote": 75,
        "velocity": 0.7322834645669292,
        "noteName": "D#5",
        "duration": "34i"
      },
      {
        "time": "39424i",
        "midiNote": 77,
        "velocity": 0.7322834645669292,
        "noteName": "F5",
        "duration": "39i"
      },
      {
        "time": "39456i",
        "midiNote": 75,
        "velocity": 0.7322834645669292,
        "noteName": "D#5",
        "duration": "39i"
      },
      {
        "time": "39488i",
        "midiNote": 73,
        "velocity": 0.7322834645669292,
        "noteName": "C#5",
        "duration": "35i"
      },
      {
        "time": "39520i",
        "midiNote": 70,
        "velocity": 0.7322834645669292,
        "noteName": "A#4",
        "duration": "39i"
      },
      {
        "time": "39552i",
        "midiNote": 68,
        "velocity": 0.7322834645669292,
        "noteName": "G#4",
        "duration": "79i"
      },
      {
        "time": "39616i",
        "midiNote": 77,
        "velocity": 0.7322834645669292,
        "noteName": "F5",
        "duration": "25i"
      },
      {
        "time": "39680i",
        "midiNote": 77,
        "velocity": 0.7322834645669292,
        "noteName": "F5",
        "duration": "79i"
      },
      {
        "time": "39744i",
        "midiNote": 75,
        "velocity": 0.7322834645669292,
        "noteName": "D#5",
        "duration": "79i"
      },
      {
        "time": "39808i",
        "midiNote": 73,
        "velocity": 0.7322834645669292,
        "noteName": "C#5",
        "duration": "77i"
      },
      {
        "time": "39872i",
        "midiNote": 72,
        "velocity": 0.7322834645669292,
        "noteName": "C5",
        "duration": "54i"
      },
      {
        "time": "39936i",
        "midiNote": 77,
        "velocity": 0.7322834645669292,
        "noteName": "F5",
        "duration": "57i"
      },
      {
        "time": "39968i",
        "midiNote": 75,
        "velocity": 0.7322834645669292,
        "noteName": "D#5",
        "duration": "41i"
      },
      {
        "time": "40000i",
        "midiNote": 73,
        "velocity": 0.7322834645669292,
        "noteName": "C#5",
        "duration": "322i"
      },
      {
        "time": "40704i",
        "midiNote": 78,
        "velocity": 0.7322834645669292,
        "noteName": "F#5",
        "duration": "82i"
      },
      {
        "time": "40768i",
        "midiNote": 79,
        "velocity": 0.7322834645669292,
        "noteName": "G5",
        "duration": "93i"
      },
      {
        "time": "40832i",
        "midiNote": 78,
        "velocity": 0.7322834645669292,
        "noteName": "F#5",
        "duration": "63i"
      },
      {
        "time": "40896i",
        "midiNote": 81,
        "velocity": 0.7322834645669292,
        "noteName": "A5",
        "duration": "520i"
      },
      {
        "time": "41344i",
        "midiNote": 78,
        "velocity": 0.7322834645669292,
        "noteName": "F#5",
        "duration": "82i"
      },
      {
        "time": "41408i",
        "midiNote": 76,
        "velocity": 0.7322834645669292,
        "noteName": "E5",
        "duration": "74i"
      },
      {
        "time": "41472i",
        "midiNote": 78,
        "velocity": 0.7322834645669292,
        "noteName": "F#5",
        "duration": "44i"
      },
      {
        "time": "41507i",
        "midiNote": 76,
        "velocity": 0.7322834645669292,
        "noteName": "E5",
        "duration": "25i"
      },
      {
        "time": "41536i",
        "midiNote": 78,
        "velocity": 0.7322834645669292,
        "noteName": "F#5",
        "duration": "128i"
      },
      {
        "time": "41664i",
        "midiNote": 78,
        "velocity": 0.7322834645669292,
        "noteName": "F#5",
        "duration": "12i"
      },
      {
        "time": "41728i",
        "midiNote": 81,
        "velocity": 0.7322834645669292,
        "noteName": "A5",
        "duration": "82i"
      },
      {
        "time": "41792i",
        "midiNote": 78,
        "velocity": 0.7322834645669292,
        "noteName": "F#5",
        "duration": "84i"
      },
      {
        "time": "41856i",
        "midiNote": 76,
        "velocity": 0.7322834645669292,
        "noteName": "E5",
        "duration": "73i"
      },
      {
        "time": "41920i",
        "midiNote": 78,
        "velocity": 0.7322834645669292,
        "noteName": "F#5",
        "duration": "46i"
      },
      {
        "time": "41955i",
        "midiNote": 76,
        "velocity": 0.7322834645669292,
        "noteName": "E5",
        "duration": "29i"
      },
      {
        "time": "41984i",
        "midiNote": 74,
        "velocity": 0.7322834645669292,
        "noteName": "D5",
        "duration": "208i"
      },
      {
        "time": "42496i",
        "midiNote": 74,
        "velocity": 0.7322834645669292,
        "noteName": "D5",
        "duration": "70i"
      },
      {
        "time": "42560i",
        "midiNote": 76,
        "velocity": 0.7322834645669292,
        "noteName": "E5",
        "duration": "50i"
      },
      {
        "time": "42624i",
        "midiNote": 76,
        "velocity": 0.7322834645669292,
        "noteName": "E5",
        "duration": "79i"
      },
      {
        "time": "42688i",
        "midiNote": 78,
        "velocity": 0.7322834645669292,
        "noteName": "F#5",
        "duration": "46i"
      },
      {
        "time": "42752i",
        "midiNote": 78,
        "velocity": 0.7322834645669292,
        "noteName": "F#5",
        "duration": "50i"
      },
      {
        "time": "42787i",
        "midiNote": 76,
        "velocity": 0.7322834645669292,
        "noteName": "E5",
        "duration": "24i"
      },
      {
        "time": "42816i",
        "midiNote": 78,
        "velocity": 0.7322834645669292,
        "noteName": "F#5",
        "duration": "73i"
      },
      {
        "time": "42880i",
        "midiNote": 79,
        "velocity": 0.7322834645669292,
        "noteName": "G5",
        "duration": "72i"
      },
      {
        "time": "42944i",
        "midiNote": 81,
        "velocity": 0.7322834645669292,
        "noteName": "A5",
        "duration": "256i"
      },
      {
        "time": "43136i",
        "midiNote": 83,
        "velocity": 0.7322834645669292,
        "noteName": "B5",
        "duration": "84i"
      },
      {
        "time": "43200i",
        "midiNote": 78,
        "velocity": 0.7322834645669292,
        "noteName": "F#5",
        "duration": "149i"
      },
      {
        "time": "43328i",
        "midiNote": 76,
        "velocity": 0.7322834645669292,
        "noteName": "E5",
        "duration": "157i"
      },
      {
        "time": "43456i",
        "midiNote": 78,
        "velocity": 0.7322834645669292,
        "noteName": "F#5",
        "duration": "40i"
      },
      {
        "time": "43491i",
        "midiNote": 76,
        "velocity": 0.7322834645669292,
        "noteName": "E5",
        "duration": "32i"
      },
      {
        "time": "43520i",
        "midiNote": 79,
        "velocity": 0.7322834645669292,
        "noteName": "G5",
        "duration": "84i"
      },
      {
        "time": "43584i",
        "midiNote": 78,
        "velocity": 0.7322834645669292,
        "noteName": "F#5",
        "duration": "85i"
      },
      {
        "time": "43648i",
        "midiNote": 76,
        "velocity": 0.7322834645669292,
        "noteName": "E5",
        "duration": "75i"
      },
      {
        "time": "43712i",
        "midiNote": 78,
        "velocity": 0.7322834645669292,
        "noteName": "F#5",
        "duration": "43i"
      },
      {
        "time": "43747i",
        "midiNote": 76,
        "velocity": 0.7322834645669292,
        "noteName": "E5",
        "duration": "27i"
      },
      {
        "time": "43776i",
        "midiNote": 78,
        "velocity": 0.7322834645669292,
        "noteName": "F#5",
        "duration": "47i"
      },
      {
        "time": "43811i",
        "midiNote": 76,
        "velocity": 0.7322834645669292,
        "noteName": "E5",
        "duration": "28i"
      },
      {
        "time": "43840i",
        "midiNote": 74,
        "velocity": 0.7322834645669292,
        "noteName": "D5",
        "duration": "158i"
      },
      {
        "time": "43968i",
        "midiNote": 76,
        "velocity": 0.7322834645669292,
        "noteName": "E5",
        "duration": "52i"
      },
      {
        "time": "44003i",
        "midiNote": 78,
        "velocity": 0.7322834645669292,
        "noteName": "F#5",
        "duration": "35i"
      },
      {
        "time": "44032i",
        "midiNote": 79,
        "velocity": 0.7322834645669292,
        "noteName": "G5",
        "duration": "99i"
      },
      {
        "time": "44096i",
        "midiNote": 78,
        "velocity": 0.7322834645669292,
        "noteName": "F#5",
        "duration": "65i"
      },
      {
        "time": "44160i",
        "midiNote": 76,
        "velocity": 0.7322834645669292,
        "noteName": "E5",
        "duration": "77i"
      },
      {
        "time": "44224i",
        "midiNote": 74,
        "velocity": 0.7322834645669292,
        "noteName": "D5",
        "duration": "85i"
      },
      {
        "time": "44288i",
        "midiNote": 69,
        "velocity": 0.7322834645669292,
        "noteName": "A4",
        "duration": "178i"
      },
      {
        "time": "44515i",
        "midiNote": 78,
        "velocity": 0.7322834645669292,
        "noteName": "F#5",
        "duration": "57i"
      },
      {
        "time": "44544i",
        "midiNote": 76,
        "velocity": 0.7322834645669292,
        "noteName": "E5",
        "duration": "83i"
      },
      {
        "time": "44608i",
        "midiNote": 74,
        "velocity": 0.7322834645669292,
        "noteName": "D5",
        "duration": "51i"
      },
      {
        "time": "44672i",
        "midiNote": 74,
        "velocity": 0.7322834645669292,
        "noteName": "D5",
        "duration": "57i"
      },
      {
        "time": "44707i",
        "midiNote": 71,
        "velocity": 0.7322834645669292,
        "noteName": "B4",
        "duration": "27i"
      },
      {
        "time": "44736i",
        "midiNote": 69,
        "velocity": 0.7322834645669292,
        "noteName": "A4",
        "duration": "72i"
      },
      {
        "time": "44800i",
        "midiNote": 78,
        "velocity": 0.7322834645669292,
        "noteName": "F#5",
        "duration": "87i"
      },
      {
        "time": "44864i",
        "midiNote": 76,
        "velocity": 0.7322834645669292,
        "noteName": "E5",
        "duration": "64i"
      },
      {
        "time": "44928i",
        "midiNote": 74,
        "velocity": 0.7322834645669292,
        "noteName": "D5",
        "duration": "84i"
      },
      {
        "time": "44992i",
        "midiNote": 73,
        "velocity": 0.7322834645669292,
        "noteName": "C#5",
        "duration": "75i"
      },
      {
        "time": "45056i",
        "midiNote": 71,
        "velocity": 0.7322834645669292,
        "noteName": "B4",
        "duration": "159i"
      },
      {
        "time": "45632i",
        "midiNote": 78,
        "velocity": 0.7322834645669292,
        "noteName": "F#5",
        "duration": "159i"
      },
      {
        "time": "45760i",
        "midiNote": 76,
        "velocity": 0.7322834645669292,
        "noteName": "E5",
        "duration": "52i"
      },
      {
        "time": "45824i",
        "midiNote": 78,
        "velocity": 0.7322834645669292,
        "noteName": "F#5",
        "duration": "27i"
      },
      {
        "time": "45888i",
        "midiNote": 78,
        "velocity": 0.7322834645669292,
        "noteName": "F#5",
        "duration": "79i"
      },
      {
        "time": "45952i",
        "midiNote": 76,
        "velocity": 0.7322834645669292,
        "noteName": "E5",
        "duration": "79i"
      },
      {
        "time": "46016i",
        "midiNote": 74,
        "velocity": 0.7322834645669292,
        "noteName": "D5",
        "duration": "42i"
      },
      {
        "time": "46080i",
        "midiNote": 76,
        "velocity": 0.7322834645669292,
        "noteName": "E5",
        "duration": "32i"
      },
      {
        "time": "46115i",
        "midiNote": 74,
        "velocity": 0.7322834645669292,
        "noteName": "D5",
        "duration": "28i"
      },
      {
        "time": "46144i",
        "midiNote": 71,
        "velocity": 0.7322834645669292,
        "noteName": "B4",
        "duration": "159i"
      },
      {
        "time": "46656i",
        "midiNote": 69,
        "velocity": 0.7322834645669292,
        "noteName": "A4",
        "duration": "149i"
      },
      {
        "time": "46784i",
        "midiNote": 71,
        "velocity": 0.7322834645669292,
        "noteName": "B4",
        "duration": "19i"
      },
      {
        "time": "46848i",
        "midiNote": 74,
        "velocity": 0.7322834645669292,
        "noteName": "D5",
        "duration": "79i"
      },
      {
        "time": "46912i",
        "midiNote": 76,
        "velocity": 0.7322834645669292,
        "noteName": "E5",
        "duration": "73i"
      },
      {
        "time": "46976i",
        "midiNote": 78,
        "velocity": 0.7322834645669292,
        "noteName": "F#5",
        "duration": "79i"
      },
      {
        "time": "47040i",
        "midiNote": 79,
        "velocity": 0.7322834645669292,
        "noteName": "G5",
        "duration": "53i"
      },
      {
        "time": "47104i",
        "midiNote": 81,
        "velocity": 0.7322834645669292,
        "noteName": "A5",
        "duration": "159i"
      },
      {
        "time": "47232i",
        "midiNote": 79,
        "velocity": 0.7322834645669292,
        "noteName": "G5",
        "duration": "23i"
      },
      {
        "time": "47296i",
        "midiNote": 78,
        "velocity": 0.7322834645669292,
        "noteName": "F#5",
        "duration": "152i"
      },
      {
        "time": "47424i",
        "midiNote": 76,
        "velocity": 0.7322834645669292,
        "noteName": "E5",
        "duration": "144i"
      },
      {
        "time": "47552i",
        "midiNote": 78,
        "velocity": 0.7322834645669292,
        "noteName": "F#5",
        "duration": "39i"
      },
      {
        "time": "47587i",
        "midiNote": 76,
        "velocity": 0.7322834645669292,
        "noteName": "E5",
        "duration": "32i"
      },
      {
        "time": "47616i",
        "midiNote": 74,
        "velocity": 0.7322834645669292,
        "noteName": "D5",
        "duration": "79i"
      },
      {
        "time": "47680i",
        "midiNote": 76,
        "velocity": 0.7322834645669292,
        "noteName": "E5",
        "duration": "79i"
      },
      {
        "time": "47744i",
        "midiNote": 78,
        "velocity": 0.7322834645669292,
        "noteName": "F#5",
        "duration": "79i"
      },
      {
        "time": "47808i",
        "midiNote": 76,
        "velocity": 0.7322834645669292,
        "noteName": "E5",
        "duration": "159i"
      },
      {
        "time": "47936i",
        "midiNote": 74,
        "velocity": 0.7322834645669292,
        "noteName": "D5",
        "duration": "71i"
      },
      {
        "time": "48000i",
        "midiNote": 76,
        "velocity": 0.7322834645669292,
        "noteName": "E5",
        "duration": "79i"
      },
      {
        "time": "48064i",
        "midiNote": 78,
        "velocity": 0.7322834645669292,
        "noteName": "F#5",
        "duration": "39i"
      },
      {
        "time": "48099i",
        "midiNote": 81,
        "velocity": 0.7322834645669292,
        "noteName": "A5",
        "duration": "39i"
      },
      {
        "time": "48128i",
        "midiNote": 79,
        "velocity": 0.7322834645669292,
        "noteName": "G5",
        "duration": "159i"
      },
      {
        "time": "48256i",
        "midiNote": 78,
        "velocity": 0.7322834645669292,
        "noteName": "F#5",
        "duration": "76i"
      },
      {
        "time": "48320i",
        "midiNote": 76,
        "velocity": 0.7322834645669292,
        "noteName": "E5",
        "duration": "237i"
      },
      {
        "time": "48512i",
        "midiNote": 74,
        "velocity": 0.7322834645669292,
        "noteName": "D5",
        "duration": "79i"
      },
      {
        "time": "48576i",
        "midiNote": 78,
        "velocity": 0.7322834645669292,
        "noteName": "F#5",
        "duration": "214i"
      },
      {
        "time": "48832i",
        "midiNote": 76,
        "velocity": 0.7322834645669292,
        "noteName": "E5",
        "duration": "76i"
      },
      {
        "time": "48896i",
        "midiNote": 78,
        "velocity": 0.7322834645669292,
        "noteName": "F#5",
        "duration": "77i"
      },
      {
        "time": "48960i",
        "midiNote": 76,
        "velocity": 0.7322834645669292,
        "noteName": "E5",
        "duration": "157i"
      },
      {
        "time": "49088i",
        "midiNote": 78,
        "velocity": 0.7322834645669292,
        "noteName": "F#5",
        "duration": "37i"
      },
      {
        "time": "49123i",
        "midiNote": 76,
        "velocity": 0.7322834645669292,
        "noteName": "E5",
        "duration": "21i"
      },
      {
        "time": "49152i",
        "midiNote": 74,
        "velocity": 0.7322834645669292,
        "noteName": "D5",
        "duration": "1961i"
      }
    ],
    [
      {
        "time": "6656i",
        "midiNote": 42,
        "velocity": 0.6377952755905512,
        "noteName": "F#2",
        "duration": "154i"
      },
      {
        "time": "6720i",
        "midiNote": 49,
        "velocity": 0.5354330708661418,
        "noteName": "C#3",
        "duration": "95i"
      },
      {
        "time": "6784i",
        "midiNote": 56,
        "velocity": 0.49606299212598426,
        "noteName": "G#3",
        "duration": "61i"
      },
      {
        "time": "6784i",
        "midiNote": 58,
        "velocity": 0.5354330708661418,
        "noteName": "A#3",
        "duration": "59i"
      },
      {
        "time": "6784i",
        "midiNote": 61,
        "velocity": 0.5511811023622047,
        "noteName": "C#4",
        "duration": "58i"
      },
      {
        "time": "6848i",
        "midiNote": 44,
        "velocity": 0.6692913385826772,
        "noteName": "G#2",
        "duration": "275i"
      },
      {
        "time": "6976i",
        "midiNote": 51,
        "velocity": 0.5039370078740157,
        "noteName": "D#3",
        "duration": "158i"
      },
      {
        "time": "6976i",
        "midiNote": 56,
        "velocity": 0.49606299212598426,
        "noteName": "G#3",
        "duration": "179i"
      },
      {
        "time": "6976i",
        "midiNote": 58,
        "velocity": 0.49606299212598426,
        "noteName": "A#3",
        "duration": "178i"
      },
      {
        "time": "6976i",
        "midiNote": 63,
        "velocity": 0.49606299212598426,
        "noteName": "D#4",
        "duration": "177i"
      },
      {
        "time": "7168i",
        "midiNote": 46,
        "velocity": 0.5354330708661418,
        "noteName": "A#2",
        "duration": "497i"
      },
      {
        "time": "7232i",
        "midiNote": 49,
        "velocity": 0.5511811023622047,
        "noteName": "C#3",
        "duration": "449i"
      },
      {
        "time": "7296i",
        "midiNote": 53,
        "velocity": 0.4566929133858268,
        "noteName": "F3",
        "duration": "209i"
      },
      {
        "time": "7296i",
        "midiNote": 58,
        "velocity": 0.5039370078740157,
        "noteName": "A#3",
        "duration": "210i"
      },
      {
        "time": "7296i",
        "midiNote": 65,
        "velocity": 0.5354330708661418,
        "noteName": "F4",
        "duration": "209i"
      },
      {
        "time": "7552i",
        "midiNote": 58,
        "velocity": 0.4566929133858268,
        "noteName": "A#3",
        "duration": "107i"
      },
      {
        "time": "7552i",
        "midiNote": 61,
        "velocity": 0.4566929133858268,
        "noteName": "C#4",
        "duration": "109i"
      },
      {
        "time": "7680i",
        "midiNote": 42,
        "velocity": 0.6141732283464567,
        "noteName": "F#2",
        "duration": "208i"
      },
      {
        "time": "7744i",
        "midiNote": 49,
        "velocity": 0.6141732283464567,
        "noteName": "C#3",
        "duration": "155i"
      },
      {
        "time": "7808i",
        "midiNote": 54,
        "velocity": 0.44881889763779526,
        "noteName": "F#3",
        "duration": "99i"
      },
      {
        "time": "7808i",
        "midiNote": 58,
        "velocity": 0.48031496062992124,
        "noteName": "A#3",
        "duration": "103i"
      },
      {
        "time": "7808i",
        "midiNote": 61,
        "velocity": 0.49606299212598426,
        "noteName": "C#4",
        "duration": "101i"
      },
      {
        "time": "7936i",
        "midiNote": 44,
        "velocity": 0.5669291338582677,
        "noteName": "G#2",
        "duration": "192i"
      },
      {
        "time": "8000i",
        "midiNote": 51,
        "velocity": 0.48031496062992124,
        "noteName": "D#3",
        "duration": "121i"
      },
      {
        "time": "8000i",
        "midiNote": 56,
        "velocity": 0.48031496062992124,
        "noteName": "G#3",
        "duration": "174i"
      },
      {
        "time": "8000i",
        "midiNote": 58,
        "velocity": 0.5039370078740157,
        "noteName": "A#3",
        "duration": "179i"
      },
      {
        "time": "8000i",
        "midiNote": 63,
        "velocity": 0.5354330708661418,
        "noteName": "D#4",
        "duration": "181i"
      },
      {
        "time": "8192i",
        "midiNote": 41,
        "velocity": 0.5669291338582677,
        "noteName": "F2",
        "duration": "141i"
      },
      {
        "time": "8256i",
        "midiNote": 48,
        "velocity": 0.5196850393700787,
        "noteName": "C3",
        "duration": "92i"
      },
      {
        "time": "8320i",
        "midiNote": 56,
        "velocity": 0.49606299212598426,
        "noteName": "G#3",
        "duration": "52i"
      },
      {
        "time": "8320i",
        "midiNote": 60,
        "velocity": 0.5039370078740157,
        "noteName": "C4",
        "duration": "42i"
      },
      {
        "time": "8320i",
        "midiNote": 68,
        "velocity": 0.5039370078740157,
        "noteName": "G#4",
        "duration": "57i"
      },
      {
        "time": "8384i",
        "midiNote": 42,
        "velocity": 0.5669291338582677,
        "noteName": "F#2",
        "duration": "298i"
      },
      {
        "time": "8384i",
        "midiNote": 56,
        "velocity": 0.4251968503937008,
        "noteName": "G#3",
        "duration": "302i"
      },
      {
        "time": "8384i",
        "midiNote": 58,
        "velocity": 0.48031496062992124,
        "noteName": "A#3",
        "duration": "301i"
      },
      {
        "time": "8384i",
        "midiNote": 61,
        "velocity": 0.4566929133858268,
        "noteName": "C#4",
        "duration": "301i"
      },
      {
        "time": "8704i",
        "midiNote": 42,
        "velocity": 0.6692913385826772,
        "noteName": "F#2",
        "duration": "154i"
      },
      {
        "time": "8768i",
        "midiNote": 49,
        "velocity": 0.44881889763779526,
        "noteName": "C#3",
        "duration": "101i"
      },
      {
        "time": "8832i",
        "midiNote": 56,
        "velocity": 0.49606299212598426,
        "noteName": "G#3",
        "duration": "62i"
      },
      {
        "time": "8832i",
        "midiNote": 58,
        "velocity": 0.49606299212598426,
        "noteName": "A#3",
        "duration": "64i"
      },
      {
        "time": "8832i",
        "midiNote": 61,
        "velocity": 0.5354330708661418,
        "noteName": "C#4",
        "duration": "63i"
      },
      {
        "time": "8896i",
        "midiNote": 44,
        "velocity": 0.6141732283464567,
        "noteName": "G#2",
        "duration": "278i"
      },
      {
        "time": "9024i",
        "midiNote": 51,
        "velocity": 0.4566929133858268,
        "noteName": "D#3",
        "duration": "158i"
      },
      {
        "time": "9024i",
        "midiNote": 56,
        "velocity": 0.44881889763779526,
        "noteName": "G#3",
        "duration": "171i"
      },
      {
        "time": "9024i",
        "midiNote": 60,
        "velocity": 0.4409448818897638,
        "noteName": "C4",
        "duration": "169i"
      },
      {
        "time": "9024i",
        "midiNote": 63,
        "velocity": 0.4566929133858268,
        "noteName": "D#4",
        "duration": "171i"
      },
      {
        "time": "9216i",
        "midiNote": 47,
        "velocity": 0.5905511811023622,
        "noteName": "B2",
        "duration": "156i"
      },
      {
        "time": "9280i",
        "midiNote": 54,
        "velocity": 0.5354330708661418,
        "noteName": "F#3",
        "duration": "110i"
      },
      {
        "time": "9344i",
        "midiNote": 59,
        "velocity": 0.5196850393700787,
        "noteName": "B3",
        "duration": "45i"
      },
      {
        "time": "9344i",
        "midiNote": 63,
        "velocity": 0.4566929133858268,
        "noteName": "D#4",
        "duration": "57i"
      },
      {
        "time": "9344i",
        "midiNote": 66,
        "velocity": 0.49606299212598426,
        "noteName": "F#4",
        "duration": "49i"
      },
      {
        "time": "9408i",
        "midiNote": 46,
        "velocity": 0.5354330708661418,
        "noteName": "A#2",
        "duration": "254i"
      },
      {
        "time": "9408i",
        "midiNote": 53,
        "velocity": 0.5039370078740157,
        "noteName": "F3",
        "duration": "223i"
      },
      {
        "time": "9536i",
        "midiNote": 58,
        "velocity": 0.5354330708661418,
        "noteName": "A#3",
        "duration": "116i"
      },
      {
        "time": "9536i",
        "midiNote": 61,
        "velocity": 0.5511811023622047,
        "noteName": "C#4",
        "duration": "115i"
      },
      {
        "time": "9728i",
        "midiNote": 41,
        "velocity": 0.47244094488188976,
        "noteName": "F2",
        "duration": "447i"
      },
      {
        "time": "9728i",
        "midiNote": 57,
        "velocity": 0.5511811023622047,
        "noteName": "A3",
        "duration": "279i"
      },
      {
        "time": "9728i",
        "midiNote": 60,
        "velocity": 0.5354330708661418,
        "noteName": "C4",
        "duration": "278i"
      },
      {
        "time": "9728i",
        "midiNote": 66,
        "velocity": 0.6141732283464567,
        "noteName": "F#4",
        "duration": "121i"
      },
      {
        "time": "9856i",
        "midiNote": 65,
        "velocity": 0.48031496062992124,
        "noteName": "F4",
        "duration": "69i"
      },
      {
        "time": "9920i",
        "midiNote": 51,
        "velocity": 0.4566929133858268,
        "noteName": "D#3",
        "duration": "312i"
      },
      {
        "time": "9920i",
        "midiNote": 63,
        "velocity": 0.5354330708661418,
        "noteName": "D#4",
        "duration": "99i"
      },
      {
        "time": "10048i",
        "midiNote": 61,
        "velocity": 0.49606299212598426,
        "noteName": "C#4",
        "duration": "185i"
      },
      {
        "time": "10048i",
        "midiNote": 65,
        "velocity": 0.5354330708661418,
        "noteName": "F4",
        "duration": "180i"
      },
      {
        "time": "10240i",
        "midiNote": 46,
        "velocity": 0.6141732283464567,
        "noteName": "A#2",
        "duration": "449i"
      },
      {
        "time": "10304i",
        "midiNote": 49,
        "velocity": 0.6377952755905512,
        "noteName": "C#3",
        "duration": "385i"
      },
      {
        "time": "10368i",
        "midiNote": 53,
        "velocity": 0.5039370078740157,
        "noteName": "F3",
        "duration": "318i"
      },
      {
        "time": "10432i",
        "midiNote": 58,
        "velocity": 0.48031496062992124,
        "noteName": "A#3",
        "duration": "255i"
      },
      {
        "time": "10432i",
        "midiNote": 61,
        "velocity": 0.44881889763779526,
        "noteName": "C#4",
        "duration": "259i"
      },
      {
        "time": "10752i",
        "midiNote": 42,
        "velocity": 0.6377952755905512,
        "noteName": "F#2",
        "duration": "154i"
      },
      {
        "time": "10816i",
        "midiNote": 49,
        "velocity": 0.5354330708661418,
        "noteName": "C#3",
        "duration": "95i"
      },
      {
        "time": "10880i",
        "midiNote": 56,
        "velocity": 0.49606299212598426,
        "noteName": "G#3",
        "duration": "61i"
      },
      {
        "time": "10880i",
        "midiNote": 58,
        "velocity": 0.5354330708661418,
        "noteName": "A#3",
        "duration": "59i"
      },
      {
        "time": "10880i",
        "midiNote": 61,
        "velocity": 0.5511811023622047,
        "noteName": "C#4",
        "duration": "58i"
      },
      {
        "time": "10944i",
        "midiNote": 44,
        "velocity": 0.6692913385826772,
        "noteName": "G#2",
        "duration": "275i"
      },
      {
        "time": "11072i",
        "midiNote": 51,
        "velocity": 0.5039370078740157,
        "noteName": "D#3",
        "duration": "158i"
      },
      {
        "time": "11072i",
        "midiNote": 56,
        "velocity": 0.49606299212598426,
        "noteName": "G#3",
        "duration": "179i"
      },
      {
        "time": "11072i",
        "midiNote": 58,
        "velocity": 0.49606299212598426,
        "noteName": "A#3",
        "duration": "178i"
      },
      {
        "time": "11072i",
        "midiNote": 63,
        "velocity": 0.49606299212598426,
        "noteName": "D#4",
        "duration": "177i"
      },
      {
        "time": "11264i",
        "midiNote": 46,
        "velocity": 0.5354330708661418,
        "noteName": "A#2",
        "duration": "497i"
      },
      {
        "time": "11328i",
        "midiNote": 49,
        "velocity": 0.5511811023622047,
        "noteName": "C#3",
        "duration": "449i"
      },
      {
        "time": "11392i",
        "midiNote": 53,
        "velocity": 0.4566929133858268,
        "noteName": "F3",
        "duration": "209i"
      },
      {
        "time": "11392i",
        "midiNote": 58,
        "velocity": 0.5039370078740157,
        "noteName": "A#3",
        "duration": "210i"
      },
      {
        "time": "11392i",
        "midiNote": 65,
        "velocity": 0.5354330708661418,
        "noteName": "F4",
        "duration": "209i"
      },
      {
        "time": "11648i",
        "midiNote": 58,
        "velocity": 0.4566929133858268,
        "noteName": "A#3",
        "duration": "107i"
      },
      {
        "time": "11648i",
        "midiNote": 61,
        "velocity": 0.4566929133858268,
        "noteName": "C#4",
        "duration": "109i"
      },
      {
        "time": "11776i",
        "midiNote": 42,
        "velocity": 0.6141732283464567,
        "noteName": "F#2",
        "duration": "208i"
      },
      {
        "time": "11840i",
        "midiNote": 49,
        "velocity": 0.6141732283464567,
        "noteName": "C#3",
        "duration": "155i"
      },
      {
        "time": "11904i",
        "midiNote": 54,
        "velocity": 0.44881889763779526,
        "noteName": "F#3",
        "duration": "99i"
      },
      {
        "time": "11904i",
        "midiNote": 58,
        "velocity": 0.48031496062992124,
        "noteName": "A#3",
        "duration": "103i"
      },
      {
        "time": "11904i",
        "midiNote": 61,
        "velocity": 0.49606299212598426,
        "noteName": "C#4",
        "duration": "101i"
      },
      {
        "time": "12032i",
        "midiNote": 44,
        "velocity": 0.5669291338582677,
        "noteName": "G#2",
        "duration": "192i"
      },
      {
        "time": "12096i",
        "midiNote": 51,
        "velocity": 0.48031496062992124,
        "noteName": "D#3",
        "duration": "121i"
      },
      {
        "time": "12096i",
        "midiNote": 56,
        "velocity": 0.48031496062992124,
        "noteName": "G#3",
        "duration": "174i"
      },
      {
        "time": "12096i",
        "midiNote": 58,
        "velocity": 0.5039370078740157,
        "noteName": "A#3",
        "duration": "179i"
      },
      {
        "time": "12096i",
        "midiNote": 63,
        "velocity": 0.5354330708661418,
        "noteName": "D#4",
        "duration": "181i"
      },
      {
        "time": "12288i",
        "midiNote": 41,
        "velocity": 0.5669291338582677,
        "noteName": "F2",
        "duration": "141i"
      },
      {
        "time": "12352i",
        "midiNote": 48,
        "velocity": 0.5196850393700787,
        "noteName": "C3",
        "duration": "92i"
      },
      {
        "time": "12416i",
        "midiNote": 56,
        "velocity": 0.49606299212598426,
        "noteName": "G#3",
        "duration": "52i"
      },
      {
        "time": "12416i",
        "midiNote": 60,
        "velocity": 0.5039370078740157,
        "noteName": "C4",
        "duration": "42i"
      },
      {
        "time": "12416i",
        "midiNote": 68,
        "velocity": 0.5039370078740157,
        "noteName": "G#4",
        "duration": "57i"
      },
      {
        "time": "12480i",
        "midiNote": 42,
        "velocity": 0.5669291338582677,
        "noteName": "F#2",
        "duration": "298i"
      },
      {
        "time": "12480i",
        "midiNote": 56,
        "velocity": 0.4251968503937008,
        "noteName": "G#3",
        "duration": "302i"
      },
      {
        "time": "12480i",
        "midiNote": 58,
        "velocity": 0.48031496062992124,
        "noteName": "A#3",
        "duration": "301i"
      },
      {
        "time": "12480i",
        "midiNote": 61,
        "velocity": 0.4566929133858268,
        "noteName": "C#4",
        "duration": "301i"
      },
      {
        "time": "12800i",
        "midiNote": 49,
        "velocity": 0.5511811023622047,
        "noteName": "C#3",
        "duration": "41i"
      },
      {
        "time": "12800i",
        "midiNote": 54,
        "velocity": 0.5039370078740157,
        "noteName": "F#3",
        "duration": "39i"
      },
      {
        "time": "12864i",
        "midiNote": 49,
        "velocity": 0.5354330708661418,
        "noteName": "C#3",
        "duration": "81i"
      },
      {
        "time": "12864i",
        "midiNote": 54,
        "velocity": 0.5511811023622047,
        "noteName": "F#3",
        "duration": "75i"
      },
      {
        "time": "12928i",
        "midiNote": 58,
        "velocity": 0.5511811023622047,
        "noteName": "A#3",
        "duration": "63i"
      },
      {
        "time": "12928i",
        "midiNote": 61,
        "velocity": 0.5511811023622047,
        "noteName": "C#4",
        "duration": "65i"
      },
      {
        "time": "12992i",
        "midiNote": 44,
        "velocity": 0.6141732283464567,
        "noteName": "G#2",
        "duration": "277i"
      },
      {
        "time": "12992i",
        "midiNote": 51,
        "velocity": 0.5669291338582677,
        "noteName": "D#3",
        "duration": "289i"
      },
      {
        "time": "13120i",
        "midiNote": 56,
        "velocity": 0.5354330708661418,
        "noteName": "G#3",
        "duration": "182i"
      },
      {
        "time": "13120i",
        "midiNote": 60,
        "velocity": 0.5196850393700787,
        "noteName": "C4",
        "duration": "187i"
      },
      {
        "time": "13120i",
        "midiNote": 63,
        "velocity": 0.5354330708661418,
        "noteName": "D#4",
        "duration": "190i"
      },
      {
        "time": "13312i",
        "midiNote": 48,
        "velocity": 0.6141732283464567,
        "noteName": "C3",
        "duration": "137i"
      },
      {
        "time": "13440i",
        "midiNote": 56,
        "velocity": 0.6141732283464567,
        "noteName": "G#3",
        "duration": "60i"
      },
      {
        "time": "13440i",
        "midiNote": 60,
        "velocity": 0.5354330708661418,
        "noteName": "C4",
        "duration": "62i"
      },
      {
        "time": "13440i",
        "midiNote": 63,
        "velocity": 0.5669291338582677,
        "noteName": "D#4",
        "duration": "64i"
      },
      {
        "time": "13440i",
        "midiNote": 68,
        "velocity": 0.5669291338582677,
        "noteName": "G#4",
        "duration": "65i"
      },
      {
        "time": "13504i",
        "midiNote": 49,
        "velocity": 0.5669291338582677,
        "noteName": "C#3",
        "duration": "288i"
      },
      {
        "time": "13504i",
        "midiNote": 53,
        "velocity": 0.5669291338582677,
        "noteName": "F3",
        "duration": "286i"
      },
      {
        "time": "13632i",
        "midiNote": 56,
        "velocity": 0.5669291338582677,
        "noteName": "G#3",
        "duration": "183i"
      },
      {
        "time": "13632i",
        "midiNote": 61,
        "velocity": 0.5669291338582677,
        "noteName": "C#4",
        "duration": "184i"
      },
      {
        "time": "13632i",
        "midiNote": 68,
        "velocity": 0.5669291338582677,
        "noteName": "G#4",
        "duration": "186i"
      },
      {
        "time": "13824i",
        "midiNote": 47,
        "velocity": 0.5511811023622047,
        "noteName": "B2",
        "duration": "429i"
      },
      {
        "time": "13824i",
        "midiNote": 51,
        "velocity": 0.6141732283464567,
        "noteName": "D#3",
        "duration": "435i"
      },
      {
        "time": "13888i",
        "midiNote": 54,
        "velocity": 0.5511811023622047,
        "noteName": "F#3",
        "duration": "233i"
      },
      {
        "time": "13952i",
        "midiNote": 63,
        "velocity": 0.5511811023622047,
        "noteName": "D#4",
        "duration": "73i"
      },
      {
        "time": "14016i",
        "midiNote": 61,
        "velocity": 0.5511811023622047,
        "noteName": "C#4",
        "duration": "109i"
      },
      {
        "time": "14144i",
        "midiNote": 54,
        "velocity": 0.49606299212598426,
        "noteName": "F#3",
        "duration": "184i"
      },
      {
        "time": "14144i",
        "midiNote": 63,
        "velocity": 0.5354330708661418,
        "noteName": "D#4",
        "duration": "195i"
      },
      {
        "time": "14336i",
        "midiNote": 44,
        "velocity": 0.6692913385826772,
        "noteName": "G#2",
        "duration": "455i"
      },
      {
        "time": "14400i",
        "midiNote": 51,
        "velocity": 0.6141732283464567,
        "noteName": "D#3",
        "duration": "390i"
      },
      {
        "time": "14464i",
        "midiNote": 54,
        "velocity": 0.5511811023622047,
        "noteName": "F#3",
        "duration": "325i"
      },
      {
        "time": "14528i",
        "midiNote": 58,
        "velocity": 0.5511811023622047,
        "noteName": "A#3",
        "duration": "262i"
      },
      {
        "time": "14528i",
        "midiNote": 63,
        "velocity": 0.5039370078740157,
        "noteName": "D#4",
        "duration": "265i"
      },
      {
        "time": "14848i",
        "midiNote": 42,
        "velocity": 0.6692913385826772,
        "noteName": "F#2",
        "duration": "159i"
      },
      {
        "time": "14912i",
        "midiNote": 49,
        "velocity": 0.6141732283464567,
        "noteName": "C#3",
        "duration": "100i"
      },
      {
        "time": "14976i",
        "midiNote": 56,
        "velocity": 0.48031496062992124,
        "noteName": "G#3",
        "duration": "64i"
      },
      {
        "time": "14976i",
        "midiNote": 58,
        "velocity": 0.49606299212598426,
        "noteName": "A#3",
        "duration": "63i"
      },
      {
        "time": "14976i",
        "midiNote": 61,
        "velocity": 0.5039370078740157,
        "noteName": "C#4",
        "duration": "63i"
      },
      {
        "time": "15040i",
        "midiNote": 44,
        "velocity": 0.6377952755905512,
        "noteName": "G#2",
        "duration": "292i"
      },
      {
        "time": "15168i",
        "midiNote": 51,
        "velocity": 0.49606299212598426,
        "noteName": "D#3",
        "duration": "171i"
      },
      {
        "time": "15168i",
        "midiNote": 56,
        "velocity": 0.48031496062992124,
        "noteName": "G#3",
        "duration": "183i"
      },
      {
        "time": "15168i",
        "midiNote": 60,
        "velocity": 0.4566929133858268,
        "noteName": "C4",
        "duration": "183i"
      },
      {
        "time": "15168i",
        "midiNote": 63,
        "velocity": 0.49606299212598426,
        "noteName": "D#4",
        "duration": "182i"
      },
      {
        "time": "15360i",
        "midiNote": 46,
        "velocity": 0.5511811023622047,
        "noteName": "A#2",
        "duration": "479i"
      },
      {
        "time": "15424i",
        "midiNote": 53,
        "velocity": 0.5196850393700787,
        "noteName": "F3",
        "duration": "428i"
      },
      {
        "time": "15488i",
        "midiNote": 58,
        "velocity": 0.5354330708661418,
        "noteName": "A#3",
        "duration": "369i"
      },
      {
        "time": "15872i",
        "midiNote": 42,
        "velocity": 0.6377952755905512,
        "noteName": "F#2",
        "duration": "210i"
      },
      {
        "time": "15936i",
        "midiNote": 49,
        "velocity": 0.6141732283464567,
        "noteName": "C#3",
        "duration": "158i"
      },
      {
        "time": "16000i",
        "midiNote": 54,
        "velocity": 0.5039370078740157,
        "noteName": "F#3",
        "duration": "107i"
      },
      {
        "time": "16000i",
        "midiNote": 58,
        "velocity": 0.5039370078740157,
        "noteName": "A#3",
        "duration": "107i"
      },
      {
        "time": "16000i",
        "midiNote": 66,
        "velocity": 0.5669291338582677,
        "noteName": "F#4",
        "duration": "109i"
      },
      {
        "time": "16128i",
        "midiNote": 44,
        "velocity": 0.6377952755905512,
        "noteName": "G#2",
        "duration": "157i"
      },
      {
        "time": "16192i",
        "midiNote": 51,
        "velocity": 0.5511811023622047,
        "noteName": "D#3",
        "duration": "98i"
      },
      {
        "time": "16192i",
        "midiNote": 58,
        "velocity": 0.49606299212598426,
        "noteName": "A#3",
        "duration": "189i"
      },
      {
        "time": "16192i",
        "midiNote": 60,
        "velocity": 0.48031496062992124,
        "noteName": "C4",
        "duration": "191i"
      },
      {
        "time": "16192i",
        "midiNote": 63,
        "velocity": 0.5039370078740157,
        "noteName": "D#4",
        "duration": "195i"
      },
      {
        "time": "16384i",
        "midiNote": 41,
        "velocity": 0.6141732283464567,
        "noteName": "F2",
        "duration": "138i"
      },
      {
        "time": "16448i",
        "midiNote": 48,
        "velocity": 0.5196850393700787,
        "noteName": "C3",
        "duration": "77i"
      },
      {
        "time": "16512i",
        "midiNote": 53,
        "velocity": 0.5511811023622047,
        "noteName": "F3",
        "duration": "57i"
      },
      {
        "time": "16512i",
        "midiNote": 56,
        "velocity": 0.5354330708661418,
        "noteName": "G#3",
        "duration": "61i"
      },
      {
        "time": "16512i",
        "midiNote": 60,
        "velocity": 0.5196850393700787,
        "noteName": "C4",
        "duration": "59i"
      },
      {
        "time": "16512i",
        "midiNote": 68,
        "velocity": 0.5511811023622047,
        "noteName": "G#4",
        "duration": "63i"
      },
      {
        "time": "16576i",
        "midiNote": 42,
        "velocity": 0.6692913385826772,
        "noteName": "F#2",
        "duration": "295i"
      },
      {
        "time": "16704i",
        "midiNote": 49,
        "velocity": 0.5669291338582677,
        "noteName": "C#3",
        "duration": "180i"
      },
      {
        "time": "16704i",
        "midiNote": 56,
        "velocity": 0.4409448818897638,
        "noteName": "G#3",
        "duration": "181i"
      },
      {
        "time": "16704i",
        "midiNote": 58,
        "velocity": 0.4566929133858268,
        "noteName": "A#3",
        "duration": "184i"
      },
      {
        "time": "16704i",
        "midiNote": 61,
        "velocity": 0.49606299212598426,
        "noteName": "C#4",
        "duration": "184i"
      },
      {
        "time": "16896i",
        "midiNote": 42,
        "velocity": 0.6377952755905512,
        "noteName": "F#2",
        "duration": "229i"
      },
      {
        "time": "16960i",
        "midiNote": 49,
        "velocity": 0.5039370078740157,
        "noteName": "C#3",
        "duration": "161i"
      },
      {
        "time": "17024i",
        "midiNote": 54,
        "velocity": 0.3937007874015748,
        "noteName": "F#3",
        "duration": "84i"
      },
      {
        "time": "17024i",
        "midiNote": 56,
        "velocity": 0.4251968503937008,
        "noteName": "G#3",
        "duration": "95i"
      },
      {
        "time": "17024i",
        "midiNote": 58,
        "velocity": 0.44881889763779526,
        "noteName": "A#3",
        "duration": "96i"
      },
      {
        "time": "17024i",
        "midiNote": 61,
        "velocity": 0.4566929133858268,
        "noteName": "C#4",
        "duration": "94i"
      },
      {
        "time": "17152i",
        "midiNote": 44,
        "velocity": 0.6692913385826772,
        "noteName": "G#2",
        "duration": "191i"
      },
      {
        "time": "17216i",
        "midiNote": 51,
        "velocity": 0.5039370078740157,
        "noteName": "D#3",
        "duration": "120i"
      },
      {
        "time": "17280i",
        "midiNote": 58,
        "velocity": 0.44881889763779526,
        "noteName": "A#3",
        "duration": "55i"
      },
      {
        "time": "17280i",
        "midiNote": 60,
        "velocity": 0.47244094488188976,
        "noteName": "C4",
        "duration": "55i"
      },
      {
        "time": "17280i",
        "midiNote": 63,
        "velocity": 0.4566929133858268,
        "noteName": "D#4",
        "duration": "57i"
      },
      {
        "time": "17408i",
        "midiNote": 46,
        "velocity": 0.5669291338582677,
        "noteName": "A#2",
        "duration": "146i"
      },
      {
        "time": "17536i",
        "midiNote": 53,
        "velocity": 0.5039370078740157,
        "noteName": "F3",
        "duration": "159i"
      },
      {
        "time": "17536i",
        "midiNote": 58,
        "velocity": 0.5039370078740157,
        "noteName": "A#3",
        "duration": "165i"
      },
      {
        "time": "17536i",
        "midiNote": 61,
        "velocity": 0.5039370078740157,
        "noteName": "C#4",
        "duration": "167i"
      },
      {
        "time": "17600i",
        "midiNote": 46,
        "velocity": 0.5511811023622047,
        "noteName": "A#2",
        "duration": "225i"
      },
      {
        "time": "17728i",
        "midiNote": 53,
        "velocity": 0.47244094488188976,
        "noteName": "F3",
        "duration": "161i"
      },
      {
        "time": "17728i",
        "midiNote": 56,
        "velocity": 0.5669291338582677,
        "noteName": "G#3",
        "duration": "163i"
      },
      {
        "time": "17728i",
        "midiNote": 61,
        "velocity": 0.5354330708661418,
        "noteName": "C#4",
        "duration": "165i"
      },
      {
        "time": "17856i",
        "midiNote": 46,
        "velocity": 0.5433070866141733,
        "noteName": "A#2",
        "duration": "49i"
      },
      {
        "time": "18944i",
        "midiNote": 42,
        "velocity": 0.6377952755905512,
        "noteName": "F#2",
        "duration": "154i"
      },
      {
        "time": "19008i",
        "midiNote": 49,
        "velocity": 0.5354330708661418,
        "noteName": "C#3",
        "duration": "95i"
      },
      {
        "time": "19072i",
        "midiNote": 56,
        "velocity": 0.49606299212598426,
        "noteName": "G#3",
        "duration": "61i"
      },
      {
        "time": "19072i",
        "midiNote": 58,
        "velocity": 0.5354330708661418,
        "noteName": "A#3",
        "duration": "59i"
      },
      {
        "time": "19072i",
        "midiNote": 61,
        "velocity": 0.5511811023622047,
        "noteName": "C#4",
        "duration": "58i"
      },
      {
        "time": "19136i",
        "midiNote": 44,
        "velocity": 0.6692913385826772,
        "noteName": "G#2",
        "duration": "275i"
      },
      {
        "time": "19264i",
        "midiNote": 51,
        "velocity": 0.5039370078740157,
        "noteName": "D#3",
        "duration": "158i"
      },
      {
        "time": "19264i",
        "midiNote": 56,
        "velocity": 0.49606299212598426,
        "noteName": "G#3",
        "duration": "179i"
      },
      {
        "time": "19264i",
        "midiNote": 58,
        "velocity": 0.49606299212598426,
        "noteName": "A#3",
        "duration": "178i"
      },
      {
        "time": "19264i",
        "midiNote": 63,
        "velocity": 0.49606299212598426,
        "noteName": "D#4",
        "duration": "177i"
      },
      {
        "time": "19456i",
        "midiNote": 46,
        "velocity": 0.5354330708661418,
        "noteName": "A#2",
        "duration": "497i"
      },
      {
        "time": "19520i",
        "midiNote": 49,
        "velocity": 0.5511811023622047,
        "noteName": "C#3",
        "duration": "449i"
      },
      {
        "time": "19584i",
        "midiNote": 53,
        "velocity": 0.4566929133858268,
        "noteName": "F3",
        "duration": "209i"
      },
      {
        "time": "19584i",
        "midiNote": 58,
        "velocity": 0.5039370078740157,
        "noteName": "A#3",
        "duration": "210i"
      },
      {
        "time": "19584i",
        "midiNote": 65,
        "velocity": 0.5354330708661418,
        "noteName": "F4",
        "duration": "209i"
      },
      {
        "time": "19840i",
        "midiNote": 58,
        "velocity": 0.4566929133858268,
        "noteName": "A#3",
        "duration": "107i"
      },
      {
        "time": "19840i",
        "midiNote": 61,
        "velocity": 0.4566929133858268,
        "noteName": "C#4",
        "duration": "109i"
      },
      {
        "time": "19968i",
        "midiNote": 42,
        "velocity": 0.6141732283464567,
        "noteName": "F#2",
        "duration": "208i"
      },
      {
        "time": "20032i",
        "midiNote": 49,
        "velocity": 0.6141732283464567,
        "noteName": "C#3",
        "duration": "155i"
      },
      {
        "time": "20096i",
        "midiNote": 54,
        "velocity": 0.44881889763779526,
        "noteName": "F#3",
        "duration": "99i"
      },
      {
        "time": "20096i",
        "midiNote": 58,
        "velocity": 0.48031496062992124,
        "noteName": "A#3",
        "duration": "103i"
      },
      {
        "time": "20096i",
        "midiNote": 61,
        "velocity": 0.49606299212598426,
        "noteName": "C#4",
        "duration": "101i"
      },
      {
        "time": "20224i",
        "midiNote": 44,
        "velocity": 0.5669291338582677,
        "noteName": "G#2",
        "duration": "192i"
      },
      {
        "time": "20288i",
        "midiNote": 51,
        "velocity": 0.48031496062992124,
        "noteName": "D#3",
        "duration": "121i"
      },
      {
        "time": "20288i",
        "midiNote": 56,
        "velocity": 0.48031496062992124,
        "noteName": "G#3",
        "duration": "174i"
      },
      {
        "time": "20288i",
        "midiNote": 58,
        "velocity": 0.5039370078740157,
        "noteName": "A#3",
        "duration": "179i"
      },
      {
        "time": "20288i",
        "midiNote": 63,
        "velocity": 0.5354330708661418,
        "noteName": "D#4",
        "duration": "181i"
      },
      {
        "time": "20480i",
        "midiNote": 41,
        "velocity": 0.5669291338582677,
        "noteName": "F2",
        "duration": "141i"
      },
      {
        "time": "20544i",
        "midiNote": 48,
        "velocity": 0.5196850393700787,
        "noteName": "C3",
        "duration": "92i"
      },
      {
        "time": "20608i",
        "midiNote": 56,
        "velocity": 0.49606299212598426,
        "noteName": "G#3",
        "duration": "52i"
      },
      {
        "time": "20608i",
        "midiNote": 60,
        "velocity": 0.5039370078740157,
        "noteName": "C4",
        "duration": "42i"
      },
      {
        "time": "20608i",
        "midiNote": 68,
        "velocity": 0.5039370078740157,
        "noteName": "G#4",
        "duration": "57i"
      },
      {
        "time": "20672i",
        "midiNote": 42,
        "velocity": 0.5669291338582677,
        "noteName": "F#2",
        "duration": "298i"
      },
      {
        "time": "20672i",
        "midiNote": 56,
        "velocity": 0.4251968503937008,
        "noteName": "G#3",
        "duration": "302i"
      },
      {
        "time": "20672i",
        "midiNote": 58,
        "velocity": 0.48031496062992124,
        "noteName": "A#3",
        "duration": "301i"
      },
      {
        "time": "20672i",
        "midiNote": 61,
        "velocity": 0.4566929133858268,
        "noteName": "C#4",
        "duration": "301i"
      },
      {
        "time": "20992i",
        "midiNote": 42,
        "velocity": 0.6692913385826772,
        "noteName": "F#2",
        "duration": "154i"
      },
      {
        "time": "21056i",
        "midiNote": 49,
        "velocity": 0.44881889763779526,
        "noteName": "C#3",
        "duration": "101i"
      },
      {
        "time": "21120i",
        "midiNote": 56,
        "velocity": 0.49606299212598426,
        "noteName": "G#3",
        "duration": "62i"
      },
      {
        "time": "21120i",
        "midiNote": 58,
        "velocity": 0.49606299212598426,
        "noteName": "A#3",
        "duration": "64i"
      },
      {
        "time": "21120i",
        "midiNote": 61,
        "velocity": 0.5354330708661418,
        "noteName": "C#4",
        "duration": "63i"
      },
      {
        "time": "21184i",
        "midiNote": 44,
        "velocity": 0.6141732283464567,
        "noteName": "G#2",
        "duration": "278i"
      },
      {
        "time": "21312i",
        "midiNote": 51,
        "velocity": 0.4566929133858268,
        "noteName": "D#3",
        "duration": "158i"
      },
      {
        "time": "21312i",
        "midiNote": 56,
        "velocity": 0.44881889763779526,
        "noteName": "G#3",
        "duration": "171i"
      },
      {
        "time": "21312i",
        "midiNote": 60,
        "velocity": 0.4409448818897638,
        "noteName": "C4",
        "duration": "169i"
      },
      {
        "time": "21312i",
        "midiNote": 63,
        "velocity": 0.4566929133858268,
        "noteName": "D#4",
        "duration": "171i"
      },
      {
        "time": "21504i",
        "midiNote": 47,
        "velocity": 0.5905511811023622,
        "noteName": "B2",
        "duration": "156i"
      },
      {
        "time": "21568i",
        "midiNote": 54,
        "velocity": 0.5354330708661418,
        "noteName": "F#3",
        "duration": "110i"
      },
      {
        "time": "21632i",
        "midiNote": 59,
        "velocity": 0.5196850393700787,
        "noteName": "B3",
        "duration": "45i"
      },
      {
        "time": "21632i",
        "midiNote": 63,
        "velocity": 0.4566929133858268,
        "noteName": "D#4",
        "duration": "57i"
      },
      {
        "time": "21632i",
        "midiNote": 66,
        "velocity": 0.49606299212598426,
        "noteName": "F#4",
        "duration": "49i"
      },
      {
        "time": "21696i",
        "midiNote": 46,
        "velocity": 0.5354330708661418,
        "noteName": "A#2",
        "duration": "254i"
      },
      {
        "time": "21696i",
        "midiNote": 53,
        "velocity": 0.5039370078740157,
        "noteName": "F3",
        "duration": "223i"
      },
      {
        "time": "21824i",
        "midiNote": 58,
        "velocity": 0.5354330708661418,
        "noteName": "A#3",
        "duration": "116i"
      },
      {
        "time": "21824i",
        "midiNote": 61,
        "velocity": 0.5511811023622047,
        "noteName": "C#4",
        "duration": "115i"
      },
      {
        "time": "22016i",
        "midiNote": 41,
        "velocity": 0.47244094488188976,
        "noteName": "F2",
        "duration": "447i"
      },
      {
        "time": "22016i",
        "midiNote": 57,
        "velocity": 0.5511811023622047,
        "noteName": "A3",
        "duration": "279i"
      },
      {
        "time": "22016i",
        "midiNote": 60,
        "velocity": 0.5354330708661418,
        "noteName": "C4",
        "duration": "278i"
      },
      {
        "time": "22016i",
        "midiNote": 66,
        "velocity": 0.6141732283464567,
        "noteName": "F#4",
        "duration": "121i"
      },
      {
        "time": "22144i",
        "midiNote": 65,
        "velocity": 0.48031496062992124,
        "noteName": "F4",
        "duration": "69i"
      },
      {
        "time": "22208i",
        "midiNote": 51,
        "velocity": 0.4566929133858268,
        "noteName": "D#3",
        "duration": "312i"
      },
      {
        "time": "22208i",
        "midiNote": 63,
        "velocity": 0.5354330708661418,
        "noteName": "D#4",
        "duration": "99i"
      },
      {
        "time": "22336i",
        "midiNote": 61,
        "velocity": 0.49606299212598426,
        "noteName": "C#4",
        "duration": "185i"
      },
      {
        "time": "22336i",
        "midiNote": 65,
        "velocity": 0.5354330708661418,
        "noteName": "F4",
        "duration": "180i"
      },
      {
        "time": "22528i",
        "midiNote": 46,
        "velocity": 0.6141732283464567,
        "noteName": "A#2",
        "duration": "449i"
      },
      {
        "time": "22592i",
        "midiNote": 49,
        "velocity": 0.6377952755905512,
        "noteName": "C#3",
        "duration": "385i"
      },
      {
        "time": "22656i",
        "midiNote": 53,
        "velocity": 0.5039370078740157,
        "noteName": "F3",
        "duration": "318i"
      },
      {
        "time": "22720i",
        "midiNote": 58,
        "velocity": 0.48031496062992124,
        "noteName": "A#3",
        "duration": "255i"
      },
      {
        "time": "22720i",
        "midiNote": 61,
        "velocity": 0.44881889763779526,
        "noteName": "C#4",
        "duration": "259i"
      },
      {
        "time": "23040i",
        "midiNote": 42,
        "velocity": 0.6377952755905512,
        "noteName": "F#2",
        "duration": "154i"
      },
      {
        "time": "23104i",
        "midiNote": 49,
        "velocity": 0.5354330708661418,
        "noteName": "C#3",
        "duration": "95i"
      },
      {
        "time": "23168i",
        "midiNote": 56,
        "velocity": 0.49606299212598426,
        "noteName": "G#3",
        "duration": "61i"
      },
      {
        "time": "23168i",
        "midiNote": 58,
        "velocity": 0.5354330708661418,
        "noteName": "A#3",
        "duration": "59i"
      },
      {
        "time": "23168i",
        "midiNote": 61,
        "velocity": 0.5511811023622047,
        "noteName": "C#4",
        "duration": "58i"
      },
      {
        "time": "23232i",
        "midiNote": 44,
        "velocity": 0.6692913385826772,
        "noteName": "G#2",
        "duration": "275i"
      },
      {
        "time": "23360i",
        "midiNote": 51,
        "velocity": 0.5039370078740157,
        "noteName": "D#3",
        "duration": "158i"
      },
      {
        "time": "23360i",
        "midiNote": 56,
        "velocity": 0.49606299212598426,
        "noteName": "G#3",
        "duration": "179i"
      },
      {
        "time": "23360i",
        "midiNote": 58,
        "velocity": 0.49606299212598426,
        "noteName": "A#3",
        "duration": "178i"
      },
      {
        "time": "23360i",
        "midiNote": 63,
        "velocity": 0.49606299212598426,
        "noteName": "D#4",
        "duration": "177i"
      },
      {
        "time": "23552i",
        "midiNote": 46,
        "velocity": 0.5354330708661418,
        "noteName": "A#2",
        "duration": "497i"
      },
      {
        "time": "23616i",
        "midiNote": 49,
        "velocity": 0.5511811023622047,
        "noteName": "C#3",
        "duration": "449i"
      },
      {
        "time": "23680i",
        "midiNote": 53,
        "velocity": 0.4566929133858268,
        "noteName": "F3",
        "duration": "209i"
      },
      {
        "time": "23680i",
        "midiNote": 58,
        "velocity": 0.5039370078740157,
        "noteName": "A#3",
        "duration": "210i"
      },
      {
        "time": "23680i",
        "midiNote": 65,
        "velocity": 0.5354330708661418,
        "noteName": "F4",
        "duration": "209i"
      },
      {
        "time": "23936i",
        "midiNote": 58,
        "velocity": 0.4566929133858268,
        "noteName": "A#3",
        "duration": "107i"
      },
      {
        "time": "23936i",
        "midiNote": 61,
        "velocity": 0.4566929133858268,
        "noteName": "C#4",
        "duration": "109i"
      },
      {
        "time": "24064i",
        "midiNote": 42,
        "velocity": 0.6141732283464567,
        "noteName": "F#2",
        "duration": "208i"
      },
      {
        "time": "24128i",
        "midiNote": 49,
        "velocity": 0.6141732283464567,
        "noteName": "C#3",
        "duration": "155i"
      },
      {
        "time": "24192i",
        "midiNote": 54,
        "velocity": 0.44881889763779526,
        "noteName": "F#3",
        "duration": "99i"
      },
      {
        "time": "24192i",
        "midiNote": 58,
        "velocity": 0.48031496062992124,
        "noteName": "A#3",
        "duration": "103i"
      },
      {
        "time": "24192i",
        "midiNote": 61,
        "velocity": 0.49606299212598426,
        "noteName": "C#4",
        "duration": "101i"
      },
      {
        "time": "24320i",
        "midiNote": 44,
        "velocity": 0.5669291338582677,
        "noteName": "G#2",
        "duration": "192i"
      },
      {
        "time": "24384i",
        "midiNote": 51,
        "velocity": 0.48031496062992124,
        "noteName": "D#3",
        "duration": "121i"
      },
      {
        "time": "24384i",
        "midiNote": 56,
        "velocity": 0.48031496062992124,
        "noteName": "G#3",
        "duration": "174i"
      },
      {
        "time": "24384i",
        "midiNote": 58,
        "velocity": 0.5039370078740157,
        "noteName": "A#3",
        "duration": "179i"
      },
      {
        "time": "24384i",
        "midiNote": 63,
        "velocity": 0.5354330708661418,
        "noteName": "D#4",
        "duration": "181i"
      },
      {
        "time": "24576i",
        "midiNote": 41,
        "velocity": 0.5669291338582677,
        "noteName": "F2",
        "duration": "141i"
      },
      {
        "time": "24640i",
        "midiNote": 48,
        "velocity": 0.5196850393700787,
        "noteName": "C3",
        "duration": "92i"
      },
      {
        "time": "24704i",
        "midiNote": 56,
        "velocity": 0.49606299212598426,
        "noteName": "G#3",
        "duration": "52i"
      },
      {
        "time": "24704i",
        "midiNote": 60,
        "velocity": 0.5039370078740157,
        "noteName": "C4",
        "duration": "42i"
      },
      {
        "time": "24704i",
        "midiNote": 68,
        "velocity": 0.5039370078740157,
        "noteName": "G#4",
        "duration": "57i"
      },
      {
        "time": "24768i",
        "midiNote": 42,
        "velocity": 0.5669291338582677,
        "noteName": "F#2",
        "duration": "298i"
      },
      {
        "time": "24768i",
        "midiNote": 56,
        "velocity": 0.4251968503937008,
        "noteName": "G#3",
        "duration": "302i"
      },
      {
        "time": "24768i",
        "midiNote": 58,
        "velocity": 0.48031496062992124,
        "noteName": "A#3",
        "duration": "301i"
      },
      {
        "time": "24768i",
        "midiNote": 61,
        "velocity": 0.4566929133858268,
        "noteName": "C#4",
        "duration": "301i"
      },
      {
        "time": "25088i",
        "midiNote": 49,
        "velocity": 0.5511811023622047,
        "noteName": "C#3",
        "duration": "41i"
      },
      {
        "time": "25088i",
        "midiNote": 54,
        "velocity": 0.5039370078740157,
        "noteName": "F#3",
        "duration": "39i"
      },
      {
        "time": "25152i",
        "midiNote": 49,
        "velocity": 0.5354330708661418,
        "noteName": "C#3",
        "duration": "81i"
      },
      {
        "time": "25152i",
        "midiNote": 54,
        "velocity": 0.5511811023622047,
        "noteName": "F#3",
        "duration": "75i"
      },
      {
        "time": "25216i",
        "midiNote": 58,
        "velocity": 0.5511811023622047,
        "noteName": "A#3",
        "duration": "63i"
      },
      {
        "time": "25216i",
        "midiNote": 61,
        "velocity": 0.5511811023622047,
        "noteName": "C#4",
        "duration": "65i"
      },
      {
        "time": "25280i",
        "midiNote": 44,
        "velocity": 0.6141732283464567,
        "noteName": "G#2",
        "duration": "277i"
      },
      {
        "time": "25280i",
        "midiNote": 51,
        "velocity": 0.5669291338582677,
        "noteName": "D#3",
        "duration": "289i"
      },
      {
        "time": "25408i",
        "midiNote": 56,
        "velocity": 0.5354330708661418,
        "noteName": "G#3",
        "duration": "182i"
      },
      {
        "time": "25408i",
        "midiNote": 60,
        "velocity": 0.5196850393700787,
        "noteName": "C4",
        "duration": "187i"
      },
      {
        "time": "25408i",
        "midiNote": 63,
        "velocity": 0.5354330708661418,
        "noteName": "D#4",
        "duration": "190i"
      },
      {
        "time": "25600i",
        "midiNote": 48,
        "velocity": 0.6141732283464567,
        "noteName": "C3",
        "duration": "137i"
      },
      {
        "time": "25728i",
        "midiNote": 56,
        "velocity": 0.6141732283464567,
        "noteName": "G#3",
        "duration": "60i"
      },
      {
        "time": "25728i",
        "midiNote": 60,
        "velocity": 0.5354330708661418,
        "noteName": "C4",
        "duration": "62i"
      },
      {
        "time": "25728i",
        "midiNote": 63,
        "velocity": 0.5669291338582677,
        "noteName": "D#4",
        "duration": "64i"
      },
      {
        "time": "25728i",
        "midiNote": 68,
        "velocity": 0.5669291338582677,
        "noteName": "G#4",
        "duration": "65i"
      },
      {
        "time": "25792i",
        "midiNote": 49,
        "velocity": 0.5669291338582677,
        "noteName": "C#3",
        "duration": "288i"
      },
      {
        "time": "25792i",
        "midiNote": 53,
        "velocity": 0.5669291338582677,
        "noteName": "F3",
        "duration": "286i"
      },
      {
        "time": "25920i",
        "midiNote": 56,
        "velocity": 0.5669291338582677,
        "noteName": "G#3",
        "duration": "183i"
      },
      {
        "time": "25920i",
        "midiNote": 61,
        "velocity": 0.5669291338582677,
        "noteName": "C#4",
        "duration": "184i"
      },
      {
        "time": "25920i",
        "midiNote": 68,
        "velocity": 0.5669291338582677,
        "noteName": "G#4",
        "duration": "186i"
      },
      {
        "time": "26112i",
        "midiNote": 47,
        "velocity": 0.5511811023622047,
        "noteName": "B2",
        "duration": "429i"
      },
      {
        "time": "26112i",
        "midiNote": 51,
        "velocity": 0.6141732283464567,
        "noteName": "D#3",
        "duration": "435i"
      },
      {
        "time": "26176i",
        "midiNote": 54,
        "velocity": 0.5511811023622047,
        "noteName": "F#3",
        "duration": "233i"
      },
      {
        "time": "26240i",
        "midiNote": 63,
        "velocity": 0.5511811023622047,
        "noteName": "D#4",
        "duration": "73i"
      },
      {
        "time": "26304i",
        "midiNote": 61,
        "velocity": 0.5511811023622047,
        "noteName": "C#4",
        "duration": "109i"
      },
      {
        "time": "26432i",
        "midiNote": 54,
        "velocity": 0.49606299212598426,
        "noteName": "F#3",
        "duration": "184i"
      },
      {
        "time": "26432i",
        "midiNote": 63,
        "velocity": 0.5354330708661418,
        "noteName": "D#4",
        "duration": "195i"
      },
      {
        "time": "26624i",
        "midiNote": 44,
        "velocity": 0.6692913385826772,
        "noteName": "G#2",
        "duration": "455i"
      },
      {
        "time": "26688i",
        "midiNote": 51,
        "velocity": 0.6141732283464567,
        "noteName": "D#3",
        "duration": "390i"
      },
      {
        "time": "26752i",
        "midiNote": 54,
        "velocity": 0.5511811023622047,
        "noteName": "F#3",
        "duration": "325i"
      },
      {
        "time": "26816i",
        "midiNote": 58,
        "velocity": 0.5511811023622047,
        "noteName": "A#3",
        "duration": "262i"
      },
      {
        "time": "26816i",
        "midiNote": 63,
        "velocity": 0.5039370078740157,
        "noteName": "D#4",
        "duration": "265i"
      },
      {
        "time": "27136i",
        "midiNote": 46,
        "velocity": 0.6377952755905512,
        "noteName": "A#2",
        "duration": "153i"
      },
      {
        "time": "27136i",
        "midiNote": 53,
        "velocity": 0.5905511811023622,
        "noteName": "F3",
        "duration": "151i"
      },
      {
        "time": "27264i",
        "midiNote": 58,
        "velocity": 0.5669291338582677,
        "noteName": "A#3",
        "duration": "71i"
      },
      {
        "time": "27264i",
        "midiNote": 61,
        "velocity": 0.6377952755905512,
        "noteName": "C#4",
        "duration": "67i"
      },
      {
        "time": "27264i",
        "midiNote": 68,
        "velocity": 0.6377952755905512,
        "noteName": "G#4",
        "duration": "70i"
      },
      {
        "time": "27328i",
        "midiNote": 48,
        "velocity": 0.5905511811023622,
        "noteName": "C3",
        "duration": "294i"
      },
      {
        "time": "27328i",
        "midiNote": 51,
        "velocity": 0.6377952755905512,
        "noteName": "D#3",
        "duration": "297i"
      },
      {
        "time": "27456i",
        "midiNote": 56,
        "velocity": 0.5669291338582677,
        "noteName": "G#3",
        "duration": "185i"
      },
      {
        "time": "27456i",
        "midiNote": 60,
        "velocity": 0.5905511811023622,
        "noteName": "C4",
        "duration": "183i"
      },
      {
        "time": "27456i",
        "midiNote": 63,
        "velocity": 0.5669291338582677,
        "noteName": "D#4",
        "duration": "187i"
      },
      {
        "time": "27456i",
        "midiNote": 68,
        "velocity": 0.5669291338582677,
        "noteName": "G#4",
        "duration": "187i"
      },
      {
        "time": "27648i",
        "midiNote": 49,
        "velocity": 0.5669291338582677,
        "noteName": "C#3",
        "duration": "141i"
      },
      {
        "time": "27648i",
        "midiNote": 53,
        "velocity": 0.5905511811023622,
        "noteName": "F3",
        "duration": "137i"
      },
      {
        "time": "27712i",
        "midiNote": 56,
        "velocity": 0.5669291338582677,
        "noteName": "G#3",
        "duration": "109i"
      },
      {
        "time": "27712i",
        "midiNote": 61,
        "velocity": 0.5669291338582677,
        "noteName": "C#4",
        "duration": "83i"
      },
      {
        "time": "27712i",
        "midiNote": 65,
        "velocity": 0.5354330708661418,
        "noteName": "F4",
        "duration": "95i"
      },
      {
        "time": "27712i",
        "midiNote": 68,
        "velocity": 0.5669291338582677,
        "noteName": "G#4",
        "duration": "95i"
      },
      {
        "time": "27840i",
        "midiNote": 49,
        "velocity": 0.6141732283464567,
        "noteName": "C#3",
        "duration": "289i"
      },
      {
        "time": "27840i",
        "midiNote": 54,
        "velocity": 0.6141732283464567,
        "noteName": "F#3",
        "duration": "280i"
      },
      {
        "time": "27968i",
        "midiNote": 56,
        "velocity": 0.6141732283464567,
        "noteName": "G#3",
        "duration": "175i"
      },
      {
        "time": "27968i",
        "midiNote": 61,
        "velocity": 0.5511811023622047,
        "noteName": "C#4",
        "duration": "181i"
      },
      {
        "time": "27968i",
        "midiNote": 66,
        "velocity": 0.6141732283464567,
        "noteName": "F#4",
        "duration": "185i"
      },
      {
        "time": "28160i",
        "midiNote": 48,
        "velocity": 0.5511811023622047,
        "noteName": "C3",
        "duration": "151i"
      },
      {
        "time": "28160i",
        "midiNote": 51,
        "velocity": 0.5669291338582677,
        "noteName": "D#3",
        "duration": "159i"
      },
      {
        "time": "28224i",
        "midiNote": 56,
        "velocity": 0.6377952755905512,
        "noteName": "G#3",
        "duration": "114i"
      },
      {
        "time": "28288i",
        "midiNote": 60,
        "velocity": 0.49606299212598426,
        "noteName": "C4",
        "duration": "53i"
      },
      {
        "time": "28288i",
        "midiNote": 63,
        "velocity": 0.5039370078740157,
        "noteName": "D#4",
        "duration": "58i"
      },
      {
        "time": "28288i",
        "midiNote": 68,
        "velocity": 0.5511811023622047,
        "noteName": "G#4",
        "duration": "53i"
      },
      {
        "time": "28352i",
        "midiNote": 49,
        "velocity": 0.6692913385826772,
        "noteName": "C#3",
        "duration": "290i"
      },
      {
        "time": "28352i",
        "midiNote": 53,
        "velocity": 0.6377952755905512,
        "noteName": "F3",
        "duration": "295i"
      },
      {
        "time": "28480i",
        "midiNote": 56,
        "velocity": 0.6377952755905512,
        "noteName": "G#3",
        "duration": "189i"
      },
      {
        "time": "28480i",
        "midiNote": 61,
        "velocity": 0.6377952755905512,
        "noteName": "C#4",
        "duration": "191i"
      },
      {
        "time": "28480i",
        "midiNote": 68,
        "velocity": 0.6377952755905512,
        "noteName": "G#4",
        "duration": "193i"
      },
      {
        "time": "28672i",
        "midiNote": 49,
        "velocity": 0.6377952755905512,
        "noteName": "C#3",
        "duration": "486i"
      },
      {
        "time": "28736i",
        "midiNote": 54,
        "velocity": 0.6377952755905512,
        "noteName": "F#3",
        "duration": "423i"
      },
      {
        "time": "28800i",
        "midiNote": 56,
        "velocity": 0.6692913385826772,
        "noteName": "G#3",
        "duration": "369i"
      },
      {
        "time": "28864i",
        "midiNote": 58,
        "velocity": 0.5669291338582677,
        "noteName": "A#3",
        "duration": "309i"
      },
      {
        "time": "28864i",
        "midiNote": 61,
        "velocity": 0.6141732283464567,
        "noteName": "C#4",
        "duration": "312i"
      },
      {
        "time": "29184i",
        "midiNote": 49,
        "velocity": 0.6377952755905512,
        "noteName": "C#3",
        "duration": "153i"
      },
      {
        "time": "29248i",
        "midiNote": 53,
        "velocity": 0.6692913385826772,
        "noteName": "F3",
        "duration": "87i"
      },
      {
        "time": "29312i",
        "midiNote": 58,
        "velocity": 0.5511811023622047,
        "noteName": "A#3",
        "duration": "48i"
      },
      {
        "time": "29312i",
        "midiNote": 61,
        "velocity": 0.5669291338582677,
        "noteName": "C#4",
        "duration": "47i"
      },
      {
        "time": "29312i",
        "midiNote": 65,
        "velocity": 0.5669291338582677,
        "noteName": "F4",
        "duration": "52i"
      },
      {
        "time": "29312i",
        "midiNote": 68,
        "velocity": 0.5354330708661418,
        "noteName": "G#4",
        "duration": "48i"
      },
      {
        "time": "29376i",
        "midiNote": 48,
        "velocity": 0.5511811023622047,
        "noteName": "C3",
        "duration": "290i"
      },
      {
        "time": "29376i",
        "midiNote": 51,
        "velocity": 0.5669291338582677,
        "noteName": "D#3",
        "duration": "291i"
      },
      {
        "time": "29376i",
        "midiNote": 56,
        "velocity": 0.6377952755905512,
        "noteName": "G#3",
        "duration": "301i"
      },
      {
        "time": "29504i",
        "midiNote": 63,
        "velocity": 0.6141732283464567,
        "noteName": "D#4",
        "duration": "182i"
      },
      {
        "time": "29504i",
        "midiNote": 68,
        "velocity": 0.6692913385826772,
        "noteName": "G#4",
        "duration": "182i"
      },
      {
        "time": "29696i",
        "midiNote": 49,
        "velocity": 0.6377952755905512,
        "noteName": "C#3",
        "duration": "121i"
      },
      {
        "time": "29696i",
        "midiNote": 53,
        "velocity": 0.5669291338582677,
        "noteName": "F3",
        "duration": "132i"
      },
      {
        "time": "29760i",
        "midiNote": 56,
        "velocity": 0.6377952755905512,
        "noteName": "G#3",
        "duration": "132i"
      },
      {
        "time": "29824i",
        "midiNote": 61,
        "velocity": 0.6141732283464567,
        "noteName": "C#4",
        "duration": "69i"
      },
      {
        "time": "29824i",
        "midiNote": 65,
        "velocity": 0.5905511811023622,
        "noteName": "F4",
        "duration": "71i"
      },
      {
        "time": "29888i",
        "midiNote": 49,
        "velocity": 0.6692913385826772,
        "noteName": "C#3",
        "duration": "300i"
      },
      {
        "time": "29952i",
        "midiNote": 54,
        "velocity": 0.6377952755905512,
        "noteName": "F#3",
        "duration": "237i"
      },
      {
        "time": "30016i",
        "midiNote": 56,
        "velocity": 0.6377952755905512,
        "noteName": "G#3",
        "duration": "179i"
      },
      {
        "time": "30080i",
        "midiNote": 58,
        "velocity": 0.5669291338582677,
        "noteName": "A#3",
        "duration": "117i"
      },
      {
        "time": "30080i",
        "midiNote": 61,
        "velocity": 0.5669291338582677,
        "noteName": "C#4",
        "duration": "119i"
      },
      {
        "time": "30208i",
        "midiNote": 48,
        "velocity": 0.6692913385826772,
        "noteName": "C3",
        "duration": "151i"
      },
      {
        "time": "30272i",
        "midiNote": 51,
        "velocity": 0.6141732283464567,
        "noteName": "D#3",
        "duration": "94i"
      },
      {
        "time": "30336i",
        "midiNote": 56,
        "velocity": 0.5669291338582677,
        "noteName": "G#3",
        "duration": "43i"
      },
      {
        "time": "30336i",
        "midiNote": 60,
        "velocity": 0.6141732283464567,
        "noteName": "C4",
        "duration": "41i"
      },
      {
        "time": "30336i",
        "midiNote": 63,
        "velocity": 0.5354330708661418,
        "noteName": "D#4",
        "duration": "49i"
      },
      {
        "time": "30336i",
        "midiNote": 68,
        "velocity": 0.6141732283464567,
        "noteName": "G#4",
        "duration": "44i"
      },
      {
        "time": "30400i",
        "midiNote": 49,
        "velocity": 0.5511811023622047,
        "noteName": "C#3",
        "duration": "233i"
      },
      {
        "time": "30400i",
        "midiNote": 53,
        "velocity": 0.6377952755905512,
        "noteName": "F3",
        "duration": "239i"
      },
      {
        "time": "30400i",
        "midiNote": 56,
        "velocity": 0.5669291338582677,
        "noteName": "G#3",
        "duration": "279i"
      },
      {
        "time": "30400i",
        "midiNote": 61,
        "velocity": 0.6377952755905512,
        "noteName": "C#4",
        "duration": "292i"
      },
      {
        "time": "30400i",
        "midiNote": 68,
        "velocity": 0.6692913385826772,
        "noteName": "G#4",
        "duration": "290i"
      },
      {
        "time": "30720i",
        "midiNote": 47,
        "velocity": 0.6377952755905512,
        "noteName": "B2",
        "duration": "484i"
      },
      {
        "time": "30784i",
        "midiNote": 54,
        "velocity": 0.6692913385826772,
        "noteName": "F#3",
        "duration": "429i"
      },
      {
        "time": "30848i",
        "midiNote": 59,
        "velocity": 0.6929133858267716,
        "noteName": "B3",
        "duration": "173i"
      },
      {
        "time": "30912i",
        "midiNote": 61,
        "velocity": 0.6141732283464567,
        "noteName": "C#4",
        "duration": "111i"
      },
      {
        "time": "31040i",
        "midiNote": 59,
        "velocity": 0.5511811023622047,
        "noteName": "B3",
        "duration": "180i"
      },
      {
        "time": "31040i",
        "midiNote": 63,
        "velocity": 0.6377952755905512,
        "noteName": "D#4",
        "duration": "190i"
      },
      {
        "time": "31232i",
        "midiNote": 51,
        "velocity": 0.6377952755905512,
        "noteName": "D#3",
        "duration": "243i"
      },
      {
        "time": "31296i",
        "midiNote": 54,
        "velocity": 0.7401574803149606,
        "noteName": "F#3",
        "duration": "178i"
      },
      {
        "time": "31360i",
        "midiNote": 56,
        "velocity": 0.6141732283464567,
        "noteName": "G#3",
        "duration": "111i"
      },
      {
        "time": "31424i",
        "midiNote": 58,
        "velocity": 0.6141732283464567,
        "noteName": "A#3",
        "duration": "49i"
      },
      {
        "time": "31424i",
        "midiNote": 63,
        "velocity": 0.5511811023622047,
        "noteName": "D#4",
        "duration": "57i"
      },
      {
        "time": "31488i",
        "midiNote": 53,
        "velocity": 0.6377952755905512,
        "noteName": "F3",
        "duration": "164i"
      },
      {
        "time": "31488i",
        "midiNote": 58,
        "velocity": 0.6377952755905512,
        "noteName": "A#3",
        "duration": "163i"
      },
      {
        "time": "31488i",
        "midiNote": 61,
        "velocity": 0.6377952755905512,
        "noteName": "C#4",
        "duration": "165i"
      },
      {
        "time": "31744i",
        "midiNote": 42,
        "velocity": 0.6377952755905512,
        "noteName": "F#2",
        "duration": "154i"
      },
      {
        "time": "31808i",
        "midiNote": 49,
        "velocity": 0.5354330708661418,
        "noteName": "C#3",
        "duration": "95i"
      },
      {
        "time": "31872i",
        "midiNote": 56,
        "velocity": 0.49606299212598426,
        "noteName": "G#3",
        "duration": "61i"
      },
      {
        "time": "31872i",
        "midiNote": 58,
        "velocity": 0.5354330708661418,
        "noteName": "A#3",
        "duration": "59i"
      },
      {
        "time": "31872i",
        "midiNote": 61,
        "velocity": 0.5511811023622047,
        "noteName": "C#4",
        "duration": "58i"
      },
      {
        "time": "31936i",
        "midiNote": 44,
        "velocity": 0.6692913385826772,
        "noteName": "G#2",
        "duration": "275i"
      },
      {
        "time": "32064i",
        "midiNote": 51,
        "velocity": 0.5039370078740157,
        "noteName": "D#3",
        "duration": "158i"
      },
      {
        "time": "32064i",
        "midiNote": 56,
        "velocity": 0.49606299212598426,
        "noteName": "G#3",
        "duration": "179i"
      },
      {
        "time": "32064i",
        "midiNote": 58,
        "velocity": 0.49606299212598426,
        "noteName": "A#3",
        "duration": "178i"
      },
      {
        "time": "32064i",
        "midiNote": 63,
        "velocity": 0.49606299212598426,
        "noteName": "D#4",
        "duration": "177i"
      },
      {
        "time": "32256i",
        "midiNote": 46,
        "velocity": 0.5354330708661418,
        "noteName": "A#2",
        "duration": "497i"
      },
      {
        "time": "32320i",
        "midiNote": 49,
        "velocity": 0.5511811023622047,
        "noteName": "C#3",
        "duration": "449i"
      },
      {
        "time": "32384i",
        "midiNote": 53,
        "velocity": 0.4566929133858268,
        "noteName": "F3",
        "duration": "209i"
      },
      {
        "time": "32384i",
        "midiNote": 58,
        "velocity": 0.5039370078740157,
        "noteName": "A#3",
        "duration": "210i"
      },
      {
        "time": "32384i",
        "midiNote": 65,
        "velocity": 0.5354330708661418,
        "noteName": "F4",
        "duration": "209i"
      },
      {
        "time": "32640i",
        "midiNote": 58,
        "velocity": 0.4566929133858268,
        "noteName": "A#3",
        "duration": "107i"
      },
      {
        "time": "32640i",
        "midiNote": 61,
        "velocity": 0.4566929133858268,
        "noteName": "C#4",
        "duration": "109i"
      },
      {
        "time": "32768i",
        "midiNote": 42,
        "velocity": 0.6141732283464567,
        "noteName": "F#2",
        "duration": "208i"
      },
      {
        "time": "32832i",
        "midiNote": 49,
        "velocity": 0.6141732283464567,
        "noteName": "C#3",
        "duration": "155i"
      },
      {
        "time": "32896i",
        "midiNote": 54,
        "velocity": 0.44881889763779526,
        "noteName": "F#3",
        "duration": "99i"
      },
      {
        "time": "32896i",
        "midiNote": 58,
        "velocity": 0.48031496062992124,
        "noteName": "A#3",
        "duration": "103i"
      },
      {
        "time": "32896i",
        "midiNote": 61,
        "velocity": 0.49606299212598426,
        "noteName": "C#4",
        "duration": "101i"
      },
      {
        "time": "33024i",
        "midiNote": 44,
        "velocity": 0.5669291338582677,
        "noteName": "G#2",
        "duration": "192i"
      },
      {
        "time": "33088i",
        "midiNote": 51,
        "velocity": 0.48031496062992124,
        "noteName": "D#3",
        "duration": "121i"
      },
      {
        "time": "33088i",
        "midiNote": 56,
        "velocity": 0.48031496062992124,
        "noteName": "G#3",
        "duration": "174i"
      },
      {
        "time": "33088i",
        "midiNote": 58,
        "velocity": 0.5039370078740157,
        "noteName": "A#3",
        "duration": "179i"
      },
      {
        "time": "33088i",
        "midiNote": 63,
        "velocity": 0.5354330708661418,
        "noteName": "D#4",
        "duration": "181i"
      },
      {
        "time": "33280i",
        "midiNote": 41,
        "velocity": 0.5669291338582677,
        "noteName": "F2",
        "duration": "141i"
      },
      {
        "time": "33344i",
        "midiNote": 48,
        "velocity": 0.5196850393700787,
        "noteName": "C3",
        "duration": "92i"
      },
      {
        "time": "33408i",
        "midiNote": 56,
        "velocity": 0.49606299212598426,
        "noteName": "G#3",
        "duration": "52i"
      },
      {
        "time": "33408i",
        "midiNote": 60,
        "velocity": 0.5039370078740157,
        "noteName": "C4",
        "duration": "42i"
      },
      {
        "time": "33408i",
        "midiNote": 68,
        "velocity": 0.5039370078740157,
        "noteName": "G#4",
        "duration": "57i"
      },
      {
        "time": "33472i",
        "midiNote": 42,
        "velocity": 0.5669291338582677,
        "noteName": "F#2",
        "duration": "298i"
      },
      {
        "time": "33472i",
        "midiNote": 56,
        "velocity": 0.4251968503937008,
        "noteName": "G#3",
        "duration": "302i"
      },
      {
        "time": "33472i",
        "midiNote": 58,
        "velocity": 0.48031496062992124,
        "noteName": "A#3",
        "duration": "301i"
      },
      {
        "time": "33472i",
        "midiNote": 61,
        "velocity": 0.4566929133858268,
        "noteName": "C#4",
        "duration": "301i"
      },
      {
        "time": "33792i",
        "midiNote": 49,
        "velocity": 0.5511811023622047,
        "noteName": "C#3",
        "duration": "41i"
      },
      {
        "time": "33792i",
        "midiNote": 54,
        "velocity": 0.5039370078740157,
        "noteName": "F#3",
        "duration": "39i"
      },
      {
        "time": "33856i",
        "midiNote": 49,
        "velocity": 0.5354330708661418,
        "noteName": "C#3",
        "duration": "81i"
      },
      {
        "time": "33856i",
        "midiNote": 54,
        "velocity": 0.5511811023622047,
        "noteName": "F#3",
        "duration": "75i"
      },
      {
        "time": "33920i",
        "midiNote": 58,
        "velocity": 0.5511811023622047,
        "noteName": "A#3",
        "duration": "63i"
      },
      {
        "time": "33920i",
        "midiNote": 61,
        "velocity": 0.5511811023622047,
        "noteName": "C#4",
        "duration": "65i"
      },
      {
        "time": "33984i",
        "midiNote": 44,
        "velocity": 0.6141732283464567,
        "noteName": "G#2",
        "duration": "277i"
      },
      {
        "time": "33984i",
        "midiNote": 51,
        "velocity": 0.5669291338582677,
        "noteName": "D#3",
        "duration": "289i"
      },
      {
        "time": "34112i",
        "midiNote": 56,
        "velocity": 0.5354330708661418,
        "noteName": "G#3",
        "duration": "182i"
      },
      {
        "time": "34112i",
        "midiNote": 60,
        "velocity": 0.5196850393700787,
        "noteName": "C4",
        "duration": "187i"
      },
      {
        "time": "34112i",
        "midiNote": 63,
        "velocity": 0.5354330708661418,
        "noteName": "D#4",
        "duration": "190i"
      },
      {
        "time": "34304i",
        "midiNote": 48,
        "velocity": 0.6141732283464567,
        "noteName": "C3",
        "duration": "137i"
      },
      {
        "time": "34432i",
        "midiNote": 56,
        "velocity": 0.6141732283464567,
        "noteName": "G#3",
        "duration": "60i"
      },
      {
        "time": "34432i",
        "midiNote": 60,
        "velocity": 0.5354330708661418,
        "noteName": "C4",
        "duration": "62i"
      },
      {
        "time": "34432i",
        "midiNote": 63,
        "velocity": 0.5669291338582677,
        "noteName": "D#4",
        "duration": "64i"
      },
      {
        "time": "34432i",
        "midiNote": 68,
        "velocity": 0.5669291338582677,
        "noteName": "G#4",
        "duration": "65i"
      },
      {
        "time": "34496i",
        "midiNote": 49,
        "velocity": 0.5669291338582677,
        "noteName": "C#3",
        "duration": "288i"
      },
      {
        "time": "34496i",
        "midiNote": 53,
        "velocity": 0.5669291338582677,
        "noteName": "F3",
        "duration": "286i"
      },
      {
        "time": "34624i",
        "midiNote": 56,
        "velocity": 0.5669291338582677,
        "noteName": "G#3",
        "duration": "183i"
      },
      {
        "time": "34624i",
        "midiNote": 61,
        "velocity": 0.5669291338582677,
        "noteName": "C#4",
        "duration": "184i"
      },
      {
        "time": "34624i",
        "midiNote": 68,
        "velocity": 0.5669291338582677,
        "noteName": "G#4",
        "duration": "186i"
      },
      {
        "time": "34816i",
        "midiNote": 47,
        "velocity": 0.5511811023622047,
        "noteName": "B2",
        "duration": "429i"
      },
      {
        "time": "34816i",
        "midiNote": 51,
        "velocity": 0.6141732283464567,
        "noteName": "D#3",
        "duration": "435i"
      },
      {
        "time": "34880i",
        "midiNote": 54,
        "velocity": 0.5511811023622047,
        "noteName": "F#3",
        "duration": "233i"
      },
      {
        "time": "34944i",
        "midiNote": 63,
        "velocity": 0.5511811023622047,
        "noteName": "D#4",
        "duration": "73i"
      },
      {
        "time": "35008i",
        "midiNote": 61,
        "velocity": 0.5511811023622047,
        "noteName": "C#4",
        "duration": "109i"
      },
      {
        "time": "35136i",
        "midiNote": 54,
        "velocity": 0.49606299212598426,
        "noteName": "F#3",
        "duration": "184i"
      },
      {
        "time": "35136i",
        "midiNote": 63,
        "velocity": 0.5354330708661418,
        "noteName": "D#4",
        "duration": "195i"
      },
      {
        "time": "35328i",
        "midiNote": 44,
        "velocity": 0.6692913385826772,
        "noteName": "G#2",
        "duration": "455i"
      },
      {
        "time": "35392i",
        "midiNote": 51,
        "velocity": 0.6141732283464567,
        "noteName": "D#3",
        "duration": "390i"
      },
      {
        "time": "35456i",
        "midiNote": 54,
        "velocity": 0.5511811023622047,
        "noteName": "F#3",
        "duration": "325i"
      },
      {
        "time": "35520i",
        "midiNote": 58,
        "velocity": 0.5511811023622047,
        "noteName": "A#3",
        "duration": "262i"
      },
      {
        "time": "35520i",
        "midiNote": 63,
        "velocity": 0.5039370078740157,
        "noteName": "D#4",
        "duration": "265i"
      },
      {
        "time": "39936i",
        "midiNote": 42,
        "velocity": 0.6377952755905512,
        "noteName": "F#2",
        "duration": "133i"
      },
      {
        "time": "39936i",
        "midiNote": 49,
        "velocity": 0.6377952755905512,
        "noteName": "C#3",
        "duration": "133i"
      },
      {
        "time": "40064i",
        "midiNote": 56,
        "velocity": 0.5669291338582677,
        "noteName": "G#3",
        "duration": "63i"
      },
      {
        "time": "40064i",
        "midiNote": 58,
        "velocity": 0.5669291338582677,
        "noteName": "A#3",
        "duration": "65i"
      },
      {
        "time": "40064i",
        "midiNote": 61,
        "velocity": 0.5669291338582677,
        "noteName": "C#4",
        "duration": "65i"
      },
      {
        "time": "40128i",
        "midiNote": 44,
        "velocity": 0.6692913385826772,
        "noteName": "G#2",
        "duration": "281i"
      },
      {
        "time": "40128i",
        "midiNote": 48,
        "velocity": 0.7795275590551181,
        "noteName": "C3",
        "duration": "282i"
      },
      {
        "time": "40256i",
        "midiNote": 56,
        "velocity": 0.6377952755905512,
        "noteName": "G#3",
        "duration": "155i"
      },
      {
        "time": "40256i",
        "midiNote": 63,
        "velocity": 0.7401574803149606,
        "noteName": "D#4",
        "duration": "160i"
      },
      {
        "time": "40448i",
        "midiNote": 46,
        "velocity": 0.7401574803149606,
        "noteName": "A#2",
        "duration": "77i"
      },
      {
        "time": "40448i",
        "midiNote": 53,
        "velocity": 0.6141732283464567,
        "noteName": "F3",
        "duration": "73i"
      },
      {
        "time": "40448i",
        "midiNote": 58,
        "velocity": 0.6141732283464567,
        "noteName": "A#3",
        "duration": "74i"
      },
      {
        "time": "40448i",
        "midiNote": 61,
        "velocity": 0.6377952755905512,
        "noteName": "C#4",
        "duration": "76i"
      },
      {
        "time": "40960i",
        "midiNote": 43,
        "velocity": 0.6377952755905512,
        "noteName": "G2",
        "duration": "154i"
      },
      {
        "time": "41024i",
        "midiNote": 50,
        "velocity": 0.5354330708661418,
        "noteName": "D3",
        "duration": "95i"
      },
      {
        "time": "41088i",
        "midiNote": 57,
        "velocity": 0.49606299212598426,
        "noteName": "A3",
        "duration": "61i"
      },
      {
        "time": "41088i",
        "midiNote": 59,
        "velocity": 0.5354330708661418,
        "noteName": "B3",
        "duration": "59i"
      },
      {
        "time": "41088i",
        "midiNote": 62,
        "velocity": 0.5511811023622047,
        "noteName": "D4",
        "duration": "58i"
      },
      {
        "time": "41152i",
        "midiNote": 45,
        "velocity": 0.6692913385826772,
        "noteName": "A2",
        "duration": "275i"
      },
      {
        "time": "41280i",
        "midiNote": 52,
        "velocity": 0.5039370078740157,
        "noteName": "E3",
        "duration": "158i"
      },
      {
        "time": "41280i",
        "midiNote": 57,
        "velocity": 0.49606299212598426,
        "noteName": "A3",
        "duration": "179i"
      },
      {
        "time": "41280i",
        "midiNote": 59,
        "velocity": 0.49606299212598426,
        "noteName": "B3",
        "duration": "178i"
      },
      {
        "time": "41280i",
        "midiNote": 64,
        "velocity": 0.49606299212598426,
        "noteName": "E4",
        "duration": "177i"
      },
      {
        "time": "41472i",
        "midiNote": 47,
        "velocity": 0.5354330708661418,
        "noteName": "B2",
        "duration": "497i"
      },
      {
        "time": "41536i",
        "midiNote": 50,
        "velocity": 0.5511811023622047,
        "noteName": "D3",
        "duration": "449i"
      },
      {
        "time": "41600i",
        "midiNote": 54,
        "velocity": 0.4566929133858268,
        "noteName": "F#3",
        "duration": "209i"
      },
      {
        "time": "41600i",
        "midiNote": 59,
        "velocity": 0.5039370078740157,
        "noteName": "B3",
        "duration": "210i"
      },
      {
        "time": "41600i",
        "midiNote": 66,
        "velocity": 0.5354330708661418,
        "noteName": "F#4",
        "duration": "209i"
      },
      {
        "time": "41856i",
        "midiNote": 59,
        "velocity": 0.4566929133858268,
        "noteName": "B3",
        "duration": "107i"
      },
      {
        "time": "41856i",
        "midiNote": 62,
        "velocity": 0.4566929133858268,
        "noteName": "D4",
        "duration": "109i"
      },
      {
        "time": "41984i",
        "midiNote": 43,
        "velocity": 0.6141732283464567,
        "noteName": "G2",
        "duration": "208i"
      },
      {
        "time": "42048i",
        "midiNote": 50,
        "velocity": 0.6141732283464567,
        "noteName": "D3",
        "duration": "155i"
      },
      {
        "time": "42112i",
        "midiNote": 55,
        "velocity": 0.44881889763779526,
        "noteName": "G3",
        "duration": "99i"
      },
      {
        "time": "42112i",
        "midiNote": 59,
        "velocity": 0.48031496062992124,
        "noteName": "B3",
        "duration": "103i"
      },
      {
        "time": "42112i",
        "midiNote": 62,
        "velocity": 0.49606299212598426,
        "noteName": "D4",
        "duration": "101i"
      },
      {
        "time": "42240i",
        "midiNote": 45,
        "velocity": 0.5669291338582677,
        "noteName": "A2",
        "duration": "192i"
      },
      {
        "time": "42304i",
        "midiNote": 52,
        "velocity": 0.48031496062992124,
        "noteName": "E3",
        "duration": "121i"
      },
      {
        "time": "42304i",
        "midiNote": 57,
        "velocity": 0.48031496062992124,
        "noteName": "A3",
        "duration": "174i"
      },
      {
        "time": "42304i",
        "midiNote": 59,
        "velocity": 0.5039370078740157,
        "noteName": "B3",
        "duration": "179i"
      },
      {
        "time": "42304i",
        "midiNote": 64,
        "velocity": 0.5354330708661418,
        "noteName": "E4",
        "duration": "181i"
      },
      {
        "time": "42496i",
        "midiNote": 42,
        "velocity": 0.5669291338582677,
        "noteName": "F#2",
        "duration": "141i"
      },
      {
        "time": "42560i",
        "midiNote": 49,
        "velocity": 0.5196850393700787,
        "noteName": "C#3",
        "duration": "92i"
      },
      {
        "time": "42624i",
        "midiNote": 57,
        "velocity": 0.49606299212598426,
        "noteName": "A3",
        "duration": "52i"
      },
      {
        "time": "42624i",
        "midiNote": 61,
        "velocity": 0.5039370078740157,
        "noteName": "C#4",
        "duration": "42i"
      },
      {
        "time": "42624i",
        "midiNote": 69,
        "velocity": 0.5039370078740157,
        "noteName": "A4",
        "duration": "57i"
      },
      {
        "time": "42688i",
        "midiNote": 43,
        "velocity": 0.5669291338582677,
        "noteName": "G2",
        "duration": "298i"
      },
      {
        "time": "42688i",
        "midiNote": 57,
        "velocity": 0.4251968503937008,
        "noteName": "A3",
        "duration": "302i"
      },
      {
        "time": "42688i",
        "midiNote": 59,
        "velocity": 0.48031496062992124,
        "noteName": "B3",
        "duration": "301i"
      },
      {
        "time": "42688i",
        "midiNote": 62,
        "velocity": 0.4566929133858268,
        "noteName": "D4",
        "duration": "301i"
      },
      {
        "time": "43008i",
        "midiNote": 50,
        "velocity": 0.5511811023622047,
        "noteName": "D3",
        "duration": "41i"
      },
      {
        "time": "43008i",
        "midiNote": 55,
        "velocity": 0.5039370078740157,
        "noteName": "G3",
        "duration": "39i"
      },
      {
        "time": "43072i",
        "midiNote": 50,
        "velocity": 0.5354330708661418,
        "noteName": "D3",
        "duration": "81i"
      },
      {
        "time": "43072i",
        "midiNote": 55,
        "velocity": 0.5511811023622047,
        "noteName": "G3",
        "duration": "75i"
      },
      {
        "time": "43136i",
        "midiNote": 59,
        "velocity": 0.5511811023622047,
        "noteName": "B3",
        "duration": "63i"
      },
      {
        "time": "43136i",
        "midiNote": 62,
        "velocity": 0.5511811023622047,
        "noteName": "D4",
        "duration": "65i"
      },
      {
        "time": "43200i",
        "midiNote": 45,
        "velocity": 0.6141732283464567,
        "noteName": "A2",
        "duration": "277i"
      },
      {
        "time": "43200i",
        "midiNote": 52,
        "velocity": 0.5669291338582677,
        "noteName": "E3",
        "duration": "289i"
      },
      {
        "time": "43328i",
        "midiNote": 57,
        "velocity": 0.5354330708661418,
        "noteName": "A3",
        "duration": "182i"
      },
      {
        "time": "43328i",
        "midiNote": 61,
        "velocity": 0.5196850393700787,
        "noteName": "C#4",
        "duration": "187i"
      },
      {
        "time": "43328i",
        "midiNote": 64,
        "velocity": 0.5354330708661418,
        "noteName": "E4",
        "duration": "190i"
      },
      {
        "time": "43520i",
        "midiNote": 49,
        "velocity": 0.6141732283464567,
        "noteName": "C#3",
        "duration": "137i"
      },
      {
        "time": "43648i",
        "midiNote": 57,
        "velocity": 0.6141732283464567,
        "noteName": "A3",
        "duration": "60i"
      },
      {
        "time": "43648i",
        "midiNote": 61,
        "velocity": 0.5354330708661418,
        "noteName": "C#4",
        "duration": "62i"
      },
      {
        "time": "43648i",
        "midiNote": 64,
        "velocity": 0.5669291338582677,
        "noteName": "E4",
        "duration": "64i"
      },
      {
        "time": "43648i",
        "midiNote": 69,
        "velocity": 0.5669291338582677,
        "noteName": "A4",
        "duration": "65i"
      },
      {
        "time": "43712i",
        "midiNote": 50,
        "velocity": 0.5669291338582677,
        "noteName": "D3",
        "duration": "288i"
      },
      {
        "time": "43712i",
        "midiNote": 54,
        "velocity": 0.5669291338582677,
        "noteName": "F#3",
        "duration": "286i"
      },
      {
        "time": "43840i",
        "midiNote": 57,
        "velocity": 0.5669291338582677,
        "noteName": "A3",
        "duration": "183i"
      },
      {
        "time": "43840i",
        "midiNote": 62,
        "velocity": 0.5669291338582677,
        "noteName": "D4",
        "duration": "184i"
      },
      {
        "time": "43840i",
        "midiNote": 69,
        "velocity": 0.5669291338582677,
        "noteName": "A4",
        "duration": "186i"
      },
      {
        "time": "44032i",
        "midiNote": 48,
        "velocity": 0.5511811023622047,
        "noteName": "C3",
        "duration": "429i"
      },
      {
        "time": "44032i",
        "midiNote": 52,
        "velocity": 0.6141732283464567,
        "noteName": "E3",
        "duration": "435i"
      },
      {
        "time": "44096i",
        "midiNote": 55,
        "velocity": 0.5511811023622047,
        "noteName": "G3",
        "duration": "233i"
      },
      {
        "time": "44160i",
        "midiNote": 64,
        "velocity": 0.5511811023622047,
        "noteName": "E4",
        "duration": "73i"
      },
      {
        "time": "44224i",
        "midiNote": 62,
        "velocity": 0.5511811023622047,
        "noteName": "D4",
        "duration": "109i"
      },
      {
        "time": "44352i",
        "midiNote": 55,
        "velocity": 0.49606299212598426,
        "noteName": "G3",
        "duration": "184i"
      },
      {
        "time": "44352i",
        "midiNote": 64,
        "velocity": 0.5354330708661418,
        "noteName": "E4",
        "duration": "195i"
      },
      {
        "time": "44544i",
        "midiNote": 45,
        "velocity": 0.6692913385826772,
        "noteName": "A2",
        "duration": "455i"
      },
      {
        "time": "44608i",
        "midiNote": 52,
        "velocity": 0.6141732283464567,
        "noteName": "E3",
        "duration": "390i"
      },
      {
        "time": "44672i",
        "midiNote": 55,
        "velocity": 0.5511811023622047,
        "noteName": "G3",
        "duration": "325i"
      },
      {
        "time": "44736i",
        "midiNote": 59,
        "velocity": 0.5511811023622047,
        "noteName": "B3",
        "duration": "262i"
      },
      {
        "time": "44736i",
        "midiNote": 64,
        "velocity": 0.5039370078740157,
        "noteName": "E4",
        "duration": "265i"
      },
      {
        "time": "45056i",
        "midiNote": 43,
        "velocity": 0.6377952755905512,
        "noteName": "G2",
        "duration": "154i"
      },
      {
        "time": "45120i",
        "midiNote": 50,
        "velocity": 0.5354330708661418,
        "noteName": "D3",
        "duration": "95i"
      },
      {
        "time": "45184i",
        "midiNote": 57,
        "velocity": 0.49606299212598426,
        "noteName": "A3",
        "duration": "61i"
      },
      {
        "time": "45184i",
        "midiNote": 59,
        "velocity": 0.5354330708661418,
        "noteName": "B3",
        "duration": "59i"
      },
      {
        "time": "45184i",
        "midiNote": 62,
        "velocity": 0.5511811023622047,
        "noteName": "D4",
        "duration": "58i"
      },
      {
        "time": "45248i",
        "midiNote": 45,
        "velocity": 0.6692913385826772,
        "noteName": "A2",
        "duration": "275i"
      },
      {
        "time": "45376i",
        "midiNote": 52,
        "velocity": 0.5039370078740157,
        "noteName": "E3",
        "duration": "158i"
      },
      {
        "time": "45376i",
        "midiNote": 57,
        "velocity": 0.49606299212598426,
        "noteName": "A3",
        "duration": "179i"
      },
      {
        "time": "45376i",
        "midiNote": 59,
        "velocity": 0.49606299212598426,
        "noteName": "B3",
        "duration": "178i"
      },
      {
        "time": "45376i",
        "midiNote": 64,
        "velocity": 0.49606299212598426,
        "noteName": "E4",
        "duration": "177i"
      },
      {
        "time": "45568i",
        "midiNote": 47,
        "velocity": 0.5354330708661418,
        "noteName": "B2",
        "duration": "497i"
      },
      {
        "time": "45632i",
        "midiNote": 50,
        "velocity": 0.5511811023622047,
        "noteName": "D3",
        "duration": "449i"
      },
      {
        "time": "45696i",
        "midiNote": 54,
        "velocity": 0.4566929133858268,
        "noteName": "F#3",
        "duration": "209i"
      },
      {
        "time": "45696i",
        "midiNote": 59,
        "velocity": 0.5039370078740157,
        "noteName": "B3",
        "duration": "210i"
      },
      {
        "time": "45696i",
        "midiNote": 66,
        "velocity": 0.5354330708661418,
        "noteName": "F#4",
        "duration": "209i"
      },
      {
        "time": "45952i",
        "midiNote": 59,
        "velocity": 0.4566929133858268,
        "noteName": "B3",
        "duration": "107i"
      },
      {
        "time": "45952i",
        "midiNote": 62,
        "velocity": 0.4566929133858268,
        "noteName": "D4",
        "duration": "109i"
      },
      {
        "time": "46080i",
        "midiNote": 43,
        "velocity": 0.6141732283464567,
        "noteName": "G2",
        "duration": "208i"
      },
      {
        "time": "46144i",
        "midiNote": 50,
        "velocity": 0.6141732283464567,
        "noteName": "D3",
        "duration": "155i"
      },
      {
        "time": "46208i",
        "midiNote": 55,
        "velocity": 0.44881889763779526,
        "noteName": "G3",
        "duration": "99i"
      },
      {
        "time": "46208i",
        "midiNote": 59,
        "velocity": 0.48031496062992124,
        "noteName": "B3",
        "duration": "103i"
      },
      {
        "time": "46208i",
        "midiNote": 62,
        "velocity": 0.49606299212598426,
        "noteName": "D4",
        "duration": "101i"
      },
      {
        "time": "46336i",
        "midiNote": 45,
        "velocity": 0.5669291338582677,
        "noteName": "A2",
        "duration": "192i"
      },
      {
        "time": "46400i",
        "midiNote": 52,
        "velocity": 0.48031496062992124,
        "noteName": "E3",
        "duration": "121i"
      },
      {
        "time": "46400i",
        "midiNote": 57,
        "velocity": 0.48031496062992124,
        "noteName": "A3",
        "duration": "174i"
      },
      {
        "time": "46400i",
        "midiNote": 59,
        "velocity": 0.5039370078740157,
        "noteName": "B3",
        "duration": "179i"
      },
      {
        "time": "46400i",
        "midiNote": 64,
        "velocity": 0.5354330708661418,
        "noteName": "E4",
        "duration": "181i"
      },
      {
        "time": "46592i",
        "midiNote": 42,
        "velocity": 0.5669291338582677,
        "noteName": "F#2",
        "duration": "141i"
      },
      {
        "time": "46656i",
        "midiNote": 49,
        "velocity": 0.5196850393700787,
        "noteName": "C#3",
        "duration": "92i"
      },
      {
        "time": "46720i",
        "midiNote": 57,
        "velocity": 0.49606299212598426,
        "noteName": "A3",
        "duration": "52i"
      },
      {
        "time": "46720i",
        "midiNote": 61,
        "velocity": 0.5039370078740157,
        "noteName": "C#4",
        "duration": "42i"
      },
      {
        "time": "46720i",
        "midiNote": 69,
        "velocity": 0.5039370078740157,
        "noteName": "A4",
        "duration": "57i"
      },
      {
        "time": "46784i",
        "midiNote": 43,
        "velocity": 0.5669291338582677,
        "noteName": "G2",
        "duration": "298i"
      },
      {
        "time": "46784i",
        "midiNote": 57,
        "velocity": 0.4251968503937008,
        "noteName": "A3",
        "duration": "302i"
      },
      {
        "time": "46784i",
        "midiNote": 59,
        "velocity": 0.48031496062992124,
        "noteName": "B3",
        "duration": "301i"
      },
      {
        "time": "46784i",
        "midiNote": 62,
        "velocity": 0.4566929133858268,
        "noteName": "D4",
        "duration": "301i"
      },
      {
        "time": "47104i",
        "midiNote": 50,
        "velocity": 0.5511811023622047,
        "noteName": "D3",
        "duration": "41i"
      },
      {
        "time": "47104i",
        "midiNote": 55,
        "velocity": 0.5039370078740157,
        "noteName": "G3",
        "duration": "39i"
      },
      {
        "time": "47168i",
        "midiNote": 50,
        "velocity": 0.5354330708661418,
        "noteName": "D3",
        "duration": "81i"
      },
      {
        "time": "47168i",
        "midiNote": 55,
        "velocity": 0.5511811023622047,
        "noteName": "G3",
        "duration": "75i"
      },
      {
        "time": "47232i",
        "midiNote": 59,
        "velocity": 0.5511811023622047,
        "noteName": "B3",
        "duration": "63i"
      },
      {
        "time": "47232i",
        "midiNote": 62,
        "velocity": 0.5511811023622047,
        "noteName": "D4",
        "duration": "65i"
      },
      {
        "time": "47296i",
        "midiNote": 45,
        "velocity": 0.6141732283464567,
        "noteName": "A2",
        "duration": "277i"
      },
      {
        "time": "47296i",
        "midiNote": 52,
        "velocity": 0.5669291338582677,
        "noteName": "E3",
        "duration": "289i"
      },
      {
        "time": "47424i",
        "midiNote": 57,
        "velocity": 0.5354330708661418,
        "noteName": "A3",
        "duration": "182i"
      },
      {
        "time": "47424i",
        "midiNote": 61,
        "velocity": 0.5196850393700787,
        "noteName": "C#4",
        "duration": "187i"
      },
      {
        "time": "47424i",
        "midiNote": 64,
        "velocity": 0.5354330708661418,
        "noteName": "E4",
        "duration": "190i"
      },
      {
        "time": "47616i",
        "midiNote": 49,
        "velocity": 0.6141732283464567,
        "noteName": "C#3",
        "duration": "137i"
      },
      {
        "time": "47744i",
        "midiNote": 57,
        "velocity": 0.6141732283464567,
        "noteName": "A3",
        "duration": "60i"
      },
      {
        "time": "47744i",
        "midiNote": 61,
        "velocity": 0.5354330708661418,
        "noteName": "C#4",
        "duration": "62i"
      },
      {
        "time": "47744i",
        "midiNote": 64,
        "velocity": 0.5669291338582677,
        "noteName": "E4",
        "duration": "64i"
      },
      {
        "time": "47744i",
        "midiNote": 69,
        "velocity": 0.5669291338582677,
        "noteName": "A4",
        "duration": "65i"
      },
      {
        "time": "47808i",
        "midiNote": 50,
        "velocity": 0.5669291338582677,
        "noteName": "D3",
        "duration": "288i"
      },
      {
        "time": "47808i",
        "midiNote": 54,
        "velocity": 0.5669291338582677,
        "noteName": "F#3",
        "duration": "286i"
      },
      {
        "time": "47936i",
        "midiNote": 57,
        "velocity": 0.5669291338582677,
        "noteName": "A3",
        "duration": "183i"
      },
      {
        "time": "47936i",
        "midiNote": 62,
        "velocity": 0.5669291338582677,
        "noteName": "D4",
        "duration": "184i"
      },
      {
        "time": "47936i",
        "midiNote": 69,
        "velocity": 0.5669291338582677,
        "noteName": "A4",
        "duration": "186i"
      },
      {
        "time": "48128i",
        "midiNote": 48,
        "velocity": 0.5511811023622047,
        "noteName": "C3",
        "duration": "429i"
      },
      {
        "time": "48128i",
        "midiNote": 52,
        "velocity": 0.6141732283464567,
        "noteName": "E3",
        "duration": "435i"
      },
      {
        "time": "48192i",
        "midiNote": 55,
        "velocity": 0.5511811023622047,
        "noteName": "G3",
        "duration": "233i"
      },
      {
        "time": "48256i",
        "midiNote": 64,
        "velocity": 0.5511811023622047,
        "noteName": "E4",
        "duration": "73i"
      },
      {
        "time": "48320i",
        "midiNote": 62,
        "velocity": 0.5511811023622047,
        "noteName": "D4",
        "duration": "109i"
      },
      {
        "time": "48448i",
        "midiNote": 55,
        "velocity": 0.49606299212598426,
        "noteName": "G3",
        "duration": "184i"
      },
      {
        "time": "48448i",
        "midiNote": 64,
        "velocity": 0.5354330708661418,
        "noteName": "E4",
        "duration": "195i"
      },
      {
        "time": "48640i",
        "midiNote": 45,
        "velocity": 0.6692913385826772,
        "noteName": "A2",
        "duration": "455i"
      },
      {
        "time": "48704i",
        "midiNote": 52,
        "velocity": 0.6141732283464567,
        "noteName": "E3",
        "duration": "390i"
      },
      {
        "time": "48768i",
        "midiNote": 55,
        "velocity": 0.5511811023622047,
        "noteName": "G3",
        "duration": "325i"
      },
      {
        "time": "48832i",
        "midiNote": 59,
        "velocity": 0.5511811023622047,
        "noteName": "B3",
        "duration": "262i"
      },
      {
        "time": "48832i",
        "midiNote": 64,
        "velocity": 0.5039370078740157,
        "noteName": "E4",
        "duration": "265i"
      },
      {
        "time": "49159i",
        "midiNote": 50,
        "velocity": 0.5039370078740157,
        "noteName": "D3",
        "duration": "903i"
      },
      {
        "time": "49175i",
        "midiNote": 54,
        "velocity": 0.7401574803149606,
        "noteName": "F#3",
        "duration": "891i"
      },
      {
        "time": "49176i",
        "midiNote": 57,
        "velocity": 0.5669291338582677,
        "noteName": "A3",
        "duration": "876i"
      },
      {
        "time": "49187i",
        "midiNote": 62,
        "velocity": 0.5905511811023622,
        "noteName": "D4",
        "duration": "870i"
      },
      {
        "time": "49199i",
        "midiNote": 69,
        "velocity": 0.6692913385826772,
        "noteName": "A4",
        "duration": "863i"
      }
    ],
    [
      {
        "time": "512i",
        "midiNote": 42,
        "velocity": 0.5748031496062992,
        "noteName": "F#2",
        "duration": "199i"
      },
      {
        "time": "512i",
        "midiNote": 49,
        "velocity": 0.5275590551181102,
        "noteName": "C#3",
        "duration": "203i"
      },
      {
        "time": "640i",
        "midiNote": 56,
        "velocity": 0.5354330708661418,
        "noteName": "G#3",
        "duration": "57i"
      },
      {
        "time": "640i",
        "midiNote": 58,
        "velocity": 0.5354330708661418,
        "noteName": "A#3",
        "duration": "57i"
      },
      {
        "time": "640i",
        "midiNote": 61,
        "velocity": 0.5748031496062992,
        "noteName": "C#4",
        "duration": "60i"
      },
      {
        "time": "704i",
        "midiNote": 44,
        "velocity": 0.5826771653543307,
        "noteName": "G#2",
        "duration": "181i"
      },
      {
        "time": "704i",
        "midiNote": 51,
        "velocity": 0.5590551181102362,
        "noteName": "D#3",
        "duration": "186i"
      },
      {
        "time": "832i",
        "midiNote": 56,
        "velocity": 0.5354330708661418,
        "noteName": "G#3",
        "duration": "17i"
      },
      {
        "time": "832i",
        "midiNote": 60,
        "velocity": 0.5984251968503937,
        "noteName": "C4",
        "duration": "24i"
      },
      {
        "time": "896i",
        "midiNote": 56,
        "velocity": 0.5748031496062992,
        "noteName": "G#3",
        "duration": "67i"
      },
      {
        "time": "896i",
        "midiNote": 61,
        "velocity": 0.6299212598425197,
        "noteName": "C#4",
        "duration": "34i"
      },
      {
        "time": "928i",
        "midiNote": 60,
        "velocity": 0.6141732283464567,
        "noteName": "C4",
        "duration": "40i"
      },
      {
        "time": "960i",
        "midiNote": 58,
        "velocity": 0.6141732283464567,
        "noteName": "A#3",
        "duration": "161i"
      },
      {
        "time": "1024i",
        "midiNote": 46,
        "velocity": 0.6456692913385826,
        "noteName": "A#2",
        "duration": "442i"
      },
      {
        "time": "1024i",
        "midiNote": 53,
        "velocity": 0.6141732283464567,
        "noteName": "F3",
        "duration": "144i"
      },
      {
        "time": "1152i",
        "midiNote": 61,
        "velocity": 0.7165354330708661,
        "noteName": "C#4",
        "duration": "325i"
      },
      {
        "time": "1344i",
        "midiNote": 54,
        "velocity": 0.7480314960629921,
        "noteName": "F#3",
        "duration": "73i"
      },
      {
        "time": "1408i",
        "midiNote": 53,
        "velocity": 0.6456692913385826,
        "noteName": "F3",
        "duration": "167i"
      },
      {
        "time": "1472i",
        "midiNote": 49,
        "velocity": 0.6456692913385826,
        "noteName": "C#3",
        "duration": "251i"
      },
      {
        "time": "1472i",
        "midiNote": 58,
        "velocity": 0.6456692913385826,
        "noteName": "A#3",
        "duration": "103i"
      },
      {
        "time": "1472i",
        "midiNote": 63,
        "velocity": 0.6456692913385826,
        "noteName": "D#4",
        "duration": "103i"
      },
      {
        "time": "1536i",
        "midiNote": 42,
        "velocity": 0.6141732283464567,
        "noteName": "F#2",
        "duration": "190i"
      },
      {
        "time": "1600i",
        "midiNote": 58,
        "velocity": 0.7165354330708661,
        "noteName": "A#3",
        "duration": "195i"
      },
      {
        "time": "1600i",
        "midiNote": 61,
        "velocity": 0.6929133858267716,
        "noteName": "C#4",
        "duration": "196i"
      },
      {
        "time": "1728i",
        "midiNote": 44,
        "velocity": 0.6299212598425197,
        "noteName": "G#2",
        "duration": "190i"
      },
      {
        "time": "1728i",
        "midiNote": 51,
        "velocity": 0.5590551181102362,
        "noteName": "D#3",
        "duration": "191i"
      },
      {
        "time": "1856i",
        "midiNote": 60,
        "velocity": 0.6692913385826772,
        "noteName": "C4",
        "duration": "203i"
      },
      {
        "time": "1856i",
        "midiNote": 63,
        "velocity": 0.6456692913385826,
        "noteName": "D#4",
        "duration": "208i"
      },
      {
        "time": "2048i",
        "midiNote": 41,
        "velocity": 0.6141732283464567,
        "noteName": "F2",
        "duration": "147i"
      },
      {
        "time": "2112i",
        "midiNote": 48,
        "velocity": 0.5826771653543307,
        "noteName": "C3",
        "duration": "93i"
      },
      {
        "time": "2176i",
        "midiNote": 53,
        "velocity": 0.6929133858267716,
        "noteName": "F3",
        "duration": "67i"
      },
      {
        "time": "2176i",
        "midiNote": 61,
        "velocity": 0.8188976377952756,
        "noteName": "C#4",
        "duration": "47i"
      },
      {
        "time": "2208i",
        "midiNote": 63,
        "velocity": 0.6929133858267716,
        "noteName": "D#4",
        "duration": "228i"
      },
      {
        "time": "2240i",
        "midiNote": 42,
        "velocity": 0.5748031496062992,
        "noteName": "F#2",
        "duration": "297i"
      },
      {
        "time": "2240i",
        "midiNote": 49,
        "velocity": 0.6299212598425197,
        "noteName": "C#3",
        "duration": "295i"
      },
      {
        "time": "2240i",
        "midiNote": 58,
        "velocity": 0.6929133858267716,
        "noteName": "A#3",
        "duration": "189i"
      },
      {
        "time": "2432i",
        "midiNote": 54,
        "velocity": 0.5354330708661418,
        "noteName": "F#3",
        "duration": "92i"
      },
      {
        "time": "2432i",
        "midiNote": 58,
        "velocity": 0.5275590551181102,
        "noteName": "A#3",
        "duration": "93i"
      },
      {
        "time": "2432i",
        "midiNote": 61,
        "velocity": 0.5748031496062992,
        "noteName": "C#4",
        "duration": "95i"
      },
      {
        "time": "2560i",
        "midiNote": 42,
        "velocity": 0.5748031496062992,
        "noteName": "F#2",
        "duration": "199i"
      },
      {
        "time": "2560i",
        "midiNote": 49,
        "velocity": 0.5275590551181102,
        "noteName": "C#3",
        "duration": "203i"
      },
      {
        "time": "2688i",
        "midiNote": 56,
        "velocity": 0.5354330708661418,
        "noteName": "G#3",
        "duration": "57i"
      },
      {
        "time": "2688i",
        "midiNote": 58,
        "velocity": 0.5354330708661418,
        "noteName": "A#3",
        "duration": "57i"
      },
      {
        "time": "2688i",
        "midiNote": 61,
        "velocity": 0.5748031496062992,
        "noteName": "C#4",
        "duration": "60i"
      },
      {
        "time": "2752i",
        "midiNote": 44,
        "velocity": 0.5826771653543307,
        "noteName": "G#2",
        "duration": "181i"
      },
      {
        "time": "2752i",
        "midiNote": 51,
        "velocity": 0.5590551181102362,
        "noteName": "D#3",
        "duration": "186i"
      },
      {
        "time": "2880i",
        "midiNote": 56,
        "velocity": 0.5354330708661418,
        "noteName": "G#3",
        "duration": "17i"
      },
      {
        "time": "2880i",
        "midiNote": 60,
        "velocity": 0.5984251968503937,
        "noteName": "C4",
        "duration": "24i"
      },
      {
        "time": "2944i",
        "midiNote": 56,
        "velocity": 0.5748031496062992,
        "noteName": "G#3",
        "duration": "67i"
      },
      {
        "time": "2944i",
        "midiNote": 61,
        "velocity": 0.6299212598425197,
        "noteName": "C#4",
        "duration": "34i"
      },
      {
        "time": "2976i",
        "midiNote": 60,
        "velocity": 0.6141732283464567,
        "noteName": "C4",
        "duration": "40i"
      },
      {
        "time": "3008i",
        "midiNote": 58,
        "velocity": 0.6141732283464567,
        "noteName": "A#3",
        "duration": "161i"
      },
      {
        "time": "3072i",
        "midiNote": 46,
        "velocity": 0.6456692913385826,
        "noteName": "A#2",
        "duration": "442i"
      },
      {
        "time": "3072i",
        "midiNote": 53,
        "velocity": 0.6141732283464567,
        "noteName": "F3",
        "duration": "144i"
      },
      {
        "time": "3200i",
        "midiNote": 61,
        "velocity": 0.7165354330708661,
        "noteName": "C#4",
        "duration": "325i"
      },
      {
        "time": "3392i",
        "midiNote": 54,
        "velocity": 0.7480314960629921,
        "noteName": "F#3",
        "duration": "73i"
      },
      {
        "time": "3456i",
        "midiNote": 53,
        "velocity": 0.6456692913385826,
        "noteName": "F3",
        "duration": "167i"
      },
      {
        "time": "3520i",
        "midiNote": 49,
        "velocity": 0.6456692913385826,
        "noteName": "C#3",
        "duration": "251i"
      },
      {
        "time": "3520i",
        "midiNote": 58,
        "velocity": 0.6456692913385826,
        "noteName": "A#3",
        "duration": "103i"
      },
      {
        "time": "3520i",
        "midiNote": 63,
        "velocity": 0.6456692913385826,
        "noteName": "D#4",
        "duration": "103i"
      },
      {
        "time": "3584i",
        "midiNote": 42,
        "velocity": 0.6141732283464567,
        "noteName": "F#2",
        "duration": "190i"
      },
      {
        "time": "3648i",
        "midiNote": 58,
        "velocity": 0.7165354330708661,
        "noteName": "A#3",
        "duration": "195i"
      },
      {
        "time": "3648i",
        "midiNote": 61,
        "velocity": 0.6929133858267716,
        "noteName": "C#4",
        "duration": "196i"
      },
      {
        "time": "3840i",
        "midiNote": 44,
        "velocity": 0.6299212598425197,
        "noteName": "G#2",
        "duration": "190i"
      },
      {
        "time": "3840i",
        "midiNote": 51,
        "velocity": 0.5590551181102362,
        "noteName": "D#3",
        "duration": "191i"
      },
      {
        "time": "3904i",
        "midiNote": 60,
        "velocity": 0.6692913385826772,
        "noteName": "C4",
        "duration": "203i"
      },
      {
        "time": "3904i",
        "midiNote": 63,
        "velocity": 0.6456692913385826,
        "noteName": "D#4",
        "duration": "208i"
      },
      {
        "time": "4096i",
        "midiNote": 41,
        "velocity": 0.6141732283464567,
        "noteName": "F2",
        "duration": "147i"
      },
      {
        "time": "4160i",
        "midiNote": 48,
        "velocity": 0.5826771653543307,
        "noteName": "C3",
        "duration": "93i"
      },
      {
        "time": "4224i",
        "midiNote": 53,
        "velocity": 0.6929133858267716,
        "noteName": "F3",
        "duration": "67i"
      },
      {
        "time": "4224i",
        "midiNote": 61,
        "velocity": 0.8188976377952756,
        "noteName": "C#4",
        "duration": "47i"
      },
      {
        "time": "4256i",
        "midiNote": 63,
        "velocity": 0.6929133858267716,
        "noteName": "D#4",
        "duration": "228i"
      },
      {
        "time": "4288i",
        "midiNote": 42,
        "velocity": 0.5748031496062992,
        "noteName": "F#2",
        "duration": "297i"
      },
      {
        "time": "4288i",
        "midiNote": 49,
        "velocity": 0.6299212598425197,
        "noteName": "C#3",
        "duration": "295i"
      },
      {
        "time": "4288i",
        "midiNote": 58,
        "velocity": 0.6929133858267716,
        "noteName": "A#3",
        "duration": "189i"
      },
      {
        "time": "4480i",
        "midiNote": 54,
        "velocity": 0.5354330708661418,
        "noteName": "F#3",
        "duration": "92i"
      },
      {
        "time": "4480i",
        "midiNote": 58,
        "velocity": 0.5275590551181102,
        "noteName": "A#3",
        "duration": "93i"
      },
      {
        "time": "4480i",
        "midiNote": 61,
        "velocity": 0.5748031496062992,
        "noteName": "C#4",
        "duration": "95i"
      },
      {
        "time": "4608i",
        "midiNote": 42,
        "velocity": 0.7165354330708661,
        "noteName": "F#2",
        "duration": "206i"
      },
      {
        "time": "4672i",
        "midiNote": 49,
        "velocity": 0.6141732283464567,
        "noteName": "C#3",
        "duration": "153i"
      },
      {
        "time": "4736i",
        "midiNote": 56,
        "velocity": 0.5354330708661418,
        "noteName": "G#3",
        "duration": "56i"
      },
      {
        "time": "4736i",
        "midiNote": 58,
        "velocity": 0.5748031496062992,
        "noteName": "A#3",
        "duration": "58i"
      },
      {
        "time": "4736i",
        "midiNote": 61,
        "velocity": 0.6141732283464567,
        "noteName": "C#4",
        "duration": "57i"
      },
      {
        "time": "4736i",
        "midiNote": 68,
        "velocity": 0.6299212598425197,
        "noteName": "G#4",
        "duration": "60i"
      },
      {
        "time": "4800i",
        "midiNote": 44,
        "velocity": 0.7007874015748031,
        "noteName": "G#2",
        "duration": "195i"
      },
      {
        "time": "4928i",
        "midiNote": 51,
        "velocity": 0.5748031496062992,
        "noteName": "D#3",
        "duration": "132i"
      },
      {
        "time": "4928i",
        "midiNote": 58,
        "velocity": 0.5354330708661418,
        "noteName": "A#3",
        "duration": "191i"
      },
      {
        "time": "4928i",
        "midiNote": 60,
        "velocity": 0.5590551181102362,
        "noteName": "C4",
        "duration": "193i"
      },
      {
        "time": "4928i",
        "midiNote": 63,
        "velocity": 0.5590551181102362,
        "noteName": "D#4",
        "duration": "197i"
      },
      {
        "time": "5120i",
        "midiNote": 41,
        "velocity": 0.6929133858267716,
        "noteName": "F2",
        "duration": "141i"
      },
      {
        "time": "5184i",
        "midiNote": 48,
        "velocity": 0.6141732283464567,
        "noteName": "C3",
        "duration": "81i"
      },
      {
        "time": "5184i",
        "midiNote": 58,
        "velocity": 0.6456692913385826,
        "noteName": "A#3",
        "duration": "106i"
      },
      {
        "time": "5216i",
        "midiNote": 60,
        "velocity": 0.5826771653543307,
        "noteName": "C4",
        "duration": "65i"
      },
      {
        "time": "5248i",
        "midiNote": 53,
        "velocity": 0.5748031496062992,
        "noteName": "F3",
        "duration": "35i"
      },
      {
        "time": "5248i",
        "midiNote": 63,
        "velocity": 0.6456692913385826,
        "noteName": "D#4",
        "duration": "41i"
      },
      {
        "time": "5280i",
        "midiNote": 68,
        "velocity": 0.7165354330708661,
        "noteName": "G#4",
        "duration": "197i"
      },
      {
        "time": "5312i",
        "midiNote": 42,
        "velocity": 0.5748031496062992,
        "noteName": "F#2",
        "duration": "310i"
      },
      {
        "time": "5312i",
        "midiNote": 56,
        "velocity": 0.5039370078740157,
        "noteName": "G#3",
        "duration": "153i"
      },
      {
        "time": "5312i",
        "midiNote": 58,
        "velocity": 0.5039370078740157,
        "noteName": "A#3",
        "duration": "151i"
      },
      {
        "time": "5312i",
        "midiNote": 61,
        "velocity": 0.5590551181102362,
        "noteName": "C#4",
        "duration": "147i"
      },
      {
        "time": "5504i",
        "midiNote": 49,
        "velocity": 0.6141732283464567,
        "noteName": "C#3",
        "duration": "118i"
      },
      {
        "time": "5504i",
        "midiNote": 56,
        "velocity": 0.5039370078740157,
        "noteName": "G#3",
        "duration": "126i"
      },
      {
        "time": "5504i",
        "midiNote": 58,
        "velocity": 0.5354330708661418,
        "noteName": "A#3",
        "duration": "126i"
      },
      {
        "time": "5504i",
        "midiNote": 61,
        "velocity": 0.5826771653543307,
        "noteName": "C#4",
        "duration": "131i"
      },
      {
        "time": "5632i",
        "midiNote": 47,
        "velocity": 0.6929133858267716,
        "noteName": "B2",
        "duration": "435i"
      },
      {
        "time": "5696i",
        "midiNote": 54,
        "velocity": 0.6456692913385826,
        "noteName": "F#3",
        "duration": "234i"
      },
      {
        "time": "5760i",
        "midiNote": 59,
        "velocity": 0.6692913385826772,
        "noteName": "B3",
        "duration": "169i"
      },
      {
        "time": "5824i",
        "midiNote": 61,
        "velocity": 0.6299212598425197,
        "noteName": "C#4",
        "duration": "109i"
      },
      {
        "time": "5952i",
        "midiNote": 54,
        "velocity": 0.6299212598425197,
        "noteName": "F#3",
        "duration": "94i"
      },
      {
        "time": "5952i",
        "midiNote": 59,
        "velocity": 0.6692913385826772,
        "noteName": "B3",
        "duration": "88i"
      },
      {
        "time": "5952i",
        "midiNote": 63,
        "velocity": 0.6456692913385826,
        "noteName": "D#4",
        "duration": "113i"
      },
      {
        "time": "6080i",
        "midiNote": 51,
        "velocity": 0.6299212598425197,
        "noteName": "D#3",
        "duration": "247i"
      },
      {
        "time": "6080i",
        "midiNote": 53,
        "velocity": 0.5118110236220472,
        "noteName": "F3",
        "duration": "250i"
      },
      {
        "time": "6080i",
        "midiNote": 56,
        "velocity": 0.7165354330708661,
        "noteName": "G#3",
        "duration": "255i"
      },
      {
        "time": "6080i",
        "midiNote": 61,
        "velocity": 0.6299212598425197,
        "noteName": "C#4",
        "duration": "259i"
      },
      {
        "time": "6080i",
        "midiNote": 65,
        "velocity": 0.5748031496062992,
        "noteName": "F4",
        "duration": "257i"
      },
      {
        "time": "6336i",
        "midiNote": 41,
        "velocity": 0.6692913385826772,
        "noteName": "F2",
        "duration": "281i"
      },
      {
        "time": "6400i",
        "midiNote": 49,
        "velocity": 0.7480314960629921,
        "noteName": "C#3",
        "duration": "216i"
      },
      {
        "time": "6464i",
        "midiNote": 53,
        "velocity": 0.6456692913385826,
        "noteName": "F3",
        "duration": "157i"
      },
      {
        "time": "6464i",
        "midiNote": 56,
        "velocity": 0.6929133858267716,
        "noteName": "G#3",
        "duration": "164i"
      },
      {
        "time": "6528i",
        "midiNote": 61,
        "velocity": 0.6299212598425197,
        "noteName": "C#4",
        "duration": "107i"
      },
      {
        "time": "6592i",
        "midiNote": 68,
        "velocity": 0.6299212598425197,
        "noteName": "G#4",
        "duration": "47i"
      },
      {
        "time": "6656i",
        "midiNote": 42,
        "velocity": 0.5748031496062992,
        "noteName": "F#2",
        "duration": "199i"
      },
      {
        "time": "6656i",
        "midiNote": 49,
        "velocity": 0.5275590551181102,
        "noteName": "C#3",
        "duration": "203i"
      },
      {
        "time": "6784i",
        "midiNote": 56,
        "velocity": 0.5354330708661418,
        "noteName": "G#3",
        "duration": "57i"
      },
      {
        "time": "6784i",
        "midiNote": 58,
        "velocity": 0.5354330708661418,
        "noteName": "A#3",
        "duration": "57i"
      },
      {
        "time": "6784i",
        "midiNote": 61,
        "velocity": 0.5748031496062992,
        "noteName": "C#4",
        "duration": "60i"
      },
      {
        "time": "6848i",
        "midiNote": 44,
        "velocity": 0.5826771653543307,
        "noteName": "G#2",
        "duration": "181i"
      },
      {
        "time": "6848i",
        "midiNote": 51,
        "velocity": 0.5590551181102362,
        "noteName": "D#3",
        "duration": "186i"
      },
      {
        "time": "6976i",
        "midiNote": 56,
        "velocity": 0.5354330708661418,
        "noteName": "G#3",
        "duration": "17i"
      },
      {
        "time": "6976i",
        "midiNote": 60,
        "velocity": 0.5984251968503937,
        "noteName": "C4",
        "duration": "24i"
      },
      {
        "time": "7040i",
        "midiNote": 56,
        "velocity": 0.5748031496062992,
        "noteName": "G#3",
        "duration": "67i"
      },
      {
        "time": "7040i",
        "midiNote": 61,
        "velocity": 0.6299212598425197,
        "noteName": "C#4",
        "duration": "34i"
      },
      {
        "time": "7072i",
        "midiNote": 60,
        "velocity": 0.6141732283464567,
        "noteName": "C4",
        "duration": "40i"
      },
      {
        "time": "7104i",
        "midiNote": 58,
        "velocity": 0.6141732283464567,
        "noteName": "A#3",
        "duration": "161i"
      },
      {
        "time": "7168i",
        "midiNote": 46,
        "velocity": 0.6456692913385826,
        "noteName": "A#2",
        "duration": "442i"
      },
      {
        "time": "7168i",
        "midiNote": 53,
        "velocity": 0.6141732283464567,
        "noteName": "F3",
        "duration": "144i"
      },
      {
        "time": "7296i",
        "midiNote": 61,
        "velocity": 0.7165354330708661,
        "noteName": "C#4",
        "duration": "325i"
      },
      {
        "time": "7488i",
        "midiNote": 54,
        "velocity": 0.7480314960629921,
        "noteName": "F#3",
        "duration": "73i"
      },
      {
        "time": "7552i",
        "midiNote": 53,
        "velocity": 0.6456692913385826,
        "noteName": "F3",
        "duration": "167i"
      },
      {
        "time": "7616i",
        "midiNote": 49,
        "velocity": 0.6456692913385826,
        "noteName": "C#3",
        "duration": "251i"
      },
      {
        "time": "7616i",
        "midiNote": 58,
        "velocity": 0.6456692913385826,
        "noteName": "A#3",
        "duration": "103i"
      },
      {
        "time": "7616i",
        "midiNote": 63,
        "velocity": 0.6456692913385826,
        "noteName": "D#4",
        "duration": "103i"
      },
      {
        "time": "7680i",
        "midiNote": 42,
        "velocity": 0.6141732283464567,
        "noteName": "F#2",
        "duration": "190i"
      },
      {
        "time": "7744i",
        "midiNote": 58,
        "velocity": 0.7165354330708661,
        "noteName": "A#3",
        "duration": "195i"
      },
      {
        "time": "7744i",
        "midiNote": 61,
        "velocity": 0.6929133858267716,
        "noteName": "C#4",
        "duration": "196i"
      },
      {
        "time": "7936i",
        "midiNote": 44,
        "velocity": 0.6299212598425197,
        "noteName": "G#2",
        "duration": "190i"
      },
      {
        "time": "7936i",
        "midiNote": 51,
        "velocity": 0.5590551181102362,
        "noteName": "D#3",
        "duration": "191i"
      },
      {
        "time": "8000i",
        "midiNote": 60,
        "velocity": 0.6692913385826772,
        "noteName": "C4",
        "duration": "203i"
      },
      {
        "time": "8000i",
        "midiNote": 63,
        "velocity": 0.6456692913385826,
        "noteName": "D#4",
        "duration": "208i"
      },
      {
        "time": "8192i",
        "midiNote": 41,
        "velocity": 0.6141732283464567,
        "noteName": "F2",
        "duration": "147i"
      },
      {
        "time": "8256i",
        "midiNote": 48,
        "velocity": 0.5826771653543307,
        "noteName": "C3",
        "duration": "93i"
      },
      {
        "time": "8320i",
        "midiNote": 53,
        "velocity": 0.6929133858267716,
        "noteName": "F3",
        "duration": "67i"
      },
      {
        "time": "8320i",
        "midiNote": 61,
        "velocity": 0.8188976377952756,
        "noteName": "C#4",
        "duration": "47i"
      },
      {
        "time": "8352i",
        "midiNote": 63,
        "velocity": 0.6929133858267716,
        "noteName": "D#4",
        "duration": "228i"
      },
      {
        "time": "8384i",
        "midiNote": 42,
        "velocity": 0.5748031496062992,
        "noteName": "F#2",
        "duration": "297i"
      },
      {
        "time": "8384i",
        "midiNote": 49,
        "velocity": 0.6299212598425197,
        "noteName": "C#3",
        "duration": "295i"
      },
      {
        "time": "8384i",
        "midiNote": 58,
        "velocity": 0.6929133858267716,
        "noteName": "A#3",
        "duration": "189i"
      },
      {
        "time": "8576i",
        "midiNote": 54,
        "velocity": 0.5354330708661418,
        "noteName": "F#3",
        "duration": "92i"
      },
      {
        "time": "8576i",
        "midiNote": 58,
        "velocity": 0.5275590551181102,
        "noteName": "A#3",
        "duration": "93i"
      },
      {
        "time": "8576i",
        "midiNote": 61,
        "velocity": 0.5748031496062992,
        "noteName": "C#4",
        "duration": "95i"
      },
      {
        "time": "8704i",
        "midiNote": 42,
        "velocity": 0.5748031496062992,
        "noteName": "F#2",
        "duration": "199i"
      },
      {
        "time": "8704i",
        "midiNote": 49,
        "velocity": 0.5275590551181102,
        "noteName": "C#3",
        "duration": "203i"
      },
      {
        "time": "8832i",
        "midiNote": 56,
        "velocity": 0.5354330708661418,
        "noteName": "G#3",
        "duration": "57i"
      },
      {
        "time": "8832i",
        "midiNote": 58,
        "velocity": 0.5354330708661418,
        "noteName": "A#3",
        "duration": "57i"
      },
      {
        "time": "8832i",
        "midiNote": 61,
        "velocity": 0.5748031496062992,
        "noteName": "C#4",
        "duration": "60i"
      },
      {
        "time": "8896i",
        "midiNote": 44,
        "velocity": 0.5826771653543307,
        "noteName": "G#2",
        "duration": "181i"
      },
      {
        "time": "8896i",
        "midiNote": 51,
        "velocity": 0.5590551181102362,
        "noteName": "D#3",
        "duration": "186i"
      },
      {
        "time": "9024i",
        "midiNote": 56,
        "velocity": 0.5354330708661418,
        "noteName": "G#3",
        "duration": "17i"
      },
      {
        "time": "9024i",
        "midiNote": 60,
        "velocity": 0.5984251968503937,
        "noteName": "C4",
        "duration": "24i"
      },
      {
        "time": "9088i",
        "midiNote": 56,
        "velocity": 0.5748031496062992,
        "noteName": "G#3",
        "duration": "67i"
      },
      {
        "time": "9088i",
        "midiNote": 61,
        "velocity": 0.6299212598425197,
        "noteName": "C#4",
        "duration": "34i"
      },
      {
        "time": "9120i",
        "midiNote": 60,
        "velocity": 0.6141732283464567,
        "noteName": "C4",
        "duration": "40i"
      },
      {
        "time": "9152i",
        "midiNote": 58,
        "velocity": 0.6141732283464567,
        "noteName": "A#3",
        "duration": "33i"
      },
      {
        "time": "9216i",
        "midiNote": 47,
        "velocity": 0.6456692913385826,
        "noteName": "B2",
        "duration": "193i"
      },
      {
        "time": "9216i",
        "midiNote": 54,
        "velocity": 0.6456692913385826,
        "noteName": "F#3",
        "duration": "199i"
      },
      {
        "time": "9280i",
        "midiNote": 66,
        "velocity": 0.6929133858267716,
        "noteName": "F#4",
        "duration": "81i"
      },
      {
        "time": "9344i",
        "midiNote": 63,
        "velocity": 0.5826771653543307,
        "noteName": "D#4",
        "duration": "67i"
      },
      {
        "time": "9408i",
        "midiNote": 46,
        "velocity": 0.6299212598425197,
        "noteName": "A#2",
        "duration": "315i"
      },
      {
        "time": "9408i",
        "midiNote": 58,
        "velocity": 0.5826771653543307,
        "noteName": "A#3",
        "duration": "104i"
      },
      {
        "time": "9408i",
        "midiNote": 61,
        "velocity": 0.5826771653543307,
        "noteName": "C#4",
        "duration": "105i"
      },
      {
        "time": "9408i",
        "midiNote": 65,
        "velocity": 0.5590551181102362,
        "noteName": "F4",
        "duration": "109i"
      },
      {
        "time": "9536i",
        "midiNote": 53,
        "velocity": 0.5196850393700787,
        "noteName": "F3",
        "duration": "165i"
      },
      {
        "time": "9536i",
        "midiNote": 58,
        "velocity": 0.5275590551181102,
        "noteName": "A#3",
        "duration": "181i"
      },
      {
        "time": "9536i",
        "midiNote": 61,
        "velocity": 0.5196850393700787,
        "noteName": "C#4",
        "duration": "185i"
      },
      {
        "time": "9728i",
        "midiNote": 41,
        "velocity": 0.6456692913385826,
        "noteName": "F2",
        "duration": "497i"
      },
      {
        "time": "9792i",
        "midiNote": 51,
        "velocity": 0.6141732283464567,
        "noteName": "D#3",
        "duration": "431i"
      },
      {
        "time": "9856i",
        "midiNote": 57,
        "velocity": 0.6141732283464567,
        "noteName": "A3",
        "duration": "355i"
      },
      {
        "time": "9920i",
        "midiNote": 63,
        "velocity": 0.6929133858267716,
        "noteName": "D#4",
        "duration": "305i"
      },
      {
        "time": "10048i",
        "midiNote": 65,
        "velocity": 0.6299212598425197,
        "noteName": "F4",
        "duration": "171i"
      },
      {
        "time": "10240i",
        "midiNote": 46,
        "velocity": 0.6141732283464567,
        "noteName": "A#2",
        "duration": "405i"
      },
      {
        "time": "10240i",
        "midiNote": 53,
        "velocity": 0.5590551181102362,
        "noteName": "F3",
        "duration": "398i"
      },
      {
        "time": "10240i",
        "midiNote": 58,
        "velocity": 0.5748031496062992,
        "noteName": "A#3",
        "duration": "404i"
      },
      {
        "time": "10240i",
        "midiNote": 61,
        "velocity": 0.5590551181102362,
        "noteName": "C#4",
        "duration": "405i"
      },
      {
        "time": "10240i",
        "midiNote": 65,
        "velocity": 0.5196850393700787,
        "noteName": "F4",
        "duration": "406i"
      },
      {
        "time": "10752i",
        "midiNote": 42,
        "velocity": 0.5748031496062992,
        "noteName": "F#2",
        "duration": "199i"
      },
      {
        "time": "10752i",
        "midiNote": 49,
        "velocity": 0.5275590551181102,
        "noteName": "C#3",
        "duration": "203i"
      },
      {
        "time": "10880i",
        "midiNote": 56,
        "velocity": 0.5354330708661418,
        "noteName": "G#3",
        "duration": "57i"
      },
      {
        "time": "10880i",
        "midiNote": 58,
        "velocity": 0.5354330708661418,
        "noteName": "A#3",
        "duration": "57i"
      },
      {
        "time": "10880i",
        "midiNote": 61,
        "velocity": 0.5748031496062992,
        "noteName": "C#4",
        "duration": "60i"
      },
      {
        "time": "10944i",
        "midiNote": 44,
        "velocity": 0.5826771653543307,
        "noteName": "G#2",
        "duration": "181i"
      },
      {
        "time": "10944i",
        "midiNote": 51,
        "velocity": 0.5590551181102362,
        "noteName": "D#3",
        "duration": "186i"
      },
      {
        "time": "11072i",
        "midiNote": 56,
        "velocity": 0.5354330708661418,
        "noteName": "G#3",
        "duration": "17i"
      },
      {
        "time": "11072i",
        "midiNote": 60,
        "velocity": 0.5984251968503937,
        "noteName": "C4",
        "duration": "24i"
      },
      {
        "time": "11136i",
        "midiNote": 56,
        "velocity": 0.5748031496062992,
        "noteName": "G#3",
        "duration": "67i"
      },
      {
        "time": "11136i",
        "midiNote": 61,
        "velocity": 0.6299212598425197,
        "noteName": "C#4",
        "duration": "34i"
      },
      {
        "time": "11168i",
        "midiNote": 60,
        "velocity": 0.6141732283464567,
        "noteName": "C4",
        "duration": "40i"
      },
      {
        "time": "11200i",
        "midiNote": 58,
        "velocity": 0.6141732283464567,
        "noteName": "A#3",
        "duration": "161i"
      },
      {
        "time": "11264i",
        "midiNote": 46,
        "velocity": 0.6456692913385826,
        "noteName": "A#2",
        "duration": "442i"
      },
      {
        "time": "11264i",
        "midiNote": 53,
        "velocity": 0.6141732283464567,
        "noteName": "F3",
        "duration": "144i"
      },
      {
        "time": "11392i",
        "midiNote": 61,
        "velocity": 0.7165354330708661,
        "noteName": "C#4",
        "duration": "325i"
      },
      {
        "time": "11584i",
        "midiNote": 54,
        "velocity": 0.7480314960629921,
        "noteName": "F#3",
        "duration": "73i"
      },
      {
        "time": "11648i",
        "midiNote": 53,
        "velocity": 0.6456692913385826,
        "noteName": "F3",
        "duration": "167i"
      },
      {
        "time": "11712i",
        "midiNote": 49,
        "velocity": 0.6456692913385826,
        "noteName": "C#3",
        "duration": "251i"
      },
      {
        "time": "11712i",
        "midiNote": 58,
        "velocity": 0.6456692913385826,
        "noteName": "A#3",
        "duration": "103i"
      },
      {
        "time": "11712i",
        "midiNote": 63,
        "velocity": 0.6456692913385826,
        "noteName": "D#4",
        "duration": "103i"
      },
      {
        "time": "11776i",
        "midiNote": 42,
        "velocity": 0.6141732283464567,
        "noteName": "F#2",
        "duration": "190i"
      },
      {
        "time": "11840i",
        "midiNote": 58,
        "velocity": 0.7165354330708661,
        "noteName": "A#3",
        "duration": "195i"
      },
      {
        "time": "11840i",
        "midiNote": 61,
        "velocity": 0.6929133858267716,
        "noteName": "C#4",
        "duration": "196i"
      },
      {
        "time": "12032i",
        "midiNote": 44,
        "velocity": 0.6299212598425197,
        "noteName": "G#2",
        "duration": "190i"
      },
      {
        "time": "12032i",
        "midiNote": 51,
        "velocity": 0.5590551181102362,
        "noteName": "D#3",
        "duration": "191i"
      },
      {
        "time": "12096i",
        "midiNote": 60,
        "velocity": 0.6692913385826772,
        "noteName": "C4",
        "duration": "203i"
      },
      {
        "time": "12096i",
        "midiNote": 63,
        "velocity": 0.6456692913385826,
        "noteName": "D#4",
        "duration": "208i"
      },
      {
        "time": "12288i",
        "midiNote": 41,
        "velocity": 0.6141732283464567,
        "noteName": "F2",
        "duration": "147i"
      },
      {
        "time": "12352i",
        "midiNote": 48,
        "velocity": 0.5826771653543307,
        "noteName": "C3",
        "duration": "93i"
      },
      {
        "time": "12416i",
        "midiNote": 53,
        "velocity": 0.6929133858267716,
        "noteName": "F3",
        "duration": "67i"
      },
      {
        "time": "12416i",
        "midiNote": 61,
        "velocity": 0.8188976377952756,
        "noteName": "C#4",
        "duration": "47i"
      },
      {
        "time": "12448i",
        "midiNote": 63,
        "velocity": 0.6929133858267716,
        "noteName": "D#4",
        "duration": "228i"
      },
      {
        "time": "12480i",
        "midiNote": 42,
        "velocity": 0.5748031496062992,
        "noteName": "F#2",
        "duration": "297i"
      },
      {
        "time": "12480i",
        "midiNote": 49,
        "velocity": 0.6299212598425197,
        "noteName": "C#3",
        "duration": "295i"
      },
      {
        "time": "12480i",
        "midiNote": 58,
        "velocity": 0.6929133858267716,
        "noteName": "A#3",
        "duration": "189i"
      },
      {
        "time": "12672i",
        "midiNote": 54,
        "velocity": 0.5354330708661418,
        "noteName": "F#3",
        "duration": "92i"
      },
      {
        "time": "12672i",
        "midiNote": 58,
        "velocity": 0.5275590551181102,
        "noteName": "A#3",
        "duration": "93i"
      },
      {
        "time": "12672i",
        "midiNote": 61,
        "velocity": 0.5748031496062992,
        "noteName": "C#4",
        "duration": "95i"
      },
      {
        "time": "12800i",
        "midiNote": 42,
        "velocity": 0.6141732283464567,
        "noteName": "F#2",
        "duration": "127i"
      },
      {
        "time": "12800i",
        "midiNote": 49,
        "velocity": 0.6141732283464567,
        "noteName": "C#3",
        "duration": "127i"
      },
      {
        "time": "12864i",
        "midiNote": 56,
        "velocity": 0.6456692913385826,
        "noteName": "G#3",
        "duration": "119i"
      },
      {
        "time": "12928i",
        "midiNote": 58,
        "velocity": 0.5826771653543307,
        "noteName": "A#3",
        "duration": "56i"
      },
      {
        "time": "12928i",
        "midiNote": 61,
        "velocity": 0.5826771653543307,
        "noteName": "C#4",
        "duration": "57i"
      },
      {
        "time": "12928i",
        "midiNote": 66,
        "velocity": 0.6929133858267716,
        "noteName": "F#4",
        "duration": "59i"
      },
      {
        "time": "12992i",
        "midiNote": 44,
        "velocity": 0.6299212598425197,
        "noteName": "G#2",
        "duration": "275i"
      },
      {
        "time": "12992i",
        "midiNote": 51,
        "velocity": 0.5826771653543307,
        "noteName": "D#3",
        "duration": "287i"
      },
      {
        "time": "13120i",
        "midiNote": 60,
        "velocity": 0.6456692913385826,
        "noteName": "C4",
        "duration": "176i"
      },
      {
        "time": "13120i",
        "midiNote": 63,
        "velocity": 0.6141732283464567,
        "noteName": "D#4",
        "duration": "178i"
      },
      {
        "time": "13120i",
        "midiNote": 68,
        "velocity": 0.6456692913385826,
        "noteName": "G#4",
        "duration": "179i"
      },
      {
        "time": "13312i",
        "midiNote": 48,
        "velocity": 0.7165354330708661,
        "noteName": "C3",
        "duration": "169i"
      },
      {
        "time": "13376i",
        "midiNote": 56,
        "velocity": 0.6456692913385826,
        "noteName": "G#3",
        "duration": "128i"
      },
      {
        "time": "13440i",
        "midiNote": 60,
        "velocity": 0.5984251968503937,
        "noteName": "C4",
        "duration": "41i"
      },
      {
        "time": "13440i",
        "midiNote": 63,
        "velocity": 0.6141732283464567,
        "noteName": "D#4",
        "duration": "64i"
      },
      {
        "time": "13440i",
        "midiNote": 68,
        "velocity": 0.7165354330708661,
        "noteName": "G#4",
        "duration": "58i"
      },
      {
        "time": "13504i",
        "midiNote": 49,
        "velocity": 0.7165354330708661,
        "noteName": "C#3",
        "duration": "289i"
      },
      {
        "time": "13504i",
        "midiNote": 56,
        "velocity": 0.44881889763779526,
        "noteName": "G#3",
        "duration": "99i"
      },
      {
        "time": "13504i",
        "midiNote": 61,
        "velocity": 0.6929133858267716,
        "noteName": "C#4",
        "duration": "103i"
      },
      {
        "time": "13504i",
        "midiNote": 63,
        "velocity": 0.3937007874015748,
        "noteName": "D#4",
        "duration": "99i"
      },
      {
        "time": "13632i",
        "midiNote": 56,
        "velocity": 0.6299212598425197,
        "noteName": "G#3",
        "duration": "147i"
      },
      {
        "time": "13632i",
        "midiNote": 61,
        "velocity": 0.6299212598425197,
        "noteName": "C#4",
        "duration": "149i"
      },
      {
        "time": "13632i",
        "midiNote": 65,
        "velocity": 0.6692913385826772,
        "noteName": "F4",
        "duration": "148i"
      },
      {
        "time": "13824i",
        "midiNote": 47,
        "velocity": 0.5826771653543307,
        "noteName": "B2",
        "duration": "433i"
      },
      {
        "time": "13824i",
        "midiNote": 54,
        "velocity": 0.7165354330708661,
        "noteName": "F#3",
        "duration": "483i"
      },
      {
        "time": "13888i",
        "midiNote": 59,
        "velocity": 0.6692913385826772,
        "noteName": "B3",
        "duration": "421i"
      },
      {
        "time": "13952i",
        "midiNote": 61,
        "velocity": 0.6456692913385826,
        "noteName": "C#4",
        "duration": "72i"
      },
      {
        "time": "14016i",
        "midiNote": 63,
        "velocity": 0.6456692913385826,
        "noteName": "D#4",
        "duration": "291i"
      },
      {
        "time": "14336i",
        "midiNote": 44,
        "velocity": 0.7165354330708661,
        "noteName": "G#2",
        "duration": "425i"
      },
      {
        "time": "14400i",
        "midiNote": 54,
        "velocity": 0.6456692913385826,
        "noteName": "F#3",
        "duration": "354i"
      },
      {
        "time": "14464i",
        "midiNote": 58,
        "velocity": 0.6299212598425197,
        "noteName": "A#3",
        "duration": "289i"
      },
      {
        "time": "14528i",
        "midiNote": 66,
        "velocity": 0.6456692913385826,
        "noteName": "F#4",
        "duration": "231i"
      },
      {
        "time": "14848i",
        "midiNote": 42,
        "velocity": 0.5748031496062992,
        "noteName": "F#2",
        "duration": "199i"
      },
      {
        "time": "14848i",
        "midiNote": 49,
        "velocity": 0.5275590551181102,
        "noteName": "C#3",
        "duration": "203i"
      },
      {
        "time": "14976i",
        "midiNote": 56,
        "velocity": 0.5354330708661418,
        "noteName": "G#3",
        "duration": "57i"
      },
      {
        "time": "14976i",
        "midiNote": 58,
        "velocity": 0.5354330708661418,
        "noteName": "A#3",
        "duration": "57i"
      },
      {
        "time": "14976i",
        "midiNote": 61,
        "velocity": 0.5748031496062992,
        "noteName": "C#4",
        "duration": "60i"
      },
      {
        "time": "15040i",
        "midiNote": 44,
        "velocity": 0.5826771653543307,
        "noteName": "G#2",
        "duration": "181i"
      },
      {
        "time": "15040i",
        "midiNote": 51,
        "velocity": 0.5590551181102362,
        "noteName": "D#3",
        "duration": "186i"
      },
      {
        "time": "15168i",
        "midiNote": 56,
        "velocity": 0.5354330708661418,
        "noteName": "G#3",
        "duration": "17i"
      },
      {
        "time": "15168i",
        "midiNote": 60,
        "velocity": 0.5984251968503937,
        "noteName": "C4",
        "duration": "24i"
      },
      {
        "time": "15232i",
        "midiNote": 56,
        "velocity": 0.5748031496062992,
        "noteName": "G#3",
        "duration": "67i"
      },
      {
        "time": "15232i",
        "midiNote": 61,
        "velocity": 0.6299212598425197,
        "noteName": "C#4",
        "duration": "34i"
      },
      {
        "time": "15264i",
        "midiNote": 60,
        "velocity": 0.6141732283464567,
        "noteName": "C4",
        "duration": "40i"
      },
      {
        "time": "15296i",
        "midiNote": 58,
        "velocity": 0.6141732283464567,
        "noteName": "A#3",
        "duration": "161i"
      },
      {
        "time": "15360i",
        "midiNote": 46,
        "velocity": 0.6456692913385826,
        "noteName": "A#2",
        "duration": "442i"
      },
      {
        "time": "15360i",
        "midiNote": 53,
        "velocity": 0.6141732283464567,
        "noteName": "F3",
        "duration": "144i"
      },
      {
        "time": "15488i",
        "midiNote": 61,
        "velocity": 0.7165354330708661,
        "noteName": "C#4",
        "duration": "325i"
      },
      {
        "time": "15680i",
        "midiNote": 54,
        "velocity": 0.7480314960629921,
        "noteName": "F#3",
        "duration": "73i"
      },
      {
        "time": "15744i",
        "midiNote": 53,
        "velocity": 0.6456692913385826,
        "noteName": "F3",
        "duration": "167i"
      },
      {
        "time": "15808i",
        "midiNote": 49,
        "velocity": 0.6456692913385826,
        "noteName": "C#3",
        "duration": "251i"
      },
      {
        "time": "15808i",
        "midiNote": 58,
        "velocity": 0.6456692913385826,
        "noteName": "A#3",
        "duration": "103i"
      },
      {
        "time": "15808i",
        "midiNote": 63,
        "velocity": 0.6456692913385826,
        "noteName": "D#4",
        "duration": "103i"
      },
      {
        "time": "15872i",
        "midiNote": 42,
        "velocity": 0.6141732283464567,
        "noteName": "F#2",
        "duration": "190i"
      },
      {
        "time": "15936i",
        "midiNote": 58,
        "velocity": 0.7165354330708661,
        "noteName": "A#3",
        "duration": "195i"
      },
      {
        "time": "15936i",
        "midiNote": 61,
        "velocity": 0.6929133858267716,
        "noteName": "C#4",
        "duration": "196i"
      },
      {
        "time": "16128i",
        "midiNote": 44,
        "velocity": 0.6299212598425197,
        "noteName": "G#2",
        "duration": "190i"
      },
      {
        "time": "16128i",
        "midiNote": 51,
        "velocity": 0.5590551181102362,
        "noteName": "D#3",
        "duration": "191i"
      },
      {
        "time": "16192i",
        "midiNote": 60,
        "velocity": 0.6692913385826772,
        "noteName": "C4",
        "duration": "203i"
      },
      {
        "time": "16192i",
        "midiNote": 63,
        "velocity": 0.6456692913385826,
        "noteName": "D#4",
        "duration": "208i"
      },
      {
        "time": "16384i",
        "midiNote": 41,
        "velocity": 0.6141732283464567,
        "noteName": "F2",
        "duration": "147i"
      },
      {
        "time": "16448i",
        "midiNote": 48,
        "velocity": 0.5826771653543307,
        "noteName": "C3",
        "duration": "93i"
      },
      {
        "time": "16512i",
        "midiNote": 53,
        "velocity": 0.6929133858267716,
        "noteName": "F3",
        "duration": "67i"
      },
      {
        "time": "16512i",
        "midiNote": 61,
        "velocity": 0.8188976377952756,
        "noteName": "C#4",
        "duration": "47i"
      },
      {
        "time": "16544i",
        "midiNote": 63,
        "velocity": 0.6929133858267716,
        "noteName": "D#4",
        "duration": "228i"
      },
      {
        "time": "16576i",
        "midiNote": 42,
        "velocity": 0.5748031496062992,
        "noteName": "F#2",
        "duration": "297i"
      },
      {
        "time": "16576i",
        "midiNote": 49,
        "velocity": 0.6299212598425197,
        "noteName": "C#3",
        "duration": "295i"
      },
      {
        "time": "16576i",
        "midiNote": 58,
        "velocity": 0.6929133858267716,
        "noteName": "A#3",
        "duration": "189i"
      },
      {
        "time": "16768i",
        "midiNote": 54,
        "velocity": 0.5354330708661418,
        "noteName": "F#3",
        "duration": "92i"
      },
      {
        "time": "16768i",
        "midiNote": 58,
        "velocity": 0.5275590551181102,
        "noteName": "A#3",
        "duration": "93i"
      },
      {
        "time": "16768i",
        "midiNote": 61,
        "velocity": 0.5748031496062992,
        "noteName": "C#4",
        "duration": "95i"
      },
      {
        "time": "16896i",
        "midiNote": 42,
        "velocity": 0.7165354330708661,
        "noteName": "F#2",
        "duration": "206i"
      },
      {
        "time": "16960i",
        "midiNote": 49,
        "velocity": 0.6141732283464567,
        "noteName": "C#3",
        "duration": "153i"
      },
      {
        "time": "17024i",
        "midiNote": 56,
        "velocity": 0.5354330708661418,
        "noteName": "G#3",
        "duration": "56i"
      },
      {
        "time": "17024i",
        "midiNote": 58,
        "velocity": 0.5748031496062992,
        "noteName": "A#3",
        "duration": "58i"
      },
      {
        "time": "17024i",
        "midiNote": 61,
        "velocity": 0.6141732283464567,
        "noteName": "C#4",
        "duration": "57i"
      },
      {
        "time": "17024i",
        "midiNote": 68,
        "velocity": 0.6299212598425197,
        "noteName": "G#4",
        "duration": "60i"
      },
      {
        "time": "17088i",
        "midiNote": 44,
        "velocity": 0.7007874015748031,
        "noteName": "G#2",
        "duration": "195i"
      },
      {
        "time": "17216i",
        "midiNote": 51,
        "velocity": 0.5748031496062992,
        "noteName": "D#3",
        "duration": "132i"
      },
      {
        "time": "17216i",
        "midiNote": 58,
        "velocity": 0.5354330708661418,
        "noteName": "A#3",
        "duration": "191i"
      },
      {
        "time": "17216i",
        "midiNote": 60,
        "velocity": 0.5590551181102362,
        "noteName": "C4",
        "duration": "193i"
      },
      {
        "time": "17216i",
        "midiNote": 63,
        "velocity": 0.5590551181102362,
        "noteName": "D#4",
        "duration": "197i"
      },
      {
        "time": "17408i",
        "midiNote": 46,
        "velocity": 0.5590551181102362,
        "noteName": "A#2",
        "duration": "491i"
      },
      {
        "time": "17472i",
        "midiNote": 61,
        "velocity": 0.6141732283464567,
        "noteName": "C#4",
        "duration": "444i"
      },
      {
        "time": "17536i",
        "midiNote": 65,
        "velocity": 0.5826771653543307,
        "noteName": "F4",
        "duration": "377i"
      },
      {
        "time": "17600i",
        "midiNote": 58,
        "velocity": 0.6141732283464567,
        "noteName": "A#3",
        "duration": "97i"
      },
      {
        "time": "17728i",
        "midiNote": 56,
        "velocity": 0.6850393700787402,
        "noteName": "G#3",
        "duration": "119i"
      },
      {
        "time": "17856i",
        "midiNote": 58,
        "velocity": 0.49606299212598426,
        "noteName": "A#3",
        "duration": "50i"
      },
      {
        "time": "17920i",
        "midiNote": 47,
        "velocity": 0.6929133858267716,
        "noteName": "B2",
        "duration": "435i"
      },
      {
        "time": "17984i",
        "midiNote": 54,
        "velocity": 0.6456692913385826,
        "noteName": "F#3",
        "duration": "234i"
      },
      {
        "time": "18048i",
        "midiNote": 59,
        "velocity": 0.6692913385826772,
        "noteName": "B3",
        "duration": "169i"
      },
      {
        "time": "18112i",
        "midiNote": 61,
        "velocity": 0.6299212598425197,
        "noteName": "C#4",
        "duration": "109i"
      },
      {
        "time": "18240i",
        "midiNote": 54,
        "velocity": 0.6299212598425197,
        "noteName": "F#3",
        "duration": "94i"
      },
      {
        "time": "18240i",
        "midiNote": 59,
        "velocity": 0.6692913385826772,
        "noteName": "B3",
        "duration": "88i"
      },
      {
        "time": "18240i",
        "midiNote": 63,
        "velocity": 0.6456692913385826,
        "noteName": "D#4",
        "duration": "113i"
      },
      {
        "time": "18368i",
        "midiNote": 51,
        "velocity": 0.6299212598425197,
        "noteName": "D#3",
        "duration": "247i"
      },
      {
        "time": "18368i",
        "midiNote": 53,
        "velocity": 0.5118110236220472,
        "noteName": "F3",
        "duration": "250i"
      },
      {
        "time": "18368i",
        "midiNote": 56,
        "velocity": 0.7165354330708661,
        "noteName": "G#3",
        "duration": "255i"
      },
      {
        "time": "18368i",
        "midiNote": 61,
        "velocity": 0.6299212598425197,
        "noteName": "C#4",
        "duration": "259i"
      },
      {
        "time": "18368i",
        "midiNote": 65,
        "velocity": 0.5748031496062992,
        "noteName": "F4",
        "duration": "257i"
      },
      {
        "time": "18624i",
        "midiNote": 41,
        "velocity": 0.6692913385826772,
        "noteName": "F2",
        "duration": "281i"
      },
      {
        "time": "18688i",
        "midiNote": 49,
        "velocity": 0.7480314960629921,
        "noteName": "C#3",
        "duration": "216i"
      },
      {
        "time": "18752i",
        "midiNote": 53,
        "velocity": 0.6456692913385826,
        "noteName": "F3",
        "duration": "157i"
      },
      {
        "time": "18752i",
        "midiNote": 56,
        "velocity": 0.6929133858267716,
        "noteName": "G#3",
        "duration": "164i"
      },
      {
        "time": "18816i",
        "midiNote": 61,
        "velocity": 0.6299212598425197,
        "noteName": "C#4",
        "duration": "107i"
      },
      {
        "time": "18880i",
        "midiNote": 68,
        "velocity": 0.6299212598425197,
        "noteName": "G#4",
        "duration": "47i"
      },
      {
        "time": "18944i",
        "midiNote": 42,
        "velocity": 0.5748031496062992,
        "noteName": "F#2",
        "duration": "199i"
      },
      {
        "time": "18944i",
        "midiNote": 49,
        "velocity": 0.5275590551181102,
        "noteName": "C#3",
        "duration": "203i"
      },
      {
        "time": "19072i",
        "midiNote": 56,
        "velocity": 0.5354330708661418,
        "noteName": "G#3",
        "duration": "57i"
      },
      {
        "time": "19072i",
        "midiNote": 58,
        "velocity": 0.5354330708661418,
        "noteName": "A#3",
        "duration": "57i"
      },
      {
        "time": "19072i",
        "midiNote": 61,
        "velocity": 0.5748031496062992,
        "noteName": "C#4",
        "duration": "60i"
      },
      {
        "time": "19136i",
        "midiNote": 44,
        "velocity": 0.5826771653543307,
        "noteName": "G#2",
        "duration": "181i"
      },
      {
        "time": "19136i",
        "midiNote": 51,
        "velocity": 0.5590551181102362,
        "noteName": "D#3",
        "duration": "186i"
      },
      {
        "time": "19264i",
        "midiNote": 56,
        "velocity": 0.5354330708661418,
        "noteName": "G#3",
        "duration": "17i"
      },
      {
        "time": "19264i",
        "midiNote": 60,
        "velocity": 0.5984251968503937,
        "noteName": "C4",
        "duration": "24i"
      },
      {
        "time": "19328i",
        "midiNote": 56,
        "velocity": 0.5748031496062992,
        "noteName": "G#3",
        "duration": "67i"
      },
      {
        "time": "19328i",
        "midiNote": 61,
        "velocity": 0.6299212598425197,
        "noteName": "C#4",
        "duration": "34i"
      },
      {
        "time": "19360i",
        "midiNote": 60,
        "velocity": 0.6141732283464567,
        "noteName": "C4",
        "duration": "40i"
      },
      {
        "time": "19392i",
        "midiNote": 58,
        "velocity": 0.6141732283464567,
        "noteName": "A#3",
        "duration": "161i"
      },
      {
        "time": "19456i",
        "midiNote": 46,
        "velocity": 0.6456692913385826,
        "noteName": "A#2",
        "duration": "442i"
      },
      {
        "time": "19456i",
        "midiNote": 53,
        "velocity": 0.6141732283464567,
        "noteName": "F3",
        "duration": "144i"
      },
      {
        "time": "19584i",
        "midiNote": 61,
        "velocity": 0.7165354330708661,
        "noteName": "C#4",
        "duration": "325i"
      },
      {
        "time": "19776i",
        "midiNote": 54,
        "velocity": 0.7480314960629921,
        "noteName": "F#3",
        "duration": "73i"
      },
      {
        "time": "19840i",
        "midiNote": 53,
        "velocity": 0.6456692913385826,
        "noteName": "F3",
        "duration": "167i"
      },
      {
        "time": "19904i",
        "midiNote": 49,
        "velocity": 0.6456692913385826,
        "noteName": "C#3",
        "duration": "251i"
      },
      {
        "time": "19904i",
        "midiNote": 58,
        "velocity": 0.6456692913385826,
        "noteName": "A#3",
        "duration": "103i"
      },
      {
        "time": "19904i",
        "midiNote": 63,
        "velocity": 0.6456692913385826,
        "noteName": "D#4",
        "duration": "103i"
      },
      {
        "time": "19968i",
        "midiNote": 42,
        "velocity": 0.6141732283464567,
        "noteName": "F#2",
        "duration": "190i"
      },
      {
        "time": "20032i",
        "midiNote": 58,
        "velocity": 0.7165354330708661,
        "noteName": "A#3",
        "duration": "195i"
      },
      {
        "time": "20032i",
        "midiNote": 61,
        "velocity": 0.6929133858267716,
        "noteName": "C#4",
        "duration": "196i"
      },
      {
        "time": "20224i",
        "midiNote": 44,
        "velocity": 0.6299212598425197,
        "noteName": "G#2",
        "duration": "190i"
      },
      {
        "time": "20224i",
        "midiNote": 51,
        "velocity": 0.5590551181102362,
        "noteName": "D#3",
        "duration": "191i"
      },
      {
        "time": "20288i",
        "midiNote": 60,
        "velocity": 0.6692913385826772,
        "noteName": "C4",
        "duration": "203i"
      },
      {
        "time": "20288i",
        "midiNote": 63,
        "velocity": 0.6456692913385826,
        "noteName": "D#4",
        "duration": "208i"
      },
      {
        "time": "20480i",
        "midiNote": 41,
        "velocity": 0.6141732283464567,
        "noteName": "F2",
        "duration": "147i"
      },
      {
        "time": "20544i",
        "midiNote": 48,
        "velocity": 0.5826771653543307,
        "noteName": "C3",
        "duration": "93i"
      },
      {
        "time": "20608i",
        "midiNote": 53,
        "velocity": 0.6929133858267716,
        "noteName": "F3",
        "duration": "67i"
      },
      {
        "time": "20608i",
        "midiNote": 61,
        "velocity": 0.8188976377952756,
        "noteName": "C#4",
        "duration": "47i"
      },
      {
        "time": "20640i",
        "midiNote": 63,
        "velocity": 0.6929133858267716,
        "noteName": "D#4",
        "duration": "228i"
      },
      {
        "time": "20672i",
        "midiNote": 42,
        "velocity": 0.5748031496062992,
        "noteName": "F#2",
        "duration": "297i"
      },
      {
        "time": "20672i",
        "midiNote": 49,
        "velocity": 0.6299212598425197,
        "noteName": "C#3",
        "duration": "295i"
      },
      {
        "time": "20672i",
        "midiNote": 58,
        "velocity": 0.6929133858267716,
        "noteName": "A#3",
        "duration": "189i"
      },
      {
        "time": "20864i",
        "midiNote": 54,
        "velocity": 0.5354330708661418,
        "noteName": "F#3",
        "duration": "92i"
      },
      {
        "time": "20864i",
        "midiNote": 58,
        "velocity": 0.5275590551181102,
        "noteName": "A#3",
        "duration": "93i"
      },
      {
        "time": "20864i",
        "midiNote": 61,
        "velocity": 0.5748031496062992,
        "noteName": "C#4",
        "duration": "95i"
      },
      {
        "time": "20992i",
        "midiNote": 42,
        "velocity": 0.5748031496062992,
        "noteName": "F#2",
        "duration": "199i"
      },
      {
        "time": "20992i",
        "midiNote": 49,
        "velocity": 0.5275590551181102,
        "noteName": "C#3",
        "duration": "203i"
      },
      {
        "time": "21120i",
        "midiNote": 56,
        "velocity": 0.5354330708661418,
        "noteName": "G#3",
        "duration": "57i"
      },
      {
        "time": "21120i",
        "midiNote": 58,
        "velocity": 0.5354330708661418,
        "noteName": "A#3",
        "duration": "57i"
      },
      {
        "time": "21120i",
        "midiNote": 61,
        "velocity": 0.5748031496062992,
        "noteName": "C#4",
        "duration": "60i"
      },
      {
        "time": "21184i",
        "midiNote": 44,
        "velocity": 0.5826771653543307,
        "noteName": "G#2",
        "duration": "181i"
      },
      {
        "time": "21184i",
        "midiNote": 51,
        "velocity": 0.5590551181102362,
        "noteName": "D#3",
        "duration": "186i"
      },
      {
        "time": "21312i",
        "midiNote": 56,
        "velocity": 0.5354330708661418,
        "noteName": "G#3",
        "duration": "17i"
      },
      {
        "time": "21312i",
        "midiNote": 60,
        "velocity": 0.5984251968503937,
        "noteName": "C4",
        "duration": "24i"
      },
      {
        "time": "21376i",
        "midiNote": 56,
        "velocity": 0.5748031496062992,
        "noteName": "G#3",
        "duration": "67i"
      },
      {
        "time": "21376i",
        "midiNote": 61,
        "velocity": 0.6299212598425197,
        "noteName": "C#4",
        "duration": "34i"
      },
      {
        "time": "21408i",
        "midiNote": 60,
        "velocity": 0.6141732283464567,
        "noteName": "C4",
        "duration": "40i"
      },
      {
        "time": "21440i",
        "midiNote": 58,
        "velocity": 0.6141732283464567,
        "noteName": "A#3",
        "duration": "33i"
      },
      {
        "time": "21504i",
        "midiNote": 47,
        "velocity": 0.6456692913385826,
        "noteName": "B2",
        "duration": "193i"
      },
      {
        "time": "21504i",
        "midiNote": 54,
        "velocity": 0.6456692913385826,
        "noteName": "F#3",
        "duration": "199i"
      },
      {
        "time": "21568i",
        "midiNote": 66,
        "velocity": 0.6929133858267716,
        "noteName": "F#4",
        "duration": "81i"
      },
      {
        "time": "21632i",
        "midiNote": 63,
        "velocity": 0.5826771653543307,
        "noteName": "D#4",
        "duration": "67i"
      },
      {
        "time": "21696i",
        "midiNote": 46,
        "velocity": 0.6299212598425197,
        "noteName": "A#2",
        "duration": "315i"
      },
      {
        "time": "21696i",
        "midiNote": 58,
        "velocity": 0.5826771653543307,
        "noteName": "A#3",
        "duration": "104i"
      },
      {
        "time": "21696i",
        "midiNote": 61,
        "velocity": 0.5826771653543307,
        "noteName": "C#4",
        "duration": "105i"
      },
      {
        "time": "21696i",
        "midiNote": 65,
        "velocity": 0.5590551181102362,
        "noteName": "F4",
        "duration": "109i"
      },
      {
        "time": "21824i",
        "midiNote": 53,
        "velocity": 0.5196850393700787,
        "noteName": "F3",
        "duration": "165i"
      },
      {
        "time": "21824i",
        "midiNote": 58,
        "velocity": 0.5275590551181102,
        "noteName": "A#3",
        "duration": "181i"
      },
      {
        "time": "21824i",
        "midiNote": 61,
        "velocity": 0.5196850393700787,
        "noteName": "C#4",
        "duration": "185i"
      },
      {
        "time": "22016i",
        "midiNote": 41,
        "velocity": 0.6456692913385826,
        "noteName": "F2",
        "duration": "497i"
      },
      {
        "time": "22080i",
        "midiNote": 51,
        "velocity": 0.6141732283464567,
        "noteName": "D#3",
        "duration": "431i"
      },
      {
        "time": "22144i",
        "midiNote": 57,
        "velocity": 0.6141732283464567,
        "noteName": "A3",
        "duration": "355i"
      },
      {
        "time": "22208i",
        "midiNote": 63,
        "velocity": 0.6929133858267716,
        "noteName": "D#4",
        "duration": "305i"
      },
      {
        "time": "22336i",
        "midiNote": 65,
        "velocity": 0.6299212598425197,
        "noteName": "F4",
        "duration": "171i"
      },
      {
        "time": "22528i",
        "midiNote": 46,
        "velocity": 0.6141732283464567,
        "noteName": "A#2",
        "duration": "405i"
      },
      {
        "time": "22528i",
        "midiNote": 53,
        "velocity": 0.5590551181102362,
        "noteName": "F3",
        "duration": "398i"
      },
      {
        "time": "22528i",
        "midiNote": 58,
        "velocity": 0.5748031496062992,
        "noteName": "A#3",
        "duration": "404i"
      },
      {
        "time": "22528i",
        "midiNote": 61,
        "velocity": 0.5590551181102362,
        "noteName": "C#4",
        "duration": "405i"
      },
      {
        "time": "22528i",
        "midiNote": 65,
        "velocity": 0.5196850393700787,
        "noteName": "F4",
        "duration": "406i"
      },
      {
        "time": "23040i",
        "midiNote": 42,
        "velocity": 0.5748031496062992,
        "noteName": "F#2",
        "duration": "199i"
      },
      {
        "time": "23040i",
        "midiNote": 49,
        "velocity": 0.5275590551181102,
        "noteName": "C#3",
        "duration": "203i"
      },
      {
        "time": "23168i",
        "midiNote": 56,
        "velocity": 0.5354330708661418,
        "noteName": "G#3",
        "duration": "57i"
      },
      {
        "time": "23168i",
        "midiNote": 58,
        "velocity": 0.5354330708661418,
        "noteName": "A#3",
        "duration": "57i"
      },
      {
        "time": "23168i",
        "midiNote": 61,
        "velocity": 0.5748031496062992,
        "noteName": "C#4",
        "duration": "60i"
      },
      {
        "time": "23232i",
        "midiNote": 44,
        "velocity": 0.5826771653543307,
        "noteName": "G#2",
        "duration": "181i"
      },
      {
        "time": "23232i",
        "midiNote": 51,
        "velocity": 0.5590551181102362,
        "noteName": "D#3",
        "duration": "186i"
      },
      {
        "time": "23360i",
        "midiNote": 56,
        "velocity": 0.5354330708661418,
        "noteName": "G#3",
        "duration": "17i"
      },
      {
        "time": "23360i",
        "midiNote": 60,
        "velocity": 0.5984251968503937,
        "noteName": "C4",
        "duration": "24i"
      },
      {
        "time": "23424i",
        "midiNote": 56,
        "velocity": 0.5748031496062992,
        "noteName": "G#3",
        "duration": "67i"
      },
      {
        "time": "23424i",
        "midiNote": 61,
        "velocity": 0.6299212598425197,
        "noteName": "C#4",
        "duration": "34i"
      },
      {
        "time": "23456i",
        "midiNote": 60,
        "velocity": 0.6141732283464567,
        "noteName": "C4",
        "duration": "40i"
      },
      {
        "time": "23488i",
        "midiNote": 58,
        "velocity": 0.6141732283464567,
        "noteName": "A#3",
        "duration": "161i"
      },
      {
        "time": "23552i",
        "midiNote": 46,
        "velocity": 0.6456692913385826,
        "noteName": "A#2",
        "duration": "442i"
      },
      {
        "time": "23552i",
        "midiNote": 53,
        "velocity": 0.6141732283464567,
        "noteName": "F3",
        "duration": "144i"
      },
      {
        "time": "23680i",
        "midiNote": 61,
        "velocity": 0.7165354330708661,
        "noteName": "C#4",
        "duration": "325i"
      },
      {
        "time": "23872i",
        "midiNote": 54,
        "velocity": 0.7480314960629921,
        "noteName": "F#3",
        "duration": "73i"
      },
      {
        "time": "23936i",
        "midiNote": 53,
        "velocity": 0.6456692913385826,
        "noteName": "F3",
        "duration": "167i"
      },
      {
        "time": "24000i",
        "midiNote": 49,
        "velocity": 0.6456692913385826,
        "noteName": "C#3",
        "duration": "251i"
      },
      {
        "time": "24000i",
        "midiNote": 58,
        "velocity": 0.6456692913385826,
        "noteName": "A#3",
        "duration": "103i"
      },
      {
        "time": "24000i",
        "midiNote": 63,
        "velocity": 0.6456692913385826,
        "noteName": "D#4",
        "duration": "103i"
      },
      {
        "time": "24064i",
        "midiNote": 42,
        "velocity": 0.6141732283464567,
        "noteName": "F#2",
        "duration": "190i"
      },
      {
        "time": "24128i",
        "midiNote": 58,
        "velocity": 0.7165354330708661,
        "noteName": "A#3",
        "duration": "195i"
      },
      {
        "time": "24128i",
        "midiNote": 61,
        "velocity": 0.6929133858267716,
        "noteName": "C#4",
        "duration": "196i"
      },
      {
        "time": "24320i",
        "midiNote": 44,
        "velocity": 0.6299212598425197,
        "noteName": "G#2",
        "duration": "190i"
      },
      {
        "time": "24320i",
        "midiNote": 51,
        "velocity": 0.5590551181102362,
        "noteName": "D#3",
        "duration": "191i"
      },
      {
        "time": "24384i",
        "midiNote": 60,
        "velocity": 0.6692913385826772,
        "noteName": "C4",
        "duration": "203i"
      },
      {
        "time": "24384i",
        "midiNote": 63,
        "velocity": 0.6456692913385826,
        "noteName": "D#4",
        "duration": "208i"
      },
      {
        "time": "24576i",
        "midiNote": 41,
        "velocity": 0.6141732283464567,
        "noteName": "F2",
        "duration": "147i"
      },
      {
        "time": "24640i",
        "midiNote": 48,
        "velocity": 0.5826771653543307,
        "noteName": "C3",
        "duration": "93i"
      },
      {
        "time": "24704i",
        "midiNote": 53,
        "velocity": 0.6929133858267716,
        "noteName": "F3",
        "duration": "67i"
      },
      {
        "time": "24704i",
        "midiNote": 61,
        "velocity": 0.8188976377952756,
        "noteName": "C#4",
        "duration": "47i"
      },
      {
        "time": "24736i",
        "midiNote": 63,
        "velocity": 0.6929133858267716,
        "noteName": "D#4",
        "duration": "228i"
      },
      {
        "time": "24768i",
        "midiNote": 42,
        "velocity": 0.5748031496062992,
        "noteName": "F#2",
        "duration": "297i"
      },
      {
        "time": "24768i",
        "midiNote": 49,
        "velocity": 0.6299212598425197,
        "noteName": "C#3",
        "duration": "295i"
      },
      {
        "time": "24768i",
        "midiNote": 58,
        "velocity": 0.6929133858267716,
        "noteName": "A#3",
        "duration": "189i"
      },
      {
        "time": "24960i",
        "midiNote": 54,
        "velocity": 0.5354330708661418,
        "noteName": "F#3",
        "duration": "92i"
      },
      {
        "time": "24960i",
        "midiNote": 58,
        "velocity": 0.5275590551181102,
        "noteName": "A#3",
        "duration": "93i"
      },
      {
        "time": "24960i",
        "midiNote": 61,
        "velocity": 0.5748031496062992,
        "noteName": "C#4",
        "duration": "95i"
      },
      {
        "time": "25088i",
        "midiNote": 42,
        "velocity": 0.6141732283464567,
        "noteName": "F#2",
        "duration": "127i"
      },
      {
        "time": "25088i",
        "midiNote": 49,
        "velocity": 0.6141732283464567,
        "noteName": "C#3",
        "duration": "127i"
      },
      {
        "time": "25152i",
        "midiNote": 56,
        "velocity": 0.6456692913385826,
        "noteName": "G#3",
        "duration": "119i"
      },
      {
        "time": "25216i",
        "midiNote": 58,
        "velocity": 0.5826771653543307,
        "noteName": "A#3",
        "duration": "56i"
      },
      {
        "time": "25216i",
        "midiNote": 61,
        "velocity": 0.5826771653543307,
        "noteName": "C#4",
        "duration": "57i"
      },
      {
        "time": "25216i",
        "midiNote": 66,
        "velocity": 0.6929133858267716,
        "noteName": "F#4",
        "duration": "59i"
      },
      {
        "time": "25280i",
        "midiNote": 44,
        "velocity": 0.6299212598425197,
        "noteName": "G#2",
        "duration": "275i"
      },
      {
        "time": "25280i",
        "midiNote": 51,
        "velocity": 0.5826771653543307,
        "noteName": "D#3",
        "duration": "287i"
      },
      {
        "time": "25408i",
        "midiNote": 60,
        "velocity": 0.6456692913385826,
        "noteName": "C4",
        "duration": "176i"
      },
      {
        "time": "25408i",
        "midiNote": 63,
        "velocity": 0.6141732283464567,
        "noteName": "D#4",
        "duration": "178i"
      },
      {
        "time": "25408i",
        "midiNote": 68,
        "velocity": 0.6456692913385826,
        "noteName": "G#4",
        "duration": "179i"
      },
      {
        "time": "25600i",
        "midiNote": 48,
        "velocity": 0.7165354330708661,
        "noteName": "C3",
        "duration": "169i"
      },
      {
        "time": "25664i",
        "midiNote": 56,
        "velocity": 0.6456692913385826,
        "noteName": "G#3",
        "duration": "128i"
      },
      {
        "time": "25728i",
        "midiNote": 60,
        "velocity": 0.5984251968503937,
        "noteName": "C4",
        "duration": "41i"
      },
      {
        "time": "25728i",
        "midiNote": 63,
        "velocity": 0.6141732283464567,
        "noteName": "D#4",
        "duration": "64i"
      },
      {
        "time": "25728i",
        "midiNote": 68,
        "velocity": 0.7165354330708661,
        "noteName": "G#4",
        "duration": "58i"
      },
      {
        "time": "25792i",
        "midiNote": 49,
        "velocity": 0.7165354330708661,
        "noteName": "C#3",
        "duration": "289i"
      },
      {
        "time": "25792i",
        "midiNote": 56,
        "velocity": 0.44881889763779526,
        "noteName": "G#3",
        "duration": "99i"
      },
      {
        "time": "25792i",
        "midiNote": 61,
        "velocity": 0.6929133858267716,
        "noteName": "C#4",
        "duration": "103i"
      },
      {
        "time": "25792i",
        "midiNote": 63,
        "velocity": 0.3937007874015748,
        "noteName": "D#4",
        "duration": "99i"
      },
      {
        "time": "25920i",
        "midiNote": 56,
        "velocity": 0.6299212598425197,
        "noteName": "G#3",
        "duration": "147i"
      },
      {
        "time": "25920i",
        "midiNote": 61,
        "velocity": 0.6299212598425197,
        "noteName": "C#4",
        "duration": "149i"
      },
      {
        "time": "25920i",
        "midiNote": 65,
        "velocity": 0.6692913385826772,
        "noteName": "F4",
        "duration": "148i"
      },
      {
        "time": "26112i",
        "midiNote": 47,
        "velocity": 0.5826771653543307,
        "noteName": "B2",
        "duration": "433i"
      },
      {
        "time": "26112i",
        "midiNote": 54,
        "velocity": 0.7165354330708661,
        "noteName": "F#3",
        "duration": "483i"
      },
      {
        "time": "26176i",
        "midiNote": 59,
        "velocity": 0.6692913385826772,
        "noteName": "B3",
        "duration": "421i"
      },
      {
        "time": "26240i",
        "midiNote": 61,
        "velocity": 0.6456692913385826,
        "noteName": "C#4",
        "duration": "72i"
      },
      {
        "time": "26304i",
        "midiNote": 63,
        "velocity": 0.6456692913385826,
        "noteName": "D#4",
        "duration": "291i"
      },
      {
        "time": "26624i",
        "midiNote": 44,
        "velocity": 0.7165354330708661,
        "noteName": "G#2",
        "duration": "425i"
      },
      {
        "time": "26688i",
        "midiNote": 54,
        "velocity": 0.6456692913385826,
        "noteName": "F#3",
        "duration": "354i"
      },
      {
        "time": "26752i",
        "midiNote": 58,
        "velocity": 0.6299212598425197,
        "noteName": "A#3",
        "duration": "289i"
      },
      {
        "time": "26816i",
        "midiNote": 66,
        "velocity": 0.6456692913385826,
        "noteName": "F#4",
        "duration": "231i"
      },
      {
        "time": "27136i",
        "midiNote": 46,
        "velocity": 0.7165354330708661,
        "noteName": "A#2",
        "duration": "147i"
      },
      {
        "time": "27200i",
        "midiNote": 68,
        "velocity": 0.7480314960629921,
        "noteName": "G#4",
        "duration": "246i"
      },
      {
        "time": "27264i",
        "midiNote": 63,
        "velocity": 0.6456692913385826,
        "noteName": "D#4",
        "duration": "187i"
      },
      {
        "time": "27328i",
        "midiNote": 48,
        "velocity": 0.6929133858267716,
        "noteName": "C3",
        "duration": "309i"
      },
      {
        "time": "27456i",
        "midiNote": 56,
        "velocity": 0.7480314960629921,
        "noteName": "G#3",
        "duration": "191i"
      },
      {
        "time": "27648i",
        "midiNote": 49,
        "velocity": 0.8188976377952756,
        "noteName": "C#3",
        "duration": "145i"
      },
      {
        "time": "27712i",
        "midiNote": 56,
        "velocity": 0.7165354330708661,
        "noteName": "G#3",
        "duration": "423i"
      },
      {
        "time": "27776i",
        "midiNote": 68,
        "velocity": 0.7480314960629921,
        "noteName": "G#4",
        "duration": "65i"
      },
      {
        "time": "27840i",
        "midiNote": 54,
        "velocity": 0.6929133858267716,
        "noteName": "F#3",
        "duration": "249i"
      },
      {
        "time": "27840i",
        "midiNote": 58,
        "velocity": 0.6929133858267716,
        "noteName": "A#3",
        "duration": "295i"
      },
      {
        "time": "27840i",
        "midiNote": 61,
        "velocity": 0.6456692913385826,
        "noteName": "C#4",
        "duration": "298i"
      },
      {
        "time": "28160i",
        "midiNote": 48,
        "velocity": 0.6929133858267716,
        "noteName": "C3",
        "duration": "165i"
      },
      {
        "time": "28224i",
        "midiNote": 56,
        "velocity": 0.7480314960629921,
        "noteName": "G#3",
        "duration": "420i"
      },
      {
        "time": "28288i",
        "midiNote": 68,
        "velocity": 0.7480314960629921,
        "noteName": "G#4",
        "duration": "64i"
      },
      {
        "time": "28352i",
        "midiNote": 49,
        "velocity": 0.7480314960629921,
        "noteName": "C#3",
        "duration": "236i"
      },
      {
        "time": "28352i",
        "midiNote": 65,
        "velocity": 0.6929133858267716,
        "noteName": "F4",
        "duration": "292i"
      },
      {
        "time": "28672i",
        "midiNote": 49,
        "velocity": 0.7165354330708661,
        "noteName": "C#3",
        "duration": "467i"
      },
      {
        "time": "28736i",
        "midiNote": 54,
        "velocity": 0.7480314960629921,
        "noteName": "F#3",
        "duration": "411i"
      },
      {
        "time": "28800i",
        "midiNote": 56,
        "velocity": 0.8188976377952756,
        "noteName": "G#3",
        "duration": "67i"
      },
      {
        "time": "28864i",
        "midiNote": 58,
        "velocity": 0.6456692913385826,
        "noteName": "A#3",
        "duration": "291i"
      },
      {
        "time": "28864i",
        "midiNote": 61,
        "velocity": 0.6456692913385826,
        "noteName": "C#4",
        "duration": "296i"
      },
      {
        "time": "29184i",
        "midiNote": 49,
        "velocity": 0.7165354330708661,
        "noteName": "C#3",
        "duration": "156i"
      },
      {
        "time": "29248i",
        "midiNote": 53,
        "velocity": 0.7480314960629921,
        "noteName": "F3",
        "duration": "88i"
      },
      {
        "time": "29312i",
        "midiNote": 58,
        "velocity": 0.7165354330708661,
        "noteName": "A#3",
        "duration": "53i"
      },
      {
        "time": "29312i",
        "midiNote": 61,
        "velocity": 0.7165354330708661,
        "noteName": "C#4",
        "duration": "59i"
      },
      {
        "time": "29312i",
        "midiNote": 68,
        "velocity": 0.7480314960629921,
        "noteName": "G#4",
        "duration": "67i"
      },
      {
        "time": "29376i",
        "midiNote": 48,
        "velocity": 0.7165354330708661,
        "noteName": "C3",
        "duration": "278i"
      },
      {
        "time": "29440i",
        "midiNote": 51,
        "velocity": 0.7165354330708661,
        "noteName": "D#3",
        "duration": "238i"
      },
      {
        "time": "29504i",
        "midiNote": 56,
        "velocity": 0.7165354330708661,
        "noteName": "G#3",
        "duration": "197i"
      },
      {
        "time": "29504i",
        "midiNote": 63,
        "velocity": 0.6299212598425197,
        "noteName": "D#4",
        "duration": "200i"
      },
      {
        "time": "29504i",
        "midiNote": 68,
        "velocity": 0.7165354330708661,
        "noteName": "G#4",
        "duration": "201i"
      },
      {
        "time": "29696i",
        "midiNote": 49,
        "velocity": 0.8188976377952756,
        "noteName": "C#3",
        "duration": "137i"
      },
      {
        "time": "29760i",
        "midiNote": 53,
        "velocity": 0.7480314960629921,
        "noteName": "F3",
        "duration": "83i"
      },
      {
        "time": "29824i",
        "midiNote": 56,
        "velocity": 0.6456692913385826,
        "noteName": "G#3",
        "duration": "53i"
      },
      {
        "time": "29824i",
        "midiNote": 61,
        "velocity": 0.7165354330708661,
        "noteName": "C#4",
        "duration": "56i"
      },
      {
        "time": "29824i",
        "midiNote": 65,
        "velocity": 0.6692913385826772,
        "noteName": "F4",
        "duration": "58i"
      },
      {
        "time": "29888i",
        "midiNote": 49,
        "velocity": 0.7480314960629921,
        "noteName": "C#3",
        "duration": "263i"
      },
      {
        "time": "29952i",
        "midiNote": 54,
        "velocity": 0.8188976377952756,
        "noteName": "F#3",
        "duration": "208i"
      },
      {
        "time": "30016i",
        "midiNote": 56,
        "velocity": 0.7165354330708661,
        "noteName": "G#3",
        "duration": "186i"
      },
      {
        "time": "30016i",
        "midiNote": 61,
        "velocity": 0.7165354330708661,
        "noteName": "C#4",
        "duration": "191i"
      },
      {
        "time": "30016i",
        "midiNote": 66,
        "velocity": 0.7165354330708661,
        "noteName": "F#4",
        "duration": "194i"
      },
      {
        "time": "30208i",
        "midiNote": 48,
        "velocity": 0.7165354330708661,
        "noteName": "C3",
        "duration": "146i"
      },
      {
        "time": "30272i",
        "midiNote": 51,
        "velocity": 0.7480314960629921,
        "noteName": "D#3",
        "duration": "91i"
      },
      {
        "time": "30336i",
        "midiNote": 56,
        "velocity": 0.7165354330708661,
        "noteName": "G#3",
        "duration": "65i"
      },
      {
        "time": "30336i",
        "midiNote": 63,
        "velocity": 0.7165354330708661,
        "noteName": "D#4",
        "duration": "69i"
      },
      {
        "time": "30336i",
        "midiNote": 68,
        "velocity": 0.7480314960629921,
        "noteName": "G#4",
        "duration": "68i"
      },
      {
        "time": "30400i",
        "midiNote": 49,
        "velocity": 0.8188976377952756,
        "noteName": "C#3",
        "duration": "247i"
      },
      {
        "time": "30464i",
        "midiNote": 53,
        "velocity": 0.7480314960629921,
        "noteName": "F3",
        "duration": "187i"
      },
      {
        "time": "30528i",
        "midiNote": 56,
        "velocity": 0.7165354330708661,
        "noteName": "G#3",
        "duration": "175i"
      },
      {
        "time": "30528i",
        "midiNote": 61,
        "velocity": 0.7480314960629921,
        "noteName": "C#4",
        "duration": "180i"
      },
      {
        "time": "30528i",
        "midiNote": 65,
        "velocity": 0.6692913385826772,
        "noteName": "F4",
        "duration": "178i"
      },
      {
        "time": "30528i",
        "midiNote": 68,
        "velocity": 0.7165354330708661,
        "noteName": "G#4",
        "duration": "182i"
      },
      {
        "time": "30720i",
        "midiNote": 47,
        "velocity": 0.7480314960629921,
        "noteName": "B2",
        "duration": "485i"
      },
      {
        "time": "30784i",
        "midiNote": 54,
        "velocity": 0.7165354330708661,
        "noteName": "F#3",
        "duration": "435i"
      },
      {
        "time": "30848i",
        "midiNote": 59,
        "velocity": 0.7716535433070866,
        "noteName": "B3",
        "duration": "175i"
      },
      {
        "time": "30912i",
        "midiNote": 61,
        "velocity": 0.8188976377952756,
        "noteName": "C#4",
        "duration": "109i"
      },
      {
        "time": "31040i",
        "midiNote": 59,
        "velocity": 0.7165354330708661,
        "noteName": "B3",
        "duration": "182i"
      },
      {
        "time": "31040i",
        "midiNote": 63,
        "velocity": 0.7480314960629921,
        "noteName": "D#4",
        "duration": "197i"
      },
      {
        "time": "31232i",
        "midiNote": 51,
        "velocity": 0.7165354330708661,
        "noteName": "D#3",
        "duration": "216i"
      },
      {
        "time": "31296i",
        "midiNote": 54,
        "velocity": 0.7480314960629921,
        "noteName": "F#3",
        "duration": "151i"
      },
      {
        "time": "31360i",
        "midiNote": 58,
        "velocity": 0.6929133858267716,
        "noteName": "A#3",
        "duration": "115i"
      },
      {
        "time": "31360i",
        "midiNote": 63,
        "velocity": 0.6929133858267716,
        "noteName": "D#4",
        "duration": "81i"
      },
      {
        "time": "31424i",
        "midiNote": 66,
        "velocity": 0.6929133858267716,
        "noteName": "F#4",
        "duration": "46i"
      },
      {
        "time": "31424i",
        "midiNote": 70,
        "velocity": 0.7480314960629921,
        "noteName": "A#4",
        "duration": "45i"
      },
      {
        "time": "31488i",
        "midiNote": 49,
        "velocity": 0.6456692913385826,
        "noteName": "C#3",
        "duration": "175i"
      },
      {
        "time": "31488i",
        "midiNote": 53,
        "velocity": 0.7480314960629921,
        "noteName": "F3",
        "duration": "174i"
      },
      {
        "time": "31488i",
        "midiNote": 58,
        "velocity": 0.6456692913385826,
        "noteName": "A#3",
        "duration": "169i"
      },
      {
        "time": "31488i",
        "midiNote": 61,
        "velocity": 0.7480314960629921,
        "noteName": "C#4",
        "duration": "173i"
      },
      {
        "time": "31488i",
        "midiNote": 65,
        "velocity": 0.6692913385826772,
        "noteName": "F4",
        "duration": "176i"
      },
      {
        "time": "31744i",
        "midiNote": 42,
        "velocity": 0.5748031496062992,
        "noteName": "F#2",
        "duration": "199i"
      },
      {
        "time": "31744i",
        "midiNote": 49,
        "velocity": 0.5275590551181102,
        "noteName": "C#3",
        "duration": "203i"
      },
      {
        "time": "31872i",
        "midiNote": 56,
        "velocity": 0.5354330708661418,
        "noteName": "G#3",
        "duration": "57i"
      },
      {
        "time": "31872i",
        "midiNote": 58,
        "velocity": 0.5354330708661418,
        "noteName": "A#3",
        "duration": "57i"
      },
      {
        "time": "31872i",
        "midiNote": 61,
        "velocity": 0.5748031496062992,
        "noteName": "C#4",
        "duration": "60i"
      },
      {
        "time": "31936i",
        "midiNote": 44,
        "velocity": 0.5826771653543307,
        "noteName": "G#2",
        "duration": "181i"
      },
      {
        "time": "31936i",
        "midiNote": 51,
        "velocity": 0.5590551181102362,
        "noteName": "D#3",
        "duration": "186i"
      },
      {
        "time": "32064i",
        "midiNote": 56,
        "velocity": 0.5354330708661418,
        "noteName": "G#3",
        "duration": "17i"
      },
      {
        "time": "32064i",
        "midiNote": 60,
        "velocity": 0.5984251968503937,
        "noteName": "C4",
        "duration": "24i"
      },
      {
        "time": "32128i",
        "midiNote": 56,
        "velocity": 0.5748031496062992,
        "noteName": "G#3",
        "duration": "67i"
      },
      {
        "time": "32128i",
        "midiNote": 61,
        "velocity": 0.6299212598425197,
        "noteName": "C#4",
        "duration": "34i"
      },
      {
        "time": "32160i",
        "midiNote": 60,
        "velocity": 0.6141732283464567,
        "noteName": "C4",
        "duration": "40i"
      },
      {
        "time": "32192i",
        "midiNote": 58,
        "velocity": 0.6141732283464567,
        "noteName": "A#3",
        "duration": "161i"
      },
      {
        "time": "32256i",
        "midiNote": 46,
        "velocity": 0.6456692913385826,
        "noteName": "A#2",
        "duration": "442i"
      },
      {
        "time": "32256i",
        "midiNote": 53,
        "velocity": 0.6141732283464567,
        "noteName": "F3",
        "duration": "144i"
      },
      {
        "time": "32384i",
        "midiNote": 61,
        "velocity": 0.7165354330708661,
        "noteName": "C#4",
        "duration": "325i"
      },
      {
        "time": "32576i",
        "midiNote": 54,
        "velocity": 0.7480314960629921,
        "noteName": "F#3",
        "duration": "73i"
      },
      {
        "time": "32640i",
        "midiNote": 53,
        "velocity": 0.6456692913385826,
        "noteName": "F3",
        "duration": "167i"
      },
      {
        "time": "32704i",
        "midiNote": 49,
        "velocity": 0.6456692913385826,
        "noteName": "C#3",
        "duration": "251i"
      },
      {
        "time": "32704i",
        "midiNote": 58,
        "velocity": 0.6456692913385826,
        "noteName": "A#3",
        "duration": "103i"
      },
      {
        "time": "32704i",
        "midiNote": 63,
        "velocity": 0.6456692913385826,
        "noteName": "D#4",
        "duration": "103i"
      },
      {
        "time": "32768i",
        "midiNote": 42,
        "velocity": 0.6141732283464567,
        "noteName": "F#2",
        "duration": "190i"
      },
      {
        "time": "32832i",
        "midiNote": 58,
        "velocity": 0.7165354330708661,
        "noteName": "A#3",
        "duration": "195i"
      },
      {
        "time": "32832i",
        "midiNote": 61,
        "velocity": 0.6929133858267716,
        "noteName": "C#4",
        "duration": "196i"
      },
      {
        "time": "33024i",
        "midiNote": 44,
        "velocity": 0.6299212598425197,
        "noteName": "G#2",
        "duration": "190i"
      },
      {
        "time": "33024i",
        "midiNote": 51,
        "velocity": 0.5590551181102362,
        "noteName": "D#3",
        "duration": "191i"
      },
      {
        "time": "33088i",
        "midiNote": 60,
        "velocity": 0.6692913385826772,
        "noteName": "C4",
        "duration": "203i"
      },
      {
        "time": "33088i",
        "midiNote": 63,
        "velocity": 0.6456692913385826,
        "noteName": "D#4",
        "duration": "208i"
      },
      {
        "time": "33280i",
        "midiNote": 41,
        "velocity": 0.6141732283464567,
        "noteName": "F2",
        "duration": "147i"
      },
      {
        "time": "33344i",
        "midiNote": 48,
        "velocity": 0.5826771653543307,
        "noteName": "C3",
        "duration": "93i"
      },
      {
        "time": "33408i",
        "midiNote": 53,
        "velocity": 0.6929133858267716,
        "noteName": "F3",
        "duration": "67i"
      },
      {
        "time": "33408i",
        "midiNote": 61,
        "velocity": 0.8188976377952756,
        "noteName": "C#4",
        "duration": "47i"
      },
      {
        "time": "33440i",
        "midiNote": 63,
        "velocity": 0.6929133858267716,
        "noteName": "D#4",
        "duration": "228i"
      },
      {
        "time": "33472i",
        "midiNote": 42,
        "velocity": 0.5748031496062992,
        "noteName": "F#2",
        "duration": "297i"
      },
      {
        "time": "33472i",
        "midiNote": 49,
        "velocity": 0.6299212598425197,
        "noteName": "C#3",
        "duration": "295i"
      },
      {
        "time": "33472i",
        "midiNote": 58,
        "velocity": 0.6929133858267716,
        "noteName": "A#3",
        "duration": "189i"
      },
      {
        "time": "33664i",
        "midiNote": 54,
        "velocity": 0.5354330708661418,
        "noteName": "F#3",
        "duration": "92i"
      },
      {
        "time": "33664i",
        "midiNote": 58,
        "velocity": 0.5275590551181102,
        "noteName": "A#3",
        "duration": "93i"
      },
      {
        "time": "33664i",
        "midiNote": 61,
        "velocity": 0.5748031496062992,
        "noteName": "C#4",
        "duration": "95i"
      },
      {
        "time": "33792i",
        "midiNote": 42,
        "velocity": 0.6141732283464567,
        "noteName": "F#2",
        "duration": "127i"
      },
      {
        "time": "33792i",
        "midiNote": 49,
        "velocity": 0.6141732283464567,
        "noteName": "C#3",
        "duration": "127i"
      },
      {
        "time": "33856i",
        "midiNote": 56,
        "velocity": 0.6456692913385826,
        "noteName": "G#3",
        "duration": "119i"
      },
      {
        "time": "33920i",
        "midiNote": 58,
        "velocity": 0.5826771653543307,
        "noteName": "A#3",
        "duration": "56i"
      },
      {
        "time": "33920i",
        "midiNote": 61,
        "velocity": 0.5826771653543307,
        "noteName": "C#4",
        "duration": "57i"
      },
      {
        "time": "33920i",
        "midiNote": 66,
        "velocity": 0.6929133858267716,
        "noteName": "F#4",
        "duration": "59i"
      },
      {
        "time": "33984i",
        "midiNote": 44,
        "velocity": 0.6299212598425197,
        "noteName": "G#2",
        "duration": "275i"
      },
      {
        "time": "33984i",
        "midiNote": 51,
        "velocity": 0.5826771653543307,
        "noteName": "D#3",
        "duration": "287i"
      },
      {
        "time": "34112i",
        "midiNote": 60,
        "velocity": 0.6456692913385826,
        "noteName": "C4",
        "duration": "176i"
      },
      {
        "time": "34112i",
        "midiNote": 63,
        "velocity": 0.6141732283464567,
        "noteName": "D#4",
        "duration": "178i"
      },
      {
        "time": "34112i",
        "midiNote": 68,
        "velocity": 0.6456692913385826,
        "noteName": "G#4",
        "duration": "179i"
      },
      {
        "time": "34304i",
        "midiNote": 48,
        "velocity": 0.7165354330708661,
        "noteName": "C3",
        "duration": "169i"
      },
      {
        "time": "34368i",
        "midiNote": 56,
        "velocity": 0.6456692913385826,
        "noteName": "G#3",
        "duration": "128i"
      },
      {
        "time": "34432i",
        "midiNote": 60,
        "velocity": 0.5984251968503937,
        "noteName": "C4",
        "duration": "41i"
      },
      {
        "time": "34432i",
        "midiNote": 63,
        "velocity": 0.6141732283464567,
        "noteName": "D#4",
        "duration": "64i"
      },
      {
        "time": "34432i",
        "midiNote": 68,
        "velocity": 0.7165354330708661,
        "noteName": "G#4",
        "duration": "58i"
      },
      {
        "time": "34496i",
        "midiNote": 49,
        "velocity": 0.7165354330708661,
        "noteName": "C#3",
        "duration": "289i"
      },
      {
        "time": "34496i",
        "midiNote": 56,
        "velocity": 0.44881889763779526,
        "noteName": "G#3",
        "duration": "99i"
      },
      {
        "time": "34496i",
        "midiNote": 61,
        "velocity": 0.6929133858267716,
        "noteName": "C#4",
        "duration": "103i"
      },
      {
        "time": "34496i",
        "midiNote": 63,
        "velocity": 0.3937007874015748,
        "noteName": "D#4",
        "duration": "99i"
      },
      {
        "time": "34624i",
        "midiNote": 56,
        "velocity": 0.6299212598425197,
        "noteName": "G#3",
        "duration": "147i"
      },
      {
        "time": "34624i",
        "midiNote": 61,
        "velocity": 0.6299212598425197,
        "noteName": "C#4",
        "duration": "149i"
      },
      {
        "time": "34624i",
        "midiNote": 65,
        "velocity": 0.6692913385826772,
        "noteName": "F4",
        "duration": "148i"
      },
      {
        "time": "34816i",
        "midiNote": 47,
        "velocity": 0.5826771653543307,
        "noteName": "B2",
        "duration": "433i"
      },
      {
        "time": "34816i",
        "midiNote": 54,
        "velocity": 0.7165354330708661,
        "noteName": "F#3",
        "duration": "483i"
      },
      {
        "time": "34880i",
        "midiNote": 59,
        "velocity": 0.6692913385826772,
        "noteName": "B3",
        "duration": "421i"
      },
      {
        "time": "34944i",
        "midiNote": 61,
        "velocity": 0.6456692913385826,
        "noteName": "C#4",
        "duration": "72i"
      },
      {
        "time": "35008i",
        "midiNote": 63,
        "velocity": 0.6456692913385826,
        "noteName": "D#4",
        "duration": "291i"
      },
      {
        "time": "35328i",
        "midiNote": 44,
        "velocity": 0.7165354330708661,
        "noteName": "G#2",
        "duration": "425i"
      },
      {
        "time": "35392i",
        "midiNote": 54,
        "velocity": 0.6456692913385826,
        "noteName": "F#3",
        "duration": "354i"
      },
      {
        "time": "35456i",
        "midiNote": 58,
        "velocity": 0.6299212598425197,
        "noteName": "A#3",
        "duration": "289i"
      },
      {
        "time": "35520i",
        "midiNote": 66,
        "velocity": 0.6456692913385826,
        "noteName": "F#4",
        "duration": "231i"
      },
      {
        "time": "39936i",
        "midiNote": 42,
        "velocity": 0.6456692913385826,
        "noteName": "F#2",
        "duration": "137i"
      },
      {
        "time": "39936i",
        "midiNote": 49,
        "velocity": 0.6456692913385826,
        "noteName": "C#3",
        "duration": "141i"
      },
      {
        "time": "40064i",
        "midiNote": 56,
        "velocity": 0.5826771653543307,
        "noteName": "G#3",
        "duration": "67i"
      },
      {
        "time": "40064i",
        "midiNote": 58,
        "velocity": 0.6299212598425197,
        "noteName": "A#3",
        "duration": "68i"
      },
      {
        "time": "40064i",
        "midiNote": 61,
        "velocity": 0.6299212598425197,
        "noteName": "C#4",
        "duration": "67i"
      },
      {
        "time": "40256i",
        "midiNote": 60,
        "velocity": 0.7480314960629921,
        "noteName": "C4",
        "duration": "24i"
      },
      {
        "time": "40320i",
        "midiNote": 61,
        "velocity": 0.7480314960629921,
        "noteName": "C#4",
        "duration": "44i"
      },
      {
        "time": "40352i",
        "midiNote": 60,
        "velocity": 0.6141732283464567,
        "noteName": "C4",
        "duration": "25i"
      },
      {
        "time": "40384i",
        "midiNote": 58,
        "velocity": 0.6929133858267716,
        "noteName": "A#3",
        "duration": "21i"
      },
      {
        "time": "40416i",
        "midiNote": 56,
        "velocity": 0.6456692913385826,
        "noteName": "G#3",
        "duration": "15i"
      },
      {
        "time": "40448i",
        "midiNote": 46,
        "velocity": 0.8188976377952756,
        "noteName": "A#2",
        "duration": "105i"
      },
      {
        "time": "40448i",
        "midiNote": 58,
        "velocity": 0.7165354330708661,
        "noteName": "A#3",
        "duration": "107i"
      },
      {
        "time": "40960i",
        "midiNote": 43,
        "velocity": 0.5748031496062992,
        "noteName": "G2",
        "duration": "199i"
      },
      {
        "time": "40960i",
        "midiNote": 50,
        "velocity": 0.5275590551181102,
        "noteName": "D3",
        "duration": "203i"
      },
      {
        "time": "41088i",
        "midiNote": 57,
        "velocity": 0.5354330708661418,
        "noteName": "A3",
        "duration": "57i"
      },
      {
        "time": "41088i",
        "midiNote": 59,
        "velocity": 0.5354330708661418,
        "noteName": "B3",
        "duration": "57i"
      },
      {
        "time": "41088i",
        "midiNote": 62,
        "velocity": 0.5748031496062992,
        "noteName": "D4",
        "duration": "60i"
      },
      {
        "time": "41152i",
        "midiNote": 45,
        "velocity": 0.5826771653543307,
        "noteName": "A2",
        "duration": "181i"
      },
      {
        "time": "41152i",
        "midiNote": 52,
        "velocity": 0.5590551181102362,
        "noteName": "E3",
        "duration": "186i"
      },
      {
        "time": "41280i",
        "midiNote": 57,
        "velocity": 0.5354330708661418,
        "noteName": "A3",
        "duration": "17i"
      },
      {
        "time": "41280i",
        "midiNote": 61,
        "velocity": 0.5984251968503937,
        "noteName": "C#4",
        "duration": "24i"
      },
      {
        "time": "41344i",
        "midiNote": 57,
        "velocity": 0.5748031496062992,
        "noteName": "A3",
        "duration": "67i"
      },
      {
        "time": "41344i",
        "midiNote": 62,
        "velocity": 0.6299212598425197,
        "noteName": "D4",
        "duration": "34i"
      },
      {
        "time": "41376i",
        "midiNote": 61,
        "velocity": 0.6141732283464567,
        "noteName": "C#4",
        "duration": "40i"
      },
      {
        "time": "41408i",
        "midiNote": 59,
        "velocity": 0.6141732283464567,
        "noteName": "B3",
        "duration": "161i"
      },
      {
        "time": "41472i",
        "midiNote": 47,
        "velocity": 0.6456692913385826,
        "noteName": "B2",
        "duration": "442i"
      },
      {
        "time": "41472i",
        "midiNote": 54,
        "velocity": 0.6141732283464567,
        "noteName": "F#3",
        "duration": "144i"
      },
      {
        "time": "41600i",
        "midiNote": 62,
        "velocity": 0.7165354330708661,
        "noteName": "D4",
        "duration": "325i"
      },
      {
        "time": "41792i",
        "midiNote": 55,
        "velocity": 0.7480314960629921,
        "noteName": "G3",
        "duration": "73i"
      },
      {
        "time": "41856i",
        "midiNote": 54,
        "velocity": 0.6456692913385826,
        "noteName": "F#3",
        "duration": "167i"
      },
      {
        "time": "41920i",
        "midiNote": 50,
        "velocity": 0.6456692913385826,
        "noteName": "D3",
        "duration": "251i"
      },
      {
        "time": "41920i",
        "midiNote": 59,
        "velocity": 0.6456692913385826,
        "noteName": "B3",
        "duration": "103i"
      },
      {
        "time": "41920i",
        "midiNote": 64,
        "velocity": 0.6456692913385826,
        "noteName": "E4",
        "duration": "103i"
      },
      {
        "time": "41984i",
        "midiNote": 43,
        "velocity": 0.6141732283464567,
        "noteName": "G2",
        "duration": "190i"
      },
      {
        "time": "42048i",
        "midiNote": 59,
        "velocity": 0.7165354330708661,
        "noteName": "B3",
        "duration": "195i"
      },
      {
        "time": "42048i",
        "midiNote": 62,
        "velocity": 0.6929133858267716,
        "noteName": "D4",
        "duration": "196i"
      },
      {
        "time": "42240i",
        "midiNote": 45,
        "velocity": 0.6299212598425197,
        "noteName": "A2",
        "duration": "190i"
      },
      {
        "time": "42240i",
        "midiNote": 52,
        "velocity": 0.5590551181102362,
        "noteName": "E3",
        "duration": "191i"
      },
      {
        "time": "42304i",
        "midiNote": 61,
        "velocity": 0.6692913385826772,
        "noteName": "C#4",
        "duration": "203i"
      },
      {
        "time": "42304i",
        "midiNote": 64,
        "velocity": 0.6456692913385826,
        "noteName": "E4",
        "duration": "208i"
      },
      {
        "time": "42496i",
        "midiNote": 42,
        "velocity": 0.6141732283464567,
        "noteName": "F#2",
        "duration": "147i"
      },
      {
        "time": "42560i",
        "midiNote": 49,
        "velocity": 0.5826771653543307,
        "noteName": "C#3",
        "duration": "93i"
      },
      {
        "time": "42624i",
        "midiNote": 54,
        "velocity": 0.6929133858267716,
        "noteName": "F#3",
        "duration": "67i"
      },
      {
        "time": "42624i",
        "midiNote": 62,
        "velocity": 0.8188976377952756,
        "noteName": "D4",
        "duration": "47i"
      },
      {
        "time": "42656i",
        "midiNote": 64,
        "velocity": 0.6929133858267716,
        "noteName": "E4",
        "duration": "228i"
      },
      {
        "time": "42688i",
        "midiNote": 43,
        "velocity": 0.5748031496062992,
        "noteName": "G2",
        "duration": "297i"
      },
      {
        "time": "42688i",
        "midiNote": 50,
        "velocity": 0.6299212598425197,
        "noteName": "D3",
        "duration": "295i"
      },
      {
        "time": "42688i",
        "midiNote": 59,
        "velocity": 0.6929133858267716,
        "noteName": "B3",
        "duration": "189i"
      },
      {
        "time": "42880i",
        "midiNote": 55,
        "velocity": 0.5354330708661418,
        "noteName": "G3",
        "duration": "92i"
      },
      {
        "time": "42880i",
        "midiNote": 59,
        "velocity": 0.5275590551181102,
        "noteName": "B3",
        "duration": "93i"
      },
      {
        "time": "42880i",
        "midiNote": 62,
        "velocity": 0.5748031496062992,
        "noteName": "D4",
        "duration": "95i"
      },
      {
        "time": "43008i",
        "midiNote": 43,
        "velocity": 0.6141732283464567,
        "noteName": "G2",
        "duration": "127i"
      },
      {
        "time": "43008i",
        "midiNote": 50,
        "velocity": 0.6141732283464567,
        "noteName": "D3",
        "duration": "127i"
      },
      {
        "time": "43072i",
        "midiNote": 57,
        "velocity": 0.6456692913385826,
        "noteName": "A3",
        "duration": "119i"
      },
      {
        "time": "43136i",
        "midiNote": 59,
        "velocity": 0.5826771653543307,
        "noteName": "B3",
        "duration": "56i"
      },
      {
        "time": "43136i",
        "midiNote": 62,
        "velocity": 0.5826771653543307,
        "noteName": "D4",
        "duration": "57i"
      },
      {
        "time": "43136i",
        "midiNote": 67,
        "velocity": 0.6929133858267716,
        "noteName": "G4",
        "duration": "59i"
      },
      {
        "time": "43200i",
        "midiNote": 45,
        "velocity": 0.6299212598425197,
        "noteName": "A2",
        "duration": "275i"
      },
      {
        "time": "43200i",
        "midiNote": 52,
        "velocity": 0.5826771653543307,
        "noteName": "E3",
        "duration": "287i"
      },
      {
        "time": "43328i",
        "midiNote": 61,
        "velocity": 0.6456692913385826,
        "noteName": "C#4",
        "duration": "176i"
      },
      {
        "time": "43328i",
        "midiNote": 64,
        "velocity": 0.6141732283464567,
        "noteName": "E4",
        "duration": "178i"
      },
      {
        "time": "43328i",
        "midiNote": 69,
        "velocity": 0.6456692913385826,
        "noteName": "A4",
        "duration": "179i"
      },
      {
        "time": "43520i",
        "midiNote": 49,
        "velocity": 0.7165354330708661,
        "noteName": "C#3",
        "duration": "169i"
      },
      {
        "time": "43584i",
        "midiNote": 57,
        "velocity": 0.6456692913385826,
        "noteName": "A3",
        "duration": "128i"
      },
      {
        "time": "43648i",
        "midiNote": 61,
        "velocity": 0.5984251968503937,
        "noteName": "C#4",
        "duration": "41i"
      },
      {
        "time": "43648i",
        "midiNote": 64,
        "velocity": 0.6141732283464567,
        "noteName": "E4",
        "duration": "64i"
      },
      {
        "time": "43648i",
        "midiNote": 69,
        "velocity": 0.7165354330708661,
        "noteName": "A4",
        "duration": "58i"
      },
      {
        "time": "43712i",
        "midiNote": 50,
        "velocity": 0.7165354330708661,
        "noteName": "D3",
        "duration": "289i"
      },
      {
        "time": "43712i",
        "midiNote": 57,
        "velocity": 0.44881889763779526,
        "noteName": "A3",
        "duration": "99i"
      },
      {
        "time": "43712i",
        "midiNote": 62,
        "velocity": 0.6929133858267716,
        "noteName": "D4",
        "duration": "103i"
      },
      {
        "time": "43712i",
        "midiNote": 64,
        "velocity": 0.3937007874015748,
        "noteName": "E4",
        "duration": "99i"
      },
      {
        "time": "43840i",
        "midiNote": 57,
        "velocity": 0.6299212598425197,
        "noteName": "A3",
        "duration": "147i"
      },
      {
        "time": "43840i",
        "midiNote": 62,
        "velocity": 0.6299212598425197,
        "noteName": "D4",
        "duration": "149i"
      },
      {
        "time": "43840i",
        "midiNote": 66,
        "velocity": 0.6692913385826772,
        "noteName": "F#4",
        "duration": "148i"
      },
      {
        "time": "44032i",
        "midiNote": 48,
        "velocity": 0.5826771653543307,
        "noteName": "C3",
        "duration": "433i"
      },
      {
        "time": "44032i",
        "midiNote": 55,
        "velocity": 0.7165354330708661,
        "noteName": "G3",
        "duration": "483i"
      },
      {
        "time": "44096i",
        "midiNote": 60,
        "velocity": 0.6692913385826772,
        "noteName": "C4",
        "duration": "421i"
      },
      {
        "time": "44160i",
        "midiNote": 62,
        "velocity": 0.6456692913385826,
        "noteName": "D4",
        "duration": "72i"
      },
      {
        "time": "44224i",
        "midiNote": 64,
        "velocity": 0.6456692913385826,
        "noteName": "E4",
        "duration": "291i"
      },
      {
        "time": "44544i",
        "midiNote": 45,
        "velocity": 0.7165354330708661,
        "noteName": "A2",
        "duration": "425i"
      },
      {
        "time": "44608i",
        "midiNote": 55,
        "velocity": 0.6456692913385826,
        "noteName": "G3",
        "duration": "354i"
      },
      {
        "time": "44672i",
        "midiNote": 59,
        "velocity": 0.6299212598425197,
        "noteName": "B3",
        "duration": "289i"
      },
      {
        "time": "44736i",
        "midiNote": 67,
        "velocity": 0.6456692913385826,
        "noteName": "G4",
        "duration": "231i"
      },
      {
        "time": "45056i",
        "midiNote": 43,
        "velocity": 0.5748031496062992,
        "noteName": "G2",
        "duration": "199i"
      },
      {
        "time": "45056i",
        "midiNote": 50,
        "velocity": 0.5275590551181102,
        "noteName": "D3",
        "duration": "203i"
      },
      {
        "time": "45184i",
        "midiNote": 57,
        "velocity": 0.5354330708661418,
        "noteName": "A3",
        "duration": "57i"
      },
      {
        "time": "45184i",
        "midiNote": 59,
        "velocity": 0.5354330708661418,
        "noteName": "B3",
        "duration": "57i"
      },
      {
        "time": "45184i",
        "midiNote": 62,
        "velocity": 0.5748031496062992,
        "noteName": "D4",
        "duration": "60i"
      },
      {
        "time": "45248i",
        "midiNote": 45,
        "velocity": 0.5826771653543307,
        "noteName": "A2",
        "duration": "181i"
      },
      {
        "time": "45248i",
        "midiNote": 52,
        "velocity": 0.5590551181102362,
        "noteName": "E3",
        "duration": "186i"
      },
      {
        "time": "45376i",
        "midiNote": 57,
        "velocity": 0.5354330708661418,
        "noteName": "A3",
        "duration": "17i"
      },
      {
        "time": "45376i",
        "midiNote": 61,
        "velocity": 0.5984251968503937,
        "noteName": "C#4",
        "duration": "24i"
      },
      {
        "time": "45440i",
        "midiNote": 57,
        "velocity": 0.5748031496062992,
        "noteName": "A3",
        "duration": "67i"
      },
      {
        "time": "45440i",
        "midiNote": 62,
        "velocity": 0.6299212598425197,
        "noteName": "D4",
        "duration": "34i"
      },
      {
        "time": "45472i",
        "midiNote": 61,
        "velocity": 0.6141732283464567,
        "noteName": "C#4",
        "duration": "40i"
      },
      {
        "time": "45504i",
        "midiNote": 59,
        "velocity": 0.6141732283464567,
        "noteName": "B3",
        "duration": "161i"
      },
      {
        "time": "45568i",
        "midiNote": 47,
        "velocity": 0.6456692913385826,
        "noteName": "B2",
        "duration": "442i"
      },
      {
        "time": "45568i",
        "midiNote": 54,
        "velocity": 0.6141732283464567,
        "noteName": "F#3",
        "duration": "144i"
      },
      {
        "time": "45696i",
        "midiNote": 62,
        "velocity": 0.7165354330708661,
        "noteName": "D4",
        "duration": "325i"
      },
      {
        "time": "45888i",
        "midiNote": 55,
        "velocity": 0.7480314960629921,
        "noteName": "G3",
        "duration": "73i"
      },
      {
        "time": "45952i",
        "midiNote": 54,
        "velocity": 0.6456692913385826,
        "noteName": "F#3",
        "duration": "167i"
      },
      {
        "time": "46016i",
        "midiNote": 50,
        "velocity": 0.6456692913385826,
        "noteName": "D3",
        "duration": "251i"
      },
      {
        "time": "46016i",
        "midiNote": 59,
        "velocity": 0.6456692913385826,
        "noteName": "B3",
        "duration": "103i"
      },
      {
        "time": "46016i",
        "midiNote": 64,
        "velocity": 0.6456692913385826,
        "noteName": "E4",
        "duration": "103i"
      },
      {
        "time": "46080i",
        "midiNote": 43,
        "velocity": 0.6141732283464567,
        "noteName": "G2",
        "duration": "190i"
      },
      {
        "time": "46144i",
        "midiNote": 59,
        "velocity": 0.7165354330708661,
        "noteName": "B3",
        "duration": "195i"
      },
      {
        "time": "46144i",
        "midiNote": 62,
        "velocity": 0.6929133858267716,
        "noteName": "D4",
        "duration": "196i"
      },
      {
        "time": "46336i",
        "midiNote": 45,
        "velocity": 0.6299212598425197,
        "noteName": "A2",
        "duration": "190i"
      },
      {
        "time": "46336i",
        "midiNote": 52,
        "velocity": 0.5590551181102362,
        "noteName": "E3",
        "duration": "191i"
      },
      {
        "time": "46400i",
        "midiNote": 61,
        "velocity": 0.6692913385826772,
        "noteName": "C#4",
        "duration": "203i"
      },
      {
        "time": "46400i",
        "midiNote": 64,
        "velocity": 0.6456692913385826,
        "noteName": "E4",
        "duration": "208i"
      },
      {
        "time": "46592i",
        "midiNote": 42,
        "velocity": 0.6141732283464567,
        "noteName": "F#2",
        "duration": "147i"
      },
      {
        "time": "46656i",
        "midiNote": 49,
        "velocity": 0.5826771653543307,
        "noteName": "C#3",
        "duration": "93i"
      },
      {
        "time": "46720i",
        "midiNote": 54,
        "velocity": 0.6929133858267716,
        "noteName": "F#3",
        "duration": "67i"
      },
      {
        "time": "46720i",
        "midiNote": 62,
        "velocity": 0.8188976377952756,
        "noteName": "D4",
        "duration": "47i"
      },
      {
        "time": "46752i",
        "midiNote": 64,
        "velocity": 0.6929133858267716,
        "noteName": "E4",
        "duration": "228i"
      },
      {
        "time": "46784i",
        "midiNote": 43,
        "velocity": 0.5748031496062992,
        "noteName": "G2",
        "duration": "297i"
      },
      {
        "time": "46784i",
        "midiNote": 50,
        "velocity": 0.6299212598425197,
        "noteName": "D3",
        "duration": "295i"
      },
      {
        "time": "46784i",
        "midiNote": 59,
        "velocity": 0.6929133858267716,
        "noteName": "B3",
        "duration": "189i"
      },
      {
        "time": "46976i",
        "midiNote": 55,
        "velocity": 0.5354330708661418,
        "noteName": "G3",
        "duration": "92i"
      },
      {
        "time": "46976i",
        "midiNote": 59,
        "velocity": 0.5275590551181102,
        "noteName": "B3",
        "duration": "93i"
      },
      {
        "time": "46976i",
        "midiNote": 62,
        "velocity": 0.5748031496062992,
        "noteName": "D4",
        "duration": "95i"
      },
      {
        "time": "47104i",
        "midiNote": 43,
        "velocity": 0.6141732283464567,
        "noteName": "G2",
        "duration": "127i"
      },
      {
        "time": "47104i",
        "midiNote": 50,
        "velocity": 0.6141732283464567,
        "noteName": "D3",
        "duration": "127i"
      },
      {
        "time": "47168i",
        "midiNote": 57,
        "velocity": 0.6456692913385826,
        "noteName": "A3",
        "duration": "119i"
      },
      {
        "time": "47232i",
        "midiNote": 59,
        "velocity": 0.5826771653543307,
        "noteName": "B3",
        "duration": "56i"
      },
      {
        "time": "47232i",
        "midiNote": 62,
        "velocity": 0.5826771653543307,
        "noteName": "D4",
        "duration": "57i"
      },
      {
        "time": "47232i",
        "midiNote": 67,
        "velocity": 0.6929133858267716,
        "noteName": "G4",
        "duration": "59i"
      },
      {
        "time": "47296i",
        "midiNote": 45,
        "velocity": 0.6299212598425197,
        "noteName": "A2",
        "duration": "275i"
      },
      {
        "time": "47296i",
        "midiNote": 52,
        "velocity": 0.5826771653543307,
        "noteName": "E3",
        "duration": "287i"
      },
      {
        "time": "47424i",
        "midiNote": 61,
        "velocity": 0.6456692913385826,
        "noteName": "C#4",
        "duration": "176i"
      },
      {
        "time": "47424i",
        "midiNote": 64,
        "velocity": 0.6141732283464567,
        "noteName": "E4",
        "duration": "178i"
      },
      {
        "time": "47424i",
        "midiNote": 69,
        "velocity": 0.6456692913385826,
        "noteName": "A4",
        "duration": "179i"
      },
      {
        "time": "47616i",
        "midiNote": 49,
        "velocity": 0.7165354330708661,
        "noteName": "C#3",
        "duration": "169i"
      },
      {
        "time": "47680i",
        "midiNote": 57,
        "velocity": 0.6456692913385826,
        "noteName": "A3",
        "duration": "128i"
      },
      {
        "time": "47744i",
        "midiNote": 61,
        "velocity": 0.5984251968503937,
        "noteName": "C#4",
        "duration": "41i"
      },
      {
        "time": "47744i",
        "midiNote": 64,
        "velocity": 0.6141732283464567,
        "noteName": "E4",
        "duration": "64i"
      },
      {
        "time": "47744i",
        "midiNote": 69,
        "velocity": 0.7165354330708661,
        "noteName": "A4",
        "duration": "58i"
      },
      {
        "time": "47808i",
        "midiNote": 50,
        "velocity": 0.7165354330708661,
        "noteName": "D3",
        "duration": "289i"
      },
      {
        "time": "47808i",
        "midiNote": 57,
        "velocity": 0.44881889763779526,
        "noteName": "A3",
        "duration": "99i"
      },
      {
        "time": "47808i",
        "midiNote": 62,
        "velocity": 0.6929133858267716,
        "noteName": "D4",
        "duration": "103i"
      },
      {
        "time": "47808i",
        "midiNote": 64,
        "velocity": 0.3937007874015748,
        "noteName": "E4",
        "duration": "99i"
      },
      {
        "time": "47936i",
        "midiNote": 57,
        "velocity": 0.6299212598425197,
        "noteName": "A3",
        "duration": "147i"
      },
      {
        "time": "47936i",
        "midiNote": 62,
        "velocity": 0.6299212598425197,
        "noteName": "D4",
        "duration": "149i"
      },
      {
        "time": "47936i",
        "midiNote": 66,
        "velocity": 0.6692913385826772,
        "noteName": "F#4",
        "duration": "148i"
      },
      {
        "time": "48128i",
        "midiNote": 48,
        "velocity": 0.5826771653543307,
        "noteName": "C3",
        "duration": "433i"
      },
      {
        "time": "48128i",
        "midiNote": 55,
        "velocity": 0.7165354330708661,
        "noteName": "G3",
        "duration": "483i"
      },
      {
        "time": "48192i",
        "midiNote": 60,
        "velocity": 0.6692913385826772,
        "noteName": "C4",
        "duration": "421i"
      },
      {
        "time": "48256i",
        "midiNote": 62,
        "velocity": 0.6456692913385826,
        "noteName": "D4",
        "duration": "72i"
      },
      {
        "time": "48320i",
        "midiNote": 64,
        "velocity": 0.6456692913385826,
        "noteName": "E4",
        "duration": "291i"
      },
      {
        "time": "48640i",
        "midiNote": 45,
        "velocity": 0.7165354330708661,
        "noteName": "A2",
        "duration": "425i"
      },
      {
        "time": "48704i",
        "midiNote": 55,
        "velocity": 0.6456692913385826,
        "noteName": "G3",
        "duration": "354i"
      },
      {
        "time": "48768i",
        "midiNote": 59,
        "velocity": 0.6299212598425197,
        "noteName": "B3",
        "duration": "289i"
      },
      {
        "time": "48832i",
        "midiNote": 67,
        "velocity": 0.6456692913385826,
        "noteName": "G4",
        "duration": "231i"
      },
      {
        "time": "49152i",
        "midiNote": 50,
        "velocity": 0.7165354330708661,
        "noteName": "D3",
        "duration": "777i"
      },
      {
        "time": "49152i",
        "midiNote": 57,
        "velocity": 0.7480314960629921,
        "noteName": "A3",
        "duration": "770i"
      },
      {
        "time": "49152i",
        "midiNote": 62,
        "velocity": 0.6456692913385826,
        "noteName": "D4",
        "duration": "765i"
      },
      {
        "time": "49152i",
        "midiNote": 66,
        "velocity": 0.6299212598425197,
        "noteName": "F#4",
        "duration": "767i"
      },
      {
        "time": "49152i",
        "midiNote": 69,
        "velocity": 0.6929133858267716,
        "noteName": "A4",
        "duration": "763i"
      }
    ],
    [
      {
        "time": "9216i",
        "midiNote": 87,
        "velocity": 0.5748031496062992,
        "noteName": "D#6",
        "duration": "95i"
      },
      {
        "time": "9312i",
        "midiNote": 90,
        "velocity": 0.4645669291338583,
        "noteName": "F#6",
        "duration": "96i"
      },
      {
        "time": "9408i",
        "midiNote": 89,
        "velocity": 0.4645669291338583,
        "noteName": "F6",
        "duration": "122i"
      },
      {
        "time": "9536i",
        "midiNote": 85,
        "velocity": 0.44881889763779526,
        "noteName": "C#6",
        "duration": "189i"
      },
      {
        "time": "9728i",
        "midiNote": 84,
        "velocity": 0.4409448818897638,
        "noteName": "C6",
        "duration": "236i"
      },
      {
        "time": "10240i",
        "midiNote": 82,
        "velocity": 0.3700787401574803,
        "noteName": "A#5",
        "duration": "220i"
      },
      {
        "time": "21504i",
        "midiNote": 87,
        "velocity": 0.5748031496062992,
        "noteName": "D#6",
        "duration": "95i"
      },
      {
        "time": "21600i",
        "midiNote": 90,
        "velocity": 0.4645669291338583,
        "noteName": "F#6",
        "duration": "96i"
      },
      {
        "time": "21696i",
        "midiNote": 89,
        "velocity": 0.4645669291338583,
        "noteName": "F6",
        "duration": "122i"
      },
      {
        "time": "21824i",
        "midiNote": 85,
        "velocity": 0.44881889763779526,
        "noteName": "C#6",
        "duration": "189i"
      },
      {
        "time": "22016i",
        "midiNote": 84,
        "velocity": 0.4409448818897638,
        "noteName": "C6",
        "duration": "236i"
      },
      {
        "time": "22528i",
        "midiNote": 82,
        "velocity": 0.3700787401574803,
        "noteName": "A#5",
        "duration": "220i"
      },
      {
        "time": "38784i",
        "midiNote": 87,
        "velocity": 0.5354330708661418,
        "noteName": "D#6",
        "duration": "63i"
      },
      {
        "time": "38848i",
        "midiNote": 89,
        "velocity": 0.5275590551181102,
        "noteName": "F6",
        "duration": "66i"
      },
      {
        "time": "38912i",
        "midiNote": 90,
        "velocity": 0.5590551181102362,
        "noteName": "F#6",
        "duration": "324i"
      },
      {
        "time": "39232i",
        "midiNote": 89,
        "velocity": 0.5196850393700787,
        "noteName": "F6",
        "duration": "71i"
      },
      {
        "time": "39296i",
        "midiNote": 87,
        "velocity": 0.5748031496062992,
        "noteName": "D#6",
        "duration": "75i"
      },
      {
        "time": "39360i",
        "midiNote": 85,
        "velocity": 0.5354330708661418,
        "noteName": "C#6",
        "duration": "59i"
      },
      {
        "time": "39424i",
        "midiNote": 80,
        "velocity": 0.49606299212598426,
        "noteName": "G#5",
        "duration": "439i"
      }
    ]
  ],
  "transport": {
    "bpm": 95.00224838654515,
    "instruments": [
      34,
      90,
      82,
      26,
      6,
      79,
      0
    ],
    "timeSignature": [
      4,
      4
    ],
    "trackNames": [
      "drum 26",
      "34",
      "90",
      "82",
      "26",
      "6",
      "79"
    ]
  }
}
